<svg id="Layer_1" data-name="Layer 1" xmlns="http://www.w3.org/2000/svg" xmlns:xlink="http://www.w3.org/1999/xlink" width="531.12" height="113.51" viewBox="0 0 531.12 113.51"><defs><style>.cls-1{fill:none;}.cls-2{clip-path:url(#clip-path);}.cls-3{fill:#dde4ee;}.cls-4{fill:#010101;}</style><clipPath id="clip-path"><rect class="cls-1" width="531.12" height="113.51"/></clipPath></defs><g class="cls-2"><path class="cls-3" d="M7.8,15.44H25.32v97.2H7.8Z"/><path class="cls-3" d="M39.24,43.28H55.56v6.84C60.48,45.44,66,42.2,72.36,42.2c8.4,0,11.76,7.2,11.76,15.24v55.2H67.8v-52c0-4.2-1-6.48-4.68-6.48-2.28,0-4.92,1.44-7.56,3.36v55.08H39.24Z"/><path class="cls-3" d="M96.36,15.44h16.32V50c4.92-4.92,10.56-7.8,17.16-7.8,8.28,0,11.52,7.2,11.52,15.24v55.2h-16.2v-52c0-4.2-1-6.48-4.68-6.48-2.4,0-5.16,1.44-7.8,3.48v55H96.36Z"/><path class="cls-3" d="M152.16,88.28V67.64c0-16.68,7-25.44,22.32-25.44C190.8,42.2,196,51.8,196,68.72v10h-27.6V92.36c0,6.84,2,9.6,6.24,9.6s5.88-3,5.88-9V87.08h15.36v4.8c0,14-7.08,21.84-21.36,21.84C158.88,113.72,152.16,104.72,152.16,88.28Zm28.32-17.64V64c0-7-1.44-10.08-6-10.08s-6.12,2.76-6.12,11.88v4.8Z"/><path class="cls-3" d="M207.36,43.28h16.32V54c4.68-8.16,9.24-11.52,15.12-11.52a9.41,9.41,0,0,1,2.52.24V59.6a19.09,19.09,0,0,0-6.72-1.44c-4.32,0-7.8,2-10.92,6.72v47.76H207.36Z"/><path class="cls-3" d="M249.84,18.68h16.32V32.24H249.84Zm0,24.6h16.32v69.36H249.84Z"/><path class="cls-3" d="M281.88,95.36V54h-7V43.28h7V22.52h16.43V43.28h10.44V54H298.31v40c0,4.68,2,6.6,6.24,6.6a23.17,23.17,0,0,0,5-.48v12.6a62.17,62.17,0,0,1-10.44.84C285.84,113.48,281.88,106.64,281.88,95.36Z"/><path class="cls-3" d="M317.39,97.28c0-17.28,14-22.56,28-27.72v-6c0-5.88-.84-9.24-5.52-9.24-4.2,0-5.64,3.12-5.76,7.68l-.24,4.2-15.48-.6c.48-16,7.68-23.4,22.8-23.4,13.92,0,20,8.16,20,21.36v32a126.48,126.48,0,0,0,1.2,17H347.75c-.6-3.12-1.44-8-1.68-10-1.68,5.52-6,11-13.68,11C323,113.72,317.39,105.32,317.39,97.28Zm28-.24V77.6c-7.2,4.2-12.6,8.16-12.6,15.72,0,5.16,2,8.28,5.64,8.28C341.51,101.6,344.15,98.84,345.35,97Z"/><path class="cls-3" d="M373.19,43.28h16.32v6.84c4.92-4.68,10.44-7.92,16.8-7.92,8.4,0,11.76,7.2,11.76,15.24v55.2H401.75v-52c0-4.2-1-6.48-4.68-6.48-2.28,0-4.92,1.44-7.56,3.36v55.08H373.19Z"/><path class="cls-3" d="M428.75,88.4V67.52c0-16,6.24-25.32,22.2-25.32,14.88,0,21.24,7.2,21.24,21.36v5.76H456.83V63.2c0-7.2-1.56-9.48-5.76-9.48-4.68,0-6,2.88-6,11.76V90.92c0,8.88,1.8,11.28,6,11.28,4.68,0,5.76-3.24,5.76-9.36V85.4h15.36V92c0,14-6.48,21.72-21.24,21.72C434.87,113.72,428.75,104,428.75,88.4Z"/><path class="cls-3" d="M481.67,88.28V67.64c0-16.68,7-25.44,22.32-25.44,16.32,0,21.48,9.6,21.48,26.52v10h-27.6V92.36c0,6.84,2,9.6,6.24,9.6S510,99,510,93V87.08h15.36v4.8c0,14-7.08,21.84-21.36,21.84C488.39,113.72,481.67,104.72,481.67,88.28ZM510,70.64V64c0-7-1.44-10.08-6-10.08s-6.12,2.76-6.12,11.88v4.8Z"/></g><path class="cls-4" d="M6.55,64h5.69l5.83,29.16H13.14L12,86.45H6.91L5.72,93.18h-5Zm4.86,19-2-12.23-2,12.23Z"/><path class="cls-4" d="M25.59,91.63v1.55H20.73V64h4.86V74a6.14,6.14,0,0,1,4.25-1.91c3.74,0,4.61,4,4.61,7v7c0,4.14-1.33,7.45-4.82,7.45A6,6,0,0,1,25.59,91.63Zm4-5.4V78.75c0-1.88-.32-3.42-1.8-3.42a3.62,3.62,0,0,0-2.16.86V89.36a3.68,3.68,0,0,0,2.16.72C29.3,90.08,29.55,88.36,29.55,86.23Z"/><path class="cls-4" d="M37.47,86.27v-7c0-4.61,2.13-7.24,6.66-7.24s6.7,2.63,6.7,7.24v7c0,4.61-2.16,7.23-6.7,7.23S37.47,90.88,37.47,86.27Zm8.54.36V79c0-1.94-.19-3.53-1.84-3.53S42.3,77,42.3,79v7.67c0,1.91.18,3.49,1.87,3.49S46,88.57,46,86.63Z"/><path class="cls-4" d="M54.07,88.93V72.37h4.86V88c0,1.23.32,2,1.44,2a4.17,4.17,0,0,0,2.19-1V72.37h4.9V93.18h-4.9v-2a7.27,7.27,0,0,1-5,2.3C55,93.5,54.07,91.34,54.07,88.93Z"/><path class="cls-4" d="M72.07,88V75.58H70V72.37h2.09V66.15H77v6.22h3.13v3.21H77v12c0,1.41.61,2,1.87,2a6.73,6.73,0,0,0,1.51-.14v3.78a19,19,0,0,1-3.13.25C73.26,93.43,72.07,91.38,72.07,88Z"/><path class="cls-4" d="M91.68,75.36h1.67V93.18H91.68Z"/><path class="cls-4" d="M96.18,80.46h1.61v1.32a4.26,4.26,0,0,1,3.06-1.52c1.25,0,2,1,2,2.71V93.18H101.2V83.32c0-1.32-.39-1.8-1.21-1.8a3.31,3.31,0,0,0-2.2,1.19V93.18H96.18Z"/><path class="cls-4" d="M105.21,75.36h1.6V81.8a4.3,4.3,0,0,1,3.1-1.54c1.26,0,2,1,2,2.71V93.18h-1.63V83.32c0-1.32-.39-1.8-1.21-1.8a3.41,3.41,0,0,0-2.22,1.21V93.18h-1.6Z"/><path class="cls-4" d="M114,88.41V85.19c0-3.76,1.1-4.93,3.45-4.93,2.66,0,3.3,1.68,3.3,5.26v1.15h-5.15v2.22c0,2.49.53,3.28,1.83,3.28,1,0,1.74-.44,1.74-2.44v-.88h1.56v.7c0,2.31-.84,3.83-3.3,3.83S114,92.1,114,88.41Zm5.17-2.67v-1c0-2-.18-3.22-1.74-3.22-1.32,0-1.83.71-1.83,3.42v.85Z"/><path class="cls-4" d="M123.05,80.46h1.62V82.2a3.51,3.51,0,0,1,2.93-1.87,1.62,1.62,0,0,1,.29,0v1.72a2.68,2.68,0,0,0-3.22,1.34v9.77h-1.62Z"/><path class="cls-4" d="M129.65,76.52h1.6V78.7h-1.6Zm0,3.94h1.6V93.18h-1.6Z"/><path class="cls-4" d="M134.68,90.54v-9h-1.56V80.46h1.56V76.52h1.61v3.94h2.11v1.06h-2.11v8.87c0,1.23.18,1.69,1.12,1.69a4.52,4.52,0,0,0,.93-.11V93.2a7.21,7.21,0,0,1-1.37.13C135.1,93.33,134.68,92.17,134.68,90.54Z"/><path class="cls-4" d="M139.77,90.54c0-2.55,1.38-3.41,5.12-5.08v-.9c0-2.32-.37-3.09-1.58-3.09-1,0-1.78.51-1.78,2.18v.44l-1.59,0c0-2.57,1-3.81,3.46-3.81,2.26,0,3.1,1.35,3.1,4.21v6.18c0,.66,0,2.07.11,2.53h-1.43c-.07-.55-.2-1.36-.24-1.76a2.78,2.78,0,0,1-2.62,2A2.62,2.62,0,0,1,139.77,90.54Zm5.12,0v-4c-2.51,1.32-3.52,1.87-3.52,3.6,0,1.35.68,1.87,1.45,1.87A2.58,2.58,0,0,0,144.89,90.5Z"/><path class="cls-4" d="M148.85,80.46h1.61v1.32a4.24,4.24,0,0,1,3.06-1.52c1.25,0,1.95,1,1.95,2.71V93.18h-1.6V83.32c0-1.32-.4-1.8-1.21-1.8a3.31,3.31,0,0,0-2.2,1.19V93.18h-1.61Z"/><path class="cls-4" d="M157.61,88.36v-3c0-3.52.68-5.13,3.41-5.13s3.23,1.65,3.23,4.07V85h-1.49v-.62c0-2.22-.46-2.86-1.74-2.86-1.52,0-1.81,1-1.81,3.66v3.56c0,2.55.38,3.48,1.83,3.48s1.72-1,1.72-3.06v-.7h1.49V89c0,2.58-.48,4.36-3.23,4.36C158.05,93.38,157.61,91.24,157.61,88.36Z"/><path class="cls-4" d="M166.17,88.41V85.19c0-3.76,1.1-4.93,3.45-4.93,2.66,0,3.3,1.68,3.3,5.26v1.15h-5.15v2.22c0,2.49.53,3.28,1.83,3.28,1,0,1.74-.44,1.74-2.44v-.88h1.56v.7c0,2.31-.84,3.83-3.3,3.83S166.17,92.1,166.17,88.41Zm5.17-2.67v-1c0-2-.18-3.22-1.74-3.22-1.32,0-1.83.71-1.83,3.42v.85Z"/></svg>