<svg id="Layer_1" data-name="Layer 1" xmlns="http://www.w3.org/2000/svg" xmlns:xlink="http://www.w3.org/1999/xlink" width="251.12" height="113.51" viewBox="0 0 251.12 113.51"><defs><style>.cls-1{fill:none;}.cls-2{clip-path:url(#clip-path);}.cls-3{fill:#dde4ee;}.cls-4{fill:#010101;}</style><clipPath id="clip-path"><rect class="cls-1" width="251.12" height="113.51"/></clipPath></defs><g class="cls-2"><path class="cls-3" d="M21.84,15.44h19l19.44,97.19H43.8L40,90.19H23l-4,22.44H2.4ZM38,78.91l-6.6-40.8-6.6,40.8Z"/><path class="cls-3" d="M65.28,95.35,77.4,90.67c1.8,7.56,5,11.64,10.08,11.64,3.72,0,5.76-2,5.76-5.4,0-3.84-2-6.36-7.68-11l-8.28-7.2C71,73.51,67,68.71,67,60.31c0-11.16,8.52-18.12,19.68-18.12s18,7.32,20,18L96,64.75C94.8,59,92,53.83,87.12,53.83a5.23,5.23,0,0,0-5.52,5.52c0,2.64,2.4,5.52,6.72,9.12l8.4,7.68C102.24,81,108,86.47,108,95.35c0,12.12-9,18.36-20.28,18.36C76,113.71,68.4,107.35,65.28,95.35Z"/><path class="cls-3" d="M113.28,95.35l12.12-4.68c1.8,7.56,5,11.64,10.08,11.64,3.72,0,5.76-2,5.76-5.4,0-3.84-2-6.36-7.68-11l-8.28-7.2C119,73.51,115,68.71,115,60.31c0-11.16,8.52-18.12,19.68-18.12s18,7.32,20,18L144,64.75c-1.2-5.76-4-10.92-8.88-10.92a5.23,5.23,0,0,0-5.52,5.52c0,2.64,2.4,5.52,6.72,9.12l8.39,7.68C150.24,81,156,86.47,156,95.35c0,12.12-9,18.36-20.28,18.36C124,113.71,116.4,107.35,113.28,95.35Z"/><path class="cls-3" d="M163.56,88.27V67.63c0-16.68,6.95-25.44,22.31-25.44,16.32,0,21.48,9.6,21.48,26.52v10H179.76V92.35c0,6.84,2,9.6,6.23,9.6s5.88-3,5.88-9V87.07h15.36v4.8c0,14-7.08,21.84-21.36,21.84C170.28,113.71,163.56,104.71,163.56,88.27Zm28.31-17.64V64c0-7-1.44-10.08-6-10.08s-6.11,2.76-6.11,11.88v4.8Z"/><path class="cls-3" d="M221.16,95.35V54h-7V43.28h7V22.52h16.43V43.28H248V54H237.59v40c0,4.68,2,6.6,6.24,6.6a23.17,23.17,0,0,0,5-.48v12.6a62.17,62.17,0,0,1-10.44.84C225.12,113.47,221.16,106.63,221.16,95.35Z"/></g><path class="cls-4" d="M6.55,64h5.69l5.83,29.15H13.14L12,86.44H6.91L5.72,93.17h-5Zm4.86,19-2-12.24-2,12.24Z"/><path class="cls-4" d="M19.58,88l3.64-1.4c.54,2.26,1.51,3.49,3,3.49A1.53,1.53,0,0,0,28,88.46c0-1.15-.61-1.91-2.3-3.31L23.18,83c-1.87-1.55-3.09-3-3.09-5.51,0-3.35,2.55-5.44,5.9-5.44s5.4,2.2,6,5.4l-3.2,1.37c-.36-1.73-1.19-3.27-2.67-3.27a1.56,1.56,0,0,0-1.65,1.65c0,.79.72,1.66,2,2.74L29,82.23c1.66,1.44,3.39,3.1,3.39,5.76,0,3.64-2.7,5.51-6.09,5.51S20.52,91.59,19.58,88Z"/><path class="cls-4" d="M34,88l3.64-1.4c.54,2.26,1.51,3.49,3,3.49a1.53,1.53,0,0,0,1.73-1.62c0-1.15-.61-1.91-2.3-3.31L37.58,83c-1.87-1.55-3.09-3-3.09-5.51,0-3.35,2.55-5.44,5.9-5.44s5.4,2.2,6,5.4l-3.2,1.37c-.36-1.73-1.19-3.27-2.67-3.27a1.56,1.56,0,0,0-1.65,1.65c0,.79.72,1.66,2,2.74l2.52,2.3c1.66,1.44,3.39,3.1,3.39,5.76,0,3.64-2.7,5.51-6.09,5.51S34.92,91.59,34,88Z"/><path class="cls-4" d="M49.07,85.87V79.68c0-5,2.08-7.64,6.69-7.64,4.9,0,6.44,2.88,6.44,8v3H53.93v4.1c0,2,.61,2.88,1.87,2.88s1.76-.9,1.76-2.7V85.51h4.61V87c0,4.21-2.12,6.55-6.41,6.55C51.08,93.5,49.07,90.8,49.07,85.87Zm8.49-5.3v-2c0-2.09-.43-3-1.8-3s-1.83.83-1.83,3.57v1.43Z"/><path class="cls-4" d="M66.35,88V75.57H64.26v-3.2h2.09V66.14h4.93v6.23h3.13v3.2H71.28v12c0,1.4.61,2,1.87,2a6.85,6.85,0,0,0,1.51-.15v3.78a18,18,0,0,1-3.13.26C67.53,93.43,66.35,91.37,66.35,88Z"/><path class="cls-4" d="M85.71,88.31v-13h1.63v13c0,2.08.53,3.69,2.92,3.69s2.93-1.61,2.93-3.69v-13H94.8v13c0,3-1,5.08-4.54,5.08S85.71,91.28,85.71,88.31Z"/><path class="cls-4" d="M98.12,90.53v-9H96.56V80.46h1.56V76.52h1.6v3.94h2.12v1.05H99.72v8.87c0,1.23.18,1.69,1.13,1.69a4.5,4.5,0,0,0,.92-.11v1.23a7.14,7.14,0,0,1-1.36.14C98.54,93.33,98.12,92.16,98.12,90.53Z"/><path class="cls-4" d="M103.73,76.52h1.61v2.17h-1.61Zm0,3.94h1.61V93.17h-1.61Z"/><path class="cls-4" d="M108.26,75.35h1.61V93.17h-1.61Z"/><path class="cls-4" d="M112.66,76.52h1.61v2.17h-1.61Zm0,3.94h1.61V93.17h-1.61Z"/><path class="cls-4" d="M116.44,92.05l4.34-10.36h-3.87V80.46h5.56v1l-4.31,10.52h4.25v1.23h-6Z"/><path class="cls-4" d="M124,90.53c0-2.55,1.38-3.41,5.12-5.08v-.9c0-2.31-.37-3.08-1.58-3.08-1,0-1.78.5-1.78,2.18v.44l-1.59,0c0-2.57,1-3.8,3.46-3.8,2.26,0,3.1,1.34,3.1,4.2v6.18c0,.66,0,2.07.11,2.53h-1.43c-.07-.55-.2-1.36-.24-1.76a2.78,2.78,0,0,1-2.62,2A2.61,2.61,0,0,1,124,90.53Zm5.12,0v-4c-2.51,1.32-3.52,1.87-3.52,3.61,0,1.34.68,1.87,1.45,1.87A2.59,2.59,0,0,0,129.07,90.49Z"/><path class="cls-4" d="M133.67,90.53v-9h-1.56V80.46h1.56V76.52h1.61v3.94h2.11v1.05h-2.11v8.87c0,1.23.17,1.69,1.12,1.69a4.5,4.5,0,0,0,.92-.11v1.23a7.14,7.14,0,0,1-1.36.14C134.09,93.33,133.67,92.16,133.67,90.53Z"/><path class="cls-4" d="M139.28,76.52h1.61v2.17h-1.61Zm0,3.94h1.61V93.17h-1.61Z"/><path class="cls-4" d="M143.35,88.57V85.05c0-3,.75-4.79,3.39-4.79s3.41,1.71,3.41,4.79v3.52c0,3.08-.75,4.8-3.41,4.8S143.35,91.65,143.35,88.57Zm5.17.09V85c0-2.07-.11-3.5-1.78-3.5S145,82.9,145,85v3.69c0,2.07.11,3.5,1.76,3.5S148.52,90.73,148.52,88.66Z"/><path class="cls-4" d="M152.37,80.46H154v1.32A4.24,4.24,0,0,1,157,80.26c1.26,0,2,1,2,2.7V93.17h-1.6V83.32c0-1.32-.4-1.81-1.21-1.81A3.36,3.36,0,0,0,154,82.7V93.17h-1.61Z"/></svg>