<svg xmlns="http://www.w3.org/2000/svg" width="420" height="60.773" viewBox="0 0 420 60.773"><g transform="translate(-2175.311 -4415.391)"><path d="M2177.725,4458.987a2.094,2.094,0,1,0,2.039,3.658l61.748-34.412a2.095,2.095,0,1,0-2.04-3.66Z" fill="#598040"/><path d="M2236.98,4420.368a2.1,2.1,0,0,0-2.851-.81l-57.745,32.184a2.1,2.1,0,0,0-.81,2.848h0a2.1,2.1,0,0,0,2.849.81l57.747-32.184a2.1,2.1,0,0,0,.81-2.848Z" fill="#aa4e42"/><path d="M2245.016,4435.33s-.274-5.1-4.284-2.867l-.057.033-56.739,31.62-.162.091c-4.009,2.235.187,5.151.187,5.151l.125.094c4.487,3.3,10.388,5.036,16.866,5.116l.14,0a.755.755,0,0,0,.788-.755l-.006-.1.033-9.5v-.039a1.493,1.493,0,0,1,.689-1.169l.039-.022,12.8-7.135.041-.023a1.514,1.514,0,0,1,1.36.02l.028.017,12.812,7.65.032.02a1.147,1.147,0,0,0,1.263-.1l.024-.015c9.558-7.911,14.822-18.544,14.021-28.036Z" fill="#426396"/><path d="M2226.8,4416.175c-8.806-1.941-19.573-.307-29.544,5.25s-17.025,13.853-20,22.365c0,0-1.419,4.662,3.56,1.886l45.721-25.48C2231.509,4417.422,2226.8,4416.175,2226.8,4416.175Z" fill="#426396"/><path d="M2204.707,4471.885h2.039a1.808,1.808,0,0,0,.453.866,2.7,2.7,0,0,0,.982.361,2.9,2.9,0,0,0,1.359-.036c.5-.144.781-.384.83-.722q.075-.684-1.057-.936l-2.265-.47a2.7,2.7,0,0,1-1.888-1.047,1.513,1.513,0,0,1,.529-2.2,4.527,4.527,0,0,1,2.568-.865,5.02,5.02,0,0,1,2.567.5,2.312,2.312,0,0,1,1.434,1.874h-1.963q-.151-.936-1.359-1.118a2.563,2.563,0,0,0-1.285.108q-.753.288-.6.867a.6.6,0,0,0,.378.5q.452.111,1.132.253l2.039.469q1.662.362,1.812,1.587a1.809,1.809,0,0,1-1.359,2.092,6.711,6.711,0,0,1-3.851.288A2.637,2.637,0,0,1,2204.707,4471.885Z" fill="#251e1c"/><path d="M2222.473,4474.311v-7.393h2.485l3.688,4.615v-4.615h2.245v7.393h-2.245l-3.927-4.76v4.76Z" fill="#251e1c"/><path d="M2219.3,4474.311h2.7l-3.566-7.393h-2.782l-3.653,7.393h2.7l.6-1.379h3.475Zm-2.261-5.374,1.13,2.668h-2.26Z" fill="#251e1c"/><path d="M2243.53,4470.367a3.634,3.634,0,0,0-1.205-2.651,4.387,4.387,0,0,0-3.118-1.06,4.276,4.276,0,0,0-3.119,1.174,3.852,3.852,0,0,0-1.134,2.842,3.73,3.73,0,0,0,1.275,2.916,4.995,4.995,0,0,0,6.237-.227A3.584,3.584,0,0,0,2243.53,4470.367Zm-4.288,2.668a2.422,2.422,0,1,1,2.422-2.421A2.421,2.421,0,0,1,2239.242,4473.035Z" fill="#251e1c"/><rect width="2.684" height="1.113" transform="translate(2231.629 4470.058)" fill="#251e1c"/><path d="M2298.4,4436.4h-26.592s-3.1-.177-3.517,1.056-3.813,7.982.537,7.982h25.158a2.757,2.757,0,0,0,1.97-1.643c.355-1.292-.062-1.936,1.131-2.994S2300.781,4436.4,2298.4,4436.4Z" fill="#251e1c"/><path d="M2295.358,4450.893H2268.77s-3.1-.175-3.518,1.055-3.815,7.983.537,7.983h25.158a2.742,2.742,0,0,0,1.965-1.645c.36-1.291-.056-1.937,1.134-2.993S2297.742,4450.893,2295.358,4450.893Z" fill="#251e1c"/><path d="M2292.079,4465.327h-26.588s-3.1-.171-3.517,1.061-3.813,7.979.538,7.979h25.157a2.752,2.752,0,0,0,1.965-1.642c.358-1.293-.059-1.939,1.134-3S2294.463,4465.327,2292.079,4465.327Z" fill="#251e1c"/><path d="M2336.955,4436.4H2310.37s-3.1-.177-3.52,1.056-3.816,7.982.535,7.982h7.6l-.033.15a1.353,1.353,0,0,1,.723,1.571l-.449,2.016a2.306,2.306,0,0,1-1.415,1.573l-.032.149h-6.451s-3.1-.175-3.515,1.055-3.816,7.983.535,7.983h7.435l-.033.148a1.35,1.35,0,0,1,.72,1.57l-.434,1.96a2.3,2.3,0,0,1-1.413,1.569l-.033.149h-6.54s-3.1-.171-3.516,1.061-3.818,7.979.535,7.979h25.158a2.753,2.753,0,0,0,1.967-1.642c.357-1.293-.059-1.939,1.132-3s3.7-4.4,1.314-4.4h-8.7l.015-.061a1.341,1.341,0,0,1-.971-1.657l.433-1.96a2.324,2.324,0,0,1,1.7-1.656l.012-.062h6.373a2.745,2.745,0,0,0,1.967-1.645c.357-1.291-.06-1.937,1.134-2.993s3.7-4.4,1.311-4.4h-8.785l.013-.065a1.342,1.342,0,0,1-.971-1.657l.447-2.016a2.329,2.329,0,0,1,1.7-1.66l.01-.061h6.213a2.747,2.747,0,0,0,1.965-1.643c.357-1.292-.06-1.936,1.132-2.994S2339.341,4436.4,2336.955,4436.4Z" fill="#251e1c"/><path d="M2374.107,4436.07h-26.583s-3.1-.176-3.522,1.058-3.813,7.98.542,7.98h6.619l-.005.061s2.8-.237,0,1.877-11.741,9.8-11.741,9.8a2.975,2.975,0,0,0-.9,1.586c-.239,1.056-.836,4.81-.836,4.81s-1.907,5.87,3.7,1.47,6.678-5.283,6.678-5.283,1.848-1.7,1.19,1.7-2.147,10.858-2.147,10.858-.537,2.7,1.015,2.7h5.6s1.786.235,2.206-2.348,2.206-11.562,2.206-11.562.3-2.052,2.324-.234,6.02,4.988,6.02,4.988,1.728,1.879,2.507-1.289,1.548-6.868,1.548-6.868a2.521,2.521,0,0,0-1.193-2.521c-1.548-1.177-6.678-5.518-6.678-5.518a1.335,1.335,0,0,1,.416-1.645c.711-.65,2.533-2.034,3.267-2.582h3.354a2.746,2.746,0,0,0,1.965-1.641c.358-1.292-.059-1.939,1.134-3S2376.5,4436.07,2374.107,4436.07Z" fill="#251e1c"/><path d="M2401.651,4436.07a37.363,37.363,0,0,0-5.544.06l-11.5.82s-1.848-.177-2.327,2.287.357,2.407,1.134,2.466,3.934-.118,3.934-.118.594-.057.594.413a4.774,4.774,0,0,1-.236,1.173s-.062.5-1.638.559-3.7.028-3.7.028-1.1-.148-1.461,1.468-.357,2.434,1.191,2.434h4.264s.269-.088.269.352-.118,1.439-.8,1.47-4.264.026-4.264.026a2.261,2.261,0,0,0-2.177,2c-.5,2.086-1.937,9.188-1.937,9.188a1.815,1.815,0,0,0,1.937,2.464h3.55s.5-.059.446.324-.032,1.465-.983,1.465-4.682.031-4.682.031a1.247,1.247,0,0,0-1.34.76,8.075,8.075,0,0,0-.357,2.147s0,.847.774.818,4.471.029,4.471.029.776-.086.687.558-.242,1.615-.746,1.615h-4.829a1.067,1.067,0,0,0-1.164.587,10.447,10.447,0,0,0-.626,2.318s-.357.967,1.1.967H2391.7a2.233,2.233,0,0,0,1.577-.877c.419-.765,2.237-3.258,1.1-3.292s-6.11,0-6.11,0-.658-.056-.565-.584.149-1.261,1.221-1.261h4.292a1.475,1.475,0,0,0,1.1-.675c.324-.615,2.472-3.172,1.458-3.172h-6.287s-.449-.087-.27-.644.27-1.086,1.073-1.086h3.726a2.256,2.256,0,0,0,2.116-1.787c.388-1.764,2.236-9.041,2.236-9.041a4.687,4.687,0,0,1,.924-1.114c.45-.322,1.581-1.909-.478-1.909h-5.812s-.684.06-.627-.38.062-1.115.81-1.115h4.827a1.425,1.425,0,0,0,1.4-.794c.445-.908,2.026-3.519.445-3.519h-5.719s-.748.029-.691-.647-.086-1.817,1.1-1.877,4.86-.352,4.86-.352,1.4-.412,1.55-.94a3.159,3.159,0,0,1,.623-1.7S2403.559,4436.305,2401.651,4436.07Zm-17.394,22.243-.143.526a.5.5,0,0,1-.458.356h-.715a.265.265,0,0,1-.261-.356l.146-.526a.5.5,0,0,1,.451-.351H2384A.262.262,0,0,1,2384.257,4458.313Zm.834-4.637-.144.528a.5.5,0,0,1-.455.356h-.715a.263.263,0,0,1-.26-.356l.142-.528a.5.5,0,0,1,.455-.352h.714A.263.263,0,0,1,2385.091,4453.676Zm6.737,4.607-.145.528a.5.5,0,0,1-.455.351h-.714a.262.262,0,0,1-.263-.351l.144-.528a.5.5,0,0,1,.455-.35h.715A.262.262,0,0,1,2391.828,4458.283Zm.573-4.99a.265.265,0,0,1,.262.353l-.147.531a.5.5,0,0,1-.451.35h-.718a.26.26,0,0,1-.26-.35l.147-.531a.494.494,0,0,1,.449-.353Z" fill="#251e1c"/><path d="M2410.265,4436.773h-2.206a2.1,2.1,0,0,0-2.235,1.673l-.8,3.756a1,1,0,0,1-.8.558h-1.489a.813.813,0,0,0-.838.648c-.178.7-1.428,6.808-1.428,6.808a.719.719,0,0,0,.772,1c1.106,0,.3,1.878.3,1.878l-6.167,20.187s-.421,1.466.833,1.466h3.369s1.193.178,1.46-.761,6.526-21.628,6.526-21.628.242-.556.656-.586.566.234.507.618-2.533,13.173-2.533,13.173a4.966,4.966,0,0,1-1.489,1.467c-.774.381-.985,1-1.285,2.79s-.952,4.809.419,4.809h3.4s1.879.352,3.219-5.983,4.379-20.16,4.379-20.16a6.379,6.379,0,0,1,.926-2.611c.655-.709,2.474-3.082.388-3.082H2411.7s-1.163.087-.952-1.027.713-2.758,1.43-3.229,1.046-1.761-.355-1.761Z" fill="#251e1c"/><path d="M2456.582,4439.154h-10.817s-1.434.059-1.013-1.115,1.669-2.407-.594-2.407h-6.619s-.954-.175-1.373,1.175-.653,2.406-1.666,2.406h-8.763s-1.432-.411-1.97,1.584-1.309,3.757.178,3.757h1.848s1.014-.354.8.79-.388,1.849-.388,1.849a1.214,1.214,0,0,1-.833.471h-1.73s-1.314-.411-1.909,2.462-5.126,23.477-5.126,23.477a1.1,1.1,0,0,0,1.195,1.527h5.068s1.312.178,1.668-1.645,4.47-19.6,4.47-19.6.417-1.056,1.373-1.056h20.688a2.252,2.252,0,0,0,2.16-1.217c.669-1.368,1.159-2.335,1.159-2.335s1.075-1.627-.445-1.627h-2.414s-.9.13-.628-.793.628-1.982.628-1.982a1.13,1.13,0,0,1,.849-.44h1.165a1.366,1.366,0,0,0,1.07-.617c.405-.616,1.477-2.685,1.477-2.685a2.929,2.929,0,0,1,.715-.748C2457.209,4440.122,2457.615,4439.374,2456.582,4439.154Zm-13.161,5.546-.674,2.467a.506.506,0,0,1-.45.35h-8.318a.261.261,0,0,1-.26-.35l.665-2.467a.5.5,0,0,1,.459-.353h8.314A.264.264,0,0,1,2443.421,4444.7Z" fill="#251e1c"/><path d="M2451.752,4456.5h-6.266c.428-.433.967-.7.98-1.082a1.012,1.012,0,0,0-.945-1.19h-5.489a1.575,1.575,0,0,0-1.468,1.19l-.234,1.082h-2.123l.617-1.234a.885.885,0,0,0-.883-1.188h-4.213a1.685,1.685,0,0,0-1.529,1.188l-1.236,4.533a.884.884,0,0,0,.888,1.189h7.5l-.539,2.466h-6.167a1.6,1.6,0,0,0-1.436,1.191l-.538,2.111a.874.874,0,0,0,.826,1.189h6.33l-.58,2.639h-6.3a1.594,1.594,0,0,0-1.435,1.191l-.539,2.111a.875.875,0,0,0,.828,1.189h19.683a1.593,1.593,0,0,0,1.431-1.189l.543-2.111a.877.877,0,0,0-.831-1.191h-6.545c.161-.75.36-1.655.57-2.639h6.529a1.6,1.6,0,0,0,1.437-1.189l.537-2.111a.875.875,0,0,0-.826-1.191h-6.7c.193-.856.379-1.692.55-2.466h6.434a1.6,1.6,0,0,0,1.432-1.189l.537-2.111A.871.871,0,0,0,2451.752,4456.5Z" fill="#251e1c"/><path d="M2489.581,4440.951h-20.805a3.636,3.636,0,0,0-3.459,1.877c-1.072,2.114-6.732,13.091-6.732,13.091s-1.075,2.345.651,2.345h6.262a2.406,2.406,0,0,0,1.91-1.053c.655-1.058,3.1-5.756,3.1-5.756s.241-.674.805-.674h4.473s.952-.175.536.735-11.386,22.156-11.386,22.156-1.4,2.492.6,2.492h6.257s1.64.119,3.1-2.789,13.888-27.259,13.888-27.259a9.846,9.846,0,0,1,1.673-2.436C2491.193,4443.093,2492.592,4440.917,2489.581,4440.951Z" fill="#251e1c"/><path d="M2485.178,4434.59h-3.755s-.762.055-1.188,1.267-.7,2.913.225,2.913h2.561s.829-.1,1.34-1.384.424-1.276.727-1.487S2486.428,4434.59,2485.178,4434.59Z" fill="#251e1c"/><path d="M2492.244,4434.59h-3.757s-.762.055-1.186,1.267-.7,2.913.225,2.913h2.556s.829-.1,1.345-1.384.424-1.276.725-1.487S2493.5,4434.59,2492.244,4434.59Z" fill="#251e1c"/><path d="M2505.814,4436.184h-6.173a2.067,2.067,0,0,0-2.1,1.76c-.355,1.849-7.423,34.333-7.423,34.333a1.717,1.717,0,0,0,1.88,2.289h3.889s2.324.265,2.951-2.686,6.884-31.557,6.884-31.557a4.166,4.166,0,0,1,.673-1.41C2506.839,4438.387,2509.031,4436.184,2505.814,4436.184Z" fill="#251e1c"/><path d="M2521.639,4457.838l-5.5,3.215c-2.251,1.349-2.861.9-2.992.333,2.015-9.234,4.6-21.063,4.6-21.063a4.2,4.2,0,0,1,.67-1.41c.45-.526,2.639-2.729-.579-2.729h-6.17a2.066,2.066,0,0,0-2.1,1.76c-.356,1.849-7.424,34.333-7.424,34.333a1.716,1.716,0,0,0,1.878,2.289h3.891a2.473,2.473,0,0,0,.8-.08l.672-.052s6.482-3.653,8.851-5.061a7.284,7.284,0,0,0,3.086-3.7s.268-1.191,1.473-5.281S2521.639,4457.838,2521.639,4457.838Z" fill="#251e1c"/><path d="M2553.339,4450.611H2532.6s-2.175-.146-3.013,2.552-1.25,4.49-1.25,4.49-.717,2.5,1.547,2.5h20.865a3.066,3.066,0,0,0,2.417-1.321,10.621,10.621,0,0,0,1.043-2.994,8.16,8.16,0,0,1,.476-1.643C2554.918,4453.779,2558.855,4450.611,2553.339,4450.611Z" fill="#251e1c"/><path d="M2589.165,4435.009a6.156,6.156,0,0,0-4.075,1.536.671.671,0,0,0-.261.23,6.105,6.105,0,0,0-.606.706,1.653,1.653,0,0,1-.956.286h-21.761a2.453,2.453,0,0,0-2.443,2.054c-.6,2.2-1.221,5.225-1.221,5.225a1.579,1.579,0,0,0,1.638,2.168h14.785s2.113-.32.861,2-12.216,23.734-12.216,23.734-.687,1.293-.391,1.792.419,1,3.34,1h4.291s1.757.262,3.133-2.292,12.7-25.439,12.7-25.439a1.809,1.809,0,0,1,1.728-.822c.248,0,1.171-.088,1.457-.088a6.046,6.046,0,1,0,0-12.091Zm0,8.714a2.668,2.668,0,1,1,2.716-2.667A2.691,2.691,0,0,1,2589.165,4443.723Z" fill="#251e1c"/><path d="M2345.127,4419.434c.357.011.542.218.554.625a.524.524,0,0,1-.554.563h-3.894a1,1,0,0,1-.168.421c-.052.051-.108.1-.17.158a10.813,10.813,0,0,1,1.371,2.377,1.9,1.9,0,0,1,.215.154c.121.159.234.306.336.441a14.952,14.952,0,0,0,2.448-2.318.976.976,0,0,1,.6-.187.626.626,0,0,1,.554.58.778.778,0,0,1-.229.561,12.609,12.609,0,0,1-2.42,2.3.5.5,0,0,1-.107.05,28.8,28.8,0,0,0,4.171,3.658.753.753,0,0,1,.2.5.768.768,0,0,1-.617.686.984.984,0,0,1-.551-.2,21.858,21.858,0,0,1-4-3.751,7.416,7.416,0,0,1,.062,1,4.62,4.62,0,0,1-.739,2.767,2.1,2.1,0,0,1-1.848,1,8.173,8.173,0,0,1-1.967-.329.843.843,0,0,1-.574-.544.645.645,0,0,1,.68-.69.948.948,0,0,1,.23.047,7.283,7.283,0,0,0,1.739.267.977.977,0,0,0,.865-.64,4.073,4.073,0,0,0,.383-1.925,6.814,6.814,0,0,0-.092-1.125,24.741,24.741,0,0,1-3.724,2.737c-.9.427-1.889.856-2.958,1.3a1.721,1.721,0,0,0-.261.092c-.483-.021-.748-.19-.8-.5a.685.685,0,0,1,.557-.745,21.181,21.181,0,0,0,3.353-1.582,24.543,24.543,0,0,0,3.525-2.628c-.041-.1-.083-.208-.123-.313-.074-.188-.157-.385-.247-.6a22.494,22.494,0,0,1-3.371,2.16q-1.185.5-2.6,1a.771.771,0,0,0-.218.078c-.491-.02-.762-.195-.814-.514a.683.683,0,0,1,.553-.736,20.671,20.671,0,0,0,2.954-1.223,21.734,21.734,0,0,0,2.879-1.873c-.111-.178-.239-.357-.382-.547a12.838,12.838,0,0,1-1.246.748,21.775,21.775,0,0,1-3.374,1.4.544.544,0,0,1-.213.058.674.674,0,0,1-.557-.452.682.682,0,0,1,.509-.748,26.825,26.825,0,0,0,3.017-1.251,10.161,10.161,0,0,0,1.77-1.111h-3.262a.547.547,0,0,1-.557-.563c.032-.407.219-.614.557-.625Zm-4.17-3.254a.641.641,0,0,1,.677.69v.439h4.849q1.613,0,1.613,1.734a5.078,5.078,0,0,1-.261,1.5.892.892,0,0,1-.8.439.685.685,0,0,1-.553-.628.284.284,0,0,1,.044-.154,2.742,2.742,0,0,0,.248-.705,2.864,2.864,0,0,0,.093-.622c0-.263-.063-.393-.188-.393h-10.957a.343.343,0,0,0-.384.393v1.481c0,.42-.2.628-.6.628a.549.549,0,0,1-.616-.628v-1.874a1.027,1.027,0,0,1,1.158-1.171h5v-.439A.622.622,0,0,1,2340.957,4416.18Z" fill="#251e1c"/><path d="M2356.549,4418.9q3.384,0,4.862,1.206a4.424,4.424,0,0,1,1.6,3.566,4.78,4.78,0,0,1-1.34,3.438,8.156,8.156,0,0,1-4.34,2.252,26.914,26.914,0,0,1-4.956.372c-.553,0-.83-.308-.83-.935a.355.355,0,0,1,.4-.407,24.81,24.81,0,0,0,5.341-.422,6.921,6.921,0,0,0,3.34-1.751,3.7,3.7,0,0,0,.985-2.547,3.206,3.206,0,0,0-1.185-2.6,6.189,6.189,0,0,0-3.787-.892,28.011,28.011,0,0,0-6.34,1c-.166.052-.263.085-.294.092-.634,0-.954-.341-.954-1.032,0-.163.1-.275.294-.328A39.811,39.811,0,0,1,2356.549,4418.9Zm4-1.954c.165,0,.523.282,1.08.846a1.794,1.794,0,0,1,.6.876.568.568,0,0,1-.6.594.339.339,0,0,1-.28-.187,6.906,6.906,0,0,0-1.23-1.3c-.1-.073-.154-.144-.154-.218C2359.965,4417.155,2360.159,4416.95,2360.549,4416.95Zm1.4-.686c.193,0,.553.282,1.076.844a2.007,2.007,0,0,1,.541.874c-.024.4-.208.6-.555.6a.334.334,0,0,1-.307-.187,5.739,5.739,0,0,0-1.173-1.282.288.288,0,0,1-.153-.25C2361.38,4416.46,2361.57,4416.264,2361.951,4416.264Z" fill="#251e1c"/><path d="M2375.585,4416.831q.756,0,.788.674c.007.1-.07.217-.248.342a76.843,76.843,0,0,1-6.833,4.551,32.947,32.947,0,0,1-3.585,1.862q3.873,1.733,6.387,3.016a33.486,33.486,0,0,1,3.986,2.379.525.525,0,0,1,.293.452c-.021.45-.284.682-.788.7a1.19,1.19,0,0,1-.4-.3,43.564,43.564,0,0,0-6.524-3.673q-1.54-.67-4.2-1.909a.686.686,0,0,1-.446-.669q0-.5.631-.8a56.911,56.911,0,0,0,5.187-2.829,53.506,53.506,0,0,0,5.4-3.66A.59.59,0,0,1,2375.585,4416.831Z" fill="#251e1c"/><path d="M2378.065,4417.147q.892,0,.908.795a1.615,1.615,0,0,1-.107.364,16.67,16.67,0,0,0-.367,3.531c0,1.428.161,2.151.49,2.172.145,0,.261-.091.355-.282q.324-.621.968-1.782a.406.406,0,0,1,.353-.249c.411,0,.627.259.646.782a.615.615,0,0,1-.12.313c-.2.363-.536.941-.987,1.737a1.314,1.314,0,0,1-1.215.8c-.77-.009-1.286-.543-1.555-1.6a10.529,10.529,0,0,1-.214-2.452,14.957,14.957,0,0,1,.462-3.723C2377.763,4417.281,2377.89,4417.147,2378.065,4417.147Zm8.25-.377c.194,0,.348.14.465.423a12.1,12.1,0,0,1,.847,2.877,18.6,18.6,0,0,1,.243,2.923,8.416,8.416,0,0,1-1.015,4.425,6.134,6.134,0,0,1-3.051,2.532,9.21,9.21,0,0,1-3.427.578c-.5,0-.758-.288-.758-.873,0-.208.121-.322.357-.344a9.5,9.5,0,0,0,3.828-.831,5.134,5.134,0,0,0,2.126-2.17,7.183,7.183,0,0,0,.663-3.317,12.915,12.915,0,0,0-1.017-5.051.762.762,0,0,1-.139-.374C2385.437,4417.038,2385.73,4416.77,2386.315,4416.77Z" fill="#251e1c"/><path d="M2329.427,4421.668a1.9,1.9,0,0,1,1.846,1.894,1.777,1.777,0,0,1-.551,1.312,1.785,1.785,0,0,1-2.6,0,1.885,1.885,0,0,1,1.306-3.206Z" fill="#251e1c"/><path d="M2273.545,4420.679a.586.586,0,0,1,.615.564,5.213,5.213,0,0,1-.757,1.765,2.916,2.916,0,0,1-.211.343v6.9a.565.565,0,0,1-.618.563c-.4-.021-.608-.211-.615-.563V4424.6a2.393,2.393,0,0,1-.263.206.858.858,0,0,1-.616.234.709.709,0,0,1-.539-.563,1.256,1.256,0,0,1,.187-.55,5.089,5.089,0,0,0,1.477-1.2,3.979,3.979,0,0,0,.786-1.565C2273.007,4420.861,2273.194,4420.7,2273.545,4420.679Zm-.233-4.271a.586.586,0,0,1,.616.564,5.859,5.859,0,0,1-.616,1.643,6.541,6.541,0,0,1-1.353,1.626.9.9,0,0,1-.618.231.666.666,0,0,1-.552-.543,1.344,1.344,0,0,1,.168-.565,4.053,4.053,0,0,0,1.17-1.077,3.572,3.572,0,0,0,.629-1.377A.515.515,0,0,1,2273.312,4416.408Zm6.88,8.461c.359.009.551.217.57.624a.537.537,0,0,1-.57.564h-2.031v2.658q1.185-.172,2.355-.4a.61.61,0,0,1,.677.563.631.631,0,0,1-.615.623,40.919,40.919,0,0,1-6.035.751.67.67,0,0,1-.678-.514.713.713,0,0,1,.615-.689c.826-.03,1.638-.09,2.45-.171v-2.816H2274.9a.533.533,0,0,1-.554-.564c.022-.407.209-.615.554-.624h2.034v-.941a.616.616,0,1,1,1.231,0v.941Zm-.107-6.944c.35.012.533.213.554.611a.532.532,0,0,1-.554.564h-1.924v2.5h2.229c.342.018.521.235.54.642a.523.523,0,0,1-.54.561h-5.6a.541.541,0,0,1-.571-.561c.022-.407.214-.624.571-.642h2.14v-2.5h-1.91a.517.517,0,0,1-.54-.564c.011-.4.191-.6.54-.611h1.91v-1.065a.616.616,0,1,1,1.231,0v1.065Zm4.85,2.614a.571.571,0,0,1,.552.625.535.535,0,0,1-.552.564h-.6v7.52q0,1.5-1.553,1.5a6.613,6.613,0,0,1-1.648-.265,2.331,2.331,0,0,1-.324-.421c.022-.521.211-.791.57-.812a.364.364,0,0,1,.091.014,3.587,3.587,0,0,0,1.079.234.491.491,0,0,0,.553-.56v-7.208h-1.661a.541.541,0,0,1-.568-.564.576.576,0,0,1,.568-.625Zm-.357-3.679c.348.013.535.223.556.628a.534.534,0,0,1-.556.564h-2.831a.519.519,0,0,1-.554-.564q.013-.607.554-.628Z" fill="#251e1c"/><path d="M2293.656,4418.9c2.258,0,3.877.4,4.867,1.206a4.425,4.425,0,0,1,1.595,3.566,4.764,4.764,0,0,1-1.338,3.438,8.15,8.15,0,0,1-4.336,2.252,26.985,26.985,0,0,1-4.961.372c-.553,0-.829-.308-.829-.935a.356.356,0,0,1,.4-.407,24.827,24.827,0,0,0,5.341-.422,6.888,6.888,0,0,0,3.339-1.751,3.7,3.7,0,0,0,.987-2.547,3.2,3.2,0,0,0-1.188-2.6,6.176,6.176,0,0,0-3.785-.892,28.016,28.016,0,0,0-6.342,1c-.163.052-.26.085-.29.092-.637,0-.955-.341-.955-1.032,0-.163.1-.275.291-.328A39.877,39.877,0,0,1,2293.656,4418.9Zm4-1.954c.166,0,.525.282,1.08.846a1.781,1.781,0,0,1,.6.876.567.567,0,0,1-.6.594.343.343,0,0,1-.278-.187,6.91,6.91,0,0,0-1.231-1.3c-.1-.073-.156-.144-.156-.218C2297.071,4417.155,2297.266,4416.95,2297.656,4416.95Zm1.4-.686c.2,0,.554.282,1.079.844a1.961,1.961,0,0,1,.538.874c-.021.4-.2.6-.556.6a.332.332,0,0,1-.3-.187,5.72,5.72,0,0,0-1.169-1.282.282.282,0,0,1-.154-.25C2298.49,4416.46,2298.679,4416.264,2299.057,4416.264Z" fill="#251e1c"/><path d="M2312.7,4416.831c.5,0,.765.224.784.674.009.1-.074.217-.247.342a76.715,76.715,0,0,1-6.836,4.551,32.588,32.588,0,0,1-3.584,1.862q3.876,1.733,6.387,3.016a33.659,33.659,0,0,1,3.988,2.379.519.519,0,0,1,.292.452c-.019.45-.282.682-.784.7a1.1,1.1,0,0,1-.4-.3,43.723,43.723,0,0,0-6.528-3.673q-1.542-.67-4.2-1.909a.685.685,0,0,1-.445-.669c0-.334.208-.6.63-.8a56.487,56.487,0,0,0,5.186-2.829,53.693,53.693,0,0,0,5.4-3.66A.583.583,0,0,1,2312.7,4416.831Z" fill="#251e1c"/><path d="M2315.176,4417.147c.593,0,.9.264.906.795a1.742,1.742,0,0,1-.107.364,16.545,16.545,0,0,0-.372,3.531q0,2.142.5,2.172c.14,0,.258-.091.35-.282.216-.414.538-1.008.973-1.782a.4.4,0,0,1,.353-.249c.408,0,.625.259.643.782a.623.623,0,0,1-.122.313q-.306.544-.983,1.737a1.32,1.32,0,0,1-1.214.8c-.772-.009-1.29-.543-1.558-1.6a10.519,10.519,0,0,1-.215-2.452,14.812,14.812,0,0,1,.464-3.723C2314.872,4417.281,2315,4417.147,2315.176,4417.147Zm8.248-.377c.195,0,.349.14.462.423a11.781,11.781,0,0,1,.846,2.877,18.386,18.386,0,0,1,.246,2.923,8.425,8.425,0,0,1-1.014,4.425,6.138,6.138,0,0,1-3.051,2.532,9.214,9.214,0,0,1-3.427.578c-.505,0-.758-.288-.758-.873,0-.208.118-.322.358-.344a9.509,9.509,0,0,0,3.827-.831,5.165,5.165,0,0,0,2.126-2.17,7.175,7.175,0,0,0,.66-3.317,12.914,12.914,0,0,0-1.015-5.051.73.73,0,0,1-.138-.374C2322.546,4417.038,2322.84,4416.77,2323.424,4416.77Z" fill="#251e1c"/><path d="M2392.462,4421.668a1.908,1.908,0,0,1,1.849,1.894,1.781,1.781,0,0,1-.554,1.312,1.787,1.787,0,0,1-2.6,0,1.885,1.885,0,0,1,1.307-3.206Z" fill="#251e1c"/><path d="M2404.2,4416.22a.647.647,0,0,1,.615.64v3.317a9.3,9.3,0,0,0,.616,2.8,12.967,12.967,0,0,0,1.538,2.863,18.9,18.9,0,0,0,4.171,3.9.632.632,0,0,1,.322.514.612.612,0,0,1-.615.686.531.531,0,0,1-.339-.123,26.4,26.4,0,0,1-2.663-2.078,11.258,11.258,0,0,1-2.4-2.9,9.109,9.109,0,0,1-1.242-3.1,12.564,12.564,0,0,1-1.323,3.067,11.663,11.663,0,0,1-1.85,2.5,14.558,14.558,0,0,1-3.2,2.5.4.4,0,0,1-.216.123c-.433,0-.657-.187-.677-.561a.814.814,0,0,1,.414-.639,14.213,14.213,0,0,0,3.819-3.551,12.536,12.536,0,0,0,1.846-3.612,6.523,6.523,0,0,0,.568-2.393v-3.317A.633.633,0,0,1,2404.2,4416.22Z" fill="#251e1c"/><path d="M2419.866,4418.9q3.387,0,4.865,1.206a4.431,4.431,0,0,1,1.6,3.566,4.792,4.792,0,0,1-1.34,3.438,8.153,8.153,0,0,1-4.341,2.252,26.892,26.892,0,0,1-4.954.372c-.555,0-.836-.308-.836-.935a.36.36,0,0,1,.405-.407,24.775,24.775,0,0,0,5.338-.422,6.889,6.889,0,0,0,3.34-1.751,3.682,3.682,0,0,0,.989-2.547,3.211,3.211,0,0,0-1.188-2.6,6.18,6.18,0,0,0-3.783-.892,28.014,28.014,0,0,0-6.344,1c-.165.052-.26.085-.291.092-.639,0-.954-.341-.954-1.032a.333.333,0,0,1,.289-.328A39.9,39.9,0,0,1,2419.866,4418.9Zm4-1.954q.246,0,1.08.846a1.79,1.79,0,0,1,.6.876.561.561,0,0,1-.6.594.345.345,0,0,1-.281-.187,6.686,6.686,0,0,0-1.23-1.3c-.1-.073-.153-.144-.153-.218C2423.285,4417.155,2423.479,4416.95,2423.869,4416.95Zm1.4-.686c.192,0,.557.282,1.075.844a1.94,1.94,0,0,1,.542.874c-.021.4-.208.6-.554.6a.332.332,0,0,1-.307-.187,5.742,5.742,0,0,0-1.17-1.282.285.285,0,0,1-.156-.25C2424.7,4416.46,2424.889,4416.264,2425.27,4416.264Z" fill="#251e1c"/><path d="M2438.905,4416.831c.5,0,.765.224.786.674.009.1-.071.217-.244.342a77.6,77.6,0,0,1-6.833,4.551,32.958,32.958,0,0,1-3.587,1.862q3.877,1.733,6.387,3.016a33.581,33.581,0,0,1,3.986,2.379.52.52,0,0,1,.291.452c-.021.45-.282.682-.786.7a1.174,1.174,0,0,1-.4-.3,43.524,43.524,0,0,0-6.527-3.673q-1.54-.67-4.2-1.909a.686.686,0,0,1-.448-.669c0-.334.209-.6.632-.8a57.17,57.17,0,0,0,5.187-2.829,53.805,53.805,0,0,0,5.4-3.66A.567.567,0,0,1,2438.905,4416.831Z" fill="#251e1c"/><path d="M2441.388,4417.147c.594,0,.9.264.909.795a2.612,2.612,0,0,1-.108.364,16.546,16.546,0,0,0-.375,3.531c0,1.428.168,2.151.5,2.172.147,0,.263-.091.355-.282.211-.414.537-1.008.968-1.782a.408.408,0,0,1,.353-.249c.412,0,.627.259.651.782a.625.625,0,0,1-.126.313q-.3.544-.984,1.737a1.317,1.317,0,0,1-1.217.8c-.769-.009-1.288-.543-1.553-1.6a10.381,10.381,0,0,1-.218-2.452,15.142,15.142,0,0,1,.462-3.723C2441.085,4417.281,2441.211,4417.147,2441.388,4417.147Zm8.248-.377c.193,0,.347.14.461.423a11.773,11.773,0,0,1,.848,2.877,18.413,18.413,0,0,1,.246,2.923,8.453,8.453,0,0,1-1.016,4.425,6.139,6.139,0,0,1-3.046,2.532,9.256,9.256,0,0,1-3.435.578c-.5,0-.753-.288-.753-.873,0-.208.118-.322.355-.344a9.557,9.557,0,0,0,3.833-.831,5.185,5.185,0,0,0,2.121-2.17,7.174,7.174,0,0,0,.662-3.317,12.827,12.827,0,0,0-1.015-5.051.738.738,0,0,1-.138-.374C2448.759,4417.038,2449.051,4416.77,2449.636,4416.77Z" fill="#251e1c"/><rect width="139.507" height="2.604" transform="translate(2455.804 4420.454)" fill="#251e1c"/><rect width="139.507" height="1.954" transform="translate(2455.804 4425.005)" fill="#251e1c"/></g></svg>