<svg xmlns="http://www.w3.org/2000/svg" width="276.436" height="40" viewBox="0 0 276.436 40"><g transform="translate(-1761 -70.926)"><path d="M1762.589,99.62a1.378,1.378,0,0,0,1.342,2.408l40.641-22.65a1.379,1.379,0,1,0-1.342-2.409Z" fill="#598040"/><path d="M1801.589,74.2a1.383,1.383,0,0,0-1.876-.532l-38.007,21.182a1.382,1.382,0,0,0-.533,1.875h0a1.383,1.383,0,0,0,1.875.533l38.008-21.183a1.384,1.384,0,0,0,.533-1.875Z" fill="#aa4e42"/><path d="M1806.878,84.05s-.18-3.359-2.819-1.888l-.037.022L1766.677,103l-.107.059c-2.638,1.472.123,3.391.123,3.391l.082.062a19.073,19.073,0,0,0,11.1,3.367l.092,0a.5.5,0,0,0,.519-.5l0-.063.022-6.255v-.026a.979.979,0,0,1,.454-.769l.025-.015,8.428-4.7.026-.015a1,1,0,0,1,.9.013l.018.011,8.432,5.035.022.013a.752.752,0,0,0,.831-.063l.016-.009c6.291-5.207,9.755-12.205,9.228-18.453Z" fill="#426396"/><path d="M1794.888,71.442c-5.8-1.278-12.882-.2-19.445,3.455s-11.2,9.118-13.167,14.72c0,0-.933,3.069,2.343,1.242l30.093-16.771C1797.988,72.262,1794.888,71.442,1794.888,71.442Z" fill="#426396"/><path d="M1780.348,108.109h1.342a1.2,1.2,0,0,0,.3.57,1.78,1.78,0,0,0,.646.238,1.909,1.909,0,0,0,.9-.024c.331-.1.514-.253.546-.475q.05-.452-.695-.617l-1.491-.309a1.769,1.769,0,0,1-1.243-.689,1,1,0,0,1,.348-1.447,2.985,2.985,0,0,1,1.69-.57,3.308,3.308,0,0,1,1.69.333,1.52,1.52,0,0,1,.944,1.233h-1.292c-.066-.41-.365-.656-.894-.736a1.691,1.691,0,0,0-.846.072q-.5.189-.4.57a.392.392,0,0,0,.248.332c.2.048.447.1.745.166l1.342.308q1.095.238,1.193,1.045a1.19,1.19,0,0,1-.894,1.377,4.42,4.42,0,0,1-2.535.189A1.733,1.733,0,0,1,1780.348,108.109Z" fill="#251e1c"/><path d="M1792.041,109.706V104.84h1.636l2.427,3.038V104.84h1.477v4.866H1796.1l-2.585-3.133v3.133Z" fill="#251e1c"/><path d="M1789.954,109.706h1.774l-2.347-4.866h-1.831l-2.4,4.866h1.775l.4-.908h2.288Zm-1.488-3.537.744,1.756h-1.488Z" fill="#251e1c"/><path d="M1805.9,107.11a2.392,2.392,0,0,0-.794-1.745,2.889,2.889,0,0,0-2.052-.7,2.814,2.814,0,0,0-2.053.773,2.537,2.537,0,0,0-.746,1.87,2.458,2.458,0,0,0,.839,1.92,3.286,3.286,0,0,0,4.1-.149A2.362,2.362,0,0,0,1805.9,107.11Zm-2.823,1.756a1.594,1.594,0,1,1,1.594-1.594A1.594,1.594,0,0,1,1803.078,108.866Z" fill="#251e1c"/><rect width="1.766" height="0.732" transform="translate(1798.068 106.906)" fill="#251e1c"/><path d="M1842.016,84.751h-17.5s-2.039-.117-2.315.695-2.51,5.254.354,5.254h16.558a1.815,1.815,0,0,0,1.3-1.082c.233-.85-.041-1.274.744-1.971S1843.582,84.751,1842.016,84.751Z" fill="#251e1c"/><path d="M1840.012,94.292h-17.5s-2.04-.115-2.315.695-2.512,5.254.353,5.254h16.559a1.8,1.8,0,0,0,1.293-1.083c.237-.849-.037-1.275.746-1.97S1841.581,94.292,1840.012,94.292Z" fill="#251e1c"/><path d="M1837.854,103.793h-17.5s-2.041-.113-2.315.7-2.51,5.252.354,5.252h16.558a1.812,1.812,0,0,0,1.293-1.081c.236-.851-.039-1.276.746-1.971S1839.423,103.793,1837.854,103.793Z" fill="#251e1c"/><path d="M1867.391,84.751h-17.5s-2.042-.117-2.317.695-2.511,5.254.352,5.254h5l-.022.1a.89.89,0,0,1,.475,1.034l-.3,1.327a1.517,1.517,0,0,1-.931,1.035l-.022.1h-4.245s-2.04-.115-2.314.695-2.512,5.254.352,5.254h4.894l-.022.1a.888.888,0,0,1,.474,1.033l-.286,1.29a1.513,1.513,0,0,1-.93,1.033l-.021.1h-4.3s-2.04-.113-2.314.7-2.513,5.252.352,5.252h16.559a1.813,1.813,0,0,0,1.294-1.081c.236-.851-.039-1.276.745-1.971s2.433-2.9.865-2.9h-5.726l.01-.041a.881.881,0,0,1-.639-1.09l.285-1.29a1.529,1.529,0,0,1,1.121-1.09l.008-.041h4.2a1.8,1.8,0,0,0,1.294-1.083c.235-.849-.039-1.275.746-1.97s2.432-2.9.864-2.9h-5.782l.008-.042a.883.883,0,0,1-.639-1.091l.294-1.327a1.533,1.533,0,0,1,1.121-1.092l.006-.04h4.089a1.809,1.809,0,0,0,1.294-1.082c.235-.85-.04-1.274.744-1.971S1868.961,84.751,1867.391,84.751Z" fill="#251e1c"/><path d="M1891.844,84.536h-17.5s-2.042-.115-2.318.7-2.51,5.253.357,5.253h4.356l0,.04s1.845-.156,0,1.236-7.728,6.45-7.728,6.45a1.954,1.954,0,0,0-.59,1.044c-.158.695-.55,3.166-.55,3.166s-1.256,3.863,2.433.967,4.4-3.478,4.4-3.478,1.216-1.12.783,1.121-1.413,7.146-1.413,7.146-.354,1.776.668,1.776h3.688s1.176.155,1.452-1.545,1.452-7.61,1.452-7.61.2-1.35,1.53-.154,3.962,3.283,3.962,3.283,1.138,1.237,1.65-.849,1.019-4.52,1.019-4.52a1.658,1.658,0,0,0-.785-1.659c-1.019-.775-4.4-3.632-4.4-3.632a.878.878,0,0,1,.274-1.082c.467-.428,1.667-1.339,2.15-1.7h2.208a1.806,1.806,0,0,0,1.293-1.08c.235-.851-.039-1.276.746-1.972S1893.416,84.536,1891.844,84.536Z" fill="#251e1c"/><path d="M1909.973,84.536a24.65,24.65,0,0,0-3.649.039l-7.572.541s-1.217-.117-1.532,1.505.236,1.584.747,1.623,2.589-.078,2.589-.078.391-.037.391.272a3.123,3.123,0,0,1-.156.772s-.04.329-1.078.368-2.433.018-2.433.018-.726-.1-.962.967-.235,1.6.784,1.6h2.806s.177-.058.177.232-.077.947-.529.968-2.806.017-2.806.017a1.488,1.488,0,0,0-1.433,1.313c-.332,1.373-1.275,6.047-1.275,6.047a1.2,1.2,0,0,0,1.275,1.622h2.337s.331-.039.293.213-.021.965-.647.965-3.082.02-3.082.02a.821.821,0,0,0-.882.5,5.343,5.343,0,0,0-.235,1.413s0,.558.51.539,2.943.019,2.943.019.511-.057.451.367-.159,1.063-.49,1.063h-3.179a.7.7,0,0,0-.766.386,6.871,6.871,0,0,0-.412,1.526s-.235.637.726.637h10.537a1.474,1.474,0,0,0,1.038-.578c.276-.5,1.472-2.144.726-2.166s-4.021,0-4.021,0-.434-.037-.373-.385.1-.83.8-.83h2.825a.97.97,0,0,0,.727-.444c.214-.4,1.627-2.088.96-2.088h-4.138s-.3-.057-.177-.424.177-.714.7-.714h2.453a1.485,1.485,0,0,0,1.393-1.176c.255-1.161,1.471-5.951,1.471-5.951a3.072,3.072,0,0,1,.608-.733c.3-.213,1.041-1.257-.314-1.257h-3.825s-.45.04-.413-.25.04-.734.533-.734h3.177a.938.938,0,0,0,.922-.522c.293-.6,1.333-2.317.293-2.317h-3.764s-.493.019-.455-.425-.056-1.2.727-1.236,3.2-.232,3.2-.232.921-.271,1.021-.618a2.07,2.07,0,0,1,.409-1.12S1911.228,84.691,1909.973,84.536Zm-11.449,14.64-.094.347a.331.331,0,0,1-.3.234h-.471a.174.174,0,0,1-.172-.234l.1-.347a.327.327,0,0,1,.3-.231h.472A.172.172,0,0,1,1898.524,99.176Zm.549-3.052-.095.348a.328.328,0,0,1-.3.234h-.471a.173.173,0,0,1-.171-.234l.093-.348a.33.33,0,0,1,.3-.232h.47A.174.174,0,0,1,1899.073,96.124Zm4.434,3.032-.095.348a.326.326,0,0,1-.3.231h-.471a.172.172,0,0,1-.173-.231l.095-.348a.326.326,0,0,1,.3-.23h.47A.172.172,0,0,1,1903.507,99.156Zm.377-3.284a.175.175,0,0,1,.173.233l-.1.349a.326.326,0,0,1-.3.23h-.472a.171.171,0,0,1-.172-.23l.1-.349a.325.325,0,0,1,.3-.233Z" fill="#251e1c"/><path d="M1915.642,85h-1.452a1.38,1.38,0,0,0-1.471,1.1l-.53,2.472a.657.657,0,0,1-.529.367h-.98a.536.536,0,0,0-.552.427c-.117.462-.939,4.481-.939,4.481a.473.473,0,0,0,.508.656c.727,0,.2,1.236.2,1.236l-4.058,13.287s-.278.965.548.965h2.217s.785.117.961-.5,4.3-14.235,4.3-14.235.159-.366.431-.386.373.154.334.407-1.668,8.67-1.668,8.67a3.273,3.273,0,0,1-.979.966c-.51.251-.649.657-.846,1.836s-.627,3.165.276,3.165h2.237s1.237.232,2.119-3.938,2.882-13.268,2.882-13.268a4.192,4.192,0,0,1,.609-1.719c.431-.467,1.628-2.029.256-2.029h-2.925s-.765.058-.626-.676a3.833,3.833,0,0,1,.941-2.125c.47-.308.688-1.159-.234-1.159Z" fill="#251e1c"/><path d="M1946.127,86.566h-7.12s-.944.039-.666-.734,1.1-1.584-.391-1.584h-4.357s-.628-.115-.9.773-.43,1.584-1.1,1.584h-5.768s-.942-.271-1.3,1.042-.862,2.473.117,2.473h1.217s.667-.233.529.52-.255,1.217-.255,1.217a.8.8,0,0,1-.549.311h-1.138s-.865-.271-1.256,1.619-3.375,15.453-3.375,15.453a.721.721,0,0,0,.787,1.005h3.336s.863.117,1.1-1.083,2.942-12.9,2.942-12.9.274-.695.9-.695H1942.5a1.483,1.483,0,0,0,1.421-.8c.441-.9.763-1.537.763-1.537s.708-1.071-.293-1.071H1942.8s-.589.085-.413-.522.413-1.3.413-1.3a.745.745,0,0,1,.559-.29h.767a.9.9,0,0,0,.7-.406c.267-.406.973-1.767.973-1.767a1.906,1.906,0,0,1,.47-.493C1946.54,87.2,1946.807,86.711,1946.127,86.566Zm-8.662,3.651-.444,1.623a.332.332,0,0,1-.3.23h-5.475a.171.171,0,0,1-.171-.23l.438-1.623a.329.329,0,0,1,.3-.233h5.472A.175.175,0,0,1,1937.465,90.217Z" fill="#251e1c"/><path d="M1942.948,97.98h-4.124c.282-.285.636-.459.645-.712a.666.666,0,0,0-.622-.783h-3.613a1.037,1.037,0,0,0-.966.783l-.154.712h-1.4l.407-.812a.583.583,0,0,0-.581-.782h-2.773a1.11,1.11,0,0,0-1.007.782l-.813,2.984a.581.581,0,0,0,.584.782h4.934l-.355,1.623h-4.059a1.055,1.055,0,0,0-.945.784l-.354,1.39a.574.574,0,0,0,.544.782h4.166l-.382,1.737h-4.147a1.048,1.048,0,0,0-.944.784l-.355,1.389a.576.576,0,0,0,.545.783h12.954a1.051,1.051,0,0,0,.943-.783l.357-1.389a.578.578,0,0,0-.547-.784h-4.308c.106-.494.237-1.089.375-1.737h4.3a1.054,1.054,0,0,0,.946-.782l.354-1.39a.577.577,0,0,0-.544-.784H1937.6c.127-.563.25-1.114.362-1.623h4.235a1.052,1.052,0,0,0,.942-.782l.354-1.39A.574.574,0,0,0,1942.948,97.98Z" fill="#251e1c"/><path d="M1967.846,87.749h-13.693a2.394,2.394,0,0,0-2.277,1.235c-.7,1.392-4.43,8.616-4.43,8.616s-.708,1.544.428,1.544h4.121a1.583,1.583,0,0,0,1.257-.693c.431-.7,2.038-3.788,2.038-3.788s.159-.444.53-.444h2.944s.627-.115.353.483-7.494,14.583-7.494,14.583-.921,1.641.392,1.641h4.118s1.08.077,2.043-1.836,9.14-17.942,9.14-17.942a6.482,6.482,0,0,1,1.1-1.6C1968.907,89.159,1969.828,87.727,1967.846,87.749Z" fill="#251e1c"/><path d="M1964.948,83.562h-2.471s-.5.036-.782.834-.463,1.918.148,1.918h1.686s.545-.064.881-.912.28-.839.479-.978S1965.771,83.562,1964.948,83.562Z" fill="#251e1c"/><path d="M1969.6,83.562h-2.473s-.5.036-.781.834-.46,1.918.149,1.918h1.682s.545-.064.885-.912.279-.839.477-.978S1970.423,83.562,1969.6,83.562Z" fill="#251e1c"/><path d="M1978.53,84.611h-4.063a1.361,1.361,0,0,0-1.382,1.159c-.233,1.217-4.885,22.6-4.885,22.6a1.13,1.13,0,0,0,1.237,1.507H1972s1.531.174,1.943-1.769,4.531-20.77,4.531-20.77a2.736,2.736,0,0,1,.443-.927C1979.2,86.061,1980.648,84.611,1978.53,84.611Z" fill="#251e1c"/><path d="M1988.946,98.864l-3.621,2.116c-1.482.888-1.883.593-1.969.219,1.326-6.078,3.03-13.864,3.03-13.864a2.755,2.755,0,0,1,.441-.927c.3-.347,1.737-1.8-.382-1.8h-4.06A1.361,1.361,0,0,0,1981,85.77c-.234,1.217-4.886,22.6-4.886,22.6a1.129,1.129,0,0,0,1.235,1.507h2.562a1.621,1.621,0,0,0,.529-.053l.443-.035s4.266-2.4,5.825-3.33a4.8,4.8,0,0,0,2.032-2.434s.176-.784.969-3.475S1988.946,98.864,1988.946,98.864Z" fill="#251e1c"/><path d="M2009.811,94.107h-13.653a2.066,2.066,0,0,0-1.984,1.679c-.549,1.778-.822,2.956-.822,2.956s-.472,1.642,1.018,1.642H2008.1a2.019,2.019,0,0,0,1.591-.87,6.989,6.989,0,0,0,.687-1.97,5.339,5.339,0,0,1,.313-1.082C2010.85,96.192,2013.441,94.107,2009.811,94.107Z" fill="#251e1c"/><path d="M2033.39,83.838a4.053,4.053,0,0,0-2.682,1.011.443.443,0,0,0-.172.151,4.023,4.023,0,0,0-.4.465,1.088,1.088,0,0,1-.63.188h-14.322A1.614,1.614,0,0,0,2013.578,87c-.393,1.45-.8,3.439-.8,3.439a1.039,1.039,0,0,0,1.078,1.427h9.731s1.391-.21.567,1.317-8.04,15.622-8.04,15.622-.452.85-.258,1.179.276.658,2.2.658h2.824s1.157.172,2.062-1.509,8.357-16.743,8.357-16.743a1.19,1.19,0,0,1,1.137-.541c.164,0,.771-.058.959-.058a3.98,3.98,0,1,0,0-7.958Zm0,5.735a1.756,1.756,0,1,1,1.788-1.755A1.769,1.769,0,0,1,2033.39,89.573Z" fill="#251e1c"/><path d="M1872.77,73.587c.235.007.356.143.364.411a.343.343,0,0,1-.364.37h-2.563a.662.662,0,0,1-.111.278c-.034.034-.071.069-.112.1a7.081,7.081,0,0,1,.9,1.564,1.307,1.307,0,0,1,.142.1c.08.1.154.2.221.29a9.829,9.829,0,0,0,1.611-1.526.646.646,0,0,1,.4-.123.412.412,0,0,1,.364.382.512.512,0,0,1-.15.369,8.318,8.318,0,0,1-1.593,1.513.28.28,0,0,1-.07.032,18.863,18.863,0,0,0,2.745,2.408.5.5,0,0,1,.132.33.505.505,0,0,1-.406.452.647.647,0,0,1-.363-.134,14.423,14.423,0,0,1-2.635-2.469,4.89,4.89,0,0,1,.041.659,3.044,3.044,0,0,1-.486,1.821,1.383,1.383,0,0,1-1.217.657,5.379,5.379,0,0,1-1.3-.216.555.555,0,0,1-.377-.358.423.423,0,0,1,.447-.454.617.617,0,0,1,.152.031,4.8,4.8,0,0,0,1.144.176.644.644,0,0,0,.569-.422,2.676,2.676,0,0,0,.253-1.267,4.484,4.484,0,0,0-.061-.74,16.265,16.265,0,0,1-2.451,1.8c-.595.281-1.243.564-1.947.855a1.1,1.1,0,0,0-.172.06c-.318-.014-.492-.125-.526-.33a.452.452,0,0,1,.366-.491,13.91,13.91,0,0,0,2.207-1.041,16.105,16.105,0,0,0,2.321-1.729c-.027-.069-.055-.137-.082-.207-.048-.124-.1-.253-.162-.392a14.823,14.823,0,0,1-2.219,1.422q-.78.33-1.711.658a.491.491,0,0,0-.144.052c-.323-.013-.5-.128-.535-.338a.451.451,0,0,1,.364-.485,13.744,13.744,0,0,0,1.944-.8,14.367,14.367,0,0,0,1.9-1.234c-.074-.117-.158-.235-.251-.36a8.657,8.657,0,0,1-.821.493,14.421,14.421,0,0,1-2.22.918.357.357,0,0,1-.14.038.442.442,0,0,1-.367-.3.449.449,0,0,1,.335-.493,17.478,17.478,0,0,0,1.985-.823,6.641,6.641,0,0,0,1.166-.732h-2.147a.359.359,0,0,1-.367-.37c.021-.268.144-.4.367-.411Zm-2.745-2.142a.422.422,0,0,1,.445.454v.289h3.192q1.062,0,1.061,1.141a3.337,3.337,0,0,1-.171.988.587.587,0,0,1-.526.289.451.451,0,0,1-.364-.413.189.189,0,0,1,.029-.1,1.8,1.8,0,0,0,.163-.464,1.863,1.863,0,0,0,.061-.41c0-.173-.041-.258-.124-.258h-7.211a.226.226,0,0,0-.253.258v.976c0,.276-.134.413-.4.413a.362.362,0,0,1-.405-.413V72.959a.676.676,0,0,1,.762-.771h3.292V71.9A.409.409,0,0,1,1870.025,71.445Z" fill="#251e1c"/><path d="M1880.287,73.238a5.091,5.091,0,0,1,3.2.794,2.914,2.914,0,0,1,1.054,2.347,3.148,3.148,0,0,1-.882,2.263,5.367,5.367,0,0,1-2.857,1.482,17.7,17.7,0,0,1-3.261.244c-.365,0-.547-.2-.547-.615a.234.234,0,0,1,.263-.268,16.364,16.364,0,0,0,3.515-.277,4.566,4.566,0,0,0,2.2-1.153,2.435,2.435,0,0,0,.648-1.676,2.111,2.111,0,0,0-.781-1.71,4.077,4.077,0,0,0-2.492-.587,18.457,18.457,0,0,0-4.173.659c-.109.034-.173.056-.193.061-.418,0-.628-.224-.628-.679,0-.108.066-.181.193-.216A26.191,26.191,0,0,1,1880.287,73.238Zm2.633-1.286c.109,0,.344.186.711.556a1.185,1.185,0,0,1,.394.577.373.373,0,0,1-.394.391.224.224,0,0,1-.185-.123,4.5,4.5,0,0,0-.809-.855c-.068-.049-.1-.1-.1-.144C1882.535,72.087,1882.663,71.952,1882.92,71.952Zm.922-.452c.128,0,.365.186.709.556a1.317,1.317,0,0,1,.356.575c-.016.263-.137.392-.365.392a.218.218,0,0,1-.2-.124,3.8,3.8,0,0,0-.772-.843.189.189,0,0,1-.1-.165C1883.467,71.629,1883.592,71.5,1883.842,71.5Z" fill="#251e1c"/><path d="M1892.816,71.873q.5,0,.519.444c.005.066-.046.143-.163.225a50.526,50.526,0,0,1-4.5,3,21.487,21.487,0,0,1-2.36,1.226q2.549,1.142,4.2,1.985a22.043,22.043,0,0,1,2.624,1.566.344.344,0,0,1,.193.3c-.014.3-.187.448-.519.462a.772.772,0,0,1-.263-.2,28.627,28.627,0,0,0-4.294-2.418q-1.014-.442-2.765-1.256a.452.452,0,0,1-.294-.441.594.594,0,0,1,.415-.526,37.315,37.315,0,0,0,3.414-1.862,35.323,35.323,0,0,0,3.555-2.408A.389.389,0,0,1,1892.816,71.873Z" fill="#251e1c"/><path d="M1894.449,72.082c.391,0,.591.174.6.523a1.016,1.016,0,0,1-.07.239,10.958,10.958,0,0,0-.242,2.324c0,.94.106,1.416.323,1.43.095,0,.172-.06.233-.185q.214-.41.638-1.173a.266.266,0,0,1,.232-.164c.27,0,.413.17.425.514a.405.405,0,0,1-.079.207c-.134.239-.353.619-.65,1.143a.864.864,0,0,1-.8.523c-.507-.006-.846-.357-1.023-1.05a6.909,6.909,0,0,1-.141-1.614,9.839,9.839,0,0,1,.3-2.451C1894.25,72.17,1894.334,72.082,1894.449,72.082Zm5.43-.248c.128,0,.229.092.3.278a7.893,7.893,0,0,1,.558,1.893,12.248,12.248,0,0,1,.16,1.925,5.53,5.53,0,0,1-.668,2.911,4.038,4.038,0,0,1-2.008,1.667,6.057,6.057,0,0,1-2.256.381c-.332,0-.5-.19-.5-.575,0-.137.08-.212.235-.226a6.244,6.244,0,0,0,2.52-.547,3.373,3.373,0,0,0,1.4-1.429,4.71,4.71,0,0,0,.436-2.182,8.5,8.5,0,0,0-.668-3.325.5.5,0,0,1-.093-.246C1899.3,72.01,1899.494,71.834,1899.879,71.834Z" fill="#251e1c"/><path d="M1862.436,75.057a1.252,1.252,0,0,1,1.215,1.246,1.172,1.172,0,0,1-.362.864,1.176,1.176,0,0,1-1.713,0,1.241,1.241,0,0,1,.86-2.11Z" fill="#251e1c"/><path d="M1825.656,74.406a.385.385,0,0,1,.4.371,3.422,3.422,0,0,1-.5,1.162,1.822,1.822,0,0,1-.139.226V80.7a.371.371,0,0,1-.406.371c-.264-.014-.4-.139-.4-.371V76.988a1.58,1.58,0,0,1-.173.135.564.564,0,0,1-.406.154.466.466,0,0,1-.355-.37.84.84,0,0,1,.123-.362,3.375,3.375,0,0,0,.973-.789,2.635,2.635,0,0,0,.517-1.03C1825.3,74.526,1825.425,74.42,1825.656,74.406ZM1825.5,71.6a.386.386,0,0,1,.406.372,3.849,3.849,0,0,1-.406,1.08,4.285,4.285,0,0,1-.89,1.071.593.593,0,0,1-.407.152.439.439,0,0,1-.363-.357.876.876,0,0,1,.111-.372,2.669,2.669,0,0,0,.769-.709,2.344,2.344,0,0,0,.415-.906C1825.152,71.72,1825.274,71.611,1825.5,71.6Zm4.528,5.569c.237.006.363.143.376.411a.354.354,0,0,1-.376.371h-1.336v1.749q.78-.114,1.55-.266a.4.4,0,0,1,.445.371.416.416,0,0,1-.4.41,26.9,26.9,0,0,1-3.971.493.441.441,0,0,1-.447-.338.47.47,0,0,1,.405-.453c.544-.02,1.078-.059,1.612-.112V77.946h-1.338a.352.352,0,0,1-.365-.371c.015-.268.138-.4.365-.411h1.338v-.619a.405.405,0,1,1,.811,0v.619Zm-.07-4.57c.231.008.351.14.365.4a.35.35,0,0,1-.365.371h-1.266v1.646h1.467c.225.013.343.155.355.423a.343.343,0,0,1-.355.369h-3.686a.354.354,0,0,1-.375-.369c.013-.268.14-.41.375-.423h1.408V73.367h-1.257a.34.34,0,0,1-.355-.371c.008-.262.126-.394.355-.4h1.257v-.7a.406.406,0,1,1,.811,0v.7Zm3.193,1.72a.376.376,0,0,1,.363.412.352.352,0,0,1-.363.371h-.4v4.949c0,.657-.339.986-1.022.986a4.36,4.36,0,0,1-1.084-.174,1.562,1.562,0,0,1-.214-.277c.015-.344.139-.521.376-.535a.274.274,0,0,1,.059.009,2.359,2.359,0,0,0,.711.155.323.323,0,0,0,.364-.369V75.1h-1.094a.357.357,0,0,1-.374-.371.38.38,0,0,1,.374-.412Zm-.236-2.421c.229.008.352.146.366.413a.351.351,0,0,1-.366.371h-1.863a.342.342,0,0,1-.365-.371q.009-.4.365-.413Z" fill="#251e1c"/><path d="M1838.892,73.238a5.1,5.1,0,0,1,3.2.794,2.911,2.911,0,0,1,1.051,2.347,3.138,3.138,0,0,1-.881,2.263,5.364,5.364,0,0,1-2.854,1.482,17.744,17.744,0,0,1-3.265.244c-.364,0-.546-.2-.546-.615a.234.234,0,0,1,.263-.268,16.379,16.379,0,0,0,3.515-.277,4.535,4.535,0,0,0,2.2-1.153,2.432,2.432,0,0,0,.65-1.676,2.109,2.109,0,0,0-.782-1.71,4.072,4.072,0,0,0-2.491-.587,18.462,18.462,0,0,0-4.174.659c-.107.034-.171.056-.191.061-.42,0-.628-.224-.628-.679,0-.108.063-.181.191-.216A26.238,26.238,0,0,1,1838.892,73.238Zm2.633-1.286q.164,0,.711.556a1.182,1.182,0,0,1,.4.577.373.373,0,0,1-.4.391.224.224,0,0,1-.183-.123,4.539,4.539,0,0,0-.81-.855c-.068-.049-.1-.1-.1-.144C1841.14,72.087,1841.268,71.952,1841.525,71.952Zm.922-.452c.13,0,.365.186.711.556a1.28,1.28,0,0,1,.353.575c-.013.263-.133.392-.365.392a.217.217,0,0,1-.2-.124,3.746,3.746,0,0,0-.77-.843.185.185,0,0,1-.1-.165C1842.074,71.629,1842.2,71.5,1842.447,71.5Z" fill="#251e1c"/><path d="M1851.425,71.873c.33,0,.5.148.515.444.007.066-.048.143-.162.225a50.393,50.393,0,0,1-4.5,3,21.306,21.306,0,0,1-2.359,1.226q2.551,1.142,4.2,1.985a22.307,22.307,0,0,1,2.625,1.566.338.338,0,0,1,.191.3c-.012.3-.185.448-.515.462a.712.712,0,0,1-.264-.2,28.665,28.665,0,0,0-4.3-2.418q-1.016-.442-2.766-1.256a.452.452,0,0,1-.293-.441.593.593,0,0,1,.415-.526,37.038,37.038,0,0,0,3.413-1.862,35.372,35.372,0,0,0,3.557-2.408A.385.385,0,0,1,1851.425,71.873Z" fill="#251e1c"/><path d="M1853.056,72.082c.391,0,.591.174.6.523a1.143,1.143,0,0,1-.071.239,10.887,10.887,0,0,0-.244,2.324q0,1.41.327,1.43c.092,0,.17-.06.231-.185.141-.273.353-.664.64-1.173a.261.261,0,0,1,.232-.164c.269,0,.411.17.424.514a.412.412,0,0,1-.081.207c-.134.239-.351.619-.647,1.143a.87.87,0,0,1-.8.523q-.762-.009-1.025-1.05a6.907,6.907,0,0,1-.142-1.614,9.75,9.75,0,0,1,.306-2.451C1852.856,72.17,1852.941,72.082,1853.056,72.082Zm5.429-.248c.128,0,.23.092.3.278a7.764,7.764,0,0,1,.557,1.893,12.142,12.142,0,0,1,.162,1.925,5.548,5.548,0,0,1-.667,2.911,4.041,4.041,0,0,1-2.008,1.667,6.064,6.064,0,0,1-2.256.381c-.333,0-.5-.19-.5-.575,0-.137.078-.212.235-.226a6.258,6.258,0,0,0,2.52-.547,3.409,3.409,0,0,0,1.4-1.429,4.723,4.723,0,0,0,.434-2.182,8.5,8.5,0,0,0-.668-3.325.486.486,0,0,1-.091-.246C1857.907,72.01,1858.1,71.834,1858.485,71.834Z" fill="#251e1c"/><path d="M1903.925,75.057a1.256,1.256,0,0,1,1.216,1.246,1.17,1.17,0,0,1-.364.864,1.176,1.176,0,0,1-1.713,0,1.241,1.241,0,0,1,.861-2.11Z" fill="#251e1c"/><path d="M1911.652,71.472a.424.424,0,0,1,.405.421v2.183a6.124,6.124,0,0,0,.405,1.841,8.521,8.521,0,0,0,1.013,1.884,12.447,12.447,0,0,0,2.745,2.564.417.417,0,0,1,.212.338.4.4,0,0,1-.405.452.347.347,0,0,1-.223-.081,17.173,17.173,0,0,1-1.752-1.368,7.369,7.369,0,0,1-1.582-1.9,5.991,5.991,0,0,1-.818-2.038,8.268,8.268,0,0,1-.871,2.018,7.622,7.622,0,0,1-1.217,1.648,9.574,9.574,0,0,1-2.106,1.645.261.261,0,0,1-.142.081q-.428,0-.445-.369a.534.534,0,0,1,.272-.421,9.351,9.351,0,0,0,2.513-2.337,8.252,8.252,0,0,0,1.216-2.377,4.3,4.3,0,0,0,.374-1.575V71.893A.415.415,0,0,1,1911.652,71.472Z" fill="#251e1c"/><path d="M1921.961,73.238a5.088,5.088,0,0,1,3.2.794,2.914,2.914,0,0,1,1.055,2.347,3.161,3.161,0,0,1-.882,2.263,5.371,5.371,0,0,1-2.857,1.482,17.687,17.687,0,0,1-3.261.244c-.365,0-.55-.2-.55-.615a.237.237,0,0,1,.266-.268,16.355,16.355,0,0,0,3.514-.277,4.539,4.539,0,0,0,2.2-1.153,2.419,2.419,0,0,0,.651-1.676,2.118,2.118,0,0,0-.782-1.71,4.075,4.075,0,0,0-2.49-.587,18.447,18.447,0,0,0-4.175.659c-.109.034-.172.056-.192.061-.421,0-.628-.224-.628-.679a.219.219,0,0,1,.191-.216A26.23,26.23,0,0,1,1921.961,73.238Zm2.635-1.286q.162,0,.71.556a1.174,1.174,0,0,1,.393.577.37.37,0,0,1-.393.391.224.224,0,0,1-.184-.123,4.414,4.414,0,0,0-.81-.855c-.067-.049-.1-.1-.1-.144C1924.211,72.087,1924.339,71.952,1924.6,71.952Zm.922-.452c.126,0,.367.186.708.556a1.292,1.292,0,0,1,.357.575c-.015.263-.138.392-.365.392a.22.22,0,0,1-.2-.124,3.788,3.788,0,0,0-.769-.843.188.188,0,0,1-.1-.165C1925.143,71.629,1925.267,71.5,1925.518,71.5Z" fill="#251e1c"/><path d="M1934.493,71.873q.5,0,.517.444c.006.066-.047.143-.161.225a50.94,50.94,0,0,1-4.5,3,21.3,21.3,0,0,1-2.36,1.226q2.552,1.142,4.2,1.985a22.053,22.053,0,0,1,2.624,1.566.341.341,0,0,1,.192.3c-.014.3-.186.448-.517.462a.761.761,0,0,1-.262-.2,28.618,28.618,0,0,0-4.3-2.418q-1.014-.442-2.765-1.256a.453.453,0,0,1-.3-.441.594.594,0,0,1,.416-.526,37.428,37.428,0,0,0,3.414-1.862,35.372,35.372,0,0,0,3.557-2.408A.373.373,0,0,1,1934.493,71.873Z" fill="#251e1c"/><path d="M1936.127,72.082c.391,0,.589.174.6.523a1.6,1.6,0,0,1-.072.239,10.959,10.959,0,0,0-.246,2.324c0,.94.111,1.416.326,1.43.1,0,.173-.06.234-.185.138-.273.353-.664.637-1.173a.267.267,0,0,1,.232-.164c.271,0,.413.17.428.514a.416.416,0,0,1-.082.207c-.134.239-.351.619-.648,1.143a.869.869,0,0,1-.8.523q-.761-.009-1.022-1.05a6.826,6.826,0,0,1-.144-1.614,9.983,9.983,0,0,1,.3-2.451C1935.927,72.17,1936.01,72.082,1936.127,72.082Zm5.428-.248c.127,0,.229.092.3.278a7.676,7.676,0,0,1,.558,1.893,12.027,12.027,0,0,1,.162,1.925,5.549,5.549,0,0,1-.668,2.911,4.039,4.039,0,0,1-2.005,1.667,6.092,6.092,0,0,1-2.261.381c-.33,0-.495-.19-.495-.575,0-.137.077-.212.233-.226a6.276,6.276,0,0,0,2.523-.547,3.419,3.419,0,0,0,1.4-1.429,4.71,4.71,0,0,0,.436-2.182,8.444,8.444,0,0,0-.668-3.325.487.487,0,0,1-.091-.246C1940.978,72.01,1941.17,71.834,1941.555,71.834Z" fill="#251e1c"/><rect width="91.821" height="1.714" transform="translate(1945.615 74.258)" fill="#251e1c"/><rect width="91.821" height="1.286" transform="translate(1945.615 77.254)" fill="#251e1c"/></g></svg>