<svg id="Layer_1" data-name="Layer 1" xmlns="http://www.w3.org/2000/svg" xmlns:xlink="http://www.w3.org/1999/xlink" width="341.12" height="113.51" viewBox="0 0 341.12 113.51"><defs><style>.cls-1{fill:none;}.cls-2{clip-path:url(#clip-path);}.cls-3{fill:#dde4ee;}.cls-4{fill:#010101;}</style><clipPath id="clip-path"><rect class="cls-1" width="341.12" height="113.51"/></clipPath></defs><g class="cls-2"><path class="cls-3" d="M4.92,84.32l15.24-3c.48,11.52,3.24,19,11,19,5.64,0,8-3.84,8-9.12,0-8.4-4.32-13.08-10.68-18.6L16.32,61.88C9.36,55.88,5,49.16,5,38.36c0-15.36,9.6-24,25.08-24,18.24,0,23.4,12.24,24.36,26.4L39.24,43.4c-.36-9.12-1.68-16-9.48-16-5.28,0-8.16,4-8.16,9.12,0,6.6,2.76,10.2,7.92,14.64L41.64,61.88c7.92,6.84,14.52,15.36,14.52,28.2,0,14-9.84,23.88-24.36,23.88C14,114,5.64,103.64,4.92,84.32Z"/><path class="cls-3" d="M64.2,88.28V67.64c0-16.68,7-25.44,22.32-25.44,16.32,0,21.48,9.6,21.48,26.52v10H80.4V92.36c0,6.84,2,9.6,6.24,9.6s5.88-3,5.88-9V87.08h15.36v4.8c0,14-7.08,21.84-21.36,21.84C70.92,113.72,64.2,104.72,64.2,88.28ZM92.52,70.64V64c0-7-1.44-10.08-6-10.08S80.4,56.72,80.4,65.84v4.8Z"/><path class="cls-3" d="M119.4,43.28h16.32V54c4.68-8.16,9.24-11.52,15.12-11.52a9.41,9.41,0,0,1,2.52.24V59.6a19.09,19.09,0,0,0-6.72-1.44c-4.32,0-7.8,2-10.92,6.72v47.76H119.4Z"/><path class="cls-3" d="M156.72,43.28h15.84l7.08,49.8,7-49.8h15.72l-13.8,69.36H170.4Z"/><path class="cls-3" d="M210.36,18.68h16.32V32.24H210.36Zm0,24.6h16.32v69.36H210.36Z"/><path class="cls-3" d="M238.32,88.4V67.52c0-16,6.24-25.32,22.19-25.32,14.88,0,21.24,7.2,21.24,21.36v5.76H266.39V63.2c0-7.2-1.56-9.48-5.76-9.48-4.68,0-6,2.88-6,11.76V90.92c0,8.88,1.8,11.28,6,11.28,4.68,0,5.76-3.24,5.76-9.36V85.4h15.36V92c0,14-6.48,21.72-21.24,21.72C244.44,113.72,238.32,104,238.32,88.4Z"/><path class="cls-3" d="M291.24,88.28V67.64c0-16.68,6.95-25.44,22.31-25.44,16.32,0,21.48,9.6,21.48,26.52v10h-27.6V92.36c0,6.84,2,9.6,6.24,9.6s5.88-3,5.88-9V87.08h15.36v4.8c0,14-7.08,21.84-21.36,21.84C298,113.72,291.24,104.72,291.24,88.28Zm28.31-17.64V64c0-7-1.44-10.08-6-10.08s-6.12,2.76-6.12,11.88v4.8Z"/></g><path class="cls-4" d="M2.2,64H9.07c7.09,0,9.25,2.85,9.25,9.07V83.71c0,6.41-2.19,9.47-9,9.47H2.2ZM9.14,89.47c3.64,0,3.78-1.94,3.78-5.58V72.73c0-3.49-.36-4.93-3.85-4.93H7.49V89.47Z"/><path class="cls-4" d="M21.53,85.87V79.68c0-5,2.09-7.63,6.69-7.63,4.9,0,6.45,2.88,6.45,8v3H26.39V87.1c0,2.05.61,2.88,1.87,2.88s1.76-.9,1.76-2.7V85.51h4.61V87c0,4.21-2.12,6.55-6.41,6.55C23.54,93.5,21.53,90.8,21.53,85.87ZM30,80.58v-2c0-2.09-.43-3-1.8-3s-1.83.83-1.83,3.56v1.44Z"/><path class="cls-4" d="M36.58,72.37h4.75l2.12,14.94,2.09-14.94h4.71L46.12,93.18H40.68Z"/><path class="cls-4" d="M52.13,85.87V79.68c0-5,2.08-7.63,6.69-7.63,4.9,0,6.45,2.88,6.45,8v3H57V87.1c0,2.05.61,2.88,1.87,2.88s1.76-.9,1.76-2.7V85.51h4.61V87c0,4.21-2.12,6.55-6.41,6.55C54.14,93.5,52.13,90.8,52.13,85.87Zm8.49-5.29v-2c0-2.09-.43-3-1.8-3S57,76.41,57,79.14v1.44Z"/><path class="cls-4" d="M68.9,64h4.86V93.18H68.9Z"/><path class="cls-4" d="M77.29,86.27v-7c0-4.61,2.12-7.24,6.66-7.24s6.7,2.63,6.7,7.24v7c0,4.61-2.16,7.23-6.7,7.23S77.29,90.88,77.29,86.27Zm8.53.36V79c0-1.94-.18-3.53-1.83-3.53S82.11,77,82.11,79v7.67c0,1.91.18,3.49,1.88,3.49S85.82,88.57,85.82,86.63Z"/><path class="cls-4" d="M94,72.37h4.9V74a6.17,6.17,0,0,1,4.24-1.91c3.75,0,4.61,4,4.61,7v7c0,4.14-1.33,7.45-4.86,7.45a6,6,0,0,1-4-1.87V100H94Zm8.86,13.86V78.75c0-1.88-.33-3.42-1.84-3.42a3.29,3.29,0,0,0-2.12.9V89.36a3.64,3.64,0,0,0,2.16.72C102.6,90.08,102.89,88.36,102.89,86.23Z"/><path class="cls-4" d="M111.17,72.37h4.71v1.84a6.61,6.61,0,0,1,4.9-2.2,3.44,3.44,0,0,1,3.49,2.52A6.73,6.73,0,0,1,129.52,72c2.24,0,3.86,1.62,3.86,4.9V93.18H128.7V77.38c0-1.59-.58-2.09-1.52-2.09a4.13,4.13,0,0,0-2.55,1.22V93.18H120V77.38c0-1.59-.58-2.09-1.55-2.09a4.22,4.22,0,0,0-2.56,1.22V93.18h-4.71Z"/><path class="cls-4" d="M136.62,85.87V79.68c0-5,2.09-7.63,6.69-7.63,4.9,0,6.45,2.88,6.45,8v3h-8.28V87.1c0,2.05.61,2.88,1.87,2.88s1.76-.9,1.76-2.7V85.51h4.61V87c0,4.21-2.12,6.55-6.41,6.55C138.63,93.5,136.62,90.8,136.62,85.87Zm8.49-5.29v-2c0-2.09-.43-3-1.8-3s-1.83.83-1.83,3.56v1.44Z"/><path class="cls-4" d="M153.07,72.37H158v2.06a7.35,7.35,0,0,1,5-2.38c2.52,0,3.53,2.16,3.53,4.57V93.18h-4.89V77.59c0-1.26-.29-1.94-1.41-1.94a4.26,4.26,0,0,0-2.26,1V93.18h-4.9Z"/><path class="cls-4" d="M171,88V75.58h-2.09V72.37H171V66.15h4.93v6.22H179v3.21h-3.14v12c0,1.41.62,2,1.88,2a6.85,6.85,0,0,0,1.51-.14v3.78a19.14,19.14,0,0,1-3.13.25C172.15,93.43,171,91.38,171,88Z"/><path class="cls-4" d="M189.86,88.56l1.48-.44c.24,2.2.81,3.92,3,3.92a2.25,2.25,0,0,0,2.51-2.58c0-1.58-.84-2.57-2.18-3.85l-3.15-3A4.65,4.65,0,0,1,189.89,79c0-2.47,1.6-3.83,4-3.83,2.58,0,4,1.23,4.27,4.51l-1.43.38c-.17-2.25-.79-3.57-2.84-3.57a2.22,2.22,0,0,0-2.51,2.36,3.32,3.32,0,0,0,1.26,2.59l3.14,3a7,7,0,0,1,2.6,4.93,3.76,3.76,0,0,1-4.09,4.05C191.4,93.4,190.06,91.46,189.86,88.56Z"/><path class="cls-4" d="M200,95.09c2.22,0,2.6-.52,2.6-1.32a12.05,12.05,0,0,0-.42-2.11l-2.62-11.2h1.61l2.2,10.83,2.13-10.83h1.63L204,94.08c-.37,1.63-1.47,2.27-3.63,2.27H200Z"/><path class="cls-4" d="M208.15,89.77l1.34-.42c.17,2,.92,2.82,2.22,2.82a1.62,1.62,0,0,0,1.74-1.81,3.42,3.42,0,0,0-1.54-2.55l-1.74-1.5a3.87,3.87,0,0,1-1.74-3.19,2.73,2.73,0,0,1,3-2.86c1.93,0,2.9,1.39,3,3.35l-1.14.37c-.09-1.71-.71-2.51-1.81-2.51A1.47,1.47,0,0,0,209.91,83a2.47,2.47,0,0,0,1,2l1.8,1.6c1,.93,2.12,1.94,2.12,3.7,0,2-1.3,3.06-3.26,3.06S208.32,92,208.15,89.77Z"/><path class="cls-4" d="M217.41,90.54v-9h-1.56V80.46h1.56V76.52H219v3.94h2.12v1.06H219v8.86c0,1.24.18,1.7,1.13,1.7a4.5,4.5,0,0,0,.92-.11V93.2a7.11,7.11,0,0,1-1.36.13C217.83,93.33,217.41,92.17,217.41,90.54Z"/><path class="cls-4" d="M222.6,88.41V85.19c0-3.76,1.1-4.93,3.45-4.93,2.67,0,3.3,1.68,3.3,5.26v1.15h-5.14v2.22c0,2.48.52,3.28,1.82,3.28,1,0,1.74-.44,1.74-2.44v-.89h1.56v.71c0,2.31-.83,3.83-3.3,3.83S222.6,92.1,222.6,88.41Zm5.17-2.67v-1c0-2-.18-3.22-1.74-3.22-1.32,0-1.82.71-1.82,3.41v.86Z"/><path class="cls-4" d="M231.53,80.46H233v1.3a3.91,3.91,0,0,1,3-1.52,2,2,0,0,1,2,1.65,4,4,0,0,1,3.13-1.65c1.12,0,2.16.68,2.16,2.91v10h-1.5v-10c0-1.5-.55-1.85-1.28-1.85a3.58,3.58,0,0,0-2.4,1.32,2.54,2.54,0,0,1,0,.49v10h-1.52v-10c0-1.5-.53-1.85-1.28-1.85a3.59,3.59,0,0,0-2.37,1.3V93.18h-1.5Z"/></svg>