<svg id="Layer_1" data-name="Layer 1" xmlns="http://www.w3.org/2000/svg" xmlns:xlink="http://www.w3.org/1999/xlink" width="341.12" height="113.51" viewBox="0 0 341.12 113.51"><defs><style>.cls-1{fill:none;}.cls-2{clip-path:url(#clip-path);}.cls-3{fill:#dde4ee;}.cls-4{fill:#010101;}</style><clipPath id="clip-path"><rect class="cls-1" width="341.12" height="113.51"/></clipPath></defs><g class="cls-2"><path class="cls-3" d="M4.92,84.32l15.24-3c.48,11.52,3.24,19,11,19,5.64,0,8-3.84,8-9.12,0-8.4-4.32-13.08-10.68-18.6L16.32,61.88C9.36,55.88,5,49.16,5,38.36c0-15.36,9.6-24,25.08-24,18.24,0,23.4,12.24,24.36,26.4L39.24,43.4c-.36-9.12-1.68-16-9.48-16-5.28,0-8.16,4-8.16,9.12,0,6.6,2.76,10.2,7.92,14.64L41.64,61.88c7.92,6.84,14.52,15.36,14.52,28.2,0,14-9.84,23.88-24.36,23.88C14,114,5.64,103.64,4.92,84.32Z"/><path class="cls-3" d="M64.2,88.28V67.64c0-16.68,7-25.44,22.32-25.44,16.32,0,21.48,9.6,21.48,26.52v10H80.4V92.36c0,6.84,2,9.6,6.24,9.6s5.88-3,5.88-9V87.08h15.36v4.8c0,14-7.08,21.84-21.36,21.84C70.92,113.72,64.2,104.72,64.2,88.28ZM92.52,70.64V64c0-7-1.44-10.08-6-10.08S80.4,56.72,80.4,65.84v4.8Z"/><path class="cls-3" d="M119.4,43.28h16.32V54c4.68-8.16,9.24-11.52,15.12-11.52a9.41,9.41,0,0,1,2.52.24V59.6a19.09,19.09,0,0,0-6.72-1.44c-4.32,0-7.8,2-10.92,6.72v47.76H119.4Z"/><path class="cls-3" d="M156.72,43.28h15.84l7.08,49.8,7-49.8h15.72l-13.8,69.36H170.4Z"/><path class="cls-3" d="M210.36,18.68h16.32V32.24H210.36Zm0,24.6h16.32v69.36H210.36Z"/><path class="cls-3" d="M238.32,88.4V67.52c0-16,6.24-25.32,22.19-25.32,14.88,0,21.24,7.2,21.24,21.36v5.76H266.39V63.2c0-7.2-1.56-9.48-5.76-9.48-4.68,0-6,2.88-6,11.76V90.92c0,8.88,1.8,11.28,6,11.28,4.68,0,5.76-3.24,5.76-9.36V85.4h15.36V92c0,14-6.48,21.72-21.24,21.72C244.44,113.72,238.32,104,238.32,88.4Z"/><path class="cls-3" d="M291.24,88.28V67.64c0-16.68,6.95-25.44,22.31-25.44,16.32,0,21.48,9.6,21.48,26.52v10h-27.6V92.36c0,6.84,2,9.6,6.24,9.6s5.88-3,5.88-9V87.08h15.36v4.8c0,14-7.08,21.84-21.36,21.84C298,113.72,291.24,104.72,291.24,88.28Zm28.31-17.64V64c0-7-1.44-10.08-6-10.08s-6.12,2.76-6.12,11.88v4.8Z"/></g><path class="cls-4" d="M2.2,64H9.4c5.11,0,8.53,1.73,8.53,7.49,0,3.56-1.48,5.54-4.22,6,3.42.64,5,3.09,5,7.19,0,5.58-2.73,8.5-8.13,8.5H2.2ZM9.32,75.94c3.17,0,4-1.41,4-4.36s-1.51-3.85-4.75-3.85H7.49v8.21Zm.22,13.5c3.24,0,4.14-1.52,4.14-4.79,0-3.46-1.15-5-4.32-5H7.49v9.83Z"/><path class="cls-4" d="M22,72.37h4.9v3.21c1.4-2.45,2.77-3.46,4.53-3.46a3,3,0,0,1,.76.07v5.08a5.66,5.66,0,0,0-2-.43,3.79,3.79,0,0,0-3.27,2V93.18H22Z"/><path class="cls-4" d="M34.27,86.27v-7c0-4.61,2.13-7.24,6.66-7.24s6.7,2.63,6.7,7.24v7c0,4.61-2.16,7.23-6.7,7.23S34.27,90.88,34.27,86.27Zm8.53.36V79c0-1.94-.18-3.53-1.83-3.53S39.09,77,39.09,79v7.67c0,1.91.19,3.49,1.88,3.49S42.8,88.57,42.8,86.63Z"/><path class="cls-4" d="M51.08,64h4.86V80.76l5.33-8.39h5.36l-5.22,8.36,5.12,12.45H61.38L57.6,82.92l-1.66,2.3v7.92H51.08Z"/><path class="cls-4" d="M68.08,85.87V79.68c0-5,2.08-7.63,6.69-7.63,4.9,0,6.44,2.88,6.44,8v3H72.93V87.1c0,2.05.62,2.88,1.88,2.88s1.76-.9,1.76-2.7V85.51h4.61V87c0,4.21-2.13,6.55-6.41,6.55C70.09,93.5,68.08,90.8,68.08,85.87Zm8.49-5.29v-2c0-2.09-.43-3-1.8-3s-1.84.83-1.84,3.56v1.44Z"/><path class="cls-4" d="M84.64,72.37h4.89v3.21c1.4-2.45,2.77-3.46,4.54-3.46a2.87,2.87,0,0,1,.75.07v5.08a5.61,5.61,0,0,0-2-.43,3.81,3.81,0,0,0-3.28,2V93.18H84.64Z"/><path class="cls-4" d="M96.7,88.57c0-5.18,4.21-6.77,8.38-8.31v-1.8c0-1.77-.25-2.77-1.65-2.77s-1.7.93-1.73,2.3l-.07,1.26L97,79.07c.15-4.79,2.31-7,6.84-7,4.18,0,6,2.45,6,6.41v9.61a38.62,38.62,0,0,0,.36,5.11H105.8c-.18-.94-.43-2.41-.5-3a4.28,4.28,0,0,1-4.11,3.31A4.71,4.71,0,0,1,96.7,88.57Zm8.38-.07V82.67c-2.16,1.26-3.78,2.45-3.78,4.71,0,1.55.61,2.49,1.69,2.49A2.84,2.84,0,0,0,105.08,88.5Z"/><path class="cls-4" d="M112.36,95.91c0-1.94,1.4-3.27,3.13-4.06-1.59-.47-2.45-1.44-2.45-2.77,0-1.62.86-2.67,2.3-3.93-1.47-1.19-2.23-2.91-2.23-5.79,0-4.75,2.34-7.31,6.7-7.31a5.33,5.33,0,0,1,4.6,1.94,7.32,7.32,0,0,1,2.67-2.16l.68-.28,1.15,2.62a19,19,0,0,0-3.38,1.41,10.46,10.46,0,0,1,.76,3.85c0,4.39-2,7.2-6.48,7.2A9.64,9.64,0,0,1,117,86.2a2.79,2.79,0,0,0-.61,1.44c0,.54.5.86,1.87,1l4.35.44c3.46.36,5,2.16,5,5.25,0,3.75-2.45,5.69-8.1,5.69C115.31,100,112.36,98.76,112.36,95.91Zm11.77-1.4c0-1.15-.65-1.62-3-1.87l-3.57-.32a3.12,3.12,0,0,0-1.4,2.26c0,1.19,1,1.77,3.92,1.77C122.76,96.35,124.13,95.88,124.13,94.51Zm-2.31-15.15c0-2.81-.29-4.21-2-4.21s-2.09,1.33-2.09,4.21c0,2.66.36,4.17,2.09,4.17S121.82,82.2,121.82,79.36Z"/><path class="cls-4" d="M129.85,85.87V79.68c0-5,2.09-7.63,6.7-7.63,4.89,0,6.44,2.88,6.44,8v3h-8.28V87.1c0,2.05.61,2.88,1.87,2.88s1.77-.9,1.77-2.7V85.51H143V87c0,4.21-2.12,6.55-6.4,6.55C131.87,93.5,129.85,90.8,129.85,85.87Zm8.5-5.29v-2c0-2.09-.44-3-1.8-3s-1.84.83-1.84,3.56v1.44Z"/><path class="cls-4" d="M154.43,89.35c0-1.85.88-3.41,2.86-5.3-1.25-2.11-2.09-3.43-2.09-5.11A3.49,3.49,0,0,1,159,75.18c2.18,0,3.63,1.19,3.63,3.17s-1.65,4-3.72,5.81l3.43,5.41a9.29,9.29,0,0,0,1.39-4.29h1.56a9.6,9.6,0,0,1-2,5.33,2.45,2.45,0,0,0,2,1.14v1.58l-.42,0a4,4,0,0,1-2.58-1.65,4.93,4.93,0,0,1-3.78,1.74A3.84,3.84,0,0,1,154.43,89.35Zm7,1.26-3.48-5.42a6.08,6.08,0,0,0-1.87,4.16,2.42,2.42,0,0,0,2.49,2.71A3.76,3.76,0,0,0,161.41,90.61ZM161,78.33c0-1.17-.83-1.81-2.09-1.81a2.12,2.12,0,0,0-2.15,2.4,8.89,8.89,0,0,0,1.54,4.31C159.74,81.83,161,80.07,161,78.33Z"/><path class="cls-4" d="M172.14,87.83V80.75c0-3.28,1-5.57,4.51-5.57,3.19,0,4.23,2,4.23,5.06v1.08h-1.59v-1c0-2.31-.39-3.77-2.61-3.77-2.43,0-2.84,1.61-2.84,4V88.1c0,2.64.64,4,2.84,4s2.61-1.54,2.61-3.88V87h1.59v1.06c0,3.12-.9,5.32-4.23,5.32C173,93.4,172.14,90.94,172.14,87.83Z"/><path class="cls-4" d="M182.92,88.58V85.06c0-3.06.75-4.8,3.39-4.8s3.41,1.72,3.41,4.8v3.52c0,3.08-.75,4.8-3.41,4.8S182.92,91.66,182.92,88.58Zm5.17.09V85c0-2.07-.11-3.5-1.78-3.5s-1.76,1.43-1.76,3.5v3.7c0,2.07.11,3.5,1.76,3.5S188.09,90.74,188.09,88.67Z"/><path class="cls-4" d="M191.94,80.46h1.61v1.32a4.24,4.24,0,0,1,3.06-1.52c1.25,0,2,1,2,2.71V93.18H197V83.32c0-1.32-.4-1.8-1.21-1.8a3.31,3.31,0,0,0-2.2,1.19V93.18h-1.61Z"/><path class="cls-4" d="M200.39,89.77l1.34-.42c.18,2,.93,2.82,2.22,2.82a1.61,1.61,0,0,0,1.74-1.81,3.42,3.42,0,0,0-1.54-2.55l-1.74-1.5a3.86,3.86,0,0,1-1.73-3.19,2.73,2.73,0,0,1,3-2.86c1.94,0,2.91,1.39,3,3.35l-1.15.37c-.08-1.71-.7-2.51-1.8-2.51A1.47,1.47,0,0,0,202.15,83a2.45,2.45,0,0,0,1,2l1.8,1.6c1,.93,2.11,1.94,2.11,3.7,0,2-1.3,3.06-3.25,3.06S200.57,92,200.39,89.77Z"/><path class="cls-4" d="M208.82,90.67V80.46h1.63v9.86c0,1.32.39,1.78,1.21,1.78a3.35,3.35,0,0,0,2.24-1.25V80.46h1.61V93.18H213.9V91.77a4.17,4.17,0,0,1-3.1,1.61C209.5,93.38,208.82,92.39,208.82,90.67Z"/><path class="cls-4" d="M218.21,75.36h1.61V93.18h-1.61Z"/><path class="cls-4" d="M223.16,90.54v-9H221.6V80.46h1.56V76.52h1.61v3.94h2.11v1.06h-2.11v8.86c0,1.24.17,1.7,1.12,1.7a4.5,4.5,0,0,0,.92-.11V93.2a7.11,7.11,0,0,1-1.36.13C223.58,93.33,223.16,92.17,223.16,90.54Z"/><path class="cls-4" d="M228.77,76.52h1.61V78.7h-1.61Zm0,3.94h1.61V93.18h-1.61Z"/><path class="cls-4" d="M233.08,80.46h1.61v1.32a4.24,4.24,0,0,1,3.06-1.52c1.25,0,1.95,1,1.95,2.71V93.18h-1.6V83.32c0-1.32-.4-1.8-1.21-1.8a3.31,3.31,0,0,0-2.2,1.19V93.18h-1.61Z"/><path class="cls-4" d="M241.22,95.05a3.43,3.43,0,0,1,2.09-2.77c-1-.27-1.41-.73-1.41-1.39,0-.88.6-1.52,1.52-2.31a4.42,4.42,0,0,1-1.6-3.87c0-2.42,1.1-4.45,3.56-4.45a2.82,2.82,0,0,1,2.73,1.59,4.09,4.09,0,0,1,1.72-1.43l.33-.11.44,1.12a4.53,4.53,0,0,0-2.1,1.1,8.21,8.21,0,0,1,.4,2.22c0,2.55-1,4.45-3.5,4.45a4.49,4.49,0,0,1-1.3-.2,2.41,2.41,0,0,0-.85,1.45c0,.4.3.62,1.05.71l2,.3c2,.31,3.19,1.21,3.19,3,0,2-1.74,3-4.21,3S241.22,96.63,241.22,95.05Zm7-.62c0-.85-.42-1.4-2.4-1.71l-1.63-.22c-.63.46-1.62,1.16-1.62,2.15s.9,1.41,2.79,1.41C247.08,96.06,248.24,95.58,248.24,94.43Zm-.75-9.72c0-1.52-.33-3.3-2.09-3.3s-2.13,1.87-2.13,3.3S243.55,88,245.4,88,247.49,86.25,247.49,84.71Z"/></svg>