<svg xmlns="http://www.w3.org/2000/svg" width="461.504" height="57.33" viewBox="0 0 461.504 57.33"><g transform="translate(-2170.354 -278.714)"><path d="M2174.693,335.414V301.6h-4.34v-6.65h4.34v-2.59a26.644,26.644,0,0,1,.665-6.335,6.853,6.853,0,0,1,2.8-4.165q2.135-1.47,6.475-1.47,1.329,0,2.52.1t2.66.315v7.07c-.374-.092-.8-.175-1.295-.245a9.693,9.693,0,0,0-1.365-.105,2.468,2.468,0,0,0-2.31,1.05,6.074,6.074,0,0,0-.63,3.08v3.29h5.6v6.65h-5.6v33.81Z" fill="#fff"/><path d="M2206.262,336.044a14.5,14.5,0,0,1-7.28-1.645,10.263,10.263,0,0,1-4.3-4.795,18.318,18.318,0,0,1-1.435-7.63v-13.58a18.321,18.321,0,0,1,1.435-7.63,10.268,10.268,0,0,1,4.3-4.8,14.507,14.507,0,0,1,7.28-1.645,14.709,14.709,0,0,1,7.315,1.645,10.228,10.228,0,0,1,4.34,4.8,18.337,18.337,0,0,1,1.435,7.63v13.58a18.334,18.334,0,0,1-1.435,7.63,10.223,10.223,0,0,1-4.34,4.795A14.7,14.7,0,0,1,2206.262,336.044Zm.07-6.58a2.946,2.946,0,0,0,2.38-.91,4.731,4.731,0,0,0,.98-2.485,26.3,26.3,0,0,0,.21-3.465v-14.84a25.507,25.507,0,0,0-.21-3.43,4.9,4.9,0,0,0-.98-2.485,3.47,3.47,0,0,0-4.76,0,5.13,5.13,0,0,0-1.015,2.485,21.85,21.85,0,0,0-.245,3.43V322.6a22.528,22.528,0,0,0,.245,3.465,4.939,4.939,0,0,0,1.015,2.485A2.944,2.944,0,0,0,2206.332,329.464Z" fill="#fff"/><path d="M2226.071,335.414v-40.46h9.52v6.23a17.407,17.407,0,0,1,4.2-5.145,7.527,7.527,0,0,1,4.62-1.575,6.839,6.839,0,0,1,.735.035q.315.036.735.105v9.87a12.517,12.517,0,0,0-1.855-.6,8.788,8.788,0,0,0-2.065-.245,6.619,6.619,0,0,0-3.43.91,9.537,9.537,0,0,0-2.94,3.01v27.86Z" fill="#fff"/><path d="M2268.211,335.414v-56.7h16.66a16.114,16.114,0,0,1,8.295,1.89,11.216,11.216,0,0,1,4.69,5.495,22.614,22.614,0,0,1,1.505,8.715,18.294,18.294,0,0,1-1.89,8.925,11.257,11.257,0,0,1-5.285,4.935,19.26,19.26,0,0,1-8.015,1.54h-5.6v25.2Zm10.36-32.48h3.92a9.739,9.739,0,0,0,4.375-.8,4.3,4.3,0,0,0,2.17-2.59,15.64,15.64,0,0,0,.6-4.8,22.466,22.466,0,0,0-.455-5,4.3,4.3,0,0,0-1.96-2.835,9.442,9.442,0,0,0-4.725-.91h-3.92Z" fill="#fff"/><path d="M2316.511,336.044a14.315,14.315,0,0,1-7.42-1.715,10.168,10.168,0,0,1-4.235-5.04,21.086,21.086,0,0,1-1.365-8.015v-12.18a21.244,21.244,0,0,1,1.365-8.12,9.957,9.957,0,0,1,4.27-4.97,14.594,14.594,0,0,1,7.385-1.68q4.83,0,7.525,1.82a9.935,9.935,0,0,1,3.85,5.285,26.887,26.887,0,0,1,1.155,8.435v5.74h-16.1v7.98a11.237,11.237,0,0,0,.385,3.22,3.208,3.208,0,0,0,1.225,1.82,3.562,3.562,0,0,0,2.03.56,3.23,3.23,0,0,0,2.03-.6,3.366,3.366,0,0,0,1.12-1.75,10.193,10.193,0,0,0,.35-2.9v-3.36h8.89v2.73q0,6.161-3.08,9.45T2316.511,336.044Zm-3.57-25.13h7.14v-3.85a13.419,13.419,0,0,0-.35-3.395,3.44,3.44,0,0,0-1.12-1.89,3.492,3.492,0,0,0-2.17-.6,3.105,3.105,0,0,0-2.03.63,3.742,3.742,0,0,0-1.12,2.1,19.18,19.18,0,0,0-.35,4.2Z" fill="#fff"/><path d="M2335.691,335.414v-40.46h9.52v6.23a17.411,17.411,0,0,1,4.2-5.145,7.528,7.528,0,0,1,4.62-1.575,6.842,6.842,0,0,1,.735.035q.315.036.735.105v9.87a12.514,12.514,0,0,0-1.855-.6,8.789,8.789,0,0,0-2.065-.245,6.621,6.621,0,0,0-3.43.91,9.542,9.542,0,0,0-2.94,3.01v27.86Z" fill="#fff"/><path d="M2371.181,336.044a12.713,12.713,0,0,1-8.4-2.73,15.035,15.035,0,0,1-4.69-7.98l7.07-2.73a13.343,13.343,0,0,0,2.24,5.04,4.443,4.443,0,0,0,3.64,1.75,3.423,3.423,0,0,0,2.52-.84,3.121,3.121,0,0,0,.84-2.31,4.985,4.985,0,0,0-1.015-3.045,21.832,21.832,0,0,0-3.465-3.4l-4.9-4.13a24.887,24.887,0,0,1-4.3-4.725,10.512,10.512,0,0,1-1.645-6.055,9.791,9.791,0,0,1,5.635-9.275,13.034,13.034,0,0,1,5.845-1.295,10.794,10.794,0,0,1,7.875,2.9,13.663,13.663,0,0,1,3.815,7.6l-6.23,2.66a14.4,14.4,0,0,0-1.015-3.115,6.89,6.89,0,0,0-1.715-2.345,3.629,3.629,0,0,0-2.45-.91,3.1,3.1,0,0,0-2.345.91,3.2,3.2,0,0,0-.875,2.31,3.942,3.942,0,0,0,1.015,2.45,22.509,22.509,0,0,0,2.905,2.87l4.97,4.48a37.628,37.628,0,0,1,3.08,3.01,15.414,15.414,0,0,1,2.45,3.6,10.28,10.28,0,0,1,.98,4.585,10.42,10.42,0,0,1-1.575,5.88,9.912,9.912,0,0,1-4.27,3.605A14.31,14.31,0,0,1,2371.181,336.044Z" fill="#fff"/><path d="M2400.44,336.044a14.5,14.5,0,0,1-7.28-1.645,10.263,10.263,0,0,1-4.3-4.795,18.318,18.318,0,0,1-1.435-7.63v-13.58a18.321,18.321,0,0,1,1.435-7.63,10.268,10.268,0,0,1,4.3-4.8,14.507,14.507,0,0,1,7.28-1.645,14.708,14.708,0,0,1,7.315,1.645,10.228,10.228,0,0,1,4.34,4.8,18.337,18.337,0,0,1,1.435,7.63v13.58a18.334,18.334,0,0,1-1.435,7.63,10.223,10.223,0,0,1-4.34,4.795A14.7,14.7,0,0,1,2400.44,336.044Zm.07-6.58a2.946,2.946,0,0,0,2.38-.91,4.733,4.733,0,0,0,.98-2.485,26.346,26.346,0,0,0,.21-3.465v-14.84a25.55,25.55,0,0,0-.21-3.43,4.9,4.9,0,0,0-.98-2.485,3.47,3.47,0,0,0-4.76,0,5.13,5.13,0,0,0-1.015,2.485,21.852,21.852,0,0,0-.245,3.43V322.6a22.53,22.53,0,0,0,.245,3.465,4.939,4.939,0,0,0,1.015,2.485A2.944,2.944,0,0,0,2400.51,329.464Z" fill="#fff"/><path d="M2420.04,335.414v-40.46h9.52v4.06a20.6,20.6,0,0,1,4.585-3.4,10.861,10.861,0,0,1,5.214-1.295,6.051,6.051,0,0,1,3.991,1.225,7.182,7.182,0,0,1,2.17,3.255,13.5,13.5,0,0,1,.7,4.41v32.2h-9.52V305.1a5.732,5.732,0,0,0-.559-2.8,2.284,2.284,0,0,0-2.171-.98,4.939,4.939,0,0,0-2.135.56,13.949,13.949,0,0,0-2.274,1.4v32.13Z" fill="#fff"/><path d="M2461.059,336.044a7.725,7.725,0,0,1-4.69-1.435,9.5,9.5,0,0,1-3.01-3.64,10.543,10.543,0,0,1-1.05-4.585,12.584,12.584,0,0,1,5.11-10.71,26.183,26.183,0,0,1,5.25-3.045q2.94-1.295,5.95-2.345v-3.5a14.928,14.928,0,0,0-.245-2.94,3.379,3.379,0,0,0-.91-1.82,2.918,2.918,0,0,0-2.065-.63,3.092,3.092,0,0,0-1.925.56,3.056,3.056,0,0,0-1.05,1.575,9.631,9.631,0,0,0-.385,2.345l-.14,2.45-9.03-.35q.21-7,3.465-10.325t9.905-3.325q6.09,0,8.855,3.36t2.765,9.1v18.69q0,2.242.105,4.06t.28,3.29q.174,1.47.315,2.59h-8.54q-.21-1.4-.525-3.185t-.455-2.625a10.362,10.362,0,0,1-2.66,4.445A7.118,7.118,0,0,1,2461.059,336.044Zm3.5-7.07a3.426,3.426,0,0,0,1.715-.455,6.632,6.632,0,0,0,1.435-1.085,5.633,5.633,0,0,0,.91-1.12v-11.27q-1.54.91-2.9,1.82a13.47,13.47,0,0,0-2.38,1.995,7.846,7.846,0,0,0-1.54,2.345,7.605,7.605,0,0,0-.525,2.94,6.229,6.229,0,0,0,.875,3.535A2.759,2.759,0,0,0,2464.559,328.974Z" fill="#fff"/><path d="M2485.489,335.414v-56.7h9.45v56.7Z" fill="#fff"/><path d="M2526.019,336.044a6.1,6.1,0,0,1-3.92-1.225,6.911,6.911,0,0,1-2.24-3.29,13.529,13.529,0,0,1-.7-4.375v-32.2h9.52V325.4a5.625,5.625,0,0,0,.594,2.835,2.335,2.335,0,0,0,2.206,1.015,4.626,4.626,0,0,0,2.135-.56,15.981,15.981,0,0,0,2.135-1.33v-32.41h9.52v40.46h-9.52v-3.85a18.818,18.818,0,0,1-4.48,3.22A11.32,11.32,0,0,1,2526.019,336.044Z" fill="#fff"/><path d="M2563.608,336.044a12.712,12.712,0,0,1-8.4-2.73,15.035,15.035,0,0,1-4.69-7.98l7.07-2.73a13.343,13.343,0,0,0,2.24,5.04,4.443,4.443,0,0,0,3.64,1.75,3.423,3.423,0,0,0,2.52-.84,3.121,3.121,0,0,0,.84-2.31,4.985,4.985,0,0,0-1.015-3.045,21.832,21.832,0,0,0-3.465-3.4l-4.9-4.13a24.887,24.887,0,0,1-4.3-4.725,10.512,10.512,0,0,1-1.645-6.055,9.791,9.791,0,0,1,5.635-9.275,13.034,13.034,0,0,1,5.845-1.295,10.794,10.794,0,0,1,7.875,2.9,13.663,13.663,0,0,1,3.815,7.6l-6.23,2.66a14.4,14.4,0,0,0-1.015-3.115,6.89,6.89,0,0,0-1.715-2.345,3.629,3.629,0,0,0-2.45-.91,3.1,3.1,0,0,0-2.345.91,3.2,3.2,0,0,0-.875,2.31,3.942,3.942,0,0,0,1.015,2.45,22.509,22.509,0,0,0,2.905,2.87l4.97,4.48a37.628,37.628,0,0,1,3.08,3.01,15.414,15.414,0,0,1,2.45,3.6,10.28,10.28,0,0,1,.98,4.585,10.42,10.42,0,0,1-1.575,5.88,9.912,9.912,0,0,1-4.27,3.605A14.31,14.31,0,0,1,2563.608,336.044Z" fill="#fff"/><path d="M2592.868,336.044a14.311,14.311,0,0,1-7.42-1.715,10.174,10.174,0,0,1-4.236-5.04,21.106,21.106,0,0,1-1.364-8.015v-12.18a21.264,21.264,0,0,1,1.364-8.12,9.961,9.961,0,0,1,4.27-4.97,14.6,14.6,0,0,1,7.386-1.68,13.352,13.352,0,0,1,7.525,1.82,9.94,9.94,0,0,1,3.85,5.285,26.889,26.889,0,0,1,1.154,8.435v5.74h-16.1v7.98a11.19,11.19,0,0,0,.386,3.22,3.2,3.2,0,0,0,1.225,1.82,3.562,3.562,0,0,0,2.03.56,3.231,3.231,0,0,0,2.03-.6,3.365,3.365,0,0,0,1.119-1.75,10.189,10.189,0,0,0,.351-2.9v-3.36h8.89v2.73q0,6.161-3.08,9.45T2592.868,336.044Zm-3.571-25.13h7.141v-3.85a13.413,13.413,0,0,0-.351-3.395,3.439,3.439,0,0,0-1.119-1.89,3.5,3.5,0,0,0-2.171-.6,3.1,3.1,0,0,0-2.029.63,3.735,3.735,0,0,0-1.121,2.1,19.26,19.26,0,0,0-.35,4.2Z" fill="#fff"/><path d="M2612.047,335.414v-40.46h9.52v6.23a17.408,17.408,0,0,1,4.2-5.145,7.527,7.527,0,0,1,4.62-1.575,6.839,6.839,0,0,1,.735.035q.315.036.735.105v9.87a12.5,12.5,0,0,0-1.855-.6,8.787,8.787,0,0,0-2.064-.245,6.62,6.62,0,0,0-3.431.91,9.54,9.54,0,0,0-2.94,3.01v27.86Z" fill="#fff"/></g></svg>