<svg xmlns="http://www.w3.org/2000/svg" width="169.097" height="41.5" viewBox="0 0 169.097 41.5"><g transform="translate(-572.45 -1576.327)"><path d="M583.95,1617.827a12.083,12.083,0,0,1-6.975-1.75,9.115,9.115,0,0,1-3.525-4.775,22.2,22.2,0,0,1-1-6.975v-14.45a23.179,23.179,0,0,1,1-7.2,8.636,8.636,0,0,1,3.525-4.7,12.66,12.66,0,0,1,6.975-1.65,12.8,12.8,0,0,1,6.575,1.425,7.843,7.843,0,0,1,3.375,4.075,17.391,17.391,0,0,1,1,6.15v3.4h-7.1v-3.5a25.274,25.274,0,0,0-.175-3.1,3.855,3.855,0,0,0-.95-2.225,3.567,3.567,0,0,0-2.675-.825,3.8,3.8,0,0,0-2.775.875,4.225,4.225,0,0,0-1.125,2.35,20,20,0,0,0-.25,3.325v17.6a15.536,15.536,0,0,0,.35,3.625,3.753,3.753,0,0,0,1.275,2.15,3.985,3.985,0,0,0,2.525.725,3.362,3.362,0,0,0,2.625-.875,4.294,4.294,0,0,0,.975-2.325,23.986,23.986,0,0,0,.2-3.25v-3.65h7.1v3.25a19.662,19.662,0,0,1-.95,6.375,8.292,8.292,0,0,1-3.325,4.35A12.017,12.017,0,0,1,583.95,1617.827Z"/><path d="M608.35,1617.727a10.359,10.359,0,0,1-5.2-1.175,7.32,7.32,0,0,1-3.074-3.425,13.075,13.075,0,0,1-1.026-5.45v-9.7a13.079,13.079,0,0,1,1.026-5.45,7.329,7.329,0,0,1,3.074-3.425,10.368,10.368,0,0,1,5.2-1.175,10.508,10.508,0,0,1,5.225,1.175,7.3,7.3,0,0,1,3.1,3.425,13.1,13.1,0,0,1,1.026,5.45v9.7a13.092,13.092,0,0,1-1.026,5.45,7.293,7.293,0,0,1-3.1,3.425A10.5,10.5,0,0,1,608.35,1617.727Zm.049-4.7a2.105,2.105,0,0,0,1.7-.65,3.372,3.372,0,0,0,.7-1.775,18.8,18.8,0,0,0,.151-2.475v-10.6a18.235,18.235,0,0,0-.151-2.45,3.5,3.5,0,0,0-.7-1.775,2.478,2.478,0,0,0-3.4,0,3.66,3.66,0,0,0-.725,1.775,15.51,15.51,0,0,0-.176,2.45v10.6a15.989,15.989,0,0,0,.176,2.475,3.521,3.521,0,0,0,.725,1.775A2.1,2.1,0,0,0,608.4,1613.027Z"/><path d="M622.349,1617.277v-28.9h6.8v2.9a14.726,14.726,0,0,1,3.275-2.425,7.765,7.765,0,0,1,3.725-.925,4.316,4.316,0,0,1,2.85.875,5.132,5.132,0,0,1,1.55,2.325,9.619,9.619,0,0,1,.5,3.15v23h-6.8v-21.65a4.092,4.092,0,0,0-.4-2,1.631,1.631,0,0,0-1.55-.7,3.535,3.535,0,0,0-1.525.4,9.948,9.948,0,0,0-1.625,1v22.95Z"/><path d="M654.4,1617.627a8.746,8.746,0,0,1-4.325-.9,4.937,4.937,0,0,1-2.225-2.6,11.337,11.337,0,0,1-.65-4.05v-17.2h-2.9v-4.5h2.9v-8.65h6.85v8.65h4.4v4.5h-4.4v16.6a2.869,2.869,0,0,0,.65,2.125,2.708,2.708,0,0,0,1.95.625c.367,0,.725-.016,1.075-.05s.692-.066,1.025-.1v5.2q-.851.1-1.975.225A21.611,21.611,0,0,1,654.4,1617.627Z"/><path d="M671.4,1617.727a10.221,10.221,0,0,1-5.3-1.225,7.259,7.259,0,0,1-3.025-3.6,15.055,15.055,0,0,1-.975-5.725v-8.7a15.176,15.176,0,0,1,.975-5.8,7.113,7.113,0,0,1,3.051-3.55,10.42,10.42,0,0,1,5.274-1.2,9.531,9.531,0,0,1,5.375,1.3,7.092,7.092,0,0,1,2.75,3.775,19.2,19.2,0,0,1,.825,6.025v4.1h-11.5v5.7a8,8,0,0,0,.276,2.3,2.281,2.281,0,0,0,.875,1.3,2.538,2.538,0,0,0,1.449.4,2.3,2.3,0,0,0,1.45-.425,2.4,2.4,0,0,0,.8-1.25,7.262,7.262,0,0,0,.25-2.075v-2.4h6.35v1.95q0,4.4-2.2,6.75T671.4,1617.727Zm-2.55-17.95h5.1v-2.75a9.563,9.563,0,0,0-.25-2.425,2.451,2.451,0,0,0-.8-1.35,2.487,2.487,0,0,0-1.55-.425,2.221,2.221,0,0,0-1.45.45,2.677,2.677,0,0,0-.8,1.5,13.717,13.717,0,0,0-.25,3Z"/><path d="M684.948,1617.277v-28.9h6.8v2.9a14.726,14.726,0,0,1,3.275-2.425,7.768,7.768,0,0,1,3.725-.925,4.316,4.316,0,0,1,2.85.875,5.132,5.132,0,0,1,1.55,2.325,9.619,9.619,0,0,1,.5,3.15v23h-6.8v-21.65a4.092,4.092,0,0,0-.4-2,1.63,1.63,0,0,0-1.55-.7,3.535,3.535,0,0,0-1.525.4,9.948,9.948,0,0,0-1.625,1v22.95Z"/><path d="M717,1617.627a8.746,8.746,0,0,1-4.325-.9,4.937,4.937,0,0,1-2.225-2.6,11.314,11.314,0,0,1-.65-4.05v-17.2h-2.9v-4.5h2.9v-8.65h6.85v8.65h4.4v4.5h-4.4v16.6a2.865,2.865,0,0,0,.65,2.125,2.706,2.706,0,0,0,1.95.625c.366,0,.725-.016,1.075-.05s.691-.066,1.025-.1v5.2q-.851.1-1.975.225A21.611,21.611,0,0,1,717,1617.627Z"/><path d="M733.1,1617.727a9.082,9.082,0,0,1-6-1.95,10.745,10.745,0,0,1-3.35-5.7l5.05-1.95a9.525,9.525,0,0,0,1.6,3.6,3.171,3.171,0,0,0,2.6,1.25,2.445,2.445,0,0,0,1.8-.6,2.229,2.229,0,0,0,.6-1.65,3.56,3.56,0,0,0-.725-2.175,15.629,15.629,0,0,0-2.475-2.425l-3.5-2.95a17.784,17.784,0,0,1-3.075-3.375,7.505,7.505,0,0,1-1.175-4.325,7.3,7.3,0,0,1,1.075-4.025,7.22,7.22,0,0,1,2.95-2.6,9.313,9.313,0,0,1,4.175-.925,7.713,7.713,0,0,1,5.625,2.075,9.764,9.764,0,0,1,2.725,5.425l-4.45,1.9a10.306,10.306,0,0,0-.725-2.225,4.93,4.93,0,0,0-1.225-1.675,2.6,2.6,0,0,0-1.75-.65,2.219,2.219,0,0,0-1.675.65,2.285,2.285,0,0,0-.625,1.65,2.819,2.819,0,0,0,.725,1.75,16.064,16.064,0,0,0,2.075,2.05l3.55,3.2a26.993,26.993,0,0,1,2.2,2.15,11.006,11.006,0,0,1,1.75,2.575,7.346,7.346,0,0,1,.7,3.275,7.441,7.441,0,0,1-1.125,4.2,7.08,7.08,0,0,1-3.05,2.575A10.218,10.218,0,0,1,733.1,1617.727Z"/></g></svg>