<svg id="Layer_1" data-name="Layer 1" xmlns="http://www.w3.org/2000/svg" xmlns:xlink="http://www.w3.org/1999/xlink" width="261.12" height="113.51" viewBox="0 0 261.12 113.51"><defs><style>.cls-1{fill:none;}.cls-2{clip-path:url(#clip-path);}.cls-3{fill:#dde4ee;}.cls-4{fill:#010101;}.cls-5{clip-path:url(#clip-path-2);}</style><clipPath id="clip-path"><rect class="cls-1" width="261.12" height="113.51"/></clipPath><clipPath id="clip-path-2"><rect class="cls-1" y="-125.11" width="261.12" height="113.51"/></clipPath></defs><g class="cls-2"><path class="cls-3" d="M7.32,15.44H25v85.08H48.6v12.12H7.32Z"/><path class="cls-3" d="M55.44,88.28V67.64c0-16.68,7-25.44,22.32-25.44,16.32,0,21.48,9.6,21.48,26.52v10H71.64V92.36c0,6.84,2,9.6,6.24,9.6s5.88-3,5.88-9V87.08H99.12v4.8c0,14-7.08,21.84-21.36,21.84C62.16,113.72,55.44,104.72,55.44,88.28ZM83.76,70.64V64c0-7-1.44-10.08-6-10.08s-6.12,2.76-6.12,11.88v4.8Z"/><path class="cls-3" d="M110.28,43.28H126.6v6.84c4.92-4.68,10.44-7.92,16.8-7.92,8.4,0,11.76,7.2,11.76,15.24v55.2H138.84v-52c0-4.2-1-6.48-4.68-6.48-2.28,0-4.92,1.44-7.56,3.36v55.08H110.28Z"/><path class="cls-3" d="M166.08,89V67.76c0-14.28,4.08-25.56,16.56-25.56a18.17,18.17,0,0,1,12.48,5.52V15.44h16.44v97.2H195.12v-4.92c-3.6,3.72-7.8,6-12.36,6C171.72,113.72,166.08,106.28,166.08,89Zm29,11.16V55.64a11.16,11.16,0,0,0-6.48-2.28c-4.8,0-6.24,4.92-6.24,10.92V90.2c0,7,1.08,12.24,6.24,12.24A11.79,11.79,0,0,0,195.12,100.16Z"/></g><path class="cls-4" d="M2.2,64H7.49V89.54h7.09v3.64H2.2Z"/><path class="cls-4" d="M16.63,85.87V79.68c0-5,2.09-7.63,6.7-7.63,4.89,0,6.44,2.88,6.44,8v3H21.49V87.1c0,2.05.61,2.88,1.87,2.88s1.77-.9,1.77-2.7V85.51h4.6V87c0,4.21-2.12,6.55-6.4,6.55C18.65,93.5,16.63,90.8,16.63,85.87Zm8.5-5.29v-2c0-2.09-.44-3-1.8-3s-1.84.83-1.84,3.56v1.44Z"/><path class="cls-4" d="M33.08,72.37H38v2a7.4,7.4,0,0,1,5-2.37c2.52,0,3.53,2.16,3.53,4.57V93.18h-4.9V77.59c0-1.26-.29-1.94-1.4-1.94a4.26,4.26,0,0,0-2.27,1V93.18h-4.9Z"/><path class="cls-4" d="M49.82,86.09V79.72c0-4.29,1.23-7.67,5-7.67a5.47,5.47,0,0,1,3.75,1.65V64h4.93V93.18H58.54V91.7a5.2,5.2,0,0,1-3.71,1.8C51.52,93.5,49.82,91.27,49.82,86.09Zm8.72,3.35V76.08a3.33,3.33,0,0,0-1.95-.68c-1.44,0-1.87,1.47-1.87,3.27v7.78c0,2.08.32,3.67,1.87,3.67A3.62,3.62,0,0,0,58.54,89.44Z"/><path class="cls-4" d="M76.11,81.63H74.48V80.46h1.63V79.14c0-1.89.25-3.23,2.33-3.23a4.93,4.93,0,0,1,1.3.15v1.19a3.89,3.89,0,0,0-.9-.11c-1,0-1.1.59-1.1,1.85v1.47h2.05v1.17H77.74V93.18H76.11Z"/><path class="cls-4" d="M81,88.58V85.06c0-3.06.74-4.8,3.38-4.8s3.41,1.72,3.41,4.8v3.52c0,3.08-.74,4.8-3.41,4.8S81,91.66,81,88.58Zm5.17.09V85c0-2.07-.11-3.5-1.79-3.5S82.6,82.9,82.6,85v3.7c0,2.07.11,3.5,1.76,3.5S86.15,90.74,86.15,88.67Z"/><path class="cls-4" d="M90.11,80.46h1.62V82.2a3.51,3.51,0,0,1,2.93-1.87,1.68,1.68,0,0,1,.29,0v1.72a2.64,2.64,0,0,0-3.22,1.34v9.77H90.11Z"/><path class="cls-4" d="M100.77,88.36v-3c0-3.52.69-5.13,3.42-5.13s3.23,1.65,3.23,4.07V85h-1.5v-.62c0-2.22-.46-2.86-1.73-2.86-1.52,0-1.81,1-1.81,3.66v3.56c0,2.55.37,3.48,1.83,3.48s1.71-1,1.71-3.06V88.4h1.5V89c0,2.57-.48,4.36-3.23,4.36C101.21,93.38,100.77,91.24,100.77,88.36Z"/><path class="cls-4" d="M109.33,88.58V85.06c0-3.06.75-4.8,3.39-4.8s3.41,1.72,3.41,4.8v3.52c0,3.08-.75,4.8-3.41,4.8S109.33,91.66,109.33,88.58Zm5.17.09V85c0-2.07-.11-3.5-1.78-3.5S111,82.9,111,85v3.7c0,2.07.11,3.5,1.76,3.5S114.5,90.74,114.5,88.67Z"/><path class="cls-4" d="M118.46,80.46h1.63V82.2A3.49,3.49,0,0,1,123,80.33a1.52,1.52,0,0,1,.28,0v1.72a2.65,2.65,0,0,0-.79-.14,2.71,2.71,0,0,0-2.42,1.48v9.77h-1.63Z"/><path class="cls-4" d="M124.89,80.46h1.6v1.06a3.08,3.08,0,0,1,2.45-1.26c2.46,0,2.88,2.51,2.88,5.06V88c0,3.25-.68,5.37-3.06,5.37a3.12,3.12,0,0,1-2.27-1.21v5.19h-1.6Zm5.32,7.59V85.32c0-2.48-.24-3.8-1.74-3.8a3,3,0,0,0-2,1v8.67a2.83,2.83,0,0,0,2,.92C130,92.1,130.21,90.69,130.21,88.05Z"/><path class="cls-4" d="M133.82,88.58V85.06c0-3.06.75-4.8,3.39-4.8s3.41,1.72,3.41,4.8v3.52c0,3.08-.75,4.8-3.41,4.8S133.82,91.66,133.82,88.58Zm5.17.09V85c0-2.07-.11-3.5-1.78-3.5s-1.76,1.43-1.76,3.5v3.7c0,2.07.11,3.5,1.76,3.5S139,90.74,139,88.67Z"/><path class="cls-4" d="M143,80.46h1.63V82.2a3.48,3.48,0,0,1,2.92-1.87,1.62,1.62,0,0,1,.29,0v1.72a2.62,2.62,0,0,0-3.21,1.34v9.77H143Z"/><path class="cls-4" d="M149,90.54c0-2.55,1.39-3.41,5.13-5.08v-.91c0-2.31-.37-3.08-1.58-3.08-1,0-1.79.51-1.79,2.18v.44l-1.58,0c0-2.58,1-3.81,3.45-3.81,2.27,0,3.11,1.34,3.11,4.21v6.18c0,.66,0,2.07.11,2.53h-1.43c-.07-.55-.2-1.37-.25-1.76a2.77,2.77,0,0,1-2.61,2A2.62,2.62,0,0,1,149,90.54Zm5.13-.05v-4c-2.51,1.32-3.52,1.87-3.52,3.61,0,1.34.68,1.87,1.45,1.87A2.57,2.57,0,0,0,154.08,90.49Z"/><path class="cls-4" d="M158.68,90.54v-9h-1.56V80.46h1.56V76.52h1.6v3.94h2.12v1.06h-2.12v8.86c0,1.24.18,1.7,1.13,1.7a5.33,5.33,0,0,0,.92-.11V93.2a7.11,7.11,0,0,1-1.36.13C159.1,93.33,158.68,92.17,158.68,90.54Z"/><path class="cls-4" d="M163.87,88.4V85.19c0-3.76,1.1-4.93,3.45-4.93,2.67,0,3.3,1.67,3.3,5.26v1.15h-5.14v2.22c0,2.48.52,3.28,1.82,3.28,1,0,1.74-.44,1.74-2.45v-.88h1.56v.71c0,2.31-.83,3.83-3.3,3.83S163.87,92.1,163.87,88.4ZM169,85.74v-1c0-2-.18-3.22-1.74-3.22-1.32,0-1.82.71-1.82,3.41v.86Z"/><path class="cls-4" d="M177.18,90.67V80.46h1.63v9.86c0,1.32.39,1.78,1.21,1.78a3.33,3.33,0,0,0,2.24-1.25V80.46h1.61V93.18h-1.61V91.77a4.15,4.15,0,0,1-3.1,1.61C177.86,93.38,177.18,92.39,177.18,90.67Z"/><path class="cls-4" d="M185.8,89.77l1.35-.42c.17,2,.92,2.82,2.22,2.82a1.62,1.62,0,0,0,1.74-1.81,3.45,3.45,0,0,0-1.54-2.55l-1.74-1.5a3.84,3.84,0,0,1-1.74-3.19,2.73,2.73,0,0,1,3-2.86c1.93,0,2.9,1.39,3,3.35L191,84c-.09-1.72-.71-2.51-1.81-2.51A1.47,1.47,0,0,0,187.56,83a2.48,2.48,0,0,0,1,2l1.8,1.6c1,.93,2.11,1.94,2.11,3.7,0,2-1.29,3.06-3.25,3.06S186,92,185.8,89.77Z"/><path class="cls-4" d="M194.1,88.4V85.19c0-3.76,1.1-4.93,3.45-4.93,2.66,0,3.3,1.67,3.3,5.26v1.15H195.7v2.22c0,2.48.53,3.28,1.83,3.28,1,0,1.74-.44,1.74-2.45v-.88h1.56v.71c0,2.31-.84,3.83-3.3,3.83S194.1,92.1,194.1,88.4Zm5.17-2.66v-1c0-2-.18-3.22-1.74-3.22-1.32,0-1.83.71-1.83,3.41v.86Z"/><path class="cls-4" d="M203.14,80.46h1.63V82.2a3.49,3.49,0,0,1,2.92-1.87,1.62,1.62,0,0,1,.29,0v1.72a2.62,2.62,0,0,0-3.21,1.34v9.77h-1.63Z"/><g class="cls-5"><path class="cls-3" d="M130.32-5.39c8.28,0,11.88-1.08,11.88-5.52,0-2-1.2-7-2.52-12.24L124.44-81.83h15.84l9,45.84,7.8-45.84H172.8L156.6-9.71C153.84,2.53,145.8,6.37,133.44,6.37h-3.12Z"/></g></svg>