<svg id="Layer_1" data-name="Layer 1" xmlns="http://www.w3.org/2000/svg" xmlns:xlink="http://www.w3.org/1999/xlink" width="341.12" height="113.51" viewBox="0 0 341.12 113.51"><defs><style>.cls-1{fill:none;}.cls-2{clip-path:url(#clip-path);}.cls-3{fill:#dde4ee;}.cls-4{fill:#010101;}</style><clipPath id="clip-path"><rect class="cls-1" width="341.12" height="113.51"/></clipPath></defs><g class="cls-2"><path class="cls-3" d="M5.76,81.56V46.88c0-19.92,6.36-32.52,27.72-32.52,19.92,0,26.28,11,26.28,28v8.16h-17v-8.4c0-8.16-.12-14.76-9.12-14.76s-10,7-10,15.84V85.28c0,10.56,2.16,15.6,10,15.6,8.76,0,9.12-6.84,9.12-15.48V76.64h17v7.8C59.76,101.6,54,114,33.48,114,12.12,114,5.76,100.52,5.76,81.56Z"/><path class="cls-3" d="M69.48,97.28c0-17.28,14-22.56,28-27.72v-6c0-5.88-.84-9.24-5.52-9.24-4.2,0-5.64,3.12-5.76,7.68l-.24,4.2-15.48-.6c.48-16,7.68-23.4,22.8-23.4,13.92,0,20,8.16,20,21.36v32a126.48,126.48,0,0,0,1.2,17H99.84c-.6-3.12-1.44-8-1.68-10-1.68,5.52-6,11-13.68,11C75.12,113.72,69.48,105.32,69.48,97.28Zm28-.24V77.6c-7.2,4.2-12.6,8.16-12.6,15.72,0,5.16,2,8.28,5.64,8.28C93.6,101.6,96.24,98.84,97.44,97Z"/><path class="cls-3" d="M121.68,95.36l12.12-4.68c1.8,7.56,5,11.64,10.08,11.64,3.72,0,5.76-2,5.76-5.4,0-3.84-2-6.36-7.68-11l-8.28-7.2c-6.24-5.16-10.32-10-10.32-18.36,0-11.16,8.52-18.12,19.68-18.12s18,7.32,20,18L152.4,64.76c-1.2-5.76-4-10.92-8.88-10.92A5.23,5.23,0,0,0,138,59.36c0,2.64,2.4,5.52,6.72,9.12l8.4,7.68c5.52,4.8,11.28,10.32,11.28,19.2,0,12.12-9,18.36-20.28,18.36C132.36,113.72,124.8,107.36,121.68,95.36Z"/><path class="cls-3" d="M172,88.28V67.64c0-16.68,7-25.44,22.32-25.44,16.32,0,21.48,9.6,21.48,26.52v10h-27.6V92.36c0,6.84,2,9.6,6.24,9.6s5.88-3,5.88-9V87.08h15.36v4.8c0,14-7.08,21.84-21.36,21.84C178.68,113.72,172,104.72,172,88.28Zm28.32-17.64V64c0-7-1.44-10.08-6-10.08s-6.12,2.76-6.12,11.88v4.8Z"/></g><path class="cls-4" d="M2.2,64H9.4c5.11,0,8.53,1.73,8.53,7.49,0,3.56-1.48,5.54-4.22,6,3.42.64,5,3.09,5,7.19,0,5.58-2.73,8.5-8.13,8.5H2.2ZM9.32,75.94c3.17,0,4-1.41,4-4.36s-1.51-3.85-4.75-3.85H7.49v8.21Zm.22,13.5c3.24,0,4.14-1.52,4.14-4.79,0-3.46-1.15-5-4.32-5H7.49v9.83Z"/><path class="cls-4" d="M22,72.37h4.9v3.21c1.4-2.45,2.77-3.46,4.53-3.46a3,3,0,0,1,.76.07v5.08a5.66,5.66,0,0,0-2-.43,3.79,3.79,0,0,0-3.27,2V93.18H22Z"/><path class="cls-4" d="M34.27,86.27v-7c0-4.61,2.13-7.24,6.66-7.24s6.7,2.63,6.7,7.24v7c0,4.61-2.16,7.23-6.7,7.23S34.27,90.88,34.27,86.27Zm8.53.36V79c0-1.94-.18-3.53-1.83-3.53S39.09,77,39.09,79v7.67c0,1.91.19,3.49,1.88,3.49S42.8,88.57,42.8,86.63Z"/><path class="cls-4" d="M51.08,64h4.86V80.76l5.33-8.39h5.36l-5.22,8.35,5.12,12.46H61.38L57.6,82.92l-1.66,2.3v7.92H51.08Z"/><path class="cls-4" d="M68.08,85.87V79.68c0-5,2.08-7.63,6.69-7.63,4.9,0,6.44,2.88,6.44,8v3H72.93V87.1c0,2.05.62,2.88,1.88,2.88s1.76-.9,1.76-2.7V85.51h4.61V87c0,4.21-2.13,6.55-6.41,6.55C70.09,93.5,68.08,90.8,68.08,85.87Zm8.49-5.29v-2c0-2.09-.43-3-1.8-3s-1.84.83-1.84,3.56v1.44Z"/><path class="cls-4" d="M84.64,72.37h4.89v3.21c1.4-2.45,2.77-3.46,4.54-3.46a2.87,2.87,0,0,1,.75.07v5.08a5.61,5.61,0,0,0-2-.43,3.81,3.81,0,0,0-3.28,2V93.18H84.64Z"/><path class="cls-4" d="M96.7,88.57c0-5.18,4.21-6.77,8.38-8.31v-1.8c0-1.77-.25-2.77-1.65-2.77s-1.7.93-1.73,2.3l-.07,1.26L97,79.07c.15-4.79,2.31-7,6.84-7,4.18,0,6,2.45,6,6.41v9.61a38.62,38.62,0,0,0,.36,5.11H105.8c-.18-.94-.43-2.41-.5-3a4.28,4.28,0,0,1-4.11,3.31A4.71,4.71,0,0,1,96.7,88.57Zm8.38-.07V82.67c-2.16,1.26-3.78,2.45-3.78,4.71,0,1.55.61,2.49,1.69,2.49A2.84,2.84,0,0,0,105.08,88.5Z"/><path class="cls-4" d="M112.36,95.92c0-2,1.4-3.28,3.13-4.07-1.59-.47-2.45-1.44-2.45-2.77,0-1.62.86-2.67,2.3-3.93-1.47-1.19-2.23-2.91-2.23-5.79,0-4.75,2.34-7.31,6.7-7.31a5.33,5.33,0,0,1,4.6,1.94,7.32,7.32,0,0,1,2.67-2.16l.68-.28,1.15,2.62a19,19,0,0,0-3.38,1.41,10.46,10.46,0,0,1,.76,3.85c0,4.39-2,7.2-6.48,7.2A9.64,9.64,0,0,1,117,86.2a2.79,2.79,0,0,0-.61,1.44c0,.54.5.86,1.87,1l4.35.44c3.46.36,5,2.16,5,5.25,0,3.74-2.45,5.69-8.1,5.69C115.31,100,112.36,98.76,112.36,95.92Zm11.77-1.41c0-1.15-.65-1.62-3-1.87l-3.57-.32a3.12,3.12,0,0,0-1.4,2.26c0,1.19,1,1.77,3.92,1.77C122.76,96.35,124.13,95.88,124.13,94.51Zm-2.31-15.15c0-2.81-.29-4.21-2-4.21s-2.09,1.33-2.09,4.21c0,2.66.36,4.17,2.09,4.17S121.82,82.2,121.82,79.36Z"/><path class="cls-4" d="M129.85,85.87V79.68c0-5,2.09-7.63,6.7-7.63,4.89,0,6.44,2.88,6.44,8v3h-8.28V87.1c0,2.05.61,2.88,1.87,2.88s1.77-.9,1.77-2.7V85.51H143V87c0,4.21-2.12,6.55-6.4,6.55C131.87,93.5,129.85,90.8,129.85,85.87Zm8.5-5.29v-2c0-2.09-.44-3-1.8-3s-1.84.83-1.84,3.56v1.44Z"/><path class="cls-4" d="M154.37,87.83V80.75c0-3.28,1-5.57,4.51-5.57,3.19,0,4.22,2,4.22,5.06v1.08h-1.58v-1c0-2.32-.4-3.77-2.62-3.77-2.42,0-2.84,1.61-2.84,4V88.1c0,2.64.64,4,2.84,4s2.62-1.54,2.62-3.88V87h1.58v1c0,3.13-.9,5.33-4.22,5.33C155.27,93.4,154.37,90.93,154.37,87.83Z"/><path class="cls-4" d="M165,90.54c0-2.55,1.38-3.41,5.12-5.08v-.91c0-2.31-.37-3.08-1.58-3.08-1,0-1.78.51-1.78,2.18v.44l-1.59,0c0-2.57,1-3.81,3.46-3.81,2.26,0,3.1,1.35,3.1,4.21v6.18c0,.66,0,2.07.11,2.53h-1.43c-.07-.55-.2-1.36-.24-1.76a2.78,2.78,0,0,1-2.62,2A2.62,2.62,0,0,1,165,90.54Zm5.12,0v-4c-2.5,1.32-3.52,1.87-3.52,3.61,0,1.35.69,1.87,1.46,1.87A2.58,2.58,0,0,0,170.16,90.5Z"/><path class="cls-4" d="M173.57,89.77l1.35-.42c.17,2,.92,2.82,2.22,2.82a1.62,1.62,0,0,0,1.74-1.81,3.45,3.45,0,0,0-1.54-2.55l-1.74-1.5a3.84,3.84,0,0,1-1.74-3.19,2.73,2.73,0,0,1,3-2.86c1.93,0,2.9,1.39,3,3.35l-1.14.37c-.09-1.71-.71-2.51-1.81-2.51A1.47,1.47,0,0,0,175.33,83a2.48,2.48,0,0,0,1,2l1.8,1.6c1,.93,2.11,1.94,2.11,3.7,0,2-1.29,3.06-3.25,3.06S173.75,92,173.57,89.77Z"/><path class="cls-4" d="M181.87,88.4V85.19c0-3.76,1.1-4.93,3.45-4.93,2.66,0,3.3,1.68,3.3,5.26v1.15h-5.15v2.22c0,2.49.53,3.28,1.83,3.28,1,0,1.74-.44,1.74-2.45v-.88h1.56v.71c0,2.31-.84,3.83-3.3,3.83S181.87,92.1,181.87,88.4ZM187,85.74v-1c0-2-.18-3.22-1.74-3.22-1.32,0-1.83.71-1.83,3.41v.86Z"/><path class="cls-4" d="M190.25,89.77l1.34-.42c.18,2,.93,2.82,2.22,2.82a1.62,1.62,0,0,0,1.74-1.81A3.42,3.42,0,0,0,194,87.81l-1.74-1.5a3.86,3.86,0,0,1-1.73-3.19,2.73,2.73,0,0,1,3-2.86c1.94,0,2.91,1.39,3,3.35l-1.15.37c-.09-1.71-.7-2.51-1.8-2.51A1.47,1.47,0,0,0,192,83a2.47,2.47,0,0,0,1,2l1.81,1.6c1,.93,2.11,1.94,2.11,3.7,0,2-1.3,3.06-3.26,3.06S190.42,92,190.25,89.77Z"/></svg>