<svg xmlns="http://www.w3.org/2000/svg" width="69.902" height="91.752" viewBox="0 0 69.902 91.752"><g transform="translate(-2866.48 -2399.83)"><path d="M2894.657,2433.058l7.012-7.013,7.013,7.013" fill="none" stroke="#1e64a0" stroke-miterlimit="10" stroke-width="1"/><circle cx="30" cy="30" r="30" transform="translate(2871.281 2400.33)" fill="none" stroke="#1e64a0" stroke-miterlimit="10" stroke-width="1"/><path d="M2866.481,2488.542v-12.96h3.185a6.973,6.973,0,0,1,1.56.16,3.176,3.176,0,0,1,1.2.536,2.4,2.4,0,0,1,.775,1.016,4.138,4.138,0,0,1,.273,1.616,3.759,3.759,0,0,1-.216,1.344,2.046,2.046,0,0,1-.632.888,2.31,2.31,0,0,1-1.04.44,2.674,2.674,0,0,1,1.271.536,2.45,2.45,0,0,1,.752,1.064,4.5,4.5,0,0,1,.248,1.584,5.313,5.313,0,0,1-.231,1.64,3.037,3.037,0,0,1-.688,1.184,2.885,2.885,0,0,1-1.136.712,4.794,4.794,0,0,1-1.592.24Zm2.369-7.664h.8a2.312,2.312,0,0,0,1.088-.208,1.122,1.122,0,0,0,.536-.64,3.3,3.3,0,0,0,.153-1.088,2.028,2.028,0,0,0-.233-1.064,1.167,1.167,0,0,0-.7-.512,4.291,4.291,0,0,0-1.185-.136h-.463Zm0,6h.9a1.71,1.71,0,0,0,1.455-.52,2.706,2.706,0,0,0,.385-1.608,3.658,3.658,0,0,0-.185-1.272,1.352,1.352,0,0,0-.607-.728,2.288,2.288,0,0,0-1.128-.24h-.816Z"/><path d="M2877.041,2488.686a1.77,1.77,0,0,1-1.072-.328,2.179,2.179,0,0,1-.688-.832,2.409,2.409,0,0,1-.24-1.048,2.877,2.877,0,0,1,1.168-2.448,5.942,5.942,0,0,1,1.2-.7q.672-.3,1.361-.536v-.8a3.407,3.407,0,0,0-.057-.672.77.77,0,0,0-.208-.416.668.668,0,0,0-.472-.144.71.71,0,0,0-.44.128.69.69,0,0,0-.239.36,2.115,2.115,0,0,0-.088.536l-.033.56-2.064-.08a3.42,3.42,0,0,1,.792-2.36,3.041,3.041,0,0,1,2.265-.76,2.473,2.473,0,0,1,2.023.768,3.174,3.174,0,0,1,.632,2.08v4.272c0,.341.009.65.024.928s.037.528.064.752.051.422.072.592h-1.952c-.031-.213-.071-.456-.12-.728s-.082-.472-.1-.6a2.362,2.362,0,0,1-.608,1.016A1.626,1.626,0,0,1,2877.041,2488.686Zm.8-1.616a.791.791,0,0,0,.392-.1,1.588,1.588,0,0,0,.329-.248,1.319,1.319,0,0,0,.208-.256v-2.576c-.236.138-.457.278-.665.416a3.031,3.031,0,0,0-.543.456,1.77,1.77,0,0,0-.353.536,1.737,1.737,0,0,0-.12.672,1.42,1.42,0,0,0,.2.808A.632.632,0,0,0,2877.841,2487.07Z"/><path d="M2885.266,2488.686a3.2,3.2,0,0,1-1.721-.408,2.335,2.335,0,0,1-.943-1.168,4.917,4.917,0,0,1-.3-1.8v-2.784a4.959,4.959,0,0,1,.3-1.824,2.279,2.279,0,0,1,.951-1.152,3.253,3.253,0,0,1,1.713-.4,3.673,3.673,0,0,1,1.624.312,1.916,1.916,0,0,1,.92.944,3.861,3.861,0,0,1,.288,1.592v.768h-2.049v-.816a3.242,3.242,0,0,0-.071-.76.661.661,0,0,0-.249-.4.809.809,0,0,0-.463-.12.687.687,0,0,0-.465.152.872.872,0,0,0-.248.488,4.646,4.646,0,0,0-.072.928v3.392a2.561,2.561,0,0,0,.192,1.208.661.661,0,0,0,.608.312.736.736,0,0,0,.489-.144.726.726,0,0,0,.223-.424,3.545,3.545,0,0,0,.056-.68v-.992h2.049v.88a3.837,3.837,0,0,1-.3,1.584,2.006,2.006,0,0,1-.928.984A3.483,3.483,0,0,1,2885.266,2488.686Z"/><path d="M2889.537,2488.542v-12.96h2.176v7.44l2.384-3.728h2.368l-2.32,3.712,2.272,5.536h-2.288l-1.681-4.56-.735,1.024v3.536Z"/><path d="M2903.872,2488.654a2.8,2.8,0,0,1-1.384-.288,1.586,1.586,0,0,1-.712-.832,3.648,3.648,0,0,1-.208-1.3v-5.5h-.927v-1.44h.927v-2.768h2.193v2.768h1.407v1.44h-1.407v5.312a.917.917,0,0,0,.208.68.865.865,0,0,0,.624.2c.117,0,.231-.006.344-.016l.328-.032v1.664l-.632.072A7.1,7.1,0,0,1,2903.872,2488.654Z"/><path d="M2909.312,2488.686a3.314,3.314,0,0,1-1.665-.376,2.346,2.346,0,0,1-.983-1.1,4.183,4.183,0,0,1-.328-1.744v-3.1a4.185,4.185,0,0,1,.328-1.744,2.352,2.352,0,0,1,.983-1.1,3.314,3.314,0,0,1,1.665-.376,3.355,3.355,0,0,1,1.672.376,2.339,2.339,0,0,1,.992,1.1,4.2,4.2,0,0,1,.328,1.744v3.1a4.2,4.2,0,0,1-.328,1.744,2.333,2.333,0,0,1-.992,1.1A3.355,3.355,0,0,1,2909.312,2488.686Zm.016-1.5a.673.673,0,0,0,.544-.208,1.1,1.1,0,0,0,.224-.568,6.019,6.019,0,0,0,.048-.792v-3.392a5.843,5.843,0,0,0-.048-.784,1.133,1.133,0,0,0-.224-.568.793.793,0,0,0-1.088,0,1.168,1.168,0,0,0-.232.568,5.047,5.047,0,0,0-.056.784v3.392a5.2,5.2,0,0,0,.056.792,1.126,1.126,0,0,0,.232.568A.671.671,0,0,0,2909.328,2487.182Z"/><path d="M2920.352,2488.654a2.8,2.8,0,0,1-1.384-.288,1.584,1.584,0,0,1-.712-.832,3.62,3.62,0,0,1-.208-1.3v-5.5h-.928v-1.44h.928v-2.768h2.192v2.768h1.407v1.44h-1.407v5.312a.921.921,0,0,0,.208.68.869.869,0,0,0,.624.2c.117,0,.232-.006.344-.016l.328-.032v1.664l-.632.072A7.1,7.1,0,0,1,2920.352,2488.654Z"/><path d="M2925.791,2488.686a3.308,3.308,0,0,1-1.664-.376,2.336,2.336,0,0,1-.983-1.1,4.183,4.183,0,0,1-.329-1.744v-3.1a4.185,4.185,0,0,1,.329-1.744,2.342,2.342,0,0,1,.983-1.1,3.308,3.308,0,0,1,1.664-.376,3.357,3.357,0,0,1,1.673.376,2.343,2.343,0,0,1,.991,1.1,4.185,4.185,0,0,1,.328,1.744v3.1a4.183,4.183,0,0,1-.328,1.744,2.337,2.337,0,0,1-.991,1.1A3.357,3.357,0,0,1,2925.791,2488.686Zm.017-1.5a.674.674,0,0,0,.544-.208,1.087,1.087,0,0,0,.223-.568,6.019,6.019,0,0,0,.048-.792v-3.392a5.843,5.843,0,0,0-.048-.784,1.124,1.124,0,0,0-.223-.568.793.793,0,0,0-1.088,0,1.168,1.168,0,0,0-.233.568,5.053,5.053,0,0,0-.055.784v3.392a5.2,5.2,0,0,0,.055.792,1.127,1.127,0,0,0,.233.568A.672.672,0,0,0,2925.808,2487.182Z"/><path d="M2930.271,2491.582v-12.288h2.176v.7a3.422,3.422,0,0,1,.88-.616,2.3,2.3,0,0,1,1.008-.232,1.709,1.709,0,0,1,1.024.288,1.934,1.934,0,0,1,.624.76,3.743,3.743,0,0,1,.312,1.008,6.318,6.318,0,0,1,.088,1.032v3.136a5.977,5.977,0,0,1-.216,1.664,2.6,2.6,0,0,1-.688,1.2,1.746,1.746,0,0,1-1.255.448,1.928,1.928,0,0,1-.937-.24,4.275,4.275,0,0,1-.84-.608v3.744Zm3.136-4.416a.6.6,0,0,0,.52-.232,1.4,1.4,0,0,0,.224-.624,6.1,6.1,0,0,0,.056-.856v-3.312a4.33,4.33,0,0,0-.063-.776,1.169,1.169,0,0,0-.241-.552.632.632,0,0,0-.511-.208,1.143,1.143,0,0,0-.5.12,2.1,2.1,0,0,0-.441.28v5.84a1.946,1.946,0,0,0,.449.232A1.462,1.462,0,0,0,2933.407,2487.166Z"/></g></svg>