<svg xmlns="http://www.w3.org/2000/svg" width="63.295" height="13.104" viewBox="0 0 63.295 13.104"><g transform="translate(-1107.315 -1363.999)"><path d="M1109.923,1376.959l-2.608-12.96h2.1l1.712,9.168,1.6-9.168h2.144l-2.608,12.96Z"/><path d="M1116.115,1366.239v-1.808h2.176v1.808Zm0,10.72v-9.248h2.176v9.248Z"/><path d="M1122.818,1377.1a3.271,3.271,0,0,1-1.695-.392,2.321,2.321,0,0,1-.969-1.152,4.819,4.819,0,0,1-.312-1.832v-2.784a4.853,4.853,0,0,1,.312-1.856,2.28,2.28,0,0,1,.976-1.136,3.338,3.338,0,0,1,1.688-.384,3.053,3.053,0,0,1,1.721.416,2.263,2.263,0,0,1,.879,1.208,6.114,6.114,0,0,1,.265,1.928v1.312H1122v1.824a2.593,2.593,0,0,0,.088.736.736.736,0,0,0,.281.416.818.818,0,0,0,.463.128.736.736,0,0,0,.464-.136.768.768,0,0,0,.257-.4,2.34,2.34,0,0,0,.08-.664v-.768h2.032v.624a3.041,3.041,0,0,1-.7,2.16A2.8,2.8,0,0,1,1122.818,1377.1Zm-.816-5.744h1.633v-.88a3.08,3.08,0,0,0-.08-.776.68.68,0,0,0-.752-.568.712.712,0,0,0-.465.144.855.855,0,0,0-.255.48,4.345,4.345,0,0,0-.081.96Z"/><path d="M1128.131,1376.959l-1.424-9.248h1.808l.816,6,.96-6h1.616l.912,6.064.88-6.064h1.712l-1.456,9.248h-1.84l-1.024-5.84-1.072,5.84Z"/><path d="M1140.531,1376.959v-9.248h2.1v.8a3.015,3.015,0,0,1,1.04-.744,2.957,2.957,0,0,1,1.136-.232,1.68,1.68,0,0,1,.952.272,1.571,1.571,0,0,1,.6.864,3.284,3.284,0,0,1,1.121-.872,2.956,2.956,0,0,1,1.216-.264,1.591,1.591,0,0,1,.88.248,1.685,1.685,0,0,1,.608.736,2.938,2.938,0,0,1,.224,1.224v7.216h-2.08v-7.024a1.127,1.127,0,0,0-.176-.728.628.628,0,0,0-.5-.2,1.372,1.372,0,0,0-.568.144,1.948,1.948,0,0,0-.568.4v7.408h-2.064v-7.024a1.092,1.092,0,0,0-.184-.728.653.653,0,0,0-.5-.2,1.318,1.318,0,0,0-.56.144,2.222,2.222,0,0,0-.576.4v7.408Z"/><path d="M1154.818,1377.1a3.31,3.31,0,0,1-1.664-.376,2.348,2.348,0,0,1-.984-1.1,4.2,4.2,0,0,1-.328-1.744v-3.1a4.2,4.2,0,0,1,.328-1.744,2.353,2.353,0,0,1,.984-1.1,3.31,3.31,0,0,1,1.664-.376,3.357,3.357,0,0,1,1.673.376,2.336,2.336,0,0,1,.991,1.1,4.185,4.185,0,0,1,.329,1.744v3.1a4.182,4.182,0,0,1-.329,1.744,2.332,2.332,0,0,1-.991,1.1A3.357,3.357,0,0,1,1154.818,1377.1Zm.016-1.5a.671.671,0,0,0,.544-.208,1.088,1.088,0,0,0,.225-.568,6.03,6.03,0,0,0,.047-.792v-3.392a5.851,5.851,0,0,0-.047-.784,1.127,1.127,0,0,0-.225-.568.792.792,0,0,0-1.087,0,1.166,1.166,0,0,0-.232.568,4.935,4.935,0,0,0-.057.784v3.392a5.086,5.086,0,0,0,.057.792,1.123,1.123,0,0,0,.232.568A.67.67,0,0,0,1154.834,1375.6Z"/><path d="M1159.346,1376.959v-9.248h2.176v1.424a3.978,3.978,0,0,1,.96-1.176,1.72,1.72,0,0,1,1.056-.36,1.651,1.651,0,0,1,.169.008l.168.024v2.256a2.988,2.988,0,0,0-.425-.136,2.022,2.022,0,0,0-.471-.056,1.512,1.512,0,0,0-.785.208,2.179,2.179,0,0,0-.672.688v6.368Z"/><path d="M1167.746,1377.1a3.275,3.275,0,0,1-1.7-.392,2.324,2.324,0,0,1-.968-1.152,4.819,4.819,0,0,1-.312-1.832v-2.784a4.853,4.853,0,0,1,.312-1.856,2.28,2.28,0,0,1,.976-1.136,3.335,3.335,0,0,1,1.688-.384,3.05,3.05,0,0,1,1.72.416,2.265,2.265,0,0,1,.88,1.208,6.145,6.145,0,0,1,.264,1.928v1.312h-3.68v1.824a2.559,2.559,0,0,0,.088.736.735.735,0,0,0,.28.416.821.821,0,0,0,.464.128.736.736,0,0,0,.464-.136.761.761,0,0,0,.256-.4,2.3,2.3,0,0,0,.081-.664v-.768h2.031v.624a3.045,3.045,0,0,1-.7,2.16A2.8,2.8,0,0,1,1167.746,1377.1Zm-.816-5.744h1.633v-.88a3.03,3.03,0,0,0-.081-.776.78.78,0,0,0-.256-.432.793.793,0,0,0-.5-.136.709.709,0,0,0-.464.144.857.857,0,0,0-.256.48,4.418,4.418,0,0,0-.08.96Z"/></g></svg>