<svg xmlns="http://www.w3.org/2000/svg" width="323.641" height="31.54" viewBox="0 0 323.641 31.54"><g transform="translate(-156.862 -400.416)"><path d="M165.6,431.956a9.188,9.188,0,0,1-5.3-1.33A6.924,6.924,0,0,1,157.622,427a16.87,16.87,0,0,1-.76-5.3V410.714a17.616,17.616,0,0,1,.76-5.472,6.556,6.556,0,0,1,2.679-3.572,9.622,9.622,0,0,1,5.3-1.254,9.722,9.722,0,0,1,5,1.083,5.961,5.961,0,0,1,2.565,3.1,13.217,13.217,0,0,1,.76,4.674v2.584h-5.4v-2.66a19.238,19.238,0,0,0-.133-2.356,2.932,2.932,0,0,0-.722-1.691,2.711,2.711,0,0,0-2.033-.627,2.885,2.885,0,0,0-2.109.665,3.2,3.2,0,0,0-.855,1.786,15.186,15.186,0,0,0-.19,2.527v13.376a11.853,11.853,0,0,0,.266,2.755,2.854,2.854,0,0,0,.969,1.634,3.027,3.027,0,0,0,1.919.551,2.555,2.555,0,0,0,1.995-.665,3.277,3.277,0,0,0,.741-1.767,18.24,18.24,0,0,0,.152-2.47v-2.774h5.4v2.47a14.945,14.945,0,0,1-.722,4.845,6.3,6.3,0,0,1-2.527,3.306A9.133,9.133,0,0,1,165.6,431.956Z"/><path d="M181.409,431.538V409.574h5.168v3.382a9.45,9.45,0,0,1,2.28-2.793,4.086,4.086,0,0,1,2.508-.855,3.828,3.828,0,0,1,.4.019c.114.013.247.032.4.057v5.358a6.9,6.9,0,0,0-1.008-.323,4.787,4.787,0,0,0-1.121-.133,3.6,3.6,0,0,0-1.862.494,5.2,5.2,0,0,0-1.6,1.634v15.124Z"/><path d="M205.16,431.88a7.765,7.765,0,0,1-4.028-.931,5.515,5.515,0,0,1-2.3-2.736,11.444,11.444,0,0,1-.741-4.351V417.25a11.532,11.532,0,0,1,.741-4.408,5.4,5.4,0,0,1,2.318-2.7,7.921,7.921,0,0,1,4.009-.912,7.248,7.248,0,0,1,4.085.988,5.384,5.384,0,0,1,2.089,2.869,14.564,14.564,0,0,1,.628,4.579v3.116h-8.74v4.332a6.078,6.078,0,0,0,.209,1.748,1.74,1.74,0,0,0,.665.988,1.938,1.938,0,0,0,1.1.3,1.75,1.75,0,0,0,1.1-.323,1.831,1.831,0,0,0,.608-.95,5.552,5.552,0,0,0,.19-1.577v-1.824h4.826v1.482a7.227,7.227,0,0,1-1.673,5.13A6.654,6.654,0,0,1,205.16,431.88Zm-1.938-13.642H207.1v-2.09a7.312,7.312,0,0,0-.19-1.843,1.87,1.87,0,0,0-.608-1.026,1.893,1.893,0,0,0-1.178-.323,1.684,1.684,0,0,0-1.1.342,2.029,2.029,0,0,0-.608,1.14,10.419,10.419,0,0,0-.19,2.28Z"/><path d="M223.513,431.88a4.193,4.193,0,0,1-2.546-.779,5.162,5.162,0,0,1-1.634-1.976,5.722,5.722,0,0,1-.57-2.489,6.832,6.832,0,0,1,2.774-5.814,14.158,14.158,0,0,1,2.85-1.653q1.6-.7,3.23-1.273V416a8.059,8.059,0,0,0-.133-1.6,1.83,1.83,0,0,0-.494-.988,1.585,1.585,0,0,0-1.121-.342,1.682,1.682,0,0,0-1.045.3,1.657,1.657,0,0,0-.57.855,5.231,5.231,0,0,0-.209,1.273l-.076,1.33-4.9-.19q.114-3.8,1.881-5.605t5.377-1.8q3.306,0,4.807,1.824a7.54,7.54,0,0,1,1.5,4.94v10.146q0,1.217.057,2.2t.152,1.786q.095.8.171,1.406h-4.636q-.114-.759-.285-1.729t-.247-1.425A5.623,5.623,0,0,1,226.4,430.8,3.863,3.863,0,0,1,223.513,431.88Zm1.9-3.838a1.859,1.859,0,0,0,.931-.247,3.587,3.587,0,0,0,.779-.589,3.025,3.025,0,0,0,.494-.608V420.48q-.836.495-1.577.988a7.359,7.359,0,0,0-1.292,1.083,4.268,4.268,0,0,0-.836,1.273,4.127,4.127,0,0,0-.285,1.6,3.382,3.382,0,0,0,.475,1.919A1.5,1.5,0,0,0,225.413,428.042Z"/><path d="M246.39,431.8a6.649,6.649,0,0,1-3.287-.684,3.751,3.751,0,0,1-1.691-1.976,8.623,8.623,0,0,1-.494-3.078V412.994h-2.2v-3.42h2.2V403h5.206v6.574h3.344v3.42h-3.344V425.61a2.18,2.18,0,0,0,.494,1.615,2.06,2.06,0,0,0,1.482.475c.278,0,.551-.012.817-.038s.525-.05.779-.076v3.952q-.646.076-1.5.171A16.45,16.45,0,0,1,246.39,431.8Z"/><path d="M263.109,431.88a7.765,7.765,0,0,1-4.028-.931,5.515,5.515,0,0,1-2.3-2.736,11.444,11.444,0,0,1-.741-4.351V417.25a11.531,11.531,0,0,1,.741-4.408,5.4,5.4,0,0,1,2.318-2.7,7.921,7.921,0,0,1,4.009-.912,7.248,7.248,0,0,1,4.085.988,5.391,5.391,0,0,1,2.09,2.869,14.6,14.6,0,0,1,.627,4.579v3.116h-8.74v4.332a6.077,6.077,0,0,0,.209,1.748,1.74,1.74,0,0,0,.665.988,1.938,1.938,0,0,0,1.1.3,1.75,1.75,0,0,0,1.1-.323,1.83,1.83,0,0,0,.608-.95,5.551,5.551,0,0,0,.19-1.577v-1.824h4.826v1.482a7.231,7.231,0,0,1-1.672,5.13A6.657,6.657,0,0,1,263.109,431.88Zm-1.938-13.642h3.876v-2.09a7.311,7.311,0,0,0-.19-1.843,1.87,1.87,0,0,0-.608-1.026,1.893,1.893,0,0,0-1.178-.323,1.686,1.686,0,0,0-1.1.342,2.029,2.029,0,0,0-.608,1.14,10.42,10.42,0,0,0-.19,2.28Z"/><path d="M296.586,431.8a6.645,6.645,0,0,1-3.286-.684,3.747,3.747,0,0,1-1.691-1.976,8.6,8.6,0,0,1-.494-3.078V412.994h-2.2v-3.42h2.2V403h5.206v6.574h3.344v3.42h-3.344V425.61a2.18,2.18,0,0,0,.493,1.615,2.065,2.065,0,0,0,1.483.475c.278,0,.551-.012.817-.038s.525-.05.779-.076v3.952q-.648.076-1.5.171A16.455,16.455,0,0,1,296.586,431.8Z"/><path d="M306.731,431.538v-30.78H311.9v10.906a9.028,9.028,0,0,1,2.489-1.786,6.736,6.736,0,0,1,2.944-.646,3.222,3.222,0,0,1,2.129.665,3.9,3.9,0,0,1,1.178,1.767,7.31,7.31,0,0,1,.38,2.394v17.48h-5.168V415.084a3.112,3.112,0,0,0-.3-1.52,1.24,1.24,0,0,0-1.178-.532,2.933,2.933,0,0,0-1.2.3,5.925,5.925,0,0,0-1.273.8v17.4Z"/><path d="M335.27,431.88a7.765,7.765,0,0,1-4.028-.931,5.515,5.515,0,0,1-2.3-2.736,11.444,11.444,0,0,1-.741-4.351V417.25a11.532,11.532,0,0,1,.741-4.408,5.4,5.4,0,0,1,2.318-2.7,7.921,7.921,0,0,1,4.009-.912,7.248,7.248,0,0,1,4.085.988,5.391,5.391,0,0,1,2.09,2.869,14.6,14.6,0,0,1,.627,4.579v3.116h-8.74v4.332a6.079,6.079,0,0,0,.209,1.748,1.74,1.74,0,0,0,.665.988,1.938,1.938,0,0,0,1.1.3,1.75,1.75,0,0,0,1.1-.323,1.831,1.831,0,0,0,.608-.95,5.516,5.516,0,0,0,.19-1.577v-1.824h4.826v1.482a7.227,7.227,0,0,1-1.672,5.13A6.657,6.657,0,0,1,335.27,431.88Zm-1.938-13.642h3.876v-2.09a7.266,7.266,0,0,0-.19-1.843,1.87,1.87,0,0,0-.608-1.026,1.893,1.893,0,0,0-1.178-.323,1.686,1.686,0,0,0-1.1.342,2.029,2.029,0,0,0-.608,1.14,10.418,10.418,0,0,0-.19,2.28Z"/><path d="M363.465,431.538V413.184h-2.356v-3.61h2.356v-1.406a14.464,14.464,0,0,1,.361-3.439,3.721,3.721,0,0,1,1.52-2.261,6.245,6.245,0,0,1,3.515-.8q.722,0,1.368.057t1.444.171v3.838c-.2-.05-.437-.1-.7-.133a5.252,5.252,0,0,0-.741-.057,1.34,1.34,0,0,0-1.254.57,3.3,3.3,0,0,0-.342,1.672v1.786h3.04v3.61h-3.04v18.354Z"/><path d="M381.287,431.88a3.312,3.312,0,0,1-2.128-.665,3.756,3.756,0,0,1-1.216-1.786,7.328,7.328,0,0,1-.38-2.375v-17.48h5.168V426.1a3.05,3.05,0,0,0,.323,1.539,1.267,1.267,0,0,0,1.2.551,2.511,2.511,0,0,0,1.159-.3,8.683,8.683,0,0,0,1.159-.722V409.574h5.168v21.964h-5.168v-2.09a10.212,10.212,0,0,1-2.432,1.748A6.145,6.145,0,0,1,381.287,431.88Z"/><path d="M405.872,431.8a6.649,6.649,0,0,1-3.287-.684,3.745,3.745,0,0,1-1.69-1.976,8.6,8.6,0,0,1-.495-3.078V412.994h-2.2v-3.42h2.2V403h5.206v6.574h3.344v3.42h-3.344V425.61a2.18,2.18,0,0,0,.494,1.615,2.061,2.061,0,0,0,1.483.475c.278,0,.55-.012.816-.038s.526-.05.779-.076v3.952q-.646.076-1.5.171A16.45,16.45,0,0,1,405.872,431.8Z"/><path d="M419.476,431.88a3.312,3.312,0,0,1-2.128-.665,3.756,3.756,0,0,1-1.216-1.786,7.328,7.328,0,0,1-.38-2.375v-17.48h5.168V426.1a3.049,3.049,0,0,0,.323,1.539,1.267,1.267,0,0,0,1.2.551,2.511,2.511,0,0,0,1.159-.3,8.683,8.683,0,0,0,1.159-.722V409.574h5.168v21.964h-5.168v-2.09a10.212,10.212,0,0,1-2.432,1.748A6.145,6.145,0,0,1,419.476,431.88Z"/><path d="M437.829,431.538V409.574H443v3.382a9.45,9.45,0,0,1,2.28-2.793,4.086,4.086,0,0,1,2.508-.855,3.827,3.827,0,0,1,.4.019q.171.02.4.057v5.358a6.844,6.844,0,0,0-1.007-.323,4.8,4.8,0,0,0-1.121-.133,3.594,3.594,0,0,0-1.862.494,5.2,5.2,0,0,0-1.6,1.634v15.124Z"/><path d="M461.579,431.88a7.765,7.765,0,0,1-4.028-.931,5.515,5.515,0,0,1-2.3-2.736,11.444,11.444,0,0,1-.741-4.351V417.25a11.531,11.531,0,0,1,.741-4.408,5.409,5.409,0,0,1,2.318-2.7,7.924,7.924,0,0,1,4.009-.912,7.248,7.248,0,0,1,4.085.988,5.391,5.391,0,0,1,2.09,2.869,14.6,14.6,0,0,1,.627,4.579v3.116h-8.74v4.332a6.077,6.077,0,0,0,.209,1.748,1.74,1.74,0,0,0,.665.988,1.938,1.938,0,0,0,1.1.3,1.75,1.75,0,0,0,1.1-.323,1.824,1.824,0,0,0,.608-.95,5.515,5.515,0,0,0,.19-1.577v-1.824h4.826v1.482a7.227,7.227,0,0,1-1.672,5.13A6.657,6.657,0,0,1,461.579,431.88Zm-1.938-13.642h3.876v-2.09a7.265,7.265,0,0,0-.19-1.843,1.864,1.864,0,0,0-.608-1.026,1.893,1.893,0,0,0-1.178-.323,1.686,1.686,0,0,0-1.1.342,2.035,2.035,0,0,0-.608,1.14,10.42,10.42,0,0,0-.19,2.28Z"/><path d="M475.487,431.538v-5.206H480.5v5.206Z"/></g></svg>