<svg xmlns="http://www.w3.org/2000/svg" xmlns:xlink="http://www.w3.org/1999/xlink" width="261.115" height="113.511" viewBox="0 0 261.115 113.511"><defs><clipPath id="a"><rect width="261.115" height="113.511" transform="translate(1896 557.231)" fill="none"/></clipPath></defs><g transform="translate(-1896 -557.231)"><g clip-path="url(#a)"><path d="M1903.32,669.869v-97.2h23.88a52.4,52.4,0,0,1,11.7,1.2,23.758,23.758,0,0,1,9,4.02,18.119,18.119,0,0,1,5.821,7.62,31.176,31.176,0,0,1,2.039,12.12,28.034,28.034,0,0,1-1.619,10.08,15.237,15.237,0,0,1-4.741,6.66,17.3,17.3,0,0,1-7.8,3.3,20.128,20.128,0,0,1,9.54,4.02,18.412,18.412,0,0,1,5.639,7.98,33.682,33.682,0,0,1,1.861,11.88,39.726,39.726,0,0,1-1.741,12.3,22.638,22.638,0,0,1-5.16,8.88,21.654,21.654,0,0,1-8.519,5.34,35.89,35.89,0,0,1-11.941,1.8Zm17.76-57.48h6q5.28,0,8.16-1.56a8.424,8.424,0,0,0,4.02-4.8,24.891,24.891,0,0,0,1.14-8.16q0-5.159-1.74-7.98a8.772,8.772,0,0,0-5.22-3.84,32.284,32.284,0,0,0-8.879-1.02h-3.481Zm0,45h6.72q8.039,0,10.921-3.9t2.88-12.06a27.566,27.566,0,0,0-1.38-9.54,10.158,10.158,0,0,0-4.561-5.46,17.141,17.141,0,0,0-8.46-1.8h-6.12Z" fill="#dde4ee"/><path d="M1980.239,670.949a10.459,10.459,0,0,1-6.719-2.1,11.86,11.86,0,0,1-3.841-5.64,23.2,23.2,0,0,1-1.2-7.5v-55.2h16.32v52.2a9.653,9.653,0,0,0,1.02,4.86q1.019,1.74,3.78,1.74a7.931,7.931,0,0,0,3.66-.96,27.552,27.552,0,0,0,3.66-2.28v-55.56h16.32v69.36h-16.32v-6.6a32.283,32.283,0,0,1-7.68,5.52A19.4,19.4,0,0,1,1980.239,670.949Z" fill="#dde4ee"/><path d="M2026.318,688.709v-11.76a39.779,39.779,0,0,0,6.84-.48,7.176,7.176,0,0,0,3.84-1.68,4.548,4.548,0,0,0,1.2-3.36,24.529,24.529,0,0,0-.78-4.92q-.783-3.358-1.74-7.32l-15.24-58.68h15.84l9,45.72,7.8-45.72h15.72l-16.2,72.12a20.652,20.652,0,0,1-4.44,9.6,17.407,17.407,0,0,1-7.8,4.98,35.874,35.874,0,0,1-10.919,1.5Z" fill="#dde4ee"/></g></g><g transform="translate(-1896 -557.231)"><path d="M1898.2,650.41V621.25h7.164a15.763,15.763,0,0,1,3.51.36,7.138,7.138,0,0,1,2.7,1.206,5.435,5.435,0,0,1,1.746,2.286,9.353,9.353,0,0,1,.613,3.636,8.388,8.388,0,0,1-.487,3.024,4.558,4.558,0,0,1-1.421,2,5.19,5.19,0,0,1-2.34.99,6.043,6.043,0,0,1,2.861,1.206,5.519,5.519,0,0,1,1.692,2.394,10.112,10.112,0,0,1,.558,3.564,11.931,11.931,0,0,1-.521,3.69,6.811,6.811,0,0,1-1.548,2.664,6.5,6.5,0,0,1-2.557,1.6,10.763,10.763,0,0,1-3.582.54Zm5.328-17.244h1.8a5.217,5.217,0,0,0,2.448-.468,2.526,2.526,0,0,0,1.207-1.44,7.493,7.493,0,0,0,.341-2.448,4.575,4.575,0,0,0-.522-2.394,2.639,2.639,0,0,0-1.566-1.152,9.713,9.713,0,0,0-2.664-.306h-1.044Zm0,13.5h2.016q2.41,0,3.276-1.17a6.1,6.1,0,0,0,.865-3.618,8.285,8.285,0,0,0-.414-2.862,3.05,3.05,0,0,0-1.369-1.638,5.142,5.142,0,0,0-2.538-.54h-1.836Z"/><path d="M1921.272,650.734a3.136,3.136,0,0,1-2.016-.63,3.558,3.558,0,0,1-1.152-1.692,6.957,6.957,0,0,1-.36-2.25V629.6h4.9v15.66a2.891,2.891,0,0,0,.306,1.458,1.2,1.2,0,0,0,1.134.522,2.37,2.37,0,0,0,1.1-.288,8.172,8.172,0,0,0,1.1-.684V629.6h4.9V650.41h-4.9v-1.98a9.675,9.675,0,0,1-2.3,1.656A5.823,5.823,0,0,1,1921.272,650.734Z"/><path d="M1935.1,656.062v-3.528a11.846,11.846,0,0,0,2.051-.144,2.146,2.146,0,0,0,1.153-.5,1.367,1.367,0,0,0,.36-1.008,7.361,7.361,0,0,0-.234-1.476q-.234-1.006-.522-2.2l-4.572-17.6h4.752l2.7,13.716,2.34-13.716h4.716l-4.861,21.636a6.178,6.178,0,0,1-1.332,2.88,5.211,5.211,0,0,1-2.339,1.494,10.76,10.76,0,0,1-3.276.45Z"/><path d="M1959.008,650.41V638.86h-1.628v-1.166h1.628v-1.32a8.1,8.1,0,0,1,.154-1.672,1.974,1.974,0,0,1,.649-1.144,2.338,2.338,0,0,1,1.529-.418,6.549,6.549,0,0,1,.671.033,3.735,3.735,0,0,1,.627.121v1.188c-.132-.029-.283-.055-.451-.077a3.542,3.542,0,0,0-.452-.033q-.725,0-.913.451a3.9,3.9,0,0,0-.186,1.4v1.474h2.046v1.166h-2.046v11.55Z"/><path d="M1967.258,650.608a3.336,3.336,0,0,1-2.046-.561,2.933,2.933,0,0,1-1.045-1.628,9.846,9.846,0,0,1-.3-2.607v-3.52a9.857,9.857,0,0,1,.3-2.607,2.936,2.936,0,0,1,1.045-1.628,4.029,4.029,0,0,1,4.1,0,2.971,2.971,0,0,1,1.035,1.628,9.857,9.857,0,0,1,.3,2.607v3.52a9.846,9.846,0,0,1-.3,2.607,2.968,2.968,0,0,1-1.035,1.628A3.326,3.326,0,0,1,1967.258,650.608Zm0-1.21a1.542,1.542,0,0,0,1.221-.44,2.194,2.194,0,0,0,.472-1.232,16.625,16.625,0,0,0,.089-1.826v-3.7a16.337,16.337,0,0,0-.089-1.815,2.242,2.242,0,0,0-.472-1.232,1.525,1.525,0,0,0-1.221-.451,1.487,1.487,0,0,0-1.21.451,2.362,2.362,0,0,0-.474,1.232,14.847,14.847,0,0,0-.1,1.815v3.7a15.108,15.108,0,0,0,.1,1.826,2.308,2.308,0,0,0,.474,1.232A1.5,1.5,0,0,0,1967.258,649.4Z"/><path d="M1973,650.41V637.694h1.629v1.738a3.857,3.857,0,0,1,1.407-1.441,3.19,3.19,0,0,1,1.519-.429h.132a.7.7,0,0,1,.154.022V639.3a1.557,1.557,0,0,0-.374-.1,2.838,2.838,0,0,0-.418-.033,2.652,2.652,0,0,0-1.354.352,3.1,3.1,0,0,0-1.066,1.122v9.768Z"/><path d="M1983.911,654.59v-16.9h1.607v1.056a4.742,4.742,0,0,1,.99-.858,2.555,2.555,0,0,1,1.451-.4,2.381,2.381,0,0,1,1.485.429,2.794,2.794,0,0,1,.869,1.155,5.983,5.983,0,0,1,.418,1.628,15.3,15.3,0,0,1,.111,1.87v2.662a12.873,12.873,0,0,1-.276,2.838,3.758,3.758,0,0,1-.934,1.87,2.5,2.5,0,0,1-1.849.66,2.249,2.249,0,0,1-1.331-.4,5.479,5.479,0,0,1-.934-.814v5.192Zm3.609-5.236a1.314,1.314,0,0,0,1.1-.473,2.813,2.813,0,0,0,.495-1.386,17.112,17.112,0,0,0,.121-2.211v-2.706a15.2,15.2,0,0,0-.121-2.1,2.511,2.511,0,0,0-.495-1.287,1.391,1.391,0,0,0-1.122-.44,2.066,2.066,0,0,0-1.133.33,4.988,4.988,0,0,0-.846.66v8.668a3.472,3.472,0,0,0,.869.66A2.29,2.29,0,0,0,1987.52,649.354Z"/><path d="M1996.275,650.608a3.632,3.632,0,0,1-1.947-.473,2.788,2.788,0,0,1-1.122-1.573,9.6,9.6,0,0,1-.362-2.926v-3.212a9.3,9.3,0,0,1,.373-2.959,2.711,2.711,0,0,1,1.144-1.518,3.742,3.742,0,0,1,1.914-.451,3.223,3.223,0,0,1,2.069.572,3.051,3.051,0,0,1,.978,1.727,13.085,13.085,0,0,1,.276,2.959V643.9h-5.149v2.222a7.988,7.988,0,0,0,.188,1.947,1.8,1.8,0,0,0,.593,1.023,1.682,1.682,0,0,0,1.045.308,2.026,2.026,0,0,0,.88-.187,1.328,1.328,0,0,0,.627-.726,3.985,3.985,0,0,0,.232-1.529v-.88h1.561v.7a4.8,4.8,0,0,1-.725,2.783A2.918,2.918,0,0,1,1996.275,650.608Zm-1.826-7.634h3.565v-1.056a11.467,11.467,0,0,0-.111-1.727,2.016,2.016,0,0,0-.472-1.1,1.529,1.529,0,0,0-1.156-.385,1.822,1.822,0,0,0-1.067.286,1.668,1.668,0,0,0-.583,1.023,9.615,9.615,0,0,0-.176,2.1Z"/><path d="M2001.885,650.41V637.694h1.629v1.738a3.857,3.857,0,0,1,1.407-1.441,3.19,3.19,0,0,1,1.518-.429h.132a.7.7,0,0,1,.155.022V639.3a1.558,1.558,0,0,0-.374-.1,2.852,2.852,0,0,0-.418-.033,2.65,2.65,0,0,0-1.354.352,3.1,3.1,0,0,0-1.066,1.122v9.768Z"/><path d="M2011.214,650.608a3.132,3.132,0,0,1-2.421-.979A4.248,4.248,0,0,1,2007.76,647l1.342-.4a3.908,3.908,0,0,0,.681,2.123,1.878,1.878,0,0,0,1.54.671,1.689,1.689,0,0,0,1.287-.473,1.85,1.85,0,0,0,.452-1.331,2.418,2.418,0,0,0-.374-1.243,5.417,5.417,0,0,0-1.189-1.309l-1.716-1.5a6.088,6.088,0,0,1-1.3-1.452,3.284,3.284,0,0,1-.44-1.738,2.91,2.91,0,0,1,.386-1.551,2.589,2.589,0,0,1,1.055-.968,3.491,3.491,0,0,1,1.6-.341,2.649,2.649,0,0,1,2.2.935,4.04,4.04,0,0,1,.815,2.409l-1.145.374a4.587,4.587,0,0,0-.263-1.419,1.728,1.728,0,0,0-.606-.825,1.614,1.614,0,0,0-.935-.264,1.688,1.688,0,0,0-1.176.407,1.448,1.448,0,0,0-.451,1.133,2.239,2.239,0,0,0,.219,1.012,3.691,3.691,0,0,0,.815.99l1.8,1.606a12.766,12.766,0,0,1,1.012.99,4.758,4.758,0,0,1,.792,1.177,3.542,3.542,0,0,1,.309,1.529,3.153,3.153,0,0,1-.407,1.661,2.719,2.719,0,0,1-1.133,1.034A3.8,3.8,0,0,1,2011.214,650.608Z"/><path d="M2019.441,650.608a3.333,3.333,0,0,1-2.045-.561,2.927,2.927,0,0,1-1.045-1.628,9.806,9.806,0,0,1-.3-2.607v-3.52a9.816,9.816,0,0,1,.3-2.607,2.931,2.931,0,0,1,1.045-1.628,4.03,4.03,0,0,1,4.1,0,2.97,2.97,0,0,1,1.034,1.628,9.857,9.857,0,0,1,.3,2.607v3.52a9.846,9.846,0,0,1-.3,2.607,2.967,2.967,0,0,1-1.034,1.628A3.329,3.329,0,0,1,2019.441,650.608Zm0-1.21a1.54,1.54,0,0,0,1.221-.44,2.193,2.193,0,0,0,.473-1.232,16.871,16.871,0,0,0,.089-1.826v-3.7a16.578,16.578,0,0,0-.089-1.815,2.242,2.242,0,0,0-.473-1.232,1.524,1.524,0,0,0-1.221-.451,1.488,1.488,0,0,0-1.21.451,2.352,2.352,0,0,0-.473,1.232,14.614,14.614,0,0,0-.1,1.815v3.7a14.871,14.871,0,0,0,.1,1.826,2.3,2.3,0,0,0,.473,1.232A1.5,1.5,0,0,0,2019.441,649.4Z"/><path d="M2025.073,650.41V637.694h1.606v1.32a5.661,5.661,0,0,1,1.386-1.089,3.379,3.379,0,0,1,1.672-.429,1.744,1.744,0,0,1,1.067.319,2,2,0,0,1,.66.924,4.112,4.112,0,0,1,.231,1.463V650.41h-1.606v-9.856a2.387,2.387,0,0,0-.308-1.4,1.087,1.087,0,0,0-.924-.407,2.206,2.206,0,0,0-1.1.33,4.886,4.886,0,0,0-1.078.858V650.41Z"/><path d="M2036.249,650.608a2.307,2.307,0,0,1-1.32-.385,2.7,2.7,0,0,1-.9-1.023,3.065,3.065,0,0,1-.33-1.43,4.257,4.257,0,0,1,.286-1.65,3.4,3.4,0,0,1,.891-1.221,8.042,8.042,0,0,1,1.584-1.056q.978-.516,2.387-1.155v-.9a9.277,9.277,0,0,0-.143-1.837,1.672,1.672,0,0,0-.484-.957,1.452,1.452,0,0,0-.957-.286,1.991,1.991,0,0,0-.9.2,1.463,1.463,0,0,0-.638.671,2.923,2.923,0,0,0-.242,1.309v.44l-1.583-.022a4.4,4.4,0,0,1,.824-2.871,3.3,3.3,0,0,1,2.629-.935,2.7,2.7,0,0,1,2.4,1.023,5.679,5.679,0,0,1,.7,3.179v6.182c0,.22,0,.5.011.847s.022.671.044.979.04.543.056.7h-1.431q-.066-.417-.143-.935c-.051-.344-.085-.619-.1-.825a3.193,3.193,0,0,1-.935,1.364A2.477,2.477,0,0,1,2036.249,650.608Zm.528-1.364a1.654,1.654,0,0,0,.869-.231,3.322,3.322,0,0,0,1.2-1.287v-3.96q-.946.507-1.616.891a6.464,6.464,0,0,0-1.09.759,2.356,2.356,0,0,0-.616.847,2.867,2.867,0,0,0-.2,1.111,1.99,1.99,0,0,0,.429,1.441A1.4,1.4,0,0,0,2036.777,649.244Z"/><path d="M2043.025,650.41V632.59h1.606v17.82Z"/><path d="M2053.606,650.608a1.786,1.786,0,0,1-1.078-.319,1.975,1.975,0,0,1-.671-.924,4.137,4.137,0,0,1-.23-1.463V637.694h1.6v9.856a2.375,2.375,0,0,0,.309,1.4,1.083,1.083,0,0,0,.924.407,2.18,2.18,0,0,0,1.155-.363,5.282,5.282,0,0,0,1.089-.913V637.694h1.6V650.41h-1.6V649a5.411,5.411,0,0,1-1.408,1.155A3.37,3.37,0,0,1,2053.606,650.608Z"/><path d="M2063.705,650.608a3.132,3.132,0,0,1-2.421-.979,4.255,4.255,0,0,1-1.033-2.629l1.342-.4a3.916,3.916,0,0,0,.681,2.123,1.879,1.879,0,0,0,1.54.671,1.693,1.693,0,0,0,1.288-.473,1.854,1.854,0,0,0,.451-1.331,2.418,2.418,0,0,0-.374-1.243,5.417,5.417,0,0,0-1.189-1.309l-1.716-1.5a6.079,6.079,0,0,1-1.3-1.452,3.284,3.284,0,0,1-.441-1.738,2.91,2.91,0,0,1,.386-1.551,2.585,2.585,0,0,1,1.056-.968,3.483,3.483,0,0,1,1.594-.341,2.649,2.649,0,0,1,2.2.935,4.04,4.04,0,0,1,.815,2.409l-1.145.374a4.58,4.58,0,0,0-.263-1.419,1.727,1.727,0,0,0-.606-.825,1.613,1.613,0,0,0-.934-.264,1.689,1.689,0,0,0-1.177.407,1.448,1.448,0,0,0-.451,1.133,2.239,2.239,0,0,0,.219,1.012,3.691,3.691,0,0,0,.815.99l1.8,1.606a12.944,12.944,0,0,1,1.011.99,4.734,4.734,0,0,1,.792,1.177,3.544,3.544,0,0,1,.309,1.529,3.153,3.153,0,0,1-.407,1.661,2.718,2.718,0,0,1-1.133,1.034A3.8,3.8,0,0,1,2063.705,650.608Z"/><path d="M2071.977,650.608a3.635,3.635,0,0,1-1.948-.473,2.787,2.787,0,0,1-1.122-1.573,9.6,9.6,0,0,1-.362-2.926v-3.212a9.3,9.3,0,0,1,.373-2.959,2.708,2.708,0,0,1,1.145-1.518,3.737,3.737,0,0,1,1.914-.451,3.222,3.222,0,0,1,2.068.572,3.05,3.05,0,0,1,.978,1.727,13.077,13.077,0,0,1,.276,2.959V643.9h-5.149v2.222a7.988,7.988,0,0,0,.188,1.947,1.8,1.8,0,0,0,.594,1.023,1.679,1.679,0,0,0,1.045.308,2.024,2.024,0,0,0,.879-.187,1.326,1.326,0,0,0,.627-.726,3.984,3.984,0,0,0,.232-1.529v-.88h1.561v.7a4.8,4.8,0,0,1-.725,2.783A2.918,2.918,0,0,1,2071.977,650.608Zm-1.827-7.634h3.565v-1.056a11.483,11.483,0,0,0-.111-1.727,2.016,2.016,0,0,0-.472-1.1,1.527,1.527,0,0,0-1.155-.385,1.825,1.825,0,0,0-1.068.286,1.669,1.669,0,0,0-.583,1.023,9.615,9.615,0,0,0-.176,2.1Z"/><path d="M2077.586,650.41V637.694h1.629v1.738a3.856,3.856,0,0,1,1.407-1.441,3.19,3.19,0,0,1,1.519-.429h.131a.7.7,0,0,1,.155.022V639.3a1.559,1.559,0,0,0-.374-.1,2.838,2.838,0,0,0-.418-.033,2.652,2.652,0,0,0-1.354.352,3.093,3.093,0,0,0-1.066,1.122v9.768Z"/></g></svg>