<svg xmlns="http://www.w3.org/2000/svg" xmlns:xlink="http://www.w3.org/1999/xlink" width="261.115" height="113.511" viewBox="0 0 261.115 113.511"><defs><clipPath id="a"><rect width="261.115" height="113.511" transform="translate(1896 2677.509)" fill="none"/></clipPath></defs><g transform="translate(-1896 -2677.509)"><g clip-path="url(#a)"><path d="M1903.32,2790.146v-97.2H1926.6a51.371,51.371,0,0,1,16.62,2.34,19.1,19.1,0,0,1,10.319,7.98q3.539,5.641,3.54,15.36a47.055,47.055,0,0,1-1.08,10.56,20.088,20.088,0,0,1-3.66,7.98,16.507,16.507,0,0,1-7.14,5.1l13.56,47.88H1941l-11.76-44.52h-8.16v44.52Zm17.76-55.68h5.521a18.835,18.835,0,0,0,8.219-1.5,8.758,8.758,0,0,0,4.38-4.8,23.024,23.024,0,0,0,1.321-8.46q0-7.317-2.7-10.98t-10.259-3.66h-6.481Z" fill="#dde4ee"/><path d="M1990.56,2791.226q-7.8,0-12.721-2.94a17.426,17.426,0,0,1-7.26-8.64,36.16,36.16,0,0,1-2.34-13.74v-20.88a36.436,36.436,0,0,1,2.34-13.92,17.068,17.068,0,0,1,7.32-8.52q4.978-2.88,12.661-2.88,8.278,0,12.9,3.12a17.031,17.031,0,0,1,6.6,9.06,46.119,46.119,0,0,1,1.979,14.46v9.84h-27.6v13.68a19.235,19.235,0,0,0,.66,5.52,5.5,5.5,0,0,0,2.1,3.12,6.119,6.119,0,0,0,3.48.96,5.534,5.534,0,0,0,3.48-1.02,5.77,5.77,0,0,0,1.92-3,17.46,17.46,0,0,0,.6-4.98v-5.76h15.24v4.68q0,10.562-5.28,16.2T1990.56,2791.226Zm-6.121-43.08h12.24v-6.6a22.994,22.994,0,0,0-.6-5.82,5.891,5.891,0,0,0-1.92-3.24,5.982,5.982,0,0,0-3.72-1.02,5.323,5.323,0,0,0-3.48,1.08,6.415,6.415,0,0,0-1.92,3.6,32.905,32.905,0,0,0-.6,7.2Z" fill="#dde4ee"/><path d="M2023.079,2790.146v-69.36h16.32v6.96a35.343,35.343,0,0,1,7.86-5.82,18.637,18.637,0,0,1,8.94-2.22,10.361,10.361,0,0,1,6.84,2.1,12.307,12.307,0,0,1,3.72,5.58,23.088,23.088,0,0,1,1.2,7.56v55.2h-16.32v-51.96a9.81,9.81,0,0,0-.96-4.8q-.961-1.678-3.72-1.68a8.475,8.475,0,0,0-3.66.96,23.963,23.963,0,0,0-3.9,2.4v55.08Z" fill="#dde4ee"/><path d="M2100,2790.986q-6.6,0-10.38-2.16a11.845,11.845,0,0,1-5.34-6.24,27.186,27.186,0,0,1-1.56-9.72v-41.28h-6.96v-10.8h6.96v-20.76h16.44v20.76h10.56v10.8h-10.56v39.84q0,3.6,1.56,5.1a6.5,6.5,0,0,0,4.68,1.5q1.319,0,2.58-.12t2.46-.24v12.48q-2.042.24-4.74.54A51.929,51.929,0,0,1,2100,2790.986Z" fill="#dde4ee"/></g></g><g transform="translate(-1896 -2677.509)"><path d="M1898.2,2770.688v-29.16h6.985a15.406,15.406,0,0,1,4.985.7,5.738,5.738,0,0,1,3.1,2.394,8.626,8.626,0,0,1,1.061,4.608,14.136,14.136,0,0,1-.324,3.168,6.027,6.027,0,0,1-1.1,2.394,4.948,4.948,0,0,1-2.142,1.53l4.068,14.364H1909.5l-3.527-13.356h-2.449v13.356Zm5.328-16.7h1.657a5.656,5.656,0,0,0,2.465-.45,2.628,2.628,0,0,0,1.314-1.44,6.909,6.909,0,0,0,.4-2.538,5.53,5.53,0,0,0-.81-3.294q-.81-1.1-3.078-1.1h-1.944Z"/><path d="M1924.368,2771.012a7.361,7.361,0,0,1-3.816-.882,5.227,5.227,0,0,1-2.178-2.592,10.846,10.846,0,0,1-.7-4.122v-6.264a10.923,10.923,0,0,1,.7-4.176,5.121,5.121,0,0,1,2.2-2.556,7.505,7.505,0,0,1,3.8-.864,6.862,6.862,0,0,1,3.87.936,5.1,5.1,0,0,1,1.98,2.718,13.823,13.823,0,0,1,.595,4.338v2.952h-8.281v4.1a5.786,5.786,0,0,0,.2,1.656,1.648,1.648,0,0,0,.63.936,1.84,1.84,0,0,0,1.044.288,1.66,1.66,0,0,0,1.044-.306,1.735,1.735,0,0,0,.576-.9,5.241,5.241,0,0,0,.18-1.494v-1.728h4.572v1.4a6.85,6.85,0,0,1-1.584,4.86A6.307,6.307,0,0,1,1924.368,2771.012Zm-1.836-12.924h3.672v-1.98a6.894,6.894,0,0,0-.18-1.746,1.768,1.768,0,0,0-.576-.972,1.8,1.8,0,0,0-1.116-.306,1.6,1.6,0,0,0-1.044.324,1.921,1.921,0,0,0-.576,1.08,9.888,9.888,0,0,0-.18,2.16Z"/><path d="M1934.124,2770.688V2749.88h4.9v2.088a10.61,10.61,0,0,1,2.357-1.746,5.59,5.59,0,0,1,2.683-.666,3.106,3.106,0,0,1,2.051.63,3.7,3.7,0,0,1,1.117,1.674,6.943,6.943,0,0,1,.359,2.268v16.56h-4.9V2755.1a2.941,2.941,0,0,0-.288-1.44,1.173,1.173,0,0,0-1.116-.5,2.538,2.538,0,0,0-1.1.288,7.1,7.1,0,0,0-1.169.72v16.524Z"/><path d="M1957.2,2770.94a6.3,6.3,0,0,1-3.114-.648,3.556,3.556,0,0,1-1.6-1.872,8.165,8.165,0,0,1-.467-2.916V2753.12h-2.089v-3.24h2.089v-6.228h4.931v6.228h3.168v3.24h-3.168v11.952a2.065,2.065,0,0,0,.468,1.53,1.952,1.952,0,0,0,1.4.45q.4,0,.774-.036l.738-.072v3.744q-.612.072-1.422.162A15.547,15.547,0,0,1,1957.2,2770.94Z"/><path d="M1972.04,2770.688v-11.55h-1.628v-1.166h1.628v-1.32a8.09,8.09,0,0,1,.154-1.672,1.98,1.98,0,0,1,.649-1.144,2.341,2.341,0,0,1,1.529-.418,6.549,6.549,0,0,1,.671.033,3.721,3.721,0,0,1,.627.121v1.188c-.132-.029-.282-.055-.451-.077a3.507,3.507,0,0,0-.451-.033q-.726,0-.914.451a3.9,3.9,0,0,0-.186,1.4v1.474h2.046v1.166h-2.046v11.55Z"/><path d="M1980.29,2770.886a3.336,3.336,0,0,1-2.046-.561,2.933,2.933,0,0,1-1.045-1.628,9.846,9.846,0,0,1-.3-2.607v-3.52a9.853,9.853,0,0,1,.3-2.607,2.936,2.936,0,0,1,1.045-1.628,4.031,4.031,0,0,1,4.1,0,2.971,2.971,0,0,1,1.034,1.628,9.853,9.853,0,0,1,.3,2.607v3.52a9.846,9.846,0,0,1-.3,2.607,2.967,2.967,0,0,1-1.034,1.628A3.331,3.331,0,0,1,1980.29,2770.886Zm0-1.21a1.54,1.54,0,0,0,1.221-.44,2.186,2.186,0,0,0,.472-1.232,16.623,16.623,0,0,0,.089-1.826v-3.7a16.336,16.336,0,0,0-.089-1.815,2.231,2.231,0,0,0-.472-1.232,1.524,1.524,0,0,0-1.221-.451,1.487,1.487,0,0,0-1.21.451,2.358,2.358,0,0,0-.474,1.232,14.848,14.848,0,0,0-.1,1.815v3.7a15.108,15.108,0,0,0,.1,1.826,2.308,2.308,0,0,0,.474,1.232A1.5,1.5,0,0,0,1980.29,2769.676Z"/><path d="M1986.031,2770.688v-12.716h1.629v1.738a3.856,3.856,0,0,1,1.407-1.441,3.2,3.2,0,0,1,1.519-.429h.132a.675.675,0,0,1,.154.022v1.716a1.532,1.532,0,0,0-.374-.1,2.83,2.83,0,0,0-.418-.033,2.635,2.635,0,0,0-1.353.352,3.1,3.1,0,0,0-1.067,1.122v9.768Z"/><path d="M1996.943,2774.868v-16.9h1.607v1.056a4.768,4.768,0,0,1,.99-.858,2.558,2.558,0,0,1,1.451-.4,2.385,2.385,0,0,1,1.486.429,2.8,2.8,0,0,1,.869,1.155,6.061,6.061,0,0,1,.418,1.628,15.507,15.507,0,0,1,.11,1.87v2.662a12.935,12.935,0,0,1-.275,2.838,3.759,3.759,0,0,1-.935,1.87,2.5,2.5,0,0,1-1.849.66,2.25,2.25,0,0,1-1.331-.4,5.468,5.468,0,0,1-.934-.814v5.192Zm3.609-5.236a1.313,1.313,0,0,0,1.1-.473,2.812,2.812,0,0,0,.495-1.386,16.907,16.907,0,0,0,.122-2.211v-2.706a15.014,15.014,0,0,0-.122-2.1,2.507,2.507,0,0,0-.495-1.287,1.391,1.391,0,0,0-1.122-.44,2.067,2.067,0,0,0-1.133.33,5.021,5.021,0,0,0-.846.66v8.668a3.47,3.47,0,0,0,.869.66A2.294,2.294,0,0,0,2000.552,2769.632Z"/><path d="M2009.308,2770.886a3.636,3.636,0,0,1-1.948-.473,2.789,2.789,0,0,1-1.122-1.573,9.6,9.6,0,0,1-.362-2.926V2762.7a9.3,9.3,0,0,1,.373-2.959,2.707,2.707,0,0,1,1.145-1.518,3.736,3.736,0,0,1,1.914-.451,3.223,3.223,0,0,1,2.068.572,3.051,3.051,0,0,1,.978,1.727,13.085,13.085,0,0,1,.276,2.959v1.144h-5.149v2.222a7.988,7.988,0,0,0,.188,1.947,1.8,1.8,0,0,0,.594,1.023,1.678,1.678,0,0,0,1.045.308,2.032,2.032,0,0,0,.88-.187,1.329,1.329,0,0,0,.626-.726,3.984,3.984,0,0,0,.232-1.529v-.88h1.561v.7a4.8,4.8,0,0,1-.725,2.783A2.918,2.918,0,0,1,2009.308,2770.886Zm-1.827-7.634h3.565V2762.2a11.619,11.619,0,0,0-.11-1.727,2.024,2.024,0,0,0-.473-1.1,1.527,1.527,0,0,0-1.155-.385,1.826,1.826,0,0,0-1.068.286,1.669,1.669,0,0,0-.583,1.023,9.616,9.616,0,0,0-.176,2.1Z"/><path d="M2014.917,2770.688v-12.716h1.629v1.738a3.857,3.857,0,0,1,1.407-1.441,3.189,3.189,0,0,1,1.519-.429h.132a.692.692,0,0,1,.154.022v1.716a1.559,1.559,0,0,0-.374-.1,2.84,2.84,0,0,0-.418-.033,2.641,2.641,0,0,0-1.354.352,3.1,3.1,0,0,0-1.066,1.122v9.768Z"/><path d="M2024.246,2770.886a3.131,3.131,0,0,1-2.421-.979,4.256,4.256,0,0,1-1.033-2.629l1.342-.4a3.916,3.916,0,0,0,.681,2.123,1.879,1.879,0,0,0,1.54.671,1.693,1.693,0,0,0,1.288-.473,1.853,1.853,0,0,0,.451-1.331,2.416,2.416,0,0,0-.374-1.243,5.414,5.414,0,0,0-1.189-1.309l-1.716-1.5a6.084,6.084,0,0,1-1.3-1.452,3.285,3.285,0,0,1-.441-1.738,2.911,2.911,0,0,1,.386-1.551,2.586,2.586,0,0,1,1.056-.968,3.482,3.482,0,0,1,1.594-.341,2.649,2.649,0,0,1,2.2.935,4.032,4.032,0,0,1,.815,2.409l-1.145.374a4.587,4.587,0,0,0-.263-1.419,1.727,1.727,0,0,0-.606-.825,1.612,1.612,0,0,0-.934-.264,1.688,1.688,0,0,0-1.177.407,1.448,1.448,0,0,0-.451,1.133,2.239,2.239,0,0,0,.219,1.012,3.687,3.687,0,0,0,.815.99l1.8,1.606a12.89,12.89,0,0,1,1.011.99,4.73,4.73,0,0,1,.792,1.177,3.541,3.541,0,0,1,.309,1.529,3.153,3.153,0,0,1-.407,1.661,2.719,2.719,0,0,1-1.133,1.034A3.8,3.8,0,0,1,2024.246,2770.886Z"/><path d="M2032.474,2770.886a3.334,3.334,0,0,1-2.046-.561,2.932,2.932,0,0,1-1.045-1.628,9.846,9.846,0,0,1-.3-2.607v-3.52a9.853,9.853,0,0,1,.3-2.607,2.935,2.935,0,0,1,1.045-1.628,4.03,4.03,0,0,1,4.1,0,2.971,2.971,0,0,1,1.034,1.628,9.813,9.813,0,0,1,.3,2.607v3.52a9.806,9.806,0,0,1-.3,2.607,2.967,2.967,0,0,1-1.034,1.628A3.326,3.326,0,0,1,2032.474,2770.886Zm0-1.21a1.538,1.538,0,0,0,1.22-.44,2.193,2.193,0,0,0,.473-1.232,16.623,16.623,0,0,0,.089-1.826v-3.7a16.336,16.336,0,0,0-.089-1.815,2.238,2.238,0,0,0-.473-1.232,1.521,1.521,0,0,0-1.22-.451,1.487,1.487,0,0,0-1.21.451,2.349,2.349,0,0,0-.474,1.232,14.8,14.8,0,0,0-.1,1.815v3.7a15.065,15.065,0,0,0,.1,1.826,2.3,2.3,0,0,0,.474,1.232A1.5,1.5,0,0,0,2032.474,2769.676Z"/><path d="M2038.1,2770.688v-12.716h1.606v1.32a5.648,5.648,0,0,1,1.387-1.089,3.374,3.374,0,0,1,1.672-.429,1.735,1.735,0,0,1,1.066.319,2,2,0,0,1,.66.924,4.106,4.106,0,0,1,.232,1.463v10.208h-1.607v-9.856a2.379,2.379,0,0,0-.308-1.4,1.086,1.086,0,0,0-.923-.407,2.207,2.207,0,0,0-1.1.33,4.882,4.882,0,0,0-1.078.858v10.472Z"/><path d="M2049.281,2770.886a2.313,2.313,0,0,1-1.32-.385,2.689,2.689,0,0,1-.9-1.023,3.053,3.053,0,0,1-.331-1.43,4.239,4.239,0,0,1,.287-1.65,3.389,3.389,0,0,1,.89-1.221,8.077,8.077,0,0,1,1.584-1.056q.98-.516,2.387-1.155v-.9a9.257,9.257,0,0,0-.143-1.837,1.659,1.659,0,0,0-.484-.957,1.452,1.452,0,0,0-.957-.286,1.985,1.985,0,0,0-.9.2,1.461,1.461,0,0,0-.639.671,2.921,2.921,0,0,0-.241,1.309v.44l-1.584-.022a4.4,4.4,0,0,1,.824-2.871,3.3,3.3,0,0,1,2.629-.935,2.7,2.7,0,0,1,2.4,1.023,5.68,5.68,0,0,1,.7,3.179v6.182c0,.22,0,.5.011.847s.023.671.044.979.04.543.056.7h-1.431q-.066-.417-.142-.935t-.1-.825a3.188,3.188,0,0,1-.935,1.364A2.476,2.476,0,0,1,2049.281,2770.886Zm.529-1.364a1.657,1.657,0,0,0,.869-.231,3.117,3.117,0,0,0,.7-.583,3.151,3.151,0,0,0,.494-.7v-3.96q-.946.507-1.616.891a6.5,6.5,0,0,0-1.09.759,2.367,2.367,0,0,0-.615.847,2.848,2.848,0,0,0-.2,1.111,1.991,1.991,0,0,0,.429,1.441A1.4,1.4,0,0,0,2049.81,2769.522Z"/><path d="M2056.058,2770.688v-17.82h1.6v17.82Z"/><path d="M2066.639,2770.886a1.788,1.788,0,0,1-1.078-.319,1.978,1.978,0,0,1-.671-.924,4.115,4.115,0,0,1-.231-1.463v-10.208h1.606v9.856a2.377,2.377,0,0,0,.308,1.4,1.083,1.083,0,0,0,.924.407,2.178,2.178,0,0,0,1.155-.363,5.283,5.283,0,0,0,1.089-.913v-10.384h1.606v12.716h-1.606v-1.408a5.413,5.413,0,0,1-1.408,1.155A3.376,3.376,0,0,1,2066.639,2770.886Z"/><path d="M2076.737,2770.886a3.133,3.133,0,0,1-2.421-.979,4.257,4.257,0,0,1-1.033-2.629l1.342-.4a3.906,3.906,0,0,0,.682,2.123,1.878,1.878,0,0,0,1.54.671,1.692,1.692,0,0,0,1.287-.473,1.849,1.849,0,0,0,.451-1.331,2.416,2.416,0,0,0-.374-1.243,5.414,5.414,0,0,0-1.189-1.309l-1.715-1.5a6.063,6.063,0,0,1-1.3-1.452,3.285,3.285,0,0,1-.441-1.738,2.91,2.91,0,0,1,.386-1.551,2.591,2.591,0,0,1,1.056-.968,3.483,3.483,0,0,1,1.594-.341,2.651,2.651,0,0,1,2.2.935,4.037,4.037,0,0,1,.814,2.409l-1.144.374a4.613,4.613,0,0,0-.264-1.419,1.727,1.727,0,0,0-.606-.825,1.609,1.609,0,0,0-.934-.264,1.69,1.69,0,0,0-1.177.407,1.448,1.448,0,0,0-.451,1.133,2.226,2.226,0,0,0,.22,1.012,3.682,3.682,0,0,0,.814.99l1.8,1.606a13.1,13.1,0,0,1,1.012.99,4.787,4.787,0,0,1,.792,1.177,3.543,3.543,0,0,1,.308,1.529,3.153,3.153,0,0,1-.407,1.661,2.712,2.712,0,0,1-1.133,1.034A3.8,3.8,0,0,1,2076.737,2770.886Z"/><path d="M2085.009,2770.886a3.63,3.63,0,0,1-1.947-.473,2.794,2.794,0,0,1-1.123-1.573,9.6,9.6,0,0,1-.362-2.926V2762.7a9.3,9.3,0,0,1,.373-2.959,2.708,2.708,0,0,1,1.145-1.518,3.737,3.737,0,0,1,1.914-.451,3.223,3.223,0,0,1,2.068.572,3.057,3.057,0,0,1,.979,1.727,13.141,13.141,0,0,1,.275,2.959v1.144h-5.148v2.222a8,8,0,0,0,.187,1.947,1.792,1.792,0,0,0,.594,1.023,1.677,1.677,0,0,0,1.045.308,2.032,2.032,0,0,0,.88-.187,1.335,1.335,0,0,0,.627-.726,4.011,4.011,0,0,0,.231-1.529v-.88h1.562v.7a4.8,4.8,0,0,1-.726,2.783A2.916,2.916,0,0,1,2085.009,2770.886Zm-1.826-7.634h3.564V2762.2a11.617,11.617,0,0,0-.11-1.727,2.024,2.024,0,0,0-.473-1.1,1.527,1.527,0,0,0-1.155-.385,1.826,1.826,0,0,0-1.068.286,1.674,1.674,0,0,0-.583,1.023,9.63,9.63,0,0,0-.175,2.1Z"/><path d="M2090.618,2770.688v-12.716h1.629v1.738a3.855,3.855,0,0,1,1.407-1.441,3.192,3.192,0,0,1,1.519-.429h.132a.683.683,0,0,1,.154.022v1.716a1.559,1.559,0,0,0-.374-.1,2.827,2.827,0,0,0-.418-.033,2.641,2.641,0,0,0-1.354.352,3.1,3.1,0,0,0-1.066,1.122v9.768Z"/></g></svg>