<svg xmlns="http://www.w3.org/2000/svg" xmlns:xlink="http://www.w3.org/1999/xlink" width="261.115" height="113.511" viewBox="0 0 261.115 113.511"><defs><clipPath id="a"><rect width="261.115" height="113.511" transform="translate(1896 1656.229)" fill="none"/></clipPath></defs><g transform="translate(-1896 -1656.229)"><g clip-path="url(#a)"><path d="M1927.8,1770.187q-8.76,0-14.64-3.42a21.538,21.538,0,0,1-8.88-10.02,43,43,0,0,1-3.36-16.2l15.24-3a46.95,46.95,0,0,0,1.38,9.96,14.416,14.416,0,0,0,3.481,6.661,8.348,8.348,0,0,0,6.179,2.339q4.32,0,6.12-2.579a11.164,11.164,0,0,0,1.8-6.541,17.691,17.691,0,0,0-2.88-10.44,45.05,45.05,0,0,0-7.679-8.159l-12.241-10.8a36.719,36.719,0,0,1-8.219-9.9,27.278,27.278,0,0,1-3.061-13.5q0-11.52,6.72-17.76t18.36-6.24a27.27,27.27,0,0,1,11.4,2.1,18.146,18.146,0,0,1,7.259,5.819,26.294,26.294,0,0,1,4.02,8.46,49.965,49.965,0,0,1,1.68,10.02l-15.12,2.64a51.811,51.811,0,0,0-1.02-8.16,11.363,11.363,0,0,0-2.76-5.64,7.755,7.755,0,0,0-5.82-2.039,7.363,7.363,0,0,0-6.06,2.579,9.845,9.845,0,0,0-2.1,6.421,14.719,14.719,0,0,0,2.04,8.1,31.583,31.583,0,0,0,5.88,6.541l12.12,10.679a50.249,50.249,0,0,1,10.259,11.821q4.258,6.78,4.26,16.379a24.632,24.632,0,0,1-3.059,12.361,21.925,21.925,0,0,1-8.521,8.459A25.707,25.707,0,0,1,1927.8,1770.187Z" fill="#dde4ee"/><path d="M1982.519,1769.946q-7.8,0-12.72-2.94a17.433,17.433,0,0,1-7.261-8.64,36.159,36.159,0,0,1-2.34-13.74v-20.879a36.444,36.444,0,0,1,2.34-13.921,17.081,17.081,0,0,1,7.32-8.52q4.98-2.88,12.661-2.879,8.278,0,12.9,3.119a17.038,17.038,0,0,1,6.6,9.06,46.089,46.089,0,0,1,1.98,14.46v9.84h-27.6v13.68a19.23,19.23,0,0,0,.661,5.52,5.5,5.5,0,0,0,2.1,3.121,6.121,6.121,0,0,0,3.481.96,5.538,5.538,0,0,0,3.479-1.02,5.766,5.766,0,0,0,1.92-3,17.466,17.466,0,0,0,.6-4.98v-5.76h15.24v4.679q0,10.562-5.28,16.2T1982.519,1769.946Zm-6.121-43.08h12.241v-6.6a22.991,22.991,0,0,0-.6-5.821,5.872,5.872,0,0,0-1.92-3.239,5.972,5.972,0,0,0-3.72-1.02,5.315,5.315,0,0,0-3.479,1.08,6.4,6.4,0,0,0-1.92,3.6,32.894,32.894,0,0,0-.6,7.2Z" fill="#dde4ee"/><path d="M2016.118,1768.866v-97.2h16.2v97.2Z" fill="#dde4ee"/><path d="M2046.358,1768.866v-97.2h16.2v97.2Z" fill="#dde4ee"/></g></g><g transform="translate(-1896 -1656.229)"><path d="M1905.54,1749.8a8.618,8.618,0,0,1-4.392-1.026,6.463,6.463,0,0,1-2.664-3.006,12.888,12.888,0,0,1-1.007-4.86l4.571-.9a14.064,14.064,0,0,0,.414,2.988,4.324,4.324,0,0,0,1.044,2,2.508,2.508,0,0,0,1.854.7,2.079,2.079,0,0,0,1.836-.774,3.343,3.343,0,0,0,.54-1.962,5.306,5.306,0,0,0-.864-3.132,13.472,13.472,0,0,0-2.3-2.448l-3.672-3.24a11.012,11.012,0,0,1-2.465-2.97,8.173,8.173,0,0,1-.918-4.05,6.911,6.911,0,0,1,2.015-5.328,7.778,7.778,0,0,1,5.508-1.872,8.176,8.176,0,0,1,3.42.63,5.432,5.432,0,0,1,2.178,1.746,7.873,7.873,0,0,1,1.206,2.538,15.046,15.046,0,0,1,.505,3.006l-4.536.792a15.573,15.573,0,0,0-.307-2.448,3.4,3.4,0,0,0-.828-1.692,2.324,2.324,0,0,0-1.745-.612,2.21,2.21,0,0,0-1.819.774,2.951,2.951,0,0,0-.63,1.926,4.423,4.423,0,0,0,.612,2.43,9.515,9.515,0,0,0,1.764,1.962l3.636,3.2a15.058,15.058,0,0,1,3.078,3.546,9.052,9.052,0,0,1,1.279,4.914,7.4,7.4,0,0,1-.918,3.708,6.588,6.588,0,0,1-2.557,2.538A7.713,7.713,0,0,1,1905.54,1749.8Z"/><path d="M1921.956,1749.732a7.362,7.362,0,0,1-3.816-.882,5.227,5.227,0,0,1-2.178-2.592,10.845,10.845,0,0,1-.7-4.122v-6.264a10.922,10.922,0,0,1,.7-4.176,5.12,5.12,0,0,1,2.2-2.556,7.5,7.5,0,0,1,3.8-.864,6.862,6.862,0,0,1,3.87.936,5.1,5.1,0,0,1,1.98,2.718,13.824,13.824,0,0,1,.594,4.338v2.952h-8.28v4.1a5.785,5.785,0,0,0,.2,1.656,1.647,1.647,0,0,0,.63.936,1.839,1.839,0,0,0,1.044.288,1.663,1.663,0,0,0,1.044-.306,1.736,1.736,0,0,0,.576-.9,5.28,5.28,0,0,0,.18-1.494v-1.728h4.572v1.4a6.85,6.85,0,0,1-1.584,4.86A6.307,6.307,0,0,1,1921.956,1749.732Zm-1.836-12.924h3.672v-1.98a6.947,6.947,0,0,0-.18-1.746,1.767,1.767,0,0,0-.576-.972,1.793,1.793,0,0,0-1.116-.306,1.6,1.6,0,0,0-1.044.324,1.921,1.921,0,0,0-.576,1.08,9.89,9.89,0,0,0-.18,2.16Z"/><path d="M1932.036,1749.408v-29.16h4.86v29.16Z"/><path d="M1941.107,1749.408v-29.16h4.861v29.16Z"/><path d="M1958.756,1749.408v-11.55h-1.628v-1.166h1.628v-1.32a8.094,8.094,0,0,1,.154-1.672,1.978,1.978,0,0,1,.649-1.144,2.332,2.332,0,0,1,1.529-.418,6.548,6.548,0,0,1,.671.033,3.636,3.636,0,0,1,.627.121v1.188c-.132-.029-.282-.055-.451-.077a3.552,3.552,0,0,0-.452-.033q-.725,0-.913.451a3.9,3.9,0,0,0-.186,1.4v1.474h2.046v1.166h-2.046v11.55Z"/><path d="M1967.006,1749.606a3.337,3.337,0,0,1-2.046-.561,2.936,2.936,0,0,1-1.045-1.628,9.846,9.846,0,0,1-.3-2.607v-3.52a9.857,9.857,0,0,1,.3-2.607,2.936,2.936,0,0,1,1.045-1.628,4.031,4.031,0,0,1,4.1,0,2.976,2.976,0,0,1,1.034,1.628,9.857,9.857,0,0,1,.3,2.607v3.52a9.846,9.846,0,0,1-.3,2.607,2.977,2.977,0,0,1-1.034,1.628A3.332,3.332,0,0,1,1967.006,1749.606Zm0-1.21a1.541,1.541,0,0,0,1.221-.44,2.193,2.193,0,0,0,.472-1.232,16.607,16.607,0,0,0,.089-1.826v-3.7a16.307,16.307,0,0,0-.089-1.815,2.241,2.241,0,0,0-.472-1.232,1.521,1.521,0,0,0-1.221-.451,1.484,1.484,0,0,0-1.21.451,2.361,2.361,0,0,0-.474,1.232,14.822,14.822,0,0,0-.1,1.815v3.7a15.1,15.1,0,0,0,.1,1.826,2.308,2.308,0,0,0,.474,1.232A1.5,1.5,0,0,0,1967.006,1748.4Z"/><path d="M1972.747,1749.408v-12.716h1.629v1.738a3.851,3.851,0,0,1,1.407-1.441,3.194,3.194,0,0,1,1.519-.429h.132a.638.638,0,0,1,.154.022v1.716a1.559,1.559,0,0,0-.374-.1,2.839,2.839,0,0,0-.418-.033,2.653,2.653,0,0,0-1.354.352,3.1,3.1,0,0,0-1.066,1.122v9.768Z"/><path d="M1983.659,1753.588v-16.9h1.607v1.056a4.743,4.743,0,0,1,.99-.858,2.555,2.555,0,0,1,1.451-.4,2.381,2.381,0,0,1,1.485.429,2.805,2.805,0,0,1,.87,1.155,6.023,6.023,0,0,1,.417,1.628,15.322,15.322,0,0,1,.111,1.87v2.662a12.872,12.872,0,0,1-.276,2.838,3.759,3.759,0,0,1-.934,1.87,2.5,2.5,0,0,1-1.849.66,2.249,2.249,0,0,1-1.331-.4,5.478,5.478,0,0,1-.934-.814v5.192Zm3.609-5.236a1.314,1.314,0,0,0,1.1-.473,2.813,2.813,0,0,0,.5-1.386,17.125,17.125,0,0,0,.121-2.211v-2.706a15.2,15.2,0,0,0-.121-2.1,2.507,2.507,0,0,0-.5-1.287,1.391,1.391,0,0,0-1.122-.44,2.066,2.066,0,0,0-1.133.33,4.972,4.972,0,0,0-.846.66v8.668a3.5,3.5,0,0,0,.869.66A2.293,2.293,0,0,0,1987.268,1748.352Z"/><path d="M1996.023,1749.606a3.632,3.632,0,0,1-1.947-.473,2.792,2.792,0,0,1-1.122-1.573,9.6,9.6,0,0,1-.362-2.926v-3.212a9.3,9.3,0,0,1,.373-2.959,2.711,2.711,0,0,1,1.144-1.518,3.742,3.742,0,0,1,1.914-.451,3.224,3.224,0,0,1,2.069.572,3.05,3.05,0,0,1,.978,1.727,13.078,13.078,0,0,1,.276,2.959v1.144H1994.2v2.222a8,8,0,0,0,.188,1.947,1.8,1.8,0,0,0,.594,1.023,1.684,1.684,0,0,0,1.044.308,2.026,2.026,0,0,0,.88-.187,1.331,1.331,0,0,0,.627-.726,3.985,3.985,0,0,0,.232-1.529v-.88h1.561v.7a4.8,4.8,0,0,1-.725,2.783A2.918,2.918,0,0,1,1996.023,1749.606Zm-1.826-7.634h3.565v-1.056a11.484,11.484,0,0,0-.111-1.727,2.011,2.011,0,0,0-.472-1.1,1.527,1.527,0,0,0-1.156-.385,1.824,1.824,0,0,0-1.067.286,1.668,1.668,0,0,0-.583,1.023,9.6,9.6,0,0,0-.176,2.1Z"/><path d="M2001.633,1749.408v-12.716h1.629v1.738a3.851,3.851,0,0,1,1.407-1.441,3.191,3.191,0,0,1,1.519-.429h.131a.645.645,0,0,1,.155.022v1.716a1.559,1.559,0,0,0-.374-.1,2.849,2.849,0,0,0-.418-.033,2.65,2.65,0,0,0-1.354.352,3.1,3.1,0,0,0-1.066,1.122v9.768Z"/><path d="M2010.962,1749.606a3.131,3.131,0,0,1-2.421-.979,4.246,4.246,0,0,1-1.033-2.629l1.342-.4a3.917,3.917,0,0,0,.681,2.123,1.88,1.88,0,0,0,1.54.671,1.69,1.69,0,0,0,1.287-.473,1.85,1.85,0,0,0,.452-1.331,2.418,2.418,0,0,0-.374-1.243,5.415,5.415,0,0,0-1.189-1.309l-1.716-1.5a6.083,6.083,0,0,1-1.3-1.452,3.283,3.283,0,0,1-.44-1.738,2.911,2.911,0,0,1,.386-1.551,2.591,2.591,0,0,1,1.055-.968,3.491,3.491,0,0,1,1.595-.341,2.65,2.65,0,0,1,2.2.935,4.036,4.036,0,0,1,.815,2.409l-1.145.374a4.584,4.584,0,0,0-.263-1.419,1.728,1.728,0,0,0-.606-.825,1.612,1.612,0,0,0-.934-.264,1.688,1.688,0,0,0-1.177.407,1.448,1.448,0,0,0-.451,1.133,2.24,2.24,0,0,0,.219,1.012,3.705,3.705,0,0,0,.815.99l1.8,1.606a12.714,12.714,0,0,1,1.012.99,4.742,4.742,0,0,1,.792,1.177,3.539,3.539,0,0,1,.309,1.529,3.153,3.153,0,0,1-.407,1.661,2.727,2.727,0,0,1-1.133,1.034A3.8,3.8,0,0,1,2010.962,1749.606Z"/><path d="M2019.189,1749.606a3.333,3.333,0,0,1-2.045-.561,2.936,2.936,0,0,1-1.045-1.628,9.805,9.805,0,0,1-.3-2.607v-3.52a9.817,9.817,0,0,1,.3-2.607,2.936,2.936,0,0,1,1.045-1.628,4.029,4.029,0,0,1,4.1,0,2.97,2.97,0,0,1,1.034,1.628,9.817,9.817,0,0,1,.3,2.607v3.52a9.805,9.805,0,0,1-.3,2.607,2.97,2.97,0,0,1-1.034,1.628A3.33,3.33,0,0,1,2019.189,1749.606Zm0-1.21a1.541,1.541,0,0,0,1.221-.44,2.195,2.195,0,0,0,.473-1.232,16.884,16.884,0,0,0,.089-1.826v-3.7a16.577,16.577,0,0,0-.089-1.815,2.242,2.242,0,0,0-.473-1.232,1.521,1.521,0,0,0-1.221-.451,1.486,1.486,0,0,0-1.21.451,2.353,2.353,0,0,0-.473,1.232,14.614,14.614,0,0,0-.1,1.815v3.7a14.882,14.882,0,0,0,.1,1.826,2.3,2.3,0,0,0,.473,1.232A1.505,1.505,0,0,0,2019.189,1748.4Z"/><path d="M2024.821,1749.408v-12.716h1.606v1.32a5.662,5.662,0,0,1,1.386-1.089,3.379,3.379,0,0,1,1.672-.429,1.743,1.743,0,0,1,1.067.319,2,2,0,0,1,.66.924,4.114,4.114,0,0,1,.231,1.463v10.208h-1.606v-9.856a2.387,2.387,0,0,0-.308-1.4,1.087,1.087,0,0,0-.924-.407,2.206,2.206,0,0,0-1.1.33,4.885,4.885,0,0,0-1.078.858v10.472Z"/><path d="M2036,1749.606a2.306,2.306,0,0,1-1.32-.385,2.709,2.709,0,0,1-.9-1.023,3.066,3.066,0,0,1-.33-1.43,4.259,4.259,0,0,1,.286-1.65,3.392,3.392,0,0,1,.891-1.221,8.049,8.049,0,0,1,1.584-1.056q.978-.516,2.387-1.155v-.9a9.266,9.266,0,0,0-.143-1.837,1.671,1.671,0,0,0-.484-.957,1.451,1.451,0,0,0-.957-.286,1.991,1.991,0,0,0-.9.2,1.463,1.463,0,0,0-.638.671,2.922,2.922,0,0,0-.241,1.309v.44l-1.584-.022a4.4,4.4,0,0,1,.824-2.871,3.3,3.3,0,0,1,2.629-.935,2.7,2.7,0,0,1,2.4,1.023,5.681,5.681,0,0,1,.7,3.179v6.182c0,.22,0,.5.011.847s.022.671.044.979.04.543.056.7h-1.431c-.044-.279-.092-.59-.143-.935s-.085-.619-.1-.825a3.192,3.192,0,0,1-.935,1.364A2.475,2.475,0,0,1,2036,1749.606Zm.528-1.364a1.659,1.659,0,0,0,.87-.231,3.138,3.138,0,0,0,.7-.583,3.179,3.179,0,0,0,.494-.7v-3.96q-.946.507-1.616.891a6.469,6.469,0,0,0-1.09.759,2.356,2.356,0,0,0-.616.847,2.868,2.868,0,0,0-.2,1.111,1.991,1.991,0,0,0,.429,1.441A1.4,1.4,0,0,0,2036.525,1748.242Z"/><path d="M2042.773,1749.408v-17.82h1.606v17.82Z"/><path d="M2053.354,1749.606a1.788,1.788,0,0,1-1.078-.319,1.98,1.98,0,0,1-.671-.924,4.132,4.132,0,0,1-.23-1.463v-10.208h1.6v9.856a2.375,2.375,0,0,0,.309,1.4,1.082,1.082,0,0,0,.924.407,2.177,2.177,0,0,0,1.155-.363,5.287,5.287,0,0,0,1.089-.913v-10.384h1.606v12.716h-1.606V1748a5.46,5.46,0,0,1-1.408,1.155A3.367,3.367,0,0,1,2053.354,1749.606Z"/><path d="M2063.453,1749.606a3.131,3.131,0,0,1-2.421-.979A4.252,4.252,0,0,1,2060,1746l1.342-.4a3.917,3.917,0,0,0,.681,2.123,1.882,1.882,0,0,0,1.541.671,1.693,1.693,0,0,0,1.287-.473,1.855,1.855,0,0,0,.451-1.331,2.418,2.418,0,0,0-.374-1.243,5.417,5.417,0,0,0-1.189-1.309l-1.716-1.5a6.076,6.076,0,0,1-1.3-1.452,3.282,3.282,0,0,1-.441-1.738,2.912,2.912,0,0,1,.386-1.551,2.587,2.587,0,0,1,1.056-.968,3.484,3.484,0,0,1,1.594-.341,2.653,2.653,0,0,1,2.2.935,4.035,4.035,0,0,1,.814,2.409l-1.145.374a4.588,4.588,0,0,0-.263-1.419,1.728,1.728,0,0,0-.606-.825,1.613,1.613,0,0,0-.934-.264,1.689,1.689,0,0,0-1.177.407,1.448,1.448,0,0,0-.451,1.133,2.229,2.229,0,0,0,.22,1.012,3.68,3.68,0,0,0,.814.99l1.8,1.606a12.89,12.89,0,0,1,1.011.99,4.709,4.709,0,0,1,.792,1.177,3.537,3.537,0,0,1,.309,1.529,3.153,3.153,0,0,1-.407,1.661,2.725,2.725,0,0,1-1.133,1.034A3.8,3.8,0,0,1,2063.453,1749.606Z"/><path d="M2071.725,1749.606a3.636,3.636,0,0,1-1.948-.473,2.791,2.791,0,0,1-1.122-1.573,9.6,9.6,0,0,1-.362-2.926v-3.212a9.3,9.3,0,0,1,.373-2.959,2.709,2.709,0,0,1,1.145-1.518,3.737,3.737,0,0,1,1.914-.451,3.222,3.222,0,0,1,2.068.572,3.051,3.051,0,0,1,.978,1.727,13.077,13.077,0,0,1,.276,2.959v1.144H2069.9v2.222a8,8,0,0,0,.188,1.947,1.8,1.8,0,0,0,.594,1.023,1.685,1.685,0,0,0,1.045.308,2.024,2.024,0,0,0,.879-.187,1.332,1.332,0,0,0,.627-.726,3.985,3.985,0,0,0,.232-1.529v-.88h1.561v.7a4.8,4.8,0,0,1-.725,2.783A2.918,2.918,0,0,1,2071.725,1749.606Zm-1.827-7.634h3.565v-1.056a11.63,11.63,0,0,0-.11-1.727,2.018,2.018,0,0,0-.473-1.1,1.526,1.526,0,0,0-1.155-.385,1.826,1.826,0,0,0-1.068.286,1.668,1.668,0,0,0-.583,1.023,9.61,9.61,0,0,0-.176,2.1Z"/><path d="M2077.334,1749.408v-12.716h1.629v1.738a3.851,3.851,0,0,1,1.407-1.441,3.19,3.19,0,0,1,1.519-.429h.132a.645.645,0,0,1,.154.022v1.716a1.559,1.559,0,0,0-.374-.1,2.84,2.84,0,0,0-.418-.033,2.653,2.653,0,0,0-1.354.352,3.1,3.1,0,0,0-1.066,1.122v9.768Z"/></g></svg>