<svg id="Layer_1" data-name="Layer 1" xmlns="http://www.w3.org/2000/svg" xmlns:xlink="http://www.w3.org/1999/xlink" width="261.12" height="113.51" viewBox="0 0 261.12 113.51"><defs><style>.cls-1{fill:none;}.cls-2{clip-path:url(#clip-path);}.cls-3{fill:#dde4ee;}.cls-4{fill:#010101;}</style><clipPath id="clip-path"><rect class="cls-1" width="261.12" height="113.51"/></clipPath></defs><g class="cls-2"><path class="cls-3" d="M4.92,84.32l15.24-3c.48,11.52,3.24,19,11,19,5.64,0,8-3.84,8-9.12,0-8.4-4.32-13.08-10.68-18.6L16.32,61.88C9.36,55.88,5,49.16,5,38.36c0-15.36,9.6-24,25.08-24,18.24,0,23.4,12.24,24.36,26.4L39.24,43.4c-.36-9.12-1.68-16-9.48-16-5.28,0-8.16,4-8.16,9.12,0,6.6,2.76,10.2,7.92,14.64L41.64,61.88c7.92,6.84,14.52,15.36,14.52,28.2,0,14-9.84,23.88-24.36,23.88C14,114,5.64,103.64,4.92,84.32Z"/><path class="cls-3" d="M64.2,88.28V67.64c0-16.68,7-25.44,22.32-25.44,16.32,0,21.48,9.6,21.48,26.52v10H80.4V92.36c0,6.84,2,9.6,6.24,9.6s5.88-3,5.88-9V87.08h15.36v4.8c0,14-7.08,21.84-21.36,21.84C70.92,113.72,64.2,104.72,64.2,88.28ZM92.52,70.64V64c0-7-1.44-10.08-6-10.08S80.4,56.72,80.4,65.84v4.8Z"/><path class="cls-3" d="M120.12,15.44h16.2v97.2h-16.2Z"/><path class="cls-3" d="M150.36,15.44h16.2v97.2h-16.2Z"/></g><path class="cls-4" d="M1.48,84.68l4.57-.9c.14,3.46,1,5.69,3.31,5.69,1.69,0,2.41-1.15,2.41-2.73,0-2.52-1.29-3.93-3.2-5.58L4.9,78a8.59,8.59,0,0,1-3.39-7c0-4.61,2.88-7.2,7.53-7.2,5.47,0,7,3.67,7.3,7.92l-4.57.79c-.11-2.74-.5-4.79-2.84-4.79a2.45,2.45,0,0,0-2.45,2.74c0,2,.83,3.06,2.38,4.39L12.49,78c2.38,2,4.36,4.61,4.36,8.46a6.9,6.9,0,0,1-7.31,7.16C4.21,93.57,1.69,90.48,1.48,84.68Z"/><path class="cls-4" d="M19.26,85.87V79.68c0-5,2.09-7.63,6.7-7.63,4.89,0,6.44,2.88,6.44,8v3H24.12V87.1c0,2.05.61,2.87,1.87,2.87s1.77-.9,1.77-2.69V85.51h4.6V87c0,4.21-2.12,6.55-6.4,6.55C21.28,93.5,19.26,90.8,19.26,85.87Zm8.5-5.29v-2c0-2.09-.44-3-1.8-3s-1.84.82-1.84,3.56v1.44Z"/><path class="cls-4" d="M36,64H40.9V93.18H36Z"/><path class="cls-4" d="M45.11,64H50V93.18H45.11Z"/><path class="cls-4" d="M62.76,81.63H61.13V80.46h1.63V79.14c0-1.89.24-3.23,2.33-3.23a5,5,0,0,1,1.3.15v1.19a4,4,0,0,0-.9-.11c-1,0-1.11.59-1.11,1.85v1.47h2.05v1.17H64.38V93.18H62.76Z"/><path class="cls-4" d="M67.62,88.58V85.06c0-3.06.75-4.8,3.39-4.8s3.41,1.72,3.41,4.8v3.52c0,3.08-.75,4.8-3.41,4.8S67.62,91.66,67.62,88.58Zm5.17.09V85c0-2.07-.11-3.5-1.78-3.5S69.25,82.9,69.25,85v3.7c0,2.07.11,3.5,1.76,3.5S72.79,90.74,72.79,88.67Z"/><path class="cls-4" d="M76.75,80.46h1.63V82.2a3.48,3.48,0,0,1,2.92-1.87,1.62,1.62,0,0,1,.29,0v1.72a2.72,2.72,0,0,0-.79-.13,2.68,2.68,0,0,0-2.42,1.47v9.77H76.75Z"/><path class="cls-4" d="M87.42,88.36v-3c0-3.52.68-5.13,3.41-5.13s3.23,1.65,3.23,4.07V85H92.57v-.62c0-2.22-.47-2.86-1.74-2.86-1.52,0-1.81,1-1.81,3.65v3.57c0,2.55.38,3.48,1.83,3.48s1.72-1,1.72-3.06V88.4h1.49V89c0,2.57-.48,4.36-3.23,4.36C87.86,93.38,87.42,91.24,87.42,88.36Z"/><path class="cls-4" d="M96,88.58V85.06c0-3.06.74-4.8,3.38-4.8s3.41,1.72,3.41,4.8v3.52c0,3.08-.74,4.8-3.41,4.8S96,91.66,96,88.58Zm5.17.09V85c0-2.07-.11-3.5-1.79-3.5S97.6,82.9,97.6,85v3.7c0,2.07.11,3.5,1.76,3.5S101.15,90.74,101.15,88.67Z"/><path class="cls-4" d="M105.11,80.46h1.62V82.2a3.51,3.51,0,0,1,2.93-1.87,1.68,1.68,0,0,1,.29,0v1.72a2.73,2.73,0,0,0-.8-.13,2.7,2.7,0,0,0-2.42,1.47v9.77h-1.62Z"/><path class="cls-4" d="M111.53,80.46h1.61v1.06a3,3,0,0,1,2.44-1.26c2.46,0,2.88,2.51,2.88,5.06V88c0,3.25-.68,5.37-3.06,5.37a3.08,3.08,0,0,1-2.26-1.21v5.19h-1.61Zm5.32,7.59V85.32c0-2.48-.24-3.8-1.73-3.8a3,3,0,0,0-2,1v8.67a2.79,2.79,0,0,0,2,.92C116.59,92.1,116.85,90.69,116.85,88.05Z"/><path class="cls-4" d="M120.46,88.58V85.06c0-3.06.75-4.8,3.39-4.8s3.41,1.72,3.41,4.8v3.52c0,3.08-.75,4.8-3.41,4.8S120.46,91.66,120.46,88.58Zm5.17.09V85c0-2.07-.11-3.5-1.78-3.5s-1.76,1.43-1.76,3.5v3.7c0,2.07.11,3.5,1.76,3.5S125.63,90.74,125.63,88.67Z"/><path class="cls-4" d="M129.59,80.46h1.63V82.2a3.49,3.49,0,0,1,2.93-1.87,1.58,1.58,0,0,1,.28,0v1.72a2.67,2.67,0,0,0-3.21,1.34v9.77h-1.63Z"/><path class="cls-4" d="M135.6,90.54c0-2.55,1.38-3.41,5.12-5.09v-.9c0-2.31-.37-3.08-1.58-3.08-1,0-1.78.51-1.78,2.18v.44l-1.59,0c0-2.58,1-3.81,3.46-3.81,2.26,0,3.1,1.35,3.1,4.21v6.18c0,.66,0,2.07.11,2.53H141c-.07-.55-.2-1.37-.24-1.76a2.78,2.78,0,0,1-2.62,2A2.62,2.62,0,0,1,135.6,90.54Zm5.12-.05v-4c-2.5,1.32-3.52,1.87-3.52,3.61,0,1.34.69,1.87,1.46,1.87A2.57,2.57,0,0,0,140.72,90.49Z"/><path class="cls-4" d="M145.32,90.54v-9h-1.56V80.46h1.56V76.52h1.61v3.94H149v1.06h-2.11v8.86c0,1.24.17,1.7,1.12,1.7A5.22,5.22,0,0,0,149,92V93.2a7.11,7.11,0,0,1-1.36.13C145.74,93.33,145.32,92.17,145.32,90.54Z"/><path class="cls-4" d="M150.51,88.4V85.19c0-3.76,1.1-4.93,3.46-4.93,2.66,0,3.3,1.68,3.3,5.26v1.15h-5.15v2.22c0,2.48.53,3.28,1.83,3.28,1,0,1.73-.44,1.73-2.45v-.88h1.57v.71c0,2.31-.84,3.83-3.3,3.83S150.51,92.1,150.51,88.4Zm5.17-2.66v-1c0-2-.17-3.22-1.73-3.22-1.32,0-1.83.71-1.83,3.41v.86Z"/><path class="cls-4" d="M163.82,90.67V80.46h1.63v9.86c0,1.32.4,1.78,1.21,1.78a3.35,3.35,0,0,0,2.25-1.25V80.46h1.6V93.18h-1.6V91.77a4.19,4.19,0,0,1-3.11,1.61C164.51,93.38,163.82,92.39,163.82,90.67Z"/><path class="cls-4" d="M172.45,89.77l1.34-.42c.17,2,.92,2.82,2.22,2.82a1.62,1.62,0,0,0,1.74-1.81,3.42,3.42,0,0,0-1.54-2.55l-1.74-1.5a3.87,3.87,0,0,1-1.74-3.19,2.73,2.73,0,0,1,3-2.86c1.94,0,2.9,1.39,3,3.35l-1.14.37c-.09-1.71-.7-2.51-1.8-2.51A1.47,1.47,0,0,0,174.21,83a2.47,2.47,0,0,0,1,2l1.81,1.6c1,.93,2.11,1.94,2.11,3.7,0,2-1.3,3.06-3.26,3.06S172.62,92,172.45,89.77Z"/><path class="cls-4" d="M180.74,88.4V85.19c0-3.76,1.1-4.93,3.46-4.93,2.66,0,3.3,1.68,3.3,5.26v1.15h-5.15v2.22c0,2.48.52,3.28,1.82,3.28,1,0,1.74-.44,1.74-2.45v-.88h1.56v.71c0,2.31-.83,3.83-3.3,3.83S180.74,92.1,180.74,88.4Zm5.17-2.66v-1c0-2-.17-3.22-1.74-3.22-1.32,0-1.82.71-1.82,3.41v.86Z"/><path class="cls-4" d="M189.78,80.46h1.63V82.2a3.51,3.51,0,0,1,2.93-1.87,1.52,1.52,0,0,1,.28,0v1.72a2.61,2.61,0,0,0-.79-.13,2.7,2.7,0,0,0-2.42,1.47v9.77h-1.63Z"/></svg>