<svg id="Layer_1" data-name="Layer 1" xmlns="http://www.w3.org/2000/svg" xmlns:xlink="http://www.w3.org/1999/xlink" width="261.12" height="113.51" viewBox="0 0 261.12 113.51"><defs><style>.cls-1{fill:none;}.cls-2{clip-path:url(#clip-path);}.cls-3{fill:#dde4ee;}.cls-4{fill:#010101;}</style><clipPath id="clip-path"><rect class="cls-1" width="261.12" height="113.51"/></clipPath></defs><g class="cls-2"><path class="cls-3" d="M7.32,15.44h23.4c19.44,0,30.48,6.24,30.48,25.8,0,11.64-2.88,19.8-12,23.52l13.56,47.88H45L33.36,68.12H25v44.52H7.32ZM30.6,57.08c10.2,0,13.92-4.44,13.92-14.88,0-9.84-2.76-14.64-13-14.64H25V57.08Z"/><path class="cls-3" d="M72.24,88.28V67.64c0-16.68,7-25.44,22.32-25.44,16.32,0,21.48,9.6,21.48,26.52v10H88.44V92.36c0,6.84,2,9.6,6.24,9.6s5.88-3,5.88-9V87.08h15.36v4.8c0,14-7.08,21.84-21.36,21.84C79,113.72,72.24,104.72,72.24,88.28Zm28.32-17.64V64c0-7-1.44-10.08-6-10.08s-6.12,2.76-6.12,11.88v4.8Z"/><path class="cls-3" d="M127.08,43.28H143.4v6.84c4.92-4.68,10.44-7.92,16.8-7.92,8.4,0,11.76,7.2,11.76,15.24v55.2H155.64v-52c0-4.2-1-6.48-4.68-6.48-2.28,0-4.92,1.44-7.56,3.36v55.08H127.08Z"/><path class="cls-3" d="M186.72,95.36V54h-7V43.28h7V22.52h16.44V43.28H213.6V54H203.16v40c0,4.68,2,6.6,6.24,6.6a23.17,23.17,0,0,0,5-.48v12.6a62.17,62.17,0,0,1-10.44.84C190.68,113.48,186.72,106.64,186.72,95.36Z"/></g><path class="cls-4" d="M2.2,64h7c5.83,0,9.14,1.87,9.14,7.74,0,3.49-.87,5.94-3.6,7.06l4.07,14.36H13.5L10,79.82H7.49V93.18H2.2Zm7,12.49c3.06,0,4.18-1.33,4.18-4.46,0-3-.83-4.39-3.89-4.39h-2v8.85Z"/><path class="cls-4" d="M21.67,85.87V79.68c0-5,2.09-7.63,6.7-7.63,4.89,0,6.44,2.88,6.44,8v3H26.53V87.1c0,2.05.61,2.88,1.87,2.88s1.77-.9,1.77-2.7V85.51h4.6V87c0,4.21-2.12,6.55-6.4,6.55C23.69,93.5,21.67,90.8,21.67,85.87Zm8.5-5.29v-2c0-2.09-.43-3-1.8-3s-1.84.83-1.84,3.56v1.44Z"/><path class="cls-4" d="M38.12,72.37H43v2a7.4,7.4,0,0,1,5-2.37c2.52,0,3.53,2.16,3.53,4.57V93.18h-4.9V77.59c0-1.26-.29-1.94-1.4-1.94a4.26,4.26,0,0,0-2.27,1V93.18h-4.9Z"/><path class="cls-4" d="M56,88V75.58H53.93V72.37H56V66.15H61v6.22h3.13v3.21H61v12c0,1.41.61,2,1.87,2a6.85,6.85,0,0,0,1.51-.14v3.78a19.14,19.14,0,0,1-3.13.25C57.2,93.43,56,91.38,56,88Z"/><path class="cls-4" d="M76,81.63H74.41V80.46H76V79.14c0-1.89.24-3.23,2.33-3.23a5,5,0,0,1,1.3.15v1.19a4,4,0,0,0-.9-.11c-1,0-1.1.59-1.1,1.85v1.47h2v1.17h-2V93.18H76Z"/><path class="cls-4" d="M80.9,88.58V85.06c0-3.06.75-4.8,3.39-4.8S87.7,82,87.7,85.06v3.52c0,3.08-.75,4.8-3.41,4.8S80.9,91.66,80.9,88.58Zm5.17.09V85c0-2.07-.11-3.5-1.78-3.5S82.53,82.9,82.53,85v3.7c0,2.07.11,3.5,1.76,3.5S86.07,90.74,86.07,88.67Z"/><path class="cls-4" d="M90,80.46h1.63V82.2a3.49,3.49,0,0,1,2.93-1.87,1.52,1.52,0,0,1,.28,0v1.72a2.59,2.59,0,0,0-.79-.14,2.71,2.71,0,0,0-2.42,1.48v9.77H90Z"/><path class="cls-4" d="M100.7,88.36v-3c0-3.52.68-5.13,3.41-5.13s3.24,1.65,3.24,4.07V85h-1.5v-.62c0-2.22-.46-2.86-1.74-2.86-1.52,0-1.8,1-1.8,3.66v3.56c0,2.55.37,3.48,1.83,3.48s1.71-1,1.71-3.06V88.4h1.5V89c0,2.57-.49,4.36-3.24,4.36C101.14,93.38,100.7,91.24,100.7,88.36Z"/><path class="cls-4" d="M109.26,88.58V85.06c0-3.06.75-4.8,3.39-4.8s3.41,1.72,3.41,4.8v3.52c0,3.08-.75,4.8-3.41,4.8S109.26,91.66,109.26,88.58Zm5.17.09V85c0-2.07-.11-3.5-1.78-3.5s-1.76,1.43-1.76,3.5v3.7c0,2.07.11,3.5,1.76,3.5S114.43,90.74,114.43,88.67Z"/><path class="cls-4" d="M118.39,80.46H120V82.2a3.49,3.49,0,0,1,2.92-1.87,1.62,1.62,0,0,1,.29,0v1.72A2.62,2.62,0,0,0,120,83.41v9.77h-1.63Z"/><path class="cls-4" d="M124.81,80.46h1.61v1.06a3.08,3.08,0,0,1,2.44-1.26c2.47,0,2.88,2.51,2.88,5.06V88c0,3.25-.68,5.37-3.05,5.37a3.1,3.1,0,0,1-2.27-1.21v5.19h-1.61Zm5.33,7.59V85.32c0-2.48-.24-3.8-1.74-3.8a3,3,0,0,0-2,1v8.67a2.81,2.81,0,0,0,2,.92C129.87,92.1,130.14,90.69,130.14,88.05Z"/><path class="cls-4" d="M133.75,88.58V85.06c0-3.06.74-4.8,3.38-4.8s3.41,1.72,3.41,4.8v3.52c0,3.08-.74,4.8-3.41,4.8S133.75,91.66,133.75,88.58Zm5.17.09V85c0-2.07-.11-3.5-1.79-3.5s-1.76,1.43-1.76,3.5v3.7c0,2.07.11,3.5,1.76,3.5S138.92,90.74,138.92,88.67Z"/><path class="cls-4" d="M142.88,80.46h1.62V82.2a3.51,3.51,0,0,1,2.93-1.87,1.68,1.68,0,0,1,.29,0v1.72a2.64,2.64,0,0,0-3.22,1.34v9.77h-1.62Z"/><path class="cls-4" d="M148.88,90.54c0-2.55,1.39-3.41,5.13-5.08v-.91c0-2.31-.38-3.08-1.59-3.08-1,0-1.78.51-1.78,2.18v.44l-1.58,0c0-2.58,1-3.81,3.45-3.81,2.27,0,3.11,1.34,3.11,4.21v6.18c0,.66,0,2.07.1,2.53h-1.43c-.06-.55-.19-1.37-.24-1.76a2.77,2.77,0,0,1-2.62,2A2.62,2.62,0,0,1,148.88,90.54Zm5.13-.05v-4c-2.51,1.32-3.52,1.87-3.52,3.61,0,1.34.68,1.87,1.45,1.87A2.59,2.59,0,0,0,154,90.49Z"/><path class="cls-4" d="M158.61,90.54v-9H157V80.46h1.57V76.52h1.6v3.94h2.11v1.06h-2.11v8.86c0,1.24.18,1.7,1.12,1.7a5.33,5.33,0,0,0,.93-.11V93.2a7.21,7.21,0,0,1-1.37.13C159,93.33,158.61,92.17,158.61,90.54Z"/><path class="cls-4" d="M163.8,88.4V85.19c0-3.76,1.1-4.93,3.45-4.93,2.66,0,3.3,1.67,3.3,5.26v1.15H165.4v2.22c0,2.48.53,3.28,1.83,3.28,1,0,1.74-.44,1.74-2.45v-.88h1.56v.71c0,2.31-.83,3.83-3.3,3.83S163.8,92.1,163.8,88.4ZM169,85.74v-1c0-2-.18-3.22-1.74-3.22-1.32,0-1.83.71-1.83,3.41v.86Z"/><path class="cls-4" d="M177.11,90.67V80.46h1.63v9.86c0,1.32.39,1.78,1.21,1.78a3.33,3.33,0,0,0,2.24-1.25V80.46h1.61V93.18h-1.61V91.77a4.15,4.15,0,0,1-3.1,1.61C177.79,93.38,177.11,92.39,177.11,90.67Z"/><path class="cls-4" d="M185.73,89.77l1.34-.42c.18,2,.93,2.82,2.23,2.82A1.61,1.61,0,0,0,191,90.36a3.42,3.42,0,0,0-1.54-2.55l-1.73-1.5A3.84,3.84,0,0,1,186,83.12a2.73,2.73,0,0,1,3-2.86c1.94,0,2.91,1.39,3,3.35l-1.15.37c-.08-1.72-.7-2.51-1.8-2.51A1.47,1.47,0,0,0,187.49,83a2.45,2.45,0,0,0,1,2l1.8,1.6c1,.93,2.11,1.94,2.11,3.7,0,2-1.3,3.06-3.25,3.06S185.91,92,185.73,89.77Z"/><path class="cls-4" d="M194,88.4V85.19c0-3.76,1.09-4.93,3.45-4.93,2.66,0,3.3,1.67,3.3,5.26v1.15h-5.15v2.22c0,2.48.53,3.28,1.83,3.28,1,0,1.74-.44,1.74-2.45v-.88h1.56v.71c0,2.31-.84,3.83-3.3,3.83S194,92.1,194,88.4Zm5.17-2.66v-1c0-2-.18-3.22-1.74-3.22-1.32,0-1.83.71-1.83,3.41v.86Z"/><path class="cls-4" d="M203.07,80.46h1.63V82.2a3.48,3.48,0,0,1,2.92-1.87,1.62,1.62,0,0,1,.29,0v1.72a2.62,2.62,0,0,0-3.21,1.34v9.77h-1.63Z"/></svg>