<?xml version="1.0" encoding="utf-8"?>
<!-- Generator: Adobe Illustrator 25.0.0, SVG Export Plug-In . SVG Version: 6.00 Build 0)  -->
<svg version="1.1" id="レイヤー_1" xmlns="http://www.w3.org/2000/svg" xmlns:xlink="http://www.w3.org/1999/xlink" x="0px"
	 y="0px" viewBox="0 0 600 282" style="enable-background:new 0 0 600 282;" xml:space="preserve">
<style type="text/css">
	.st0{fill:#232380;}
	.st1{fill:#FFFFFF;}
	.st2{fill:#4C4A4A;}
	.st3{fill:#232380;stroke:#FFFFFF;stroke-width:1.227;stroke-miterlimit:10;}
	.st4{fill:none;stroke:#AB0018;stroke-width:4.908;stroke-miterlimit:10;}
	.st5{fill:#AB0018;}
	.st6{fill:#FFD600;}
</style>
<g>
	<g>
		<path class="st0" d="M598.8,26.8v254H454.3v-254H598.8 M600,25.6H453.1V282H600V25.6L600,25.6z"/>
	</g>
	<g>
		<path class="st0" d="M145.7,26.8v254H1.2v-254H145.7 M146.9,25.6H0V282h146.9V25.6L146.9,25.6z"/>
	</g>
	<g>
		<rect x="159.8" y="26.2" class="st0" width="280.4" height="255.2"/>
		<path class="st0" d="M439.6,26.8v254H160.4v-254H439.6 M440.8,25.6H159.2V282h281.6V25.6L440.8,25.6z"/>
	</g>
	<g>
		<path class="st0" d="M215.3,15.9h17.2v2.4h-17.2V15.9z M216.4,2.9h15v2.4h-15V2.9z M217.8,9.2h12.1v2.4h-12.1V9.2z"/>
		<path class="st0" d="M244.8,16.5h7.8v2.3h-18v-2.3h7.6v-5h-5.7V9.1h5.7V4.6h-6.6V2.3h16v2.3h-6.8v4.5h6v2.3h-6V16.5z"/>
		<path class="st0" d="M264.4,10l1.5-1.5c2.1,1.3,5.1,3.2,6.5,4.5l-1.9,2c-1.3-1.3-4-3.3-6.1-4.6v9.1h-2.5V9.9c-1.8,2-4,3.9-6.5,5.3
			c-0.3-0.6-1.1-1.5-1.6-2c3.7-1.9,6.9-5.2,8.7-8.5h-8V2.3h17.2v2.4h-6.3c-0.4,0.8-0.9,1.6-1.4,2.4l0.8,0.2c0,0.2-0.2,0.3-0.5,0.4
			V10z"/>
		<path class="st0" d="M290.6,5.6l1.2,0.1c0,0.2,0,0.5,0,0.7c-0.2,8.2-0.3,11-0.9,11.9c-0.7,1-1.4,1.1-3.8,1c0-0.6-0.3-1.6-0.6-2.2
			c0.7,0.1,1.4,0.1,1.8,0.1c0.3,0,0.5-0.1,0.6-0.3c0.4-0.5,0.6-2.8,0.7-9.1h-1.7c0,3.8-0.5,8.7-4,11.7c-0.4-0.4-1.2-1.2-1.8-1.5l0,0
			c-2.8,0.4-5.6,0.6-7.5,0.8c0,0.2-0.2,0.3-0.3,0.3l-0.7-2.3c1.1-0.1,2.5-0.2,4-0.3v-1.2h-3.5v-1.7h3.5v-0.8h-3.3V6.8h3.3V6.1h-3.9
			V4.4h3.9V3.6c-1.1,0.1-2.2,0.2-3.2,0.2c-0.1-0.5-0.3-1.2-0.5-1.6c2.9-0.2,6.2-0.5,8.1-1.1l1.5,1.7c-0.1,0-0.1,0.1-0.3,0.1
			c-0.1,0-0.1,0-0.2,0c-0.8,0.2-1.8,0.4-2.9,0.5c-0.1,0.1-0.2,0.1-0.4,0.1v0.9h3.9v1.7h-3.9v0.8h3.5v6.1h-3.5v0.8h3.6v1.7h-3.6v1
			c1.2-0.1,2.4-0.2,3.6-0.3v0.5c1.9-2.7,2.2-6.1,2.2-8.8h-1.7V5.6h1.7V1.1l2.7,0.2c0,0.2-0.2,0.3-0.5,0.4v4h2.3L290.6,5.6z
			 M276.2,8.4v0.8h1.4V8.4H276.2z M276.2,11.4h1.4v-0.8h-1.4V11.4z M281.2,8.4h-1.5v0.8h1.5V8.4z M281.2,11.4v-0.8h-1.5v0.8H281.2z"
			/>
		<path class="st0" d="M308.2,4.6c-0.1,0.2-0.3,0.2-0.5,0.2c-0.3,0.5-0.6,1.2-1,1.7h4.7v2h-14.4v1.2c0,2.8-0.4,7-2.2,9.8
			c-0.4-0.4-1.4-1.3-1.8-1.5c1.6-2.4,1.8-5.9,1.8-8.3V6.5h3.6c-0.2-0.6-0.4-1.4-0.7-2l0.5-0.1h-3.5v-2h6.7V0.9l2.9,0.2
			c0,0.2-0.2,0.3-0.5,0.4v0.9h6.8v2h-2.9L308.2,4.6z M305.4,15.4v1.7h5.9v1.9h-13.9v-1.9h5.7v-1.7h-3.9v-1.8h3.9v-1.5h-2.9
			c-0.4,0.6-0.8,1.2-1.2,1.6c-0.5-0.4-1.2-0.8-1.7-1.1c0.9-0.9,1.8-2.5,2.2-3.9l2.4,0.7c-0.1,0.2-0.2,0.2-0.5,0.2
			c-0.1,0.2-0.2,0.4-0.3,0.6h2V8.8L306,9c0,0.2-0.2,0.3-0.5,0.4v0.9h4.8v1.8h-4.8v1.5h4.3v1.8H305.4z M304.5,6.3
			c0.3-0.5,0.5-1.3,0.7-1.9H300c0.4,0.7,0.6,1.4,0.7,1.9l-0.6,0.2h4.7L304.5,6.3z"/>
		<path class="st0" d="M327.5,5.9c-0.1,0.2-0.3,0.3-0.4,0.4c-2.3,6.8-5.4,10.3-10.4,12.8c-0.4-0.6-1.1-1.4-1.8-1.9
			c4.6-2.2,7.5-5.3,9-10h-5.6c-1,1.5-2.4,3.1-4,4.4c-0.5-0.5-1.4-1.2-2-1.6c2.6-1.8,4.9-5.1,6.1-8.5l3.1,0.7
			c-0.1,0.2-0.3,0.3-0.6,0.4c-0.3,0.7-0.8,1.7-1.1,2.3h5.4l0.4-0.2L327.5,5.9z M324.5,1c0.9,0.7,1.9,1.8,2.5,2.5l-1.1,1
			c-0.5-0.7-1.7-2-2.4-2.6L324.5,1z M327.6,0.5c0.9,0.7,1.9,1.8,2.5,2.5L329,3.9c-0.5-0.7-1.6-1.9-2.4-2.5L327.6,0.5z"/>
		<path class="st0" d="M335.7,4.6c0,0.2-0.2,0.4-0.5,0.4c-0.1,5.6-0.6,10.2-3.3,13.8c-0.6-0.4-1.5-0.9-2.2-1.3c2.6-3,3-8.2,3-13.2
			L335.7,4.6z M340.7,14.8c2.6-1.5,4.2-4.1,5.1-7.1c0.5,0.4,1.6,1.1,2.2,1.4c-1.4,4.1-3.7,6.9-7.9,9c-0.1,0.2-0.3,0.4-0.5,0.5
			l-1.8-2.2l0.3-0.4V2l3.1,0.2c0,0.2-0.2,0.4-0.5,0.5V14.8z"/>
		<path class="st0" d="M349.9,8.7h16.4v2.5h-15.6c-0.1,0.2-0.4,0.3-0.7,0.4L349.9,8.7z"/>
		<path class="st0" d="M368.7,3.8H381l0.2-0.1l2.2,1.6c-0.1,0.1-0.2,0.2-0.4,0.3c-1.7,7.3-5.1,10.9-11.1,13.3
			c-0.4-0.6-1.1-1.6-1.6-2.1c5.3-2,8.6-5.4,9.7-10.5h-11.3V3.8z M383.8,0.6c1.2,0,2.1,0.9,2.1,2.1c0,1.2-0.9,2.1-2.1,2.1
			c-1.2,0-2.1-1-2.1-2.1C381.6,1.5,382.6,0.6,383.8,0.6z M385.1,2.7c0-0.8-0.6-1.4-1.4-1.4c-0.7,0-1.4,0.6-1.4,1.4s0.6,1.4,1.4,1.4
			C384.6,4.1,385.1,3.4,385.1,2.7z"/>
	</g>
	<g>
		<path class="st0" d="M469.8,1c-0.1,0.2-0.3,0.4-0.5,0.4c1.9,2.7,5.3,5.3,8.3,6.6c-0.6,0.6-1.1,1.4-1.6,2.1c-3.1-1.7-6.4-4.5-8.1-7
			c-1.6,2.4-4.7,5.1-7.9,7c-0.3-0.5-1-1.4-1.5-1.9c3.4-1.8,6.7-5,8.2-7.5L469.8,1z M469.4,12.9v4h7.1V19h-16.9v-2.1h2.2V9.9l2.8,0.1
			c0,0.2-0.2,0.3-0.5,0.4v6.4h2.8V6.5l3,0.2c0,0.2-0.2,0.3-0.5,0.4v3.7h5.3v2.1H469.4z"/>
		<path class="st0" d="M496.5,15h-5.7c1.7,1,4,1.8,6.3,2.2c-0.5,0.5-1.2,1.5-1.6,2.1c-2.5-0.6-4.8-1.8-6.7-3.3v3.6h-2.3v-3.4
			c-1.8,1.4-4.3,2.6-6.6,3.2c-0.3-0.6-1-1.5-1.5-2c2.2-0.5,4.6-1.3,6.3-2.3h-5.7V13h7.6v-0.9h-5.7v-1.7h5.7V9.6h-6.7V7.7h3.8
			c-0.2-0.5-0.4-1.1-0.7-1.6l0.2,0v0l-4.1,0V4.2h2.7c-0.3-0.7-0.8-1.7-1.2-2.5l2-0.7c0.6,0.8,1.2,2,1.5,2.8l-1,0.4h1.8V0.9l2.7,0.1
			c0,0.2-0.2,0.3-0.5,0.4v2.7h1.5V0.9l2.8,0.1c0,0.2-0.2,0.3-0.5,0.4v2.7h1.7l-0.7-0.3c0.5-0.8,1-2,1.3-2.8l2.7,0.8
			c-0.1,0.2-0.2,0.2-0.5,0.2c-0.3,0.6-0.8,1.4-1.3,2h2.6v1.9h-3.6l0.2,0.1c-0.1,0.2-0.3,0.2-0.5,0.2c-0.2,0.4-0.5,0.9-0.8,1.3h3.9
			v1.8h-6.9v0.9h6v1.7h-6V13h7.7V15z M489.3,7.7c0.2-0.5,0.5-1,0.7-1.6h-4.7c0.3,0.5,0.5,1.1,0.7,1.5l-0.3,0.1v0L489.3,7.7z"/>
		<path class="st0" d="M504.9,10.2c0,1.4-1.1,2.5-2.5,2.5c-1.4,0-2.5-1.1-2.5-2.5c0-1.4,1.1-2.5,2.5-2.5
			C503.8,7.7,504.9,8.9,504.9,10.2z"/>
		<path class="st0" d="M524.3,10l-6.2,0l0.4,0.1c-0.1,0.1-0.2,0.3-0.5,0.3c-0.5,3.2-1.8,6.4-5.9,8.5c-0.4-0.4-1.4-1.3-1.9-1.7
			c3.9-2,4.8-4.2,5.2-7.2h-7V7.7h15.9V10z M522.3,4.6h-12.1V2.3h12.1V4.6z"/>
		<path class="st0" d="M542.4,8.8h-6.8c-0.4,4.6-1.7,7.7-6,10.2c-0.5-0.5-1.4-1.2-2.1-1.7c3.9-2.2,5.1-4.6,5.5-8.5h-7.1V6.4h7.2
			c0-0.7,0-2.9,0-5l3.2,0.2c0,0.3-0.2,0.4-0.6,0.5c0,1.6,0,3-0.1,4.3h6.7V8.8z"/>
		<path class="st0" d="M545,2.9c2,0.6,4.3,1.6,5.8,2.6l-1.3,2.2c-1.4-0.9-3.7-2-5.6-2.7L545,2.9z M544.3,16.2
			c6.6-2,11.2-5.9,13.5-11.3c0.7,0.6,1.6,1.1,2.3,1.5c-2.4,5.4-7.1,9.5-13.6,11.8c0,0.2-0.2,0.4-0.3,0.5L544.3,16.2z"/>
		<path class="st0" d="M572.7,12.6c-1.6-0.9-4.2-2.2-6.1-2.9v9.2h-2.6V1.6l3.2,0.2c0,0.2-0.2,0.4-0.6,0.5v5.5l0.5-0.7
			c2.2,0.8,5.1,2.1,7.1,3.1L572.7,12.6z"/>
		<path class="st0" d="M580.6,7.2v0.9c0.5,0.7,2,2.9,2.3,3.5c-0.4,0.5-0.7,1-1.2,1.7c-0.2-0.6-0.6-1.5-1.1-2.3v8.5h-2.1V12
			c-0.5,1.6-1.1,2.9-1.8,3.9c-0.2-0.6-0.7-1.6-1-2.1c1.1-1.6,2.2-4.3,2.7-6.6h-2.2V5.1h2.4V0.9l2.7,0.2c0,0.2-0.2,0.3-0.5,0.4v3.6h2
			v2.2H580.6z M581.9,16.7c1.2-0.5,2.9-1.4,4.6-2.3l0.5,1.7c-1.4,0.9-2.8,1.8-3.8,2.4c0,0.2-0.1,0.3-0.2,0.4L581.9,16.7z
			 M589.6,11.5c0.2,0.6,0.5,1.2,0.8,1.7c0.7-0.6,1.5-1.5,1.9-2.1l2,1.5c-0.1,0.1-0.3,0.2-0.5,0.1c-0.6,0.5-1.6,1.4-2.4,1.9
			c0.9,1,1.9,1.9,3.2,2.4c-0.5,0.5-1.2,1.3-1.5,1.9c-1.5-0.8-2.6-2-3.5-3.5v1.7c0,1.9-0.7,2.4-3.7,2.4c-0.1-0.6-0.3-1.5-0.6-2.1
			c0.7,0,1.5,0,1.7,0c0.2,0,0.3-0.1,0.3-0.3v-6.3h-4.6V8.9h4.6V8h-3.6V6.1h3.6V5.2h-4V3.3h1.8c-0.2-0.5-0.5-1.2-0.8-1.7l1.9-0.6
			c0.5,0.7,0.9,1.6,1.1,2.2l-0.3,0.1h2.9l-0.2-0.1c0.4-0.6,0.8-1.6,1-2.3l2.5,0.8c-0.1,0.1-0.3,0.2-0.5,0.2
			c-0.2,0.4-0.5,0.9-0.8,1.4h2.1v1.9h-4.3v0.9h3.8V8h-3.8v0.9h4.6v1.9h-4.6V11.5z M584.9,14.7c-0.4-0.7-1.2-1.8-1.9-2.5l1.6-1.1
			c0.7,0.7,1.6,1.7,2,2.4L584.9,14.7z"/>
	</g>
	<g>
		<path class="st0" d="M18.1,16.3h7.8v2.4h-18v-2.4h7.7V9.5H9.2V7.1h6.4V1l3.1,0.2c0,0.2-0.2,0.3-0.5,0.4v5.5h6.5v2.4h-6.5V16.3z"/>
		<path class="st0" d="M31.6,12.7l1.8-0.7l0.5,2.1c-2,0.9-4,1.8-5.4,2.4c0,0.2-0.1,0.4-0.3,0.4L27,14.3c0.6-0.2,1.5-0.5,2.4-0.8V7.9
			h-1.9V5.7h1.9V1.1l2.7,0.2c0,0.2-0.2,0.3-0.5,0.4v4h1.8v2.2h-1.8V12.7z M37.1,15.7c0,1.2,0.2,1.3,1.4,1.3h3.8
			c1.1,0,1.3-0.5,1.4-2.5c0.5,0.4,1.4,0.7,2.1,0.8c-0.3,2.8-1,3.7-3.3,3.7h-4.2c-2.7,0-3.5-0.7-3.5-3.4v-5.3l-1.5,0.7L32.5,9l2.4-1
			V2.9l2.7,0.2c0,0.2-0.2,0.3-0.5,0.4V7l1.6-0.7V1l2.7,0.1c0,0.2-0.2,0.3-0.5,0.4v3.9l2-0.8l0.5-0.3l1.9,0.7c0,0.1-0.2,0.2-0.3,0.3
			c0,3.8-0.1,6.2-0.1,7c-0.1,1.5-1,1.9-3.1,1.9c-0.1-0.6-0.2-1.5-0.5-2c0.3,0,0.8,0,1,0c0.2,0,0.4-0.1,0.4-0.4
			c0-0.3,0.1-1.8,0.1-4.7L41,7.8v7.1h-2.2V8.8l-1.6,0.7V15.7z"/>
		<path class="st0" d="M63.4,7.8H58l0.1,8.2c0,2.8-1.7,2.8-5.5,2.8c-0.1-0.6-0.4-1.6-0.6-2.3c0.5,0,1.1,0,1.6,0c1.9,0,2.2,0,2.1-0.6
			l-0.1-6.3c-1.9,2.6-4.7,4.9-7.4,6.6c-0.4-0.6-1.1-1.4-1.7-1.9c2.9-1.5,5.8-4,7.7-6.6h-6.8V5.5h8.2l0-3.9l3,0.1
			c0,0.2-0.2,0.4-0.5,0.4l0,3.4h5.4V7.8z"/>
		<path class="st0" d="M65.4,8.7h16.4v2.5H66.3c-0.1,0.2-0.4,0.3-0.7,0.4L65.4,8.7z"/>
		<path class="st0" d="M100.5,8.8h-6.8c-0.4,4.6-1.7,7.7-6,10.2c-0.5-0.5-1.4-1.2-2.1-1.7c3.9-2.2,5.1-4.6,5.5-8.5H84V6.4h7.2
			c0-0.7,0-2.9,0-5l3.2,0.2c0,0.3-0.2,0.4-0.6,0.5c0,1.6,0,3-0.1,4.3h6.7V8.8z"/>
		<path class="st0" d="M102.3,8.7h16.4v2.5h-15.6c-0.1,0.2-0.4,0.3-0.7,0.4L102.3,8.7z"/>
		<path class="st0" d="M125.7,7.2v0.9c0.5,0.7,2,2.9,2.3,3.5c-0.4,0.5-0.7,1-1.2,1.7c-0.2-0.6-0.6-1.5-1.1-2.3v8.5h-2.1V12
			c-0.5,1.6-1.1,2.9-1.8,3.9c-0.2-0.6-0.7-1.6-1-2.1c1.1-1.6,2.2-4.3,2.7-6.6h-2.2V5.1h2.4V0.9l2.7,0.2c0,0.2-0.2,0.3-0.5,0.4v3.6h2
			v2.2H125.7z M127,16.7c1.2-0.5,2.9-1.4,4.6-2.3l0.5,1.7c-1.4,0.9-2.8,1.8-3.8,2.4c0,0.2-0.1,0.3-0.2,0.4L127,16.7z M134.6,11.5
			c0.2,0.6,0.5,1.2,0.8,1.7c0.7-0.6,1.5-1.5,1.9-2.1l2,1.5c-0.1,0.1-0.3,0.2-0.5,0.1c-0.6,0.5-1.6,1.4-2.4,1.9
			c0.9,1,1.9,1.9,3.2,2.4c-0.5,0.5-1.2,1.3-1.5,1.9c-1.5-0.8-2.6-2-3.5-3.5v1.7c0,1.9-0.7,2.4-3.7,2.4c-0.1-0.6-0.3-1.5-0.6-2.1
			c0.7,0,1.5,0,1.7,0c0.2,0,0.3-0.1,0.3-0.3v-6.3h-4.6V8.9h4.6V8h-3.6V6.1h3.6V5.2h-4V3.3h1.8c-0.2-0.5-0.5-1.2-0.8-1.7l1.9-0.6
			c0.5,0.7,0.9,1.6,1.1,2.2L132,3.3h2.9l-0.2-0.1c0.4-0.6,0.8-1.6,1-2.3l2.5,0.8c-0.1,0.1-0.3,0.2-0.5,0.2c-0.2,0.4-0.5,0.9-0.8,1.4
			h2.1v1.9h-4.3v0.9h3.8V8h-3.8v0.9h4.6v1.9h-4.6V11.5z M130,14.7c-0.4-0.7-1.2-1.8-1.9-2.5l1.6-1.1c0.7,0.7,1.6,1.7,2,2.4L130,14.7
			z"/>
	</g>
	<g>
		<path class="st1" d="M270.2,262.8v5.6c1,1.8,2.9,1.8,6.1,1.8c2,0,4.5-0.1,6.2-0.2c-0.2,0.5-0.5,1.4-0.7,2
			c-1.3,0.1-3.2,0.1-4.9,0.1c-4,0-5.9,0-7.5-2c-0.7,0.7-1.4,1.3-2,1.8c0,0.2-0.1,0.3-0.2,0.4l-1-2.2c0.7-0.4,1.4-1,2.1-1.6v-3.8
			h-1.9v-1.9H270.2z M267.9,256.6c1,0.8,2.2,1.9,2.7,2.7l-1.7,1.3c-0.5-0.8-1.6-2-2.6-2.9L267.9,256.6z M275.3,269.8v-1.2h-4.5v-1.5
			h4.5v-0.7h-3.4v-5.1h3.4v-0.6h-3.9v-1.4h3.9v-1l2.5,0.1c0,0.2-0.1,0.3-0.4,0.3v0.6h4v1.4h-4v0.6h3.5v5.1h-3.5v0.7h4.7v1.5h-4.7
			v1.2H275.3z M272.8,258v0.9H271v-2.4h10.8v2.4h-1.9V258H272.8z M273.6,262.6v0.7h1.6v-0.7H273.6z M273.6,265.1h1.6v-0.7h-1.6
			V265.1z M278.9,262.6h-1.6v0.7h1.6V262.6z M278.9,265.1v-0.7h-1.6v0.7H278.9z"/>
		<path class="st1" d="M298.2,257.1c-0.1,0.1-0.2,0.2-0.5,0.2c-0.3,0.5-0.8,1-1.2,1.6h2.4v3.7h-2v-1.9H286v1.9h-1.9v-3.7h2.1
			c-0.3-0.5-0.8-1.2-1.3-1.7l1.8-0.8c0.6,0.6,1.3,1.5,1.6,2.1l-0.9,0.4h3.2c-0.2-0.6-0.7-1.5-1.2-2.2l1.8-0.6
			c0.5,0.7,1.1,1.7,1.3,2.3l-1.3,0.5h2.9c0.6-0.7,1.3-1.8,1.6-2.6L298.2,257.1z M296,265.7h-3.7c-0.1,0.3-0.3,0.7-0.4,1.1h5.8v5.6
			h-2.1v-0.5h-8.2v0.5h-2v-5.6h4.4l0.3-1.1h-3.2v-4.3h9.1V265.7z M295.6,270v-1.5h-8.2v1.5H295.6z M288.9,262.9v1.2h5.1v-1.2H288.9z
			"/>
		<path class="st1" d="M316.6,257.3v1.6h-2.9c0.3,0.4,0.6,0.8,0.7,1.2l-1.9,0.5c-0.2-0.4-0.6-1.1-1-1.7h-1.1
			c-0.3,0.3-0.5,0.6-0.8,0.9l0.4,0c0,0.2-0.1,0.3-0.4,0.3v0.8h6.6v3.4h-2v-1.9h-11.1v1.9h-1.9v-3.4h6.4v-1.2l0.9,0.1
			c-0.3-0.2-0.7-0.3-0.9-0.5c0.2-0.1,0.3-0.2,0.5-0.4h-2.1c0.3,0.4,0.5,0.9,0.6,1.2l-1.9,0.5c-0.1-0.5-0.5-1.2-0.8-1.7h-0.3
			c-0.4,0.6-0.9,1.2-1.4,1.6c-0.4-0.3-1.1-0.8-1.5-1c1-0.8,2-2.2,2.5-3.6l2.2,0.7c-0.1,0.1-0.2,0.2-0.4,0.2
			c-0.1,0.2-0.2,0.3-0.2,0.5h3.9v1.2c0.7-0.7,1.3-1.7,1.6-2.6l2.2,0.7c-0.1,0.2-0.2,0.2-0.4,0.2c-0.1,0.2-0.2,0.3-0.3,0.5H316.6z
			 M305.8,267.1v0.8h8.9v4.5h-2.1v-0.5h-6.9v0.5h-2v-9.1h9.6v3.9H305.8z M311.4,264.7h-5.6v0.9h5.6V264.7z M312.7,269.4h-6.9v1h6.9
			V269.4z"/>
		<path class="st1" d="M321.8,267.3l2-0.5c0,0,0,0.1,0.2,1.8c-2,0.6-4.2,1.2-5.6,1.6c0,0.2-0.2,0.3-0.3,0.3l-0.6-2.1
			c0.7-0.1,1.4-0.3,2.3-0.5V264H318v-1.9h1.9V259h-2v-1.9h5.9v1.9h-1.9v3.1h1.8v1.9h-1.8V267.3z M329.6,270h4.4v1.9h-11V270h4.7
			v-1.9h-3.6v-1.8h3.6v-1.5h-3.5V257h9.2v7.8h-3.7v1.5h3.8v1.8h-3.8V270z M326,258.7v1.4h1.7v-1.4H326z M326,263.1h1.7v-1.4H326
			V263.1z M331.4,260.1v-1.4h-1.8v1.4H331.4z M331.4,263.1v-1.4h-1.8v1.4H331.4z"/>
	</g>
	<g>
		<path class="st0" d="M522.8,265l2.6,0.2c0,0.2-0.1,0.3-0.5,0.3v6.9h-2.1v-1h-9.6v1h-2.1V265l2.6,0.1c0,0.2-0.2,0.3-0.5,0.3v3.8
			h3.6V264h-5v-6.3l2.5,0.2c0,0.2-0.2,0.3-0.5,0.3v3.8h3v-5.7l2.6,0.1c0,0.2-0.2,0.3-0.5,0.3v5.3h3.1v-4.3l2.6,0.1
			c0,0.2-0.1,0.3-0.5,0.3v5.8h-5.3v5.2h3.9V265z"/>
		<path class="st0" d="M536.7,258.1h6.3v2h-12.6v2.4c0,2.8-0.3,7.1-1.8,9.8c-0.4-0.3-1.3-0.9-1.8-1.2c1.4-2.5,1.5-6.1,1.5-8.6v-4.4
			h6.2v-2l2.6,0.1c0,0.2-0.1,0.3-0.5,0.3V258.1z M537.9,260.5c0,0.2-0.2,0.3-0.5,0.3v1.2h5.4v1.8h-5.4v1.9h4.4v6.6h-2.1v-0.6h-6.2
			v0.6h-2v-6.6h3.8v-5.3L537.9,260.5z M539.7,269.9v-2.4h-6.2v2.4H539.7z"/>
	</g>
	<g>
		<path class="st0" d="M42.2,262.5V260c-0.5,0.3-1,0.7-1.5,0.9c-0.3-0.4-0.9-1.1-1.4-1.4c1.6-0.8,3.4-2.1,4.4-3.5l2,0.9l-0.1-0.1
			c2.7-0.1,5.8-0.3,7.7-0.7l1.1,1.3c-0.1,0-0.1,0.1-0.2,0.1c-0.1,0-0.1,0-0.2,0c-0.9,0.1-2,0.3-3.2,0.4v0.8h4.4v1.4H51v0.8h3.8v1.4
			h-9.3V261H49v-0.8h-4.1v-1.4H49V258c-1,0.1-1.9,0.1-2.8,0.1c0-0.3-0.2-0.7-0.3-1.1c-0.1,0.1-0.2,0.1-0.4,0.1
			c-0.4,0.5-0.9,1-1.5,1.5l0.7,0.2c0,0.2-0.2,0.3-0.4,0.3v3.4H42.2z M50.9,269.7L50.9,269.7c1.7,0.6,3.5,1.2,4.7,1.7l-2.5,0.9
			c-1-0.5-2.7-1.3-4.4-1.8l1.5-0.8h-4.9l1.6,0.8c-0.1,0.1-0.2,0.1-0.3,0.1c-0.1,0-0.1,0-0.2,0c-1.4,0.6-3.5,1.3-5.2,1.7
			c-0.3-0.4-1-1.1-1.4-1.4c1.5-0.3,3.3-0.8,4.5-1.3h-2.4V263h11.6v6.7H50.9z M44.1,264.2v0.7h7.5v-0.7H44.1z M44.1,266v0.7h7.5V266
			H44.1z M44.1,267.8v0.7h7.5v-0.7H44.1z"/>
		<path class="st0" d="M59.7,262v-2.1c-0.6,0.4-1.2,0.8-1.8,1.1c-0.3-0.4-0.9-1.1-1.3-1.4c1.8-0.8,3.6-2.1,4.7-3.5l2.1,0.9
			c-0.1,0.1-0.3,0.2-0.5,0.1c-0.4,0.5-0.9,1-1.5,1.4l0.7,0.2c0,0.1-0.2,0.3-0.4,0.3v3.1H59.7z M70.8,269.4h-2.9
			c1.8,0.6,3.7,1.4,4.9,2l-2.4,0.9c-1-0.6-2.7-1.4-4.5-2l1.5-0.9h-5.1l1.8,0.9c-0.1,0.1-0.2,0.1-0.3,0.1c-0.1,0-0.1,0-0.2,0
			c-1.4,0.7-3.5,1.5-5.2,1.9c-0.3-0.4-1-1.1-1.4-1.4c1.6-0.3,3.5-0.9,4.7-1.5h-2.5v-7.1h10.1c-1.4-0.3-2.7-1.3-3.7-2.6l-3.1,0.2
			l-0.2-1.5l2.5-0.1c-0.3-0.7-0.4-1.4-0.5-2.1l2.5,0.1c0,0.2-0.2,0.3-0.5,0.3c0.1,0.6,0.2,1.1,0.5,1.6l3-0.2
			c-0.7-0.3-1.6-0.7-2.4-0.9l1-1c1,0.2,2.3,0.6,3,1l-0.8,0.8l1.8-0.1l0.2,1.5l-4.5,0.3c0.8,0.7,1.7,1.1,2.6,1.1c0.5,0,0.7-0.1,0.7-1
			c0.4,0.3,1,0.6,1.5,0.7c-0.3,1.7-0.8,2.1-2,2.2V269.4z M61.2,263.6v0.7h7.5v-0.7H61.2z M61.2,265.5v0.7h7.5v-0.7H61.2z
			 M61.2,267.4v0.8h7.5v-0.8H61.2z"/>
		<path class="st0" d="M78.3,256.1l2.5,0.1c0,0.2-0.2,0.3-0.4,0.3v15.8h-2v-4.4c-1.3,0.4-2.5,0.8-3.4,1c0,0.2-0.1,0.3-0.3,0.3
			l-0.8-2.3c0.4-0.1,0.8-0.2,1.2-0.3v-8.5l2.4,0.1c0,0.2-0.1,0.3-0.4,0.3v7.7l1.3-0.3V256.1z M88.5,257.2l1.3,0.4
			c-0.1,0.1-0.1,0.3-0.2,0.4c-0.4,3.9-1.4,7.1-2.9,9.6c1,1.2,2.2,2.3,3.7,2.9c-0.5,0.4-1.2,1.2-1.5,1.8c-1.4-0.7-2.5-1.7-3.5-2.9
			c-1,1.2-2.2,2.2-3.6,2.9c-0.3-0.6-0.9-1.4-1.4-1.8c1.4-0.7,2.7-1.7,3.7-3.1c-1.2-2.1-2-4.7-2.6-7.7l1.9-0.3c0.4,2.2,1,4.3,1.9,6
			c0.9-1.7,1.6-3.8,1.9-6.1h-6.4v-2h7.3L88.5,257.2z"/>
		<path class="st0" d="M94.6,257.1h6c0,3.3,0.5,9.6,6.9,13.4c-0.5,0.4-1.3,1.3-1.7,1.8c-3.6-2.2-5.5-5.5-6.4-8.6
			c-1.3,3.9-3.4,6.9-6.5,8.7c-0.4-0.4-1.2-1.2-1.7-1.6c3.5-1.8,5.6-5.3,6.5-9.8l1.1,0.2c-0.1-0.7-0.2-1.3-0.2-1.9h-4V257.1z"/>
	</g>
	<g>
		<path class="st0" d="M20.4,40.3c3.2,0,5.8,2.6,5.8,5.8s-2.6,5.8-5.8,5.8c-3.2,0-5.8-2.6-5.8-5.8C14.6,42.8,17.2,40.3,20.4,40.3z"
			/>
		<path class="st2" d="M46.2,46.4h-6.3c1.6,2.3,4.3,4.5,6.8,5.6c-0.3,0.2-0.7,0.7-0.9,1c-2.4-1.2-4.9-3.4-6.7-5.8V54h-1.2v-6.7
			c-1.7,2.4-4.2,4.5-6.6,5.7c-0.2-0.3-0.6-0.8-0.8-1c2.4-1.1,5.1-3.3,6.7-5.6h-6.3v-1.2h7v-3.2h-5.7V41h5.7v-2.9l1.6,0.1
			c0,0.1-0.1,0.2-0.4,0.2V41H45v1.1H39v3.2h7.1V46.4z"/>
		<path class="st2" d="M48.3,42.9c1.1,0.4,2.5,1.2,3.2,1.8l-0.7,1c-0.7-0.6-2.1-1.4-3.2-1.9L48.3,42.9z M48.1,53
			c0.9-1.4,2.2-3.7,3.1-5.7l0.9,0.7c-0.9,1.8-2,4-2.8,5.4c0.1,0.1,0.1,0.2,0.1,0.2c0,0.1,0,0.1-0.1,0.2L48.1,53z M49.2,38.2
			c1.1,0.5,2.5,1.3,3.1,1.9l-0.7,0.9c-0.7-0.6-2-1.5-3.1-2L49.2,38.2z M63.6,44.3h-5.1v3h3.9v6.6h-1.2v-0.7h-6.5V54h-1.1v-6.7h3.7
			v-3h-5.1v-1.1h5.1v-3c-1.4,0.2-2.8,0.4-4.2,0.6c0-0.3-0.2-0.7-0.3-1c3.2-0.4,6.8-1,8.8-1.7l1.1,0.9c-0.1,0.1-0.1,0.1-0.3,0.1
			c-1,0.3-2.4,0.7-3.9,0.9v3.2h5.1V44.3z M61.2,52.2v-3.8h-6.5v3.8H61.2z"/>
		<path class="st2" d="M79.5,39.3v13.1c0,1.6-0.8,1.6-4,1.6c-0.1-0.3-0.2-0.8-0.4-1.1c0.6,0,1.3,0,1.8,0c1.4,0,1.5,0,1.5-0.5v-3.7
			h-4.9v5.2h-1.1v-5.2h-4.5c-0.3,2-0.8,4-2.2,5.5c-0.2-0.2-0.6-0.6-0.9-0.8c1.9-2.2,2.1-5.3,2.1-7.7v-6.3H79.5z M68,45.6
			c0,0.6,0,1.2-0.1,1.9h4.4v-3H68V45.6z M72.3,40.4H68v3h4.3V40.4z M78.4,43.5v-3h-4.9v3H78.4z M73.4,47.5h4.9v-3h-4.9V47.5z"/>
		<path class="st2" d="M91,41.2c-0.1,0.2-0.2,0.3-0.4,0.3c-0.6,5.3-2.4,10-5.3,10c-1.4,0-2.7-1.4-2.7-4.2c0-4.1,3.2-7.6,7.7-7.6
			c5,0,7.1,3.1,7.1,6.5c0,4.1-2.4,6.1-6.5,7c-0.2-0.3-0.4-0.7-0.7-1c4-0.8,6-2.7,6-5.9c0-2.8-1.8-5.4-5.8-5.4c-0.2,0-0.4,0-0.5,0
			L91,41.2z M89.3,41c-3.5,0.4-5.6,3.3-5.6,6.3c0,1.8,0.8,3,1.6,3C87.4,50.3,88.9,45.7,89.3,41z"/>
		<path class="st2" d="M107.7,52.1h7.2v1.2H99.4v-1.2h7.1v-7.3h-6v-1.2h6v-5.6l1.6,0.1c0,0.1-0.1,0.2-0.4,0.2v5.2h6.1v1.2h-6.1V52.1
			z"/>
		<path class="st2" d="M119.8,48.7l2-0.8l0.2,1c-1.8,0.8-3.7,1.6-4.9,2.1c0,0.1-0.1,0.2-0.2,0.3l-0.6-1.3c0.7-0.2,1.5-0.5,2.4-0.9
			v-5.7h-2.1v-1.1h2.1v-4.1l1.4,0.1c0,0.1-0.1,0.2-0.3,0.2v3.8h1.9v1.1h-1.9V48.7z M124.3,51.4c0,0.9,0.2,1.2,1.4,1.2h4.4
			c1,0,1.2-0.5,1.3-2.5c0.3,0.2,0.7,0.4,1,0.5c-0.2,2.4-0.6,3.1-2.4,3.1h-4.4c-1.9,0-2.5-0.4-2.5-2.2v-5.8l-1.7,0.7l-0.4-1l2.2-0.9
			v-4.7l1.4,0.1c0,0.1-0.1,0.2-0.3,0.2v3.9l2.5-1.1v-4.8l1.4,0.1c0,0.1-0.1,0.2-0.3,0.2v4l2.7-1.2l0.2-0.2l0.9,0.3
			c0,0.1-0.1,0.1-0.2,0.2c0,3.3-0.1,6-0.2,6.6c-0.2,1-0.7,1.2-2.6,1.2c-0.1-0.3-0.1-0.8-0.3-1c0.4,0,1,0,1.2,0
			c0.3,0,0.5-0.1,0.6-0.5c0.1-0.4,0.1-2.6,0.1-5.4l-2.6,1.1v6.6h-1.1v-6.1l-2.5,1.1V51.4z"/>
		<path class="st0" d="M20.4,62.3c3.2,0,5.8,2.6,5.8,5.8c0,3.2-2.6,5.8-5.8,5.8c-3.2,0-5.8-2.6-5.8-5.8
			C14.6,64.9,17.2,62.3,20.4,62.3z"/>
		<path class="st2" d="M46.2,68.5h-6.3c1.6,2.3,4.3,4.5,6.8,5.6c-0.3,0.2-0.7,0.7-0.9,1c-2.4-1.2-4.9-3.4-6.7-5.8v6.9h-1.2v-6.7
			c-1.7,2.4-4.2,4.5-6.6,5.7c-0.2-0.3-0.6-0.8-0.8-1c2.4-1.1,5.1-3.3,6.7-5.6h-6.3v-1.2h7v-3.2h-5.7v-1.1h5.7v-2.9l1.6,0.1
			c0,0.1-0.1,0.2-0.4,0.2v2.6H45v1.1H39v3.2h7.1V68.5z"/>
		<path class="st2" d="M48.3,65c1.1,0.4,2.5,1.2,3.2,1.8l-0.7,1c-0.7-0.6-2.1-1.4-3.2-1.9L48.3,65z M48.1,75.1
			c0.9-1.4,2.2-3.7,3.1-5.7l0.9,0.7c-0.9,1.8-2,4-2.8,5.4c0.1,0.1,0.1,0.2,0.1,0.2c0,0.1,0,0.1-0.1,0.2L48.1,75.1z M49.2,60.3
			c1.1,0.5,2.5,1.3,3.1,1.9l-0.7,0.9c-0.7-0.6-2-1.5-3.1-2L49.2,60.3z M63.6,66.4h-5.1v3h3.9V76h-1.2v-0.7h-6.5v0.8h-1.1v-6.7h3.7
			v-3h-5.1v-1.1h5.1v-3c-1.4,0.2-2.8,0.4-4.2,0.6c0-0.3-0.2-0.7-0.3-1c3.2-0.4,6.8-1,8.8-1.7l1.1,0.9c-0.1,0.1-0.1,0.1-0.3,0.1
			c-1,0.3-2.4,0.7-3.9,0.9v3.2h5.1V66.4z M61.2,74.3v-3.8h-6.5v3.8H61.2z"/>
		<path class="st2" d="M79.5,61.4v13.1c0,1.6-0.8,1.6-4,1.6c-0.1-0.3-0.2-0.8-0.4-1.1c0.6,0,1.3,0,1.8,0c1.4,0,1.5,0,1.5-0.5v-3.7
			h-4.9V76h-1.1v-5.2h-4.5c-0.3,2-0.8,4-2.2,5.5c-0.2-0.2-0.6-0.6-0.9-0.8c1.9-2.2,2.1-5.3,2.1-7.7v-6.3H79.5z M68,67.7
			c0,0.6,0,1.2-0.1,1.9h4.4v-3H68V67.7z M72.3,62.5H68v3h4.3V62.5z M78.4,65.5v-3h-4.9v3H78.4z M73.4,69.6h4.9v-3h-4.9V69.6z"/>
		<path class="st2" d="M91,63.3c-0.1,0.2-0.2,0.3-0.4,0.3c-0.6,5.3-2.4,10-5.3,10c-1.4,0-2.7-1.4-2.7-4.2c0-4.1,3.2-7.6,7.7-7.6
			c5,0,7.1,3.1,7.1,6.5c0,4.1-2.4,6.1-6.5,7c-0.2-0.3-0.4-0.7-0.7-1c4-0.8,6-2.7,6-5.9c0-2.8-1.8-5.4-5.8-5.4c-0.2,0-0.4,0-0.5,0
			L91,63.3z M89.3,63.1c-3.5,0.4-5.6,3.3-5.6,6.3c0,1.8,0.8,3,1.6,3C87.4,72.4,88.9,67.8,89.3,63.1z"/>
		<path class="st2" d="M105.9,69.7l-2.4,0.5v5.9h-1.1v-5.6c-0.9,0.2-1.8,0.4-2.5,0.5c0,0.1-0.1,0.2-0.2,0.3L99.2,70
			c0.9-0.1,2-0.3,3.2-0.6v-4.4h-1.7c-0.2,1-0.4,2-0.6,2.7c-0.2-0.2-0.6-0.4-0.9-0.5c0.5-1.4,0.7-3.8,0.9-6l1.3,0.3
			c0,0.1-0.2,0.2-0.4,0.2c-0.1,0.7-0.1,1.5-0.2,2.2h1.5v-3.6l1.5,0.1c0,0.1-0.1,0.2-0.3,0.2v3.3h2.2v1.1h-2.2v4.2l2.3-0.5
			L105.9,69.7z M114.1,63.5l0.6,0.1c0,0.1,0,0.3,0,0.4c-0.3,8-0.6,10.7-1.3,11.5c-0.3,0.5-0.7,0.7-1.8,0.7c-0.4,0-0.8,0-1.2,0
			c0-0.3-0.1-0.8-0.3-1.2c0.8,0.1,1.5,0.1,1.8,0.1c0.3,0,0.4-0.1,0.6-0.3c0.5-0.6,0.8-3.1,1.1-10.1h-1.3c-0.5,4.2-1.7,9.1-3.5,11.5
			c-0.2-0.2-0.7-0.4-1-0.6c1.9-2.3,3-6.9,3.6-10.9h-1.5c-0.7,3.5-2,7.7-3.7,9.8c-0.3-0.2-0.7-0.4-1-0.6c1.7-2,3.1-5.8,3.7-9.3h-1.4
			c-0.4,1.5-1,2.8-1.7,3.8c-0.2-0.2-0.6-0.5-0.9-0.7c1.2-1.7,2-4.7,2.5-7.7l1.4,0.3c0,0.1-0.2,0.2-0.4,0.2c-0.2,1-0.4,2-0.6,3h6.2
			L114.1,63.5z"/>
		<path class="st2" d="M118.7,66.2c-0.7,1.1-1.4,2-2.1,2.9c-0.1-0.3-0.4-0.8-0.6-1.1c1.6-1.8,3.3-4.8,4.3-7.7l1.4,0.5
			c-0.1,0.1-0.2,0.2-0.4,0.2c-0.4,1.2-1,2.4-1.6,3.6l0.5,0.1c0,0.1-0.1,0.2-0.3,0.2v11.4h-1.1V66.2z M132.5,69v1.1h-5.2v6h-1.2v-6
			h-5.4V69h5.4v-4.2h-3.1c-0.5,1.1-1,2-1.5,2.8c-0.2-0.2-0.7-0.4-0.9-0.5c1.1-1.4,2-3.8,2.6-6.2l1.4,0.4c-0.1,0.1-0.2,0.2-0.4,0.2
			c-0.2,0.8-0.5,1.5-0.7,2.3h2.7v-3.4l1.5,0.1c0,0.1-0.1,0.2-0.4,0.2v3.1h4.5v1.1h-4.5V69H132.5z"/>
		<path class="st0" d="M20.4,84.4c3.2,0,5.8,2.6,5.8,5.8c0,3.2-2.6,5.8-5.8,5.8c-3.2,0-5.8-2.6-5.8-5.8C14.6,87,17.2,84.4,20.4,84.4
			z"/>
		<path class="st2" d="M33.2,88.4v-3.2c-0.7,0.5-1.5,1-2.2,1.4c-0.2-0.2-0.5-0.6-0.8-0.8c1.7-0.8,3.5-2.2,4.7-3.6l1.3,0.5
			c-0.1,0.1-0.2,0.2-0.4,0.1c-0.5,0.5-1,1.1-1.7,1.6l0.5,0.2c0,0.1-0.1,0.2-0.3,0.2v3.5H33.2z M37.1,96.5c-0.1,0.1-0.2,0.1-0.4,0.1
			c-1.4,0.6-3.5,1.3-5.2,1.6c-0.2-0.2-0.5-0.6-0.8-0.8c1.7-0.3,3.9-0.9,5.1-1.6L37.1,96.5z M33,95.6v-6.5h11.3v6.5H33z M34.1,89.9
			V91h9v-1.2H34.1z M34.1,91.8v1.1h9v-1.1H34.1z M34.1,93.7v1.2h9v-1.2H34.1z M40.1,85v-1.2c-1.2,0.1-2.4,0.1-3.6,0.2
			c-0.1-0.2-0.2-0.6-0.3-0.8c2.8-0.1,6.2-0.4,8-0.8l0.8,0.8c-0.1,0-0.1,0.1-0.2,0.1c0,0-0.1,0-0.1,0c-0.9,0.2-2.1,0.3-3.4,0.4
			l-0.2,0.1V85h5v0.9h-5v1.4h4.2v0.9h-9.2v-0.9h3.9v-1.4h-4.7V85H40.1z M44.9,98.2c-1.1-0.5-3-1.2-5-1.7l1-0.6
			c1.9,0.5,4,1.2,5.3,1.7L44.9,98.2z"/>
		<path class="st2" d="M50.8,88v-2.9c-0.8,0.6-1.7,1.1-2.5,1.5c-0.2-0.2-0.5-0.6-0.8-0.8c1.8-0.8,3.8-2.2,5-3.7l1.3,0.5
			c-0.1,0.1-0.2,0.2-0.4,0.1c-0.5,0.5-1.1,1.1-1.8,1.6l0.6,0.2c0,0.1-0.1,0.2-0.3,0.2V88H50.8z M54.3,96.3c-0.1,0.1-0.2,0.1-0.4,0.1
			c-1.4,0.7-3.5,1.4-5.2,1.8c-0.2-0.2-0.6-0.6-0.8-0.8c1.7-0.4,3.8-1,5.1-1.7L54.3,96.3z M50.1,95.4v-7h11.3v7H50.1z M51.2,89.2v1.3
			h9v-1.3H51.2z M51.2,91.3v1.3h9v-1.3H51.2z M51.2,93.3v1.3h9v-1.3H51.2z M52.8,84.7l3.2-0.2c-0.4-0.7-0.7-1.5-0.8-2.3l1.5,0.1
			c0,0.1-0.1,0.2-0.4,0.2c0.1,0.7,0.4,1.3,0.8,1.9l5.8-0.3l0.1,0.9L58,85.3c1.1,1.2,2.6,2,3.8,2c0.5,0,0.7-0.3,0.7-1.3
			c0.2,0.2,0.6,0.4,0.9,0.4c-0.2,1.5-0.6,1.9-1.5,1.9c-2.2,0-4.2-1.6-5.2-2.9l-3.7,0.2L52.8,84.7z M62.1,98.2
			c-1.1-0.6-3-1.3-4.9-1.9l0.9-0.6c1.9,0.6,4,1.3,5.3,1.9L62.1,98.2z M58.8,82.2c1,0.2,2.4,0.7,3.1,1L61.2,84c-0.7-0.4-2-0.9-3-1.1
			L58.8,82.2z"/>
		<path class="st2" d="M80.6,93h-6.1c1.5,1.7,4,3.2,6.4,3.9c-0.3,0.2-0.6,0.7-0.8,1c-2.4-0.9-5.1-2.6-6.7-4.6v5h-1.2v-5
			c-1.6,2-4.3,3.7-6.7,4.7c-0.2-0.3-0.5-0.7-0.8-1c2.3-0.7,4.8-2.3,6.3-4h-6v-1h7.1V90l1.5,0.1c0,0.1-0.1,0.2-0.3,0.2v1.6h7.2V93z
			 M76.8,83.8l0.9,0.5c0,0.1-0.1,0.1-0.2,0.2c-0.8,1.5-2,2.7-3.5,3.7c1.9,0.9,4.2,1.6,6.8,1.9c-0.2,0.3-0.5,0.7-0.7,1
			c-2.6-0.4-5.1-1.2-7.1-2.3c-2.2,1.3-4.7,2.1-7.2,2.6c-0.1-0.3-0.3-0.8-0.5-1c2.3-0.4,4.7-1.1,6.7-2.2c-1-0.7-1.9-1.5-2.6-2.4
			c-0.8,0.8-1.8,1.5-3,2.1c-0.2-0.3-0.5-0.7-0.8-0.8c2.6-1.3,4.4-3.2,5.3-4.8l1.5,0.3c0,0.1-0.2,0.2-0.4,0.2
			c-0.2,0.4-0.5,0.8-0.9,1.2h5.6L76.8,83.8z M70.1,84.9L70,85c0.7,1,1.7,1.8,2.9,2.5c1.2-0.7,2.2-1.6,2.9-2.6H70.1z"/>
		<path class="st2" d="M84.3,88.3c-0.7,1.1-1.4,2-2.1,2.9c-0.1-0.3-0.4-0.8-0.6-1.1c1.6-1.8,3.3-4.8,4.3-7.7l1.4,0.5
			c-0.1,0.1-0.2,0.2-0.4,0.2c-0.4,1.2-1,2.4-1.6,3.6l0.5,0.1c0,0.1-0.1,0.2-0.3,0.2v11.4h-1.1V88.3z M98.1,91.1v1.1H93v6h-1.2v-6
			h-5.4v-1.1h5.4V87h-3.1c-0.5,1.1-1,2-1.5,2.8c-0.2-0.2-0.7-0.4-0.9-0.5c1.1-1.4,2-3.8,2.6-6.2l1.4,0.4c-0.1,0.1-0.2,0.2-0.4,0.2
			c-0.2,0.8-0.5,1.5-0.7,2.3h2.7v-3.4l1.5,0.1c0,0.1-0.1,0.2-0.4,0.2v3.1h4.5V87H93v4.2H98.1z"/>
	</g>
	<g>
		<path class="st0" d="M490.7,40.3c3.2,0,5.8,2.6,5.8,5.8s-2.6,5.8-5.8,5.8c-3.2,0-5.8-2.6-5.8-5.8
			C484.9,42.8,487.5,40.3,490.7,40.3z"/>
		<path class="st2" d="M514.3,46.8l1.5,0.1c0,0.1-0.1,0.2-0.3,0.2V54h-1.2v-1.1h-11.2v1.1H502v-7.2l1.5,0.1c0,0.1-0.1,0.2-0.4,0.2
			v4.6h4.9v-6.1h-5.4v-5.9l1.5,0.1c0,0.1-0.1,0.2-0.4,0.2v4.5h4.2v-6.4l1.5,0.1c0,0.1-0.1,0.2-0.3,0.2v6.1h4.4v-4.8l1.5,0.1
			c0,0.1-0.1,0.2-0.3,0.2v5.6h-5.6v6.1h5.1V46.8z"/>
		<path class="st2" d="M527,40.4h6.8v1.1h-13.3v3.4c0,2.6-0.2,6.5-1.7,9.1c-0.2-0.2-0.7-0.5-1-0.7c1.4-2.5,1.5-6,1.5-8.5v-4.5h6.5
			v-2.3l1.5,0.1c0,0.1-0.1,0.2-0.3,0.2V40.4z M527.9,42c0,0.1-0.1,0.2-0.3,0.2V44h6v1h-6v2.6h4.8V54h-1.2v-0.7h-7.8v0.7h-1.1v-6.4
			h4.2v-5.8L527.9,42z M531.1,52.3v-3.6h-7.8v3.6H531.1z"/>
		<path class="st2" d="M541.9,41v1h-6.9v-1H541.9z M541.2,48V53h-4.3v0.8h-1V48H541.2z M535.9,44.3v-0.9h5.4v0.9H535.9z M535.9,46.6
			v-0.9h5.4v0.9H535.9z M541.3,38.7v0.9H536v-0.9H541.3z M540.2,49h-3.3v3.1h3.3V49z M551.3,44.1v1.1h-4V54h-1.2v-8.9h-4.2v-1.1h4.2
			v-5.9l1.5,0.1c0,0.1-0.1,0.2-0.3,0.2v5.6H551.3z"/>
		<path class="st2" d="M552.6,39.2h15.4v1.1h-7.2v2h3.7v7.8H556v-7.8h3.6v-2h-7V39.2z M566.3,51.8v-9.6l1.5,0.1
			c0,0.1-0.1,0.2-0.3,0.2V54h-1.1v-1.1h-12.1V54h-1.1V42.2l1.5,0.1c0,0.1-0.1,0.2-0.3,0.2v9.3H566.3z M557,43.4v2.4h2.7v-2.4H557z
			 M557,46.7v2.5h2.7v-2.5H557z M563.4,45.8v-2.4h-2.7v2.4H563.4z M563.4,49.2v-2.5h-2.7v2.5H563.4z"/>
		<path class="st0" d="M490.7,62.3c3.2,0,5.8,2.6,5.8,5.8c0,3.2-2.6,5.8-5.8,5.8c-3.2,0-5.8-2.6-5.8-5.8
			C484.9,64.9,487.5,62.3,490.7,62.3z"/>
		<path class="st2" d="M516.4,62.1v1.1h-4.1l0.9,0.2c-0.1,0.1-0.2,0.2-0.4,0.2c-0.2,0.5-0.6,1.3-1,1.9h3.7v9.2
			c0,1.4-0.7,1.5-3.7,1.5c-0.1-0.3-0.2-0.8-0.4-1.1c0.7,0,1.3,0,1.8,0c1,0,1.1,0,1.1-0.4v-8.2h-3.7V68c0,0.3,0.1,0.4,0.6,0.4h1.7
			c0.4,0,0.4-0.1,0.5-0.8c0.2,0.2,0.6,0.3,0.9,0.4c-0.1,1.1-0.4,1.4-1.3,1.4h-1.9c-1.2,0-1.5-0.2-1.5-1.3v-1.5h-2.3
			c-0.2,1.9-0.9,3-3.6,3.7c-0.1-0.3-0.4-0.6-0.6-0.8c2.2-0.4,2.9-1.3,3.1-2.8h-3.2v9.7H502V65.4h3.5c-0.2-0.6-0.5-1.4-0.9-2l1.1-0.2
			c0.4,0.7,0.8,1.5,1,2.1l-0.6,0.2h4.5c0.3-0.6,0.8-1.6,1-2.3H501v-1.1h7v-1.9l1.5,0.1c0,0.1-0.1,0.2-0.3,0.2v1.6H516.4z
			 M512.1,74.4h-5.6v1h-1v-5.3h6.6V74.4z M511,71.1h-4.5v2.4h4.5V71.1z"/>
		<path class="st2" d="M518.7,60.9h14.5v15.2H532v-0.8h-12.3v0.8h-1.1V60.9z M519.8,74.3H532V62h-12.3V74.3z M531.1,67.6h-2.4
			c0.7,1,1.5,1.8,2.6,2.2c-0.2,0.2-0.5,0.5-0.6,0.8c-1.3-0.6-2.3-1.6-3-2.9h-3.4c-0.2,0.3-0.4,0.7-0.7,0.9h4.5v2.7h-4.1v1.2
			c0,0.4,0.2,0.4,1,0.4h3.1c0.6,0,0.8-0.1,0.8-1.3c0.2,0.2,0.6,0.3,0.9,0.3c-0.1,1.4-0.4,1.8-1.5,1.8h-3.3c-1.5,0-1.9-0.2-1.9-1.3
			v-1.9h4.1v-1.2h-3.7v-0.4c-0.7,0.7-1.4,1.3-2.3,1.8c-0.1-0.2-0.4-0.5-0.6-0.7c1.1-0.6,2-1.4,2.7-2.3h-2.4v-0.8h3
			c0.2-0.4,0.4-0.8,0.6-1.3h-2.9v-0.8h3.2c0.2-0.7,0.4-1.4,0.5-2.2l1.2,0.2c0,0.1-0.2,0.2-0.3,0.2c-0.1,0.6-0.3,1.2-0.5,1.8h2.6
			c-0.2-0.1-0.4-0.2-0.5-0.2c0.4-0.5,0.8-1.3,1.1-1.9l1.1,0.4c-0.1,0.1-0.2,0.2-0.3,0.2c-0.3,0.4-0.7,1.1-1,1.5h2v0.8h-2.8
			c0.2,0.4,0.3,0.9,0.6,1.3h2.9V67.6z M522.8,64.8c-0.1-0.5-0.5-1.2-1-1.8l0.8-0.3c0.4,0.5,0.9,1.2,1,1.7L522.8,64.8z M525.3,65.5
			c-0.2,0.4-0.4,0.9-0.6,1.3h2.5c-0.2-0.4-0.3-0.8-0.5-1.3H525.3z"/>
		<path class="st2" d="M540.7,63.1v1h-5.6v-1H540.7z M540.2,75.1h-3.5v0.8h-1v-5.9h4.5V75.1z M540.2,65.4v0.9h-4.5v-0.9H540.2z
			 M535.8,68.7v-0.9h4.5v0.9H535.8z M540.2,60.8v0.9h-4.3v-0.9H540.2z M539.2,71h-2.5v3.1h2.5V71z M550.5,60.9v13.7
			c0,1.5-0.7,1.5-3.3,1.5c0-0.3-0.2-0.8-0.3-1.2c0.5,0,1,0,1.4,0h0.8c0.3,0,0.3-0.1,0.3-0.4V61.9h-6.7v5.2c0,2.7-0.2,6.5-1.7,9.1
			c-0.2-0.2-0.7-0.5-0.9-0.7c1.4-2.5,1.5-5.9,1.5-8.5v-6.2H550.5z M543.5,66.6h2.1v-1.8h-1.9v-0.9h1.9v-1.6l1.3,0.1
			c0,0.1-0.1,0.2-0.3,0.2v1.3h1.9v0.9h-1.9v1.8h2.2v0.9h-5.2V66.6z M548.3,73.4h-3.7v0.7h-0.9V69h4.6V73.4z M547.4,69.9h-2.7v2.7
			h2.7V69.9z"/>
		<path class="st2" d="M568,63.5h-5.9c1.5,1.6,4,3.1,6.3,3.9c-0.3,0.2-0.6,0.6-0.8,0.9c-2.4-0.9-5.1-2.8-6.8-4.8v3.8h-1.2v-3.8
			c-1.6,2.1-4.3,4-6.7,4.9c-0.2-0.3-0.5-0.7-0.7-0.9c2.2-0.8,4.6-2.3,6.1-4h-5.8v-1h7.1v-2.3l1.5,0.1c0,0.1-0.1,0.2-0.3,0.2v1.9h7.2
			V63.5z M565.1,67.8v6.9h3v1.1h-15.5v-1.1h3v-6.9H565.1z M563.9,68.8h-7.3v1.4h7.3V68.8z M563.9,72.4V71h-7.3v1.4H563.9z
			 M556.6,73.3v1.4h7.3v-1.4H556.6z"/>
		<path class="st0" d="M490.7,84.4c3.2,0,5.8,2.6,5.8,5.8c0,3.2-2.6,5.8-5.8,5.8c-3.2,0-5.8-2.6-5.8-5.8
			C484.9,87,487.5,84.4,490.7,84.4z"/>
		<path class="st2" d="M503.9,88v-2.9c-0.8,0.6-1.7,1.1-2.5,1.5c-0.2-0.2-0.5-0.6-0.8-0.8c1.8-0.8,3.8-2.2,5-3.7l1.3,0.5
			c-0.1,0.1-0.2,0.2-0.4,0.1c-0.5,0.5-1.1,1.1-1.8,1.6l0.6,0.2c0,0.1-0.1,0.2-0.3,0.2V88H503.9z M507.4,96.3
			c-0.1,0.1-0.2,0.1-0.4,0.1c-1.4,0.7-3.5,1.4-5.2,1.8c-0.2-0.2-0.6-0.6-0.8-0.8c1.7-0.4,3.8-1,5.1-1.7L507.4,96.3z M503.2,95.4v-7
			h11.3v7H503.2z M504.3,89.2v1.3h9v-1.3H504.3z M504.3,91.3v1.3h9v-1.3H504.3z M504.3,93.3v1.3h9v-1.3H504.3z M505.9,84.7l3.2-0.2
			c-0.4-0.7-0.7-1.5-0.8-2.3l1.5,0.1c0,0.1-0.1,0.2-0.4,0.2c0.1,0.7,0.4,1.3,0.8,1.9l5.8-0.3l0.1,0.9l-5.2,0.3c1.1,1.2,2.6,2,3.8,2
			c0.5,0,0.7-0.3,0.7-1.3c0.2,0.2,0.6,0.4,0.9,0.4c-0.2,1.5-0.6,1.9-1.5,1.9c-2.2,0-4.2-1.6-5.2-2.9l-3.7,0.2L505.9,84.7z
			 M515.2,98.2c-1.1-0.6-3-1.3-5-1.9l0.9-0.6c1.9,0.6,4,1.3,5.3,1.9L515.2,98.2z M511.8,82.2c1,0.2,2.4,0.7,3.1,1l-0.6,0.7
			c-0.7-0.4-2-0.9-3-1.1L511.8,82.2z"/>
		<path class="st2" d="M520,88.4c-0.6,1-1.3,2-2,2.8c-0.1-0.3-0.4-0.8-0.6-1.1c1.6-1.8,3.1-4.8,4.1-7.8l1.4,0.4
			c0,0.1-0.2,0.2-0.4,0.2c-0.4,1.2-0.9,2.3-1.4,3.4l0.4,0.1c0,0.1-0.1,0.2-0.3,0.2v11.5H520V88.4z M530.9,88h3.1V89h-11.9V88h3.1
			v-2.5h-2.4v-1h2.4v-2.1l1.5,0.1c0,0.1-0.1,0.2-0.3,0.2v1.7h3.4v-2.1l1.5,0.1c0,0.1-0.1,0.2-0.3,0.2v1.7h2.5v1h-2.5V88z M524,98.3
			v-7.7h8.5v7.6h-1.2v-0.7h-6.2v0.8H524z M531.3,91.5h-6.2v2h6.2V91.5z M525.1,96.5h6.2v-2h-6.2V96.5z M526.3,85.5V88h3.4v-2.5
			H526.3z"/>
		<path class="st2" d="M550.8,93h-6.1c1.5,1.7,4,3.2,6.4,3.9c-0.3,0.2-0.6,0.7-0.8,1c-2.4-0.9-5.1-2.6-6.7-4.6v5h-1.2v-5
			c-1.6,2-4.3,3.7-6.7,4.7c-0.2-0.3-0.5-0.7-0.8-1c2.3-0.7,4.8-2.3,6.3-4h-6v-1h7.1V90l1.5,0.1c0,0.1-0.1,0.2-0.3,0.2v1.6h7.2V93z
			 M547.1,83.8l0.9,0.5c0,0.1-0.1,0.1-0.2,0.2c-0.8,1.5-2,2.7-3.5,3.7c1.9,0.9,4.2,1.6,6.8,1.9c-0.2,0.3-0.6,0.7-0.7,1
			c-2.6-0.4-5.1-1.2-7.1-2.3c-2.2,1.3-4.7,2.1-7.2,2.6c-0.1-0.3-0.3-0.8-0.5-1c2.3-0.4,4.7-1.1,6.7-2.2c-1-0.7-1.9-1.5-2.6-2.4
			c-0.8,0.8-1.8,1.5-3,2.1c-0.2-0.3-0.5-0.7-0.8-0.8c2.6-1.3,4.4-3.2,5.3-4.8l1.5,0.3c0,0.1-0.2,0.2-0.4,0.2
			c-0.2,0.4-0.5,0.8-0.9,1.2h5.6L547.1,83.8z M540.4,84.9l-0.1,0.1c0.7,1,1.7,1.8,2.9,2.5c1.2-0.7,2.2-1.6,2.9-2.6H540.4z"/>
		<path class="st2" d="M554.6,88.3c-0.7,1.1-1.4,2-2.1,2.9c-0.1-0.3-0.4-0.8-0.6-1.1c1.7-1.8,3.3-4.8,4.3-7.7l1.4,0.5
			c-0.1,0.1-0.2,0.2-0.4,0.2c-0.4,1.2-1,2.4-1.6,3.6l0.5,0.1c0,0.1-0.1,0.2-0.3,0.2v11.4h-1.1V88.3z M568.4,91.1v1.1h-5.2v6h-1.2v-6
			h-5.4v-1.1h5.4V87H559c-0.5,1.1-1,2-1.5,2.8c-0.2-0.2-0.7-0.4-0.9-0.5c1.1-1.4,2-3.8,2.6-6.2l1.4,0.4c-0.1,0.1-0.2,0.2-0.4,0.2
			c-0.2,0.8-0.5,1.5-0.7,2.3h2.7v-3.4l1.5,0.1c0,0.1-0.1,0.2-0.4,0.2v3.1h4.5V87h-4.5v4.2H568.4z"/>
	</g>
	<g>
		<rect x="60.7" y="162.2" class="st3" width="478.5" height="35.6"/>
		<g>
			<g>
				<line class="st4" x1="416.3" y1="67.9" x2="444.6" y2="67.9"/>
				<g>
					<polygon class="st5" points="437.7,77 441.5,67.9 437.7,58.8 459.2,67.9 					"/>
				</g>
			</g>
		</g>
		<g>
			<g>
				<line class="st4" x1="300" y1="107" x2="300" y2="141.4"/>
				<g>
					<polygon class="st5" points="290.9,134.5 300,138.4 309.1,134.5 300,156.1 					"/>
				</g>
			</g>
		</g>
		<g>
			<g>
				<line class="st4" x1="183.7" y1="67.9" x2="155.4" y2="67.9"/>
				<g>
					<polygon class="st5" points="162.3,58.8 158.5,67.9 162.3,77 140.8,67.9 					"/>
				</g>
			</g>
		</g>
		<polyline class="st4" points="73.5,107 73.5,125.4 526.5,125.4 526.5,107 		"/>
		<g>
			<g>
				<line class="st4" x1="300" y1="203.9" x2="300" y2="238.3"/>
				<g>
					<polygon class="st5" points="290.9,231.4 300,235.3 309.1,231.4 300,253 					"/>
				</g>
			</g>
		</g>
		<g>
			<g>
				<polyline class="st4" points="526.5,238.3 526.5,222.3 73.5,222.3 73.5,238.3 				"/>
				<g>
					<polygon class="st5" points="535.6,231.4 526.5,235.3 517.4,231.4 526.5,253 					"/>
				</g>
				<g>
					<polygon class="st5" points="64.4,231.4 73.5,235.3 82.6,231.4 73.5,253 					"/>
				</g>
			</g>
		</g>
		<rect x="183.7" y="37.8" class="st3" width="110.1" height="60.1"/>
		<rect x="306.1" y="37.8" class="st3" width="110.1" height="60.1"/>
	</g>
	<g>
		<path class="st1" d="M98.6,181.7v0.9h-1.8v3.1h-1.2V185h-4.4v1.2c0,0.8-0.2,1.1-0.7,1.3c-0.5,0.2-1.4,0.2-2.9,0.2
			c-0.1-0.3-0.3-0.7-0.4-1c0.6,0,1.3,0,1.7,0c1,0,1.2,0,1.2-0.4V185h-5.7v-0.9h5.7v-1.4h-7.2v-0.9h7.2v-1.3h-5.6v-0.9h5.6v-1.2h-5.1
			v-3.3h5.1V174h-6.9v-1h6.9v-1.4l1.5,0.1c0,0.1-0.1,0.2-0.3,0.2v1.1h7v1h-7v1.1h5.3v3.3h-5.3v1.2h5.5v2.2H98.6z M86.2,177.5h3.9
			v-1.6h-3.9V177.5z M95.4,175.9h-4.1v1.6h4.1V175.9z M91.3,180.4v1.3h4.4v-1.3H91.3z M95.6,184.1v-1.4h-4.4v1.4H95.6z"/>
		<path class="st1" d="M115.6,183.3h-6c1.6,1.3,4.1,2.4,6.4,2.9c-0.3,0.2-0.6,0.7-0.8,1c-2.4-0.7-5-2-6.7-3.7v3.9h-1.2v-3.8
			c-1.7,1.6-4.3,2.9-6.7,3.5c-0.2-0.3-0.5-0.7-0.8-1c2.2-0.5,4.7-1.6,6.3-2.9h-5.9v-1h7V181H102V180h5.3v-1.4h-6.2v-1h3.9
			c-0.2-0.5-0.5-1.3-0.9-1.8l0.7-0.1h-4.4v-1h2.9c-0.3-0.7-0.9-1.8-1.4-2.6l1-0.3c0.6,0.8,1.3,1.9,1.5,2.6l-0.9,0.3h2.3v-3.2
			l1.5,0.1c0,0.2-0.2,0.3-0.4,0.3v2.8h2.2v-3.2l1.5,0.1c0,0.2-0.2,0.3-0.4,0.3v2.8h2.2c-0.2-0.1-0.5-0.2-0.6-0.2
			c0.5-0.7,1.1-1.9,1.4-2.7l1.4,0.5c0,0.1-0.2,0.2-0.4,0.2c-0.4,0.7-0.9,1.6-1.4,2.3h2.8v1h-3.9l0.5,0.2c-0.1,0.1-0.2,0.2-0.4,0.2
			c-0.2,0.5-0.6,1.1-1,1.6h4.1v1h-6.4v1.4h5.5v0.9h-5.5v1.4h7.1V183.3z M109.7,177.6c0.3-0.5,0.7-1.3,1-1.9h-5.3
			c0.4,0.6,0.8,1.3,0.9,1.8l-0.5,0.1h4.2L109.7,177.6z"/>
		<path class="st1" d="M124,174.5v1h-6.9v-1H124z M123.3,181.5v5.1h-4.3v0.8h-1v-5.9H123.3z M117.9,177.8v-0.9h5.4v0.9H117.9z
			 M117.9,180.1v-0.9h5.4v0.9H117.9z M123.3,172.2v0.9H118v-0.9H123.3z M122.2,182.5h-3.3v3.1h3.3V182.5z M133.3,177.6v1.1h-4v8.9
			h-1.2v-8.9H124v-1.1h4.2v-5.9l1.5,0.1c0,0.1-0.1,0.2-0.3,0.2v5.6H133.3z"/>
		<path class="st1" d="M134.6,172.7H150v1.1h-7.2v2h3.7v7.8H138v-7.8h3.6v-2h-7V172.7z M148.3,185.3v-9.6l1.5,0.1
			c0,0.1-0.1,0.2-0.3,0.2v11.5h-1.1v-1.1h-12.1v1.1h-1.1v-11.9l1.5,0.1c0,0.1-0.1,0.2-0.3,0.2v9.3H148.3z M139,176.9v2.4h2.7v-2.4
			H139z M139,180.2v2.5h2.7v-2.5H139z M145.4,179.3v-2.4h-2.7v2.4H145.4z M145.4,182.7v-2.5h-2.7v2.5H145.4z"/>
		<path class="st6" d="M159,171.4l11.1,8.2l-11.1,8.2V171.4z"/>
		<path class="st1" d="M179.4,177.7v-3.2c-0.7,0.5-1.5,1-2.2,1.4c-0.2-0.2-0.5-0.6-0.8-0.8c1.7-0.8,3.5-2.2,4.7-3.6l1.3,0.5
			c-0.1,0.1-0.2,0.2-0.4,0.1c-0.5,0.5-1,1.1-1.7,1.6l0.5,0.2c0,0.1-0.1,0.2-0.3,0.2v3.5H179.4z M183.3,185.8
			c-0.1,0.1-0.2,0.1-0.4,0.1c-1.4,0.6-3.5,1.3-5.2,1.6c-0.2-0.2-0.5-0.6-0.8-0.8c1.7-0.3,3.9-0.9,5.1-1.6L183.3,185.8z M179.1,185
			v-6.5h11.3v6.5H179.1z M180.3,179.2v1.2h9v-1.2H180.3z M180.3,181.1v1.1h9v-1.1H180.3z M180.3,183v1.2h9V183H180.3z M186.2,174.4
			v-1.2c-1.2,0.1-2.4,0.1-3.6,0.2c-0.1-0.2-0.2-0.6-0.3-0.8c2.8-0.1,6.2-0.4,8-0.8l0.8,0.8c-0.1,0-0.1,0.1-0.2,0.1c0,0-0.1,0-0.1,0
			c-0.9,0.2-2.1,0.3-3.4,0.4l-0.2,0.1v1.3h5v0.9h-5v1.4h4.2v0.9h-9.2v-0.9h3.9v-1.4h-4.7v-0.9H186.2z M191.1,187.5
			c-1.1-0.5-3-1.2-5-1.7l1-0.6c1.9,0.5,4,1.2,5.3,1.7L191.1,187.5z"/>
		<path class="st1" d="M197,177.3v-2.9c-0.8,0.6-1.7,1.1-2.5,1.5c-0.2-0.2-0.5-0.6-0.8-0.8c1.8-0.8,3.8-2.2,5-3.7l1.3,0.5
			c-0.1,0.1-0.2,0.2-0.4,0.1c-0.5,0.5-1.1,1.1-1.8,1.6l0.6,0.2c0,0.1-0.1,0.2-0.3,0.2v3.2H197z M200.5,185.6
			c-0.1,0.1-0.2,0.1-0.4,0.1c-1.4,0.7-3.5,1.4-5.2,1.8c-0.2-0.2-0.6-0.6-0.8-0.8c1.7-0.4,3.8-1,5.1-1.7L200.5,185.6z M196.3,184.8
			v-7h11.3v7H196.3z M197.4,178.5v1.3h9v-1.3H197.4z M197.4,180.6v1.3h9v-1.3H197.4z M197.4,182.7v1.3h9v-1.3H197.4z M199,174
			l3.2-0.2c-0.4-0.7-0.7-1.5-0.8-2.3l1.5,0.1c0,0.1-0.1,0.2-0.4,0.2c0.1,0.7,0.4,1.3,0.8,1.9l5.8-0.3l0.1,0.9l-5.2,0.3
			c1.1,1.2,2.6,2,3.8,2c0.5,0,0.7-0.3,0.7-1.3c0.2,0.2,0.6,0.4,0.9,0.4c-0.2,1.5-0.6,1.9-1.5,1.9c-2.2,0-4.2-1.6-5.2-2.9l-3.7,0.2
			L199,174z M208.3,187.6c-1.1-0.6-3-1.3-4.9-1.9l0.9-0.6c1.9,0.6,4,1.3,5.3,1.9L208.3,187.6z M204.9,171.6c1,0.2,2.4,0.7,3.1,1
			l-0.6,0.7c-0.7-0.4-2-0.9-3-1.1L204.9,171.6z"/>
		<path class="st1" d="M213.2,177.7c-0.6,1-1.3,2-2,2.8c-0.1-0.3-0.4-0.8-0.6-1.1c1.6-1.8,3.1-4.8,4.1-7.8l1.4,0.4
			c0,0.1-0.2,0.2-0.4,0.2c-0.4,1.2-0.9,2.3-1.4,3.4l0.4,0.1c0,0.1-0.1,0.2-0.3,0.2v11.5h-1.1V177.7z M224,177.3h3.1v1.1h-11.9v-1.1
			h3.1v-2.5h-2.4v-1h2.4v-2.1l1.5,0.1c0,0.1-0.1,0.2-0.3,0.2v1.7h3.4v-2.1l1.5,0.1c0,0.1-0.1,0.2-0.3,0.2v1.7h2.5v1H224V177.3z
			 M217.1,187.6v-7.7h8.5v7.6h-1.2v-0.7h-6.2v0.8H217.1z M224.4,180.9h-6.2v2h6.2V180.9z M218.2,185.8h6.2v-2h-6.2V185.8z
			 M219.4,174.8v2.5h3.4v-2.5H219.4z"/>
		<path class="st1" d="M243.9,182.3h-6.1c1.5,1.7,4,3.2,6.4,3.9c-0.3,0.2-0.6,0.7-0.8,1c-2.4-0.9-5.1-2.6-6.7-4.6v5h-1.2v-5
			c-1.6,2-4.3,3.7-6.7,4.7c-0.2-0.3-0.5-0.7-0.8-1c2.3-0.7,4.8-2.3,6.3-4h-6v-1h7.1v-1.9l1.5,0.1c0,0.1-0.1,0.2-0.3,0.2v1.6h7.2
			V182.3z M240.2,173.1l0.9,0.5c0,0.1-0.1,0.1-0.2,0.2c-0.8,1.5-2,2.7-3.5,3.7c1.9,0.9,4.2,1.6,6.8,1.9c-0.2,0.3-0.6,0.7-0.7,1
			c-2.6-0.4-5.1-1.2-7.1-2.3c-2.2,1.3-4.7,2.1-7.2,2.6c-0.1-0.3-0.3-0.8-0.5-1c2.3-0.4,4.7-1.1,6.7-2.2c-1-0.7-1.9-1.5-2.6-2.4
			c-0.8,0.8-1.8,1.5-3,2.1c-0.2-0.3-0.5-0.7-0.8-0.8c2.6-1.3,4.4-3.2,5.3-4.8l1.5,0.3c0,0.1-0.2,0.2-0.4,0.2
			c-0.2,0.4-0.5,0.8-0.9,1.2h5.6L240.2,173.1z M233.5,174.2l-0.1,0.1c0.7,1,1.7,1.8,2.9,2.5c1.2-0.7,2.2-1.6,2.9-2.6H233.5z"/>
		<path class="st1" d="M247.7,177.6c-0.7,1.1-1.4,2-2.1,2.9c-0.1-0.3-0.4-0.8-0.6-1.1c1.6-1.8,3.3-4.8,4.3-7.7l1.4,0.5
			c-0.1,0.1-0.2,0.2-0.4,0.2c-0.4,1.2-1,2.4-1.6,3.6l0.5,0.1c0,0.1-0.1,0.2-0.3,0.2v11.4h-1.1V177.6z M261.5,180.5v1.1h-5.2v6h-1.2
			v-6h-5.4v-1.1h5.4v-4.2h-3.1c-0.5,1.1-1,2-1.5,2.8c-0.2-0.2-0.7-0.4-0.9-0.5c1.1-1.4,2-3.8,2.6-6.2l1.4,0.4
			c-0.1,0.1-0.2,0.2-0.4,0.2c-0.2,0.8-0.5,1.5-0.7,2.3h2.7v-3.4l1.5,0.1c0,0.1-0.1,0.2-0.4,0.2v3.1h4.5v1.1h-4.5v4.2H261.5z"/>
		<path class="st1" d="M271.6,171.7c-0.1,0.2-0.2,0.2-0.4,0.3c1.7,2.3,4.8,4.7,7.5,6c-0.3,0.3-0.6,0.7-0.8,1
			c-2.7-1.4-5.8-3.9-7.5-6.2c-1.4,2.1-4.3,4.7-7.3,6.3c-0.2-0.3-0.5-0.7-0.7-0.9c3.1-1.6,6-4.3,7.4-6.6L271.6,171.7z M265.3,187.6
			v-7h10.6v7h-1.2v-0.7h-8.3v0.7H265.3z M266.1,177.3h8.8v1h-8.8V177.3z M274.7,181.7h-8.3v4.1h8.3V181.7z"/>
		<path class="st1" d="M283.4,184c-0.5,1.2-1.3,2.4-2.6,3.1l-0.9-0.6c1.3-0.6,2.1-1.7,2.6-2.8L283.4,184z M295.5,176.2v0.9h-15.6
			v-0.9h4.6c-0.2-0.6-0.5-1.3-0.8-1.9l1-0.3H281v-0.9h6.1v-1.5l1.5,0.1c0,0.1-0.1,0.2-0.3,0.2v1.2h6.2v0.9h-3.3l0.8,0.3
			c-0.1,0.1-0.2,0.2-0.3,0.2c-0.2,0.5-0.6,1.2-0.9,1.7H295.5z M292.9,178v4.8h-6.2c1,0.4,2.1,1,2.8,1.5c-0.6,0.6-0.6,0.7-0.7,0.8
			c-0.7-0.5-2-1.3-3.2-1.7l0.5-0.5h-3.6V178H292.9z M291.7,180v-1.2h-8.1v1.2H291.7z M291.7,182v-1.2h-8.1v1.2H291.7z M285.5,186
			c0,0.4,0.1,0.5,1,0.5h2.9c0.7,0,0.8-0.2,0.9-1.8c0.3,0.2,0.7,0.3,1,0.4c-0.1,1.9-0.5,2.4-1.8,2.4h-3.1c-1.6,0-2-0.3-2-1.4v-2.1
			l1.5,0.1c0,0.1-0.1,0.2-0.3,0.2V186z M289.6,176.2c0.3-0.6,0.7-1.5,1-2.1h-5.8c0.4,0.6,0.8,1.5,0.9,2.1l-0.3,0.1L289.6,176.2
			L289.6,176.2z M294.7,187.1c-0.7-0.9-2.1-2.1-3.3-2.9l0.9-0.6c1.2,0.8,2.7,1.9,3.4,2.8L294.7,187.1z"/>
		<path class="st6" d="M304.5,171.4l11.1,8.2l-11.1,8.2V171.4z"/>
		<path class="st1" d="M337.9,183.1h-6.5c1.1,2,3.4,3,6.8,3.4c-0.3,0.3-0.6,0.8-0.7,1.1c-3.7-0.5-6-1.8-7.3-4.5h-0.2
			c-0.9,2.2-2.8,3.7-7.3,4.4c-0.1-0.3-0.4-0.7-0.6-1c3.9-0.6,5.7-1.8,6.6-3.5h-6.4v-1h6.8c0.2-0.5,0.3-1,0.4-1.6
			c-0.2,0.1-0.4,0.2-0.7,0.3c-0.1-0.3-0.4-0.6-0.7-0.8c3.1-1.3,3.9-3.7,4.2-6.6h-2.5v-1h6.9l0.6,0c-0.1,0.9,0,6.3-0.7,7.2
			c-0.4,0.5-0.9,0.5-1.6,0.5c-0.4,0-0.9,0-1.4-0.1c0-0.3-0.2-0.8-0.3-1c0.8,0.1,1.5,0.1,1.8,0.1c0.3,0,0.4,0,0.5-0.2
			c0.3-0.3,0.4-1.7,0.5-5.5h-2.7c-0.3,2.9-1,5.4-3.7,7l1.3,0.1c0,0.1-0.1,0.2-0.3,0.2c-0.1,0.5-0.2,0.9-0.3,1.3h7.6V183.1z
			 M329.3,178.8c-2.4,0.4-4.9,0.8-6.5,1c0,0.1-0.1,0.2-0.2,0.2l-0.4-1.2c0.8-0.1,1.9-0.2,3.1-0.4v-1.9h-2.4v-0.9h2.4V174h-2.8v-0.9
			h2.8v-1.5l1.4,0.1c0,0.1-0.1,0.2-0.3,0.2v1.2h2.8v0.9h-2.8v1.6h2.4v0.9h-2.4v1.8c0.9-0.1,1.9-0.3,2.9-0.4L329.3,178.8z"/>
		<path class="st1" d="M341.6,181.8c0,0.1-0.1,0.2-0.3,0.2c-0.3,1.5-0.8,3.1-1.3,4.1c-0.2-0.1-0.6-0.3-0.9-0.4c0.6-1,1-2.6,1.3-4.2
			L341.6,181.8z M343.5,172.1c-0.1,0.1-0.2,0.2-0.4,0.1c-0.5,1-1.4,2.4-2.1,3.4c0.5,0.4,0.9,0.9,1.2,1.3c0.8-1.2,1.6-2.4,2.2-3.4
			l1.2,0.6c-0.1,0.1-0.2,0.1-0.4,0.1c-1,1.5-2.5,3.5-3.8,5c1.1,0,2.3,0,3.5-0.1c-0.3-0.6-0.7-1.2-1.1-1.6c0.5-0.3,0.7-0.3,0.8-0.4
			c0.9,1.1,1.8,2.5,2.2,3.5l-0.9,0.5c-0.1-0.3-0.3-0.6-0.5-1l-2,0.1v7.4h-1.1v-7.3c-1.1,0-2,0.1-2.8,0.1c0,0.1-0.1,0.2-0.3,0.2
			l-0.3-1.3h1.3c0.4-0.5,0.8-1,1.3-1.5c-0.5-0.7-1.5-1.7-2.4-2.4l0.6-0.7c0.2,0.1,0.3,0.3,0.5,0.4c0.7-1,1.5-2.4,1.9-3.4
			L343.5,172.1z M345.5,185.2c-0.2-0.9-0.7-2.4-1.3-3.5l0.9-0.3c0.5,1.1,1.1,2.5,1.3,3.4L345.5,185.2z M354.2,174.8l0.6,0.1
			c0,0.1,0,0.3,0,0.4c-0.3,8.1-0.5,10.8-1.2,11.6c-0.5,0.6-0.9,0.7-2.1,0.7c-0.6,0-1.3,0-2-0.1c0-0.3-0.2-0.8-0.4-1.1
			c1.2,0.1,2.3,0.1,2.7,0.1c0.3,0,0.6-0.1,0.8-0.3c0.6-0.6,0.9-3.3,1.1-10.3h-5.4c-0.5,1.1-1,2-1.5,2.8c-0.2-0.2-0.7-0.5-0.9-0.6
			c1.2-1.5,2.1-4.1,2.7-6.5l1.4,0.4c0,0.2-0.2,0.2-0.4,0.2c-0.2,0.9-0.5,1.8-0.9,2.7h5.2L354.2,174.8z M348.6,178.6
			c1,1.3,2.1,2.9,2.5,4l-1,0.5c-0.4-1.1-1.4-2.8-2.4-4.1L348.6,178.6z"/>
		<path class="st6" d="M364,171.4l11.1,8.2l-11.1,8.2V171.4z"/>
		<path class="st1" d="M388.8,178.1h-5.2v9.4h-1.1v-15.2h6.3V178.1z M387.7,173.2h-4.1v1.5h4.1V173.2z M383.6,177.2h4.1v-1.6h-4.1
			V177.2z M394.3,183.2h-2.4v4h-1v-4h-2.6c-0.1,1.1-0.7,3-2.4,4.1c-0.2-0.2-0.5-0.5-0.8-0.7c1.5-0.9,2-2.4,2.1-3.4h-2.3v-1h2.3v-2
			h-1.9v-1h8.7v1h-2.1v2h2.4V183.2z M388.2,182.3h2.6v-2h-2.6V182.3z M396.8,172.3V186c0,1.5-0.7,1.5-3.4,1.5
			c-0.1-0.3-0.2-0.9-0.4-1.2c0.6,0,1.2,0,1.6,0c0.9,0,1,0,1-0.4v-7.8h-5.3v-5.8H396.8z M395.7,173.2h-4.2v1.5h4.2V173.2z
			 M391.5,177.2h4.2v-1.6h-4.2V177.2z"/>
		<path class="st1" d="M412.5,172.5c-0.1,0.1-0.2,0.1-0.3,0.1c-0.6,0.6-1.6,1.4-2.5,2c0.4,0.5,0.8,1,1.2,1.4c0.9-0.7,2-1.6,2.6-2.3
			l1,0.8c-0.1,0.1-0.2,0.1-0.4,0.1c-0.7,0.6-1.8,1.5-2.6,2.1c1,0.9,2.1,1.6,3.4,2.1c-0.3,0.2-0.6,0.7-0.8,1
			c-0.9-0.4-1.7-0.9-2.5-1.5v0.7h-2.2v2.7h4.2v1.1h-4.2v3c0,0.6,0.1,0.6,0.7,0.6h2.1c0.6,0,0.7-0.3,0.7-2.3c0.3,0.2,0.7,0.4,1,0.5
			c-0.1,2.2-0.4,2.8-1.7,2.8h-2.4c-1.4,0-1.8-0.4-1.8-1.7v-3H405c-0.3,1.9-1.3,3.7-4.8,4.9c-0.1-0.3-0.5-0.7-0.7-0.9
			c3-1,4-2.5,4.3-4h-4v-1.1h4.1v-2.7H402v-0.5c-0.8,0.6-1.7,1.2-2.6,1.6c-0.2-0.3-0.5-0.7-0.7-0.9c1.2-0.5,2.5-1.3,3.6-2.4
			c-0.5-0.6-1.4-1.3-2.2-1.9l0.7-0.6c0.7,0.5,1.6,1.2,2.2,1.8c0.7-0.8,1.3-1.6,1.8-2.6h-4.5v-1h5.2l0.2-0.1c0.4,0.3,0.6,0.3,0.8,0.4
			c0,0.1-0.1,0.2-0.2,0.2c-0.7,1.9-2,3.6-3.5,4.9h8.5c-1.7-1.5-3.1-3.6-4-5.9l1-0.3c0.3,0.8,0.7,1.5,1.1,2.3
			c0.8-0.6,1.7-1.5,2.3-2.1L412.5,172.5z M408.3,181.6v-2.7h-3.2v2.7H408.3z"/>
		<path class="st1" d="M421.4,179.5c0,1-0.8,1.8-1.8,1.8c-1,0-1.8-0.8-1.8-1.8c0-1,0.8-1.8,1.8-1.8
			C420.7,177.8,421.4,178.6,421.4,179.5z"/>
		<path class="st1" d="M430.3,178l0.6,0c0,0.1,0,0.2,0,0.4c-0.1,6-0.2,7.9-0.7,8.5c-0.4,0.5-0.9,0.5-1.6,0.5c-0.4,0-0.8,0-1.3,0
			c0-0.3-0.1-0.8-0.3-1c0.8,0.1,1.5,0.1,1.8,0.1c0.2,0,0.3-0.1,0.4-0.2c0.3-0.4,0.4-2.2,0.5-7.2h-2.3c-0.2,3.3-0.7,6.4-2.2,8.4
			c-0.2-0.3-0.6-0.6-0.9-0.8c1.8-2.4,2-6.9,2.1-11.2h-1.9v-1.1h3.1v-2.8l1.5,0.1c0,0.1-0.1,0.2-0.3,0.2v2.5h3.1v1.1h-4.3
			c0,0.8,0,1.7-0.1,2.5H430.3z M440.5,175.2h-6.9c-0.5,1.2-1.1,2.2-1.8,3c-0.2-0.2-0.6-0.6-0.8-0.8c1.1-1.3,2-3.6,2.6-5.8l1.4,0.4
			c0,0.1-0.2,0.2-0.4,0.2c-0.2,0.7-0.4,1.4-0.6,2h6.5V175.2z M433.9,185.5c0,0.7,0.2,0.8,1.1,0.8h3.5c0.8,0,0.9-0.3,1-1.9
			c0.3,0.2,0.7,0.3,1,0.4c-0.1,2-0.5,2.5-1.9,2.5H435c-1.7,0-2.2-0.4-2.2-1.8v-3.9l-1.1,0.5l-0.4-0.9l1.5-0.7v-3.1l1.4,0.1
			c0,0.1-0.1,0.2-0.3,0.2v2.3l1.9-0.9v-3.2l1.4,0.1c0,0.1-0.1,0.2-0.3,0.2v2.4l1.8-0.9c0.2-0.2,0.2-0.2,0.4-0.3
			c0.2,0.1,0.4,0.1,0.9,0.3c0,0.1-0.1,0.1-0.2,0.2c0,2.4-0.1,4.6-0.1,5.1c-0.1,0.9-0.8,1-2.1,1c-0.1-0.3-0.1-0.7-0.3-0.9
			c0.3,0,0.8,0,0.9,0c0.2,0,0.3-0.1,0.4-0.3c0.1-0.3,0.1-1.9,0.1-3.9l-1.8,0.9v5h-1v-4.5l-1.9,0.9V185.5z"/>
		<path class="st1" d="M447,172.1c0,0.1-0.2,0.2-0.4,0.1c-1,1.3-2.8,2.9-4.3,4c-0.1-0.3-0.5-0.7-0.7-0.9c1.4-0.9,3.1-2.5,4-3.7
			L447,172.1z M444.4,187.5V180c-0.7,0.7-1.3,1.4-2,2c-0.2-0.2-0.5-0.7-0.7-0.9c1.6-1.4,3.5-3.6,4.7-5.8l1.3,0.5
			c-0.1,0.1-0.2,0.2-0.4,0.1c-0.5,0.9-1.1,1.7-1.8,2.6l0.3,0.1c0,0.1-0.1,0.2-0.3,0.2v8.7H444.4z M457.7,177.7v1.1H455v7.3
			c0,1.4-0.5,1.5-4,1.5c-0.1-0.3-0.2-0.8-0.4-1.1c0.8,0,1.5,0,2,0c1.1,0,1.2,0,1.2-0.4v-7.3h-6v-1.1H457.7z M457,172.7v1.1h-8.6
			v-1.1H457z"/>
		<path class="st6" d="M466.5,171.4l11.1,8.2l-11.1,8.2V171.4z"/>
		<path class="st1" d="M494.6,185.5c0,0.5,0.1,0.6,0.9,0.6h2.6c0.7,0,0.8-0.3,0.9-2.3c0.3,0.2,0.8,0.4,1.1,0.5c-0.1,2.4-0.5,3-1.8,3
			h-2.8c-1.5,0-1.9-0.4-1.9-1.7V181h-3.1l-0.1,0c-0.4,3-1.3,5.3-5.5,6.5c-0.1-0.3-0.4-0.7-0.7-1c3.7-0.9,4.6-2.9,4.9-5.5h-4.6v-1.1
			h15.5v1.1h-5.3V185.5z M486,174.8v2.5h-1.2v-3.6h6.6v-2.1l1.5,0.1c0,0.1-0.1,0.2-0.3,0.2v1.8h6.7v3.6h-1.2v-2.5H486z M496.8,177.9
			h-9.5v-1.1h9.5V177.9z"/>
		<path class="st1" d="M511.5,175.8c0.2,2.4,0.6,4.6,1.1,6.4c1-1.4,1.7-3.1,2.3-4.9l1.4,0.4c0,0.1-0.2,0.2-0.4,0.2
			c-0.7,2.1-1.7,4-2.9,5.6c0.7,1.8,1.6,3,2.6,3c0.5,0,0.8-0.9,0.9-3.3c0.3,0.3,0.7,0.5,1,0.6c-0.2,3-0.7,3.8-2,3.8
			c-1.4,0-2.5-1.2-3.3-3.1c-1.1,1.2-2.4,2.3-3.8,3.1c-0.2-0.2-0.5-0.7-0.8-0.9c1.6-0.8,3-2,4.1-3.4c-0.7-2.1-1.2-4.7-1.4-7.5h-6.3
			v2.3h4l0.2,0l0.6,0v0.4c-0.1,4.1-0.2,5.6-0.5,6c-0.4,0.5-0.9,0.5-1.8,0.5c-0.4,0-0.8,0-1.3,0c0-0.3-0.2-0.8-0.3-1.1
			c0.8,0.1,1.6,0.1,1.9,0.1c0.2,0,0.4,0,0.5-0.2c0.2-0.3,0.3-1.5,0.4-4.7h-3.7c0,1.7,0,5.8-1.9,8.4c-0.2-0.2-0.7-0.6-0.9-0.8
			c1.5-2.1,1.7-5.1,1.7-7.3v-4.8h7.4c-0.1-1-0.1-2-0.1-3.1l1.5,0.1c0,0.1-0.1,0.2-0.4,0.3c0,0.9,0,1.8,0.1,2.7h5.6v1.1H511.5z
			 M513.3,171.7c1.1,0.6,2.5,1.4,3.1,2l-0.7,0.8c-0.7-0.6-2-1.5-3.1-2.1L513.3,171.7z"/>
	</g>
	<g>
		<path class="st1" d="M203.6,51.8c-0.1,0.2-0.2,0.3-0.4,0.3c1.4,2,4,4,6.2,5c-0.4,0.5-0.9,1.1-1.2,1.6c-2.3-1.3-4.8-3.4-6.1-5.2
			c-1.2,1.8-3.5,3.8-5.9,5.2c-0.2-0.4-0.7-1-1.1-1.4c2.6-1.3,5-3.7,6.1-5.6L203.6,51.8z M203.3,60.7v3h5.3v1.6H196v-1.6h1.6v-5.2
			l2.1,0.1c0,0.1-0.1,0.2-0.4,0.3v4.8h2.1v-7.7l2.3,0.1c0,0.1-0.1,0.2-0.4,0.3v2.8h4v1.6H203.3z"/>
		<path class="st1" d="M223.6,62.2h-4.3c1.3,0.8,3,1.3,4.7,1.6c-0.4,0.4-0.9,1.1-1.2,1.6c-1.8-0.5-3.6-1.4-5-2.5v2.7h-1.8v-2.6
			c-1.4,1.1-3.2,1.9-5,2.4c-0.3-0.4-0.8-1.1-1.1-1.5c1.7-0.3,3.4-1,4.7-1.7h-4.3v-1.5h5.7v-0.7h-4.3v-1.3h4.3v-0.7h-5v-1.4h2.8
			c-0.1-0.4-0.3-0.8-0.5-1.2l0.2,0v0l-3.1,0v-1.4h2c-0.2-0.6-0.6-1.3-0.9-1.8l1.5-0.5c0.4,0.6,0.9,1.5,1.1,2.1l-0.7,0.3h1.4v-2.4
			l2,0.1c0,0.1-0.1,0.2-0.4,0.3v2h1.1v-2.4l2.1,0.1c0,0.2-0.1,0.2-0.4,0.3v2h1.3L220,54c0.4-0.6,0.8-1.5,1-2.1l2,0.6
			c0,0.1-0.2,0.2-0.4,0.2c-0.3,0.5-0.6,1-0.9,1.5h2v1.4h-2.7l0.1,0c-0.1,0.1-0.2,0.2-0.4,0.1c-0.1,0.3-0.4,0.7-0.6,1h2.9v1.4h-5.2
			v0.7h4.5v1.3h-4.5v0.7h5.8V62.2z M218.3,56.8c0.2-0.3,0.4-0.8,0.5-1.2h-3.5c0.2,0.4,0.4,0.8,0.5,1.1l-0.3,0v0L218.3,56.8z"/>
		<path class="st1" d="M229.9,58.7c0,1-0.9,1.9-1.9,1.9c-1,0-1.9-0.9-1.9-1.9s0.9-1.9,1.9-1.9C229.1,56.8,229.9,57.7,229.9,58.7z"/>
		<path class="st1" d="M244.5,58.5l-4.6,0l0.3,0.1c0,0.1-0.1,0.2-0.3,0.2c-0.4,2.4-1.3,4.8-4.4,6.4c-0.3-0.3-1-1-1.4-1.3
			c2.9-1.5,3.6-3.2,3.9-5.4h-5.3v-1.7h11.9V58.5z M243,54.4h-9v-1.7h9V54.4z"/>
		<path class="st1" d="M258.1,57.6H253c-0.3,3.5-1.3,5.8-4.5,7.6c-0.4-0.4-1.1-0.9-1.5-1.3c2.9-1.6,3.8-3.4,4.1-6.4h-5.3v-1.8h5.4
			c0-0.5,0-2.2,0-3.7l2.4,0.1c0,0.2-0.2,0.3-0.4,0.3c0,1.2,0,2.3-0.1,3.2h5V57.6z"/>
		<path class="st1" d="M260,53.2c1.5,0.5,3.2,1.2,4.3,1.9l-1,1.7c-1.1-0.7-2.8-1.5-4.2-2L260,53.2z M259.5,63.1
			c5-1.5,8.4-4.4,10.1-8.5c0.5,0.4,1.2,0.8,1.7,1.1c-1.8,4-5.3,7.2-10.2,8.9c0,0.2-0.1,0.3-0.3,0.4L259.5,63.1z"/>
		<path class="st1" d="M280.8,60.4c-1.2-0.7-3.1-1.6-4.6-2.2v6.9h-2V52.2l2.4,0.1c0,0.2-0.1,0.3-0.4,0.4v4.1l0.4-0.5
			c1.6,0.6,3.8,1.5,5.3,2.3L280.8,60.4z"/>
		<path class="st1" d="M225.4,74.9c-0.1,0.1-0.2,0.2-0.4,0.2c-0.6,5-2.1,7.9-4.6,7.9c-1.6,0-2.8-1.4-2.8-3.9c0-3.8,3-6.5,6.8-6.5
			c4.2,0,6.3,2.5,6.3,5.7c0,3.5-1.8,5.3-5.5,6.2c-0.3-0.4-0.7-1.1-1.2-1.6c3.4-0.7,4.7-2.3,4.7-4.6c0-2.4-1.6-4-4.4-4
			c-0.3,0-0.5,0-0.8,0.1L225.4,74.9z M223,74.6c-2.2,0.5-3.7,2.5-3.7,4.6c0,1.2,0.4,2.1,1,2.1C221.8,81.2,222.8,78,223,74.6z"/>
		<path class="st1" d="M236.7,77.7l0.2,1.5l-1.5,0.5v3.5c0,1.5-0.5,2-2.8,2c-0.1-0.5-0.3-1.2-0.5-1.7c0.3,0,0.7,0,1,0
			c0.6,0,0.7,0,0.7-0.3v-3l-1.4,0.4c0,0.1-0.1,0.2-0.3,0.3l-0.5-1.9c0.6-0.1,1.3-0.3,2.1-0.5v-2.7h-1.9v-1.6h1.9v-2.8l2.1,0.1
			c0,0.1-0.1,0.2-0.4,0.3v2.5h1.5v1.6h-1.5v2.2L236.7,77.7z M241.9,81.9v1.4c0.4,0.1,0.8,0.1,1.3,0.1c0.4,0,2,0,2.6,0
			c-0.2,0.4-0.4,1.1-0.5,1.5H243c-1.9,0-3.5-0.4-4.6-1.8c-0.3,0.9-0.8,1.6-1.4,2.2c-0.3-0.3-0.9-0.7-1.3-0.9c1.1-1,1.6-2.8,1.8-4.7
			l1.9,0.3c0,0.1-0.1,0.2-0.4,0.2c-0.1,0.4-0.1,0.8-0.2,1.1c0.3,0.7,0.7,1.1,1.2,1.4v-3.5h-3.1v-1.5h8.5v1.5h-3.6v1.2h2.9v1.4H241.9
			z M244.7,71.9v5.2h-7.1v-5.2H244.7z M243,73.9v-0.7h-3.9v0.7H243z M243,75.8v-0.8h-3.9v0.8H243z"/>
		<path class="st1" d="M260.1,81.9h-4.5c1.3,0.8,3.2,1.4,5,1.7c-0.4,0.4-0.9,1-1.1,1.5c-1.9-0.5-3.8-1.4-5.2-2.5v2.6h-1.8v-2.6
			c-1.4,1.1-3.2,2-5.1,2.4c-0.2-0.4-0.7-1.1-1.1-1.4c1.8-0.3,3.6-1,4.9-1.8h-4.5v-1.5h5.8v-1c-1.2,0.3-2.7,0.5-4.6,0.6
			c-0.1-0.4-0.3-1-0.6-1.4c2-0.1,3.5-0.3,4.6-0.5c-0.4-0.1-0.8-0.2-1.2-0.3l-0.2,0.2l-1.7-0.5c0.3-0.4,0.7-0.9,1.1-1.4h-3.2v-1.4
			h4.3c0.3-0.4,0.6-0.8,0.8-1.1h-3v0.8h-1.6v-2.3h5.2v-1l2.2,0.1c0,0.2-0.1,0.2-0.4,0.3v0.6h5.3v2.3h-1.7v-0.8h-5.6l1.6,0.5
			c-0.1,0.1-0.2,0.2-0.4,0.2l-0.3,0.5h6.9v1.4h-2.7l-0.1,0c-0.3,0.6-0.7,1.1-1.2,1.6c1.2,0.4,2.4,0.7,3.2,1l-1.1,1.2
			c-0.9-0.4-2.3-0.8-3.8-1.3c-0.5,0.2-1.1,0.4-1.8,0.6l2,0.1c0,0.1-0.1,0.2-0.4,0.3v0.6h5.9V81.9z M252,76.3l-0.4,0.5
			c0.8,0.2,1.7,0.4,2.5,0.6c0.5-0.3,0.8-0.7,1.1-1.1H252z"/>
	</g>
	<g>
		<path class="st1" d="M336.4,63.3h5.8V65h-13.5v-1.8h5.7v-5.2h-4.8v-1.8h4.8v-4.6l2.3,0.1c0,0.1-0.1,0.3-0.4,0.3v4.1h4.8v1.8h-4.8
			V63.3z"/>
		<path class="st1" d="M346.5,60.6l1.3-0.5l0.3,1.5c-1.5,0.7-3,1.4-4.1,1.8c0,0.1-0.1,0.3-0.2,0.3l-0.8-2c0.5-0.1,1.1-0.4,1.8-0.6
			v-4.2h-1.4v-1.7h1.4v-3.4l2,0.1c0,0.1-0.1,0.2-0.4,0.3v3h1.4v1.7h-1.4V60.6z M350.6,62.8c0,0.9,0.1,1,1.1,1h2.9
			c0.8,0,1-0.3,1.1-1.9c0.4,0.3,1.1,0.5,1.5,0.6c-0.2,2.1-0.8,2.8-2.5,2.8h-3.2c-2,0-2.6-0.5-2.6-2.6v-3.9l-1.1,0.5l-0.7-1.6L349,57
			v-3.8l2.1,0.1c0,0.1-0.1,0.2-0.4,0.3v2.7l1.2-0.5v-4l2,0.1c0,0.1-0.1,0.2-0.4,0.3v2.9l1.5-0.6l0.4-0.3l1.4,0.5
			c0,0.1-0.1,0.2-0.2,0.2c0,2.8,0,4.6-0.1,5.2c-0.1,1.1-0.8,1.4-2.3,1.4c0-0.5-0.2-1.1-0.4-1.5c0.3,0,0.6,0,0.7,0
			c0.2,0,0.3,0,0.3-0.3c0-0.2,0-1.3,0-3.5l-1.3,0.6v5.3h-1.6v-4.6l-1.2,0.5V62.8z"/>
		<path class="st1" d="M363.1,58.7c0,1-0.9,1.9-1.9,1.9c-1,0-1.9-0.9-1.9-1.9s0.9-1.9,1.9-1.9C362.3,56.8,363.1,57.7,363.1,58.7z"/>
		<path class="st1" d="M371.1,59l0.1,1.5c-0.5,0.1-1.1,0.3-1.6,0.4v4.8h-1.7v-4.4c-0.7,0.1-1.3,0.3-1.8,0.4c0,0.1-0.1,0.2-0.3,0.2
			l-0.6-1.9c0.7-0.1,1.6-0.3,2.6-0.4v-3.2H367c-0.1,0.8-0.3,1.5-0.5,2.1c-0.3-0.2-0.9-0.5-1.3-0.7c0.4-1.2,0.5-3.3,0.6-5.2l1.8,0.4
			c0,0.1-0.1,0.2-0.4,0.2c0,0.5-0.1,1-0.1,1.6h0.7v-3l2.1,0.1c0,0.1-0.1,0.2-0.4,0.3v2.6h1.3v1.7h-1.3v2.9L371.1,59z M378,54.5
			l1,0.1l0,0.6c-0.2,6.6-0.5,9-1,9.7c-0.4,0.6-0.8,0.8-2,0.8c-0.2,0-0.4,0-0.6,0c0-0.5-0.2-1.1-0.4-1.6c-0.2,0.6-0.5,1.1-0.8,1.6
			c-0.4-0.2-1-0.6-1.5-0.8c1.6-1.9,2.4-5.6,2.7-8.6h-0.6c-0.5,2.8-1.5,6.2-2.8,8.1c-0.4-0.3-1-0.6-1.6-0.8c1.4-1.6,2.4-4.7,3-7.3
			h-0.5c-0.4,1.1-0.8,2.2-1.3,3c-0.3-0.3-0.9-0.7-1.3-1c0.9-1.4,1.5-4,1.8-6.5l2,0.4c0,0.1-0.2,0.2-0.4,0.2
			c-0.1,0.7-0.2,1.5-0.4,2.2h4.4L378,54.5z M376.6,56.1c-0.2,2.4-0.8,5.5-1.7,7.7c0.4,0,0.8,0,1,0c0.2,0,0.4-0.1,0.5-0.3
			c0.3-0.4,0.6-2.3,0.8-7.5H376.6z"/>
		<path class="st1" d="M385.1,52.5c-0.1,0.1-0.2,0.2-0.4,0.2c-0.4,0.9-0.8,1.9-1.3,2.8l0.5,0.1c0,0.1-0.1,0.2-0.4,0.2v9.8h-1.7v-7.6
			c-0.4,0.6-0.8,1.2-1.3,1.6c-0.2-0.4-0.6-1.4-0.8-1.8c1.3-1.4,2.6-3.8,3.4-6.2L385.1,52.5z M394,59.2v1.7h-3.9v4.8h-1.8v-4.8h-4.1
			v-1.7h4.1v-2.8h-2.1c-0.3,0.7-0.6,1.4-1,1.9c-0.3-0.3-1-0.6-1.4-0.9c0.8-1.2,1.5-3.2,1.9-5l2,0.5c0,0.1-0.2,0.2-0.4,0.2
			c-0.1,0.5-0.3,1-0.5,1.5h1.4v-2.7l2.2,0.1c0,0.1-0.1,0.3-0.4,0.3v2.3h3.4v1.7h-3.4v2.8H394z"/>
		<path class="st1" d="M347.8,74.9c-0.1,0.1-0.2,0.2-0.4,0.2c-0.6,5-2.1,7.9-4.6,7.9c-1.6,0-2.8-1.4-2.8-3.9c0-3.8,3-6.5,6.8-6.5
			c4.2,0,6.3,2.5,6.3,5.7c0,3.5-1.8,5.3-5.5,6.2c-0.3-0.4-0.7-1.1-1.2-1.6c3.4-0.7,4.7-2.3,4.7-4.6c0-2.4-1.6-4-4.4-4
			c-0.3,0-0.5,0-0.8,0.1L347.8,74.9z M345.4,74.6c-2.2,0.5-3.7,2.5-3.7,4.6c0,1.2,0.4,2.1,1,2.1C344.2,81.2,345.2,78,345.4,74.6z"/>
		<path class="st1" d="M359.1,77.7l0.2,1.5l-1.5,0.5v3.5c0,1.5-0.5,2-2.8,2c-0.1-0.5-0.3-1.2-0.5-1.7c0.3,0,0.7,0,1,0
			c0.6,0,0.7,0,0.7-0.3v-3l-1.4,0.4c0,0.1-0.1,0.2-0.3,0.3l-0.5-1.9c0.6-0.1,1.3-0.3,2.1-0.5v-2.7h-1.9v-1.6h1.9v-2.8l2.1,0.1
			c0,0.1-0.1,0.2-0.4,0.3v2.5h1.5v1.6h-1.5v2.2L359.1,77.7z M364.3,81.9v1.4c0.4,0.1,0.8,0.1,1.3,0.1c0.4,0,2,0,2.6,0
			c-0.2,0.4-0.4,1.1-0.5,1.5h-2.2c-1.9,0-3.5-0.4-4.6-1.8c-0.3,0.9-0.8,1.6-1.4,2.2c-0.3-0.3-0.9-0.7-1.3-0.9c1.1-1,1.6-2.8,1.8-4.7
			l1.9,0.3c0,0.1-0.1,0.2-0.4,0.2c-0.1,0.4-0.1,0.8-0.2,1.1c0.3,0.7,0.7,1.1,1.2,1.4v-3.5h-3.1v-1.5h8.5v1.5h-3.6v1.2h2.9v1.4H364.3
			z M367.1,71.9v5.2H360v-5.2H367.1z M365.4,73.9v-0.7h-3.9v0.7H365.4z M365.4,75.8v-0.8h-3.9v0.8H365.4z"/>
		<path class="st1" d="M382.5,81.9H378c1.3,0.8,3.2,1.4,5,1.7c-0.4,0.4-0.9,1-1.1,1.5c-1.9-0.5-3.8-1.4-5.2-2.5v2.6h-1.8v-2.6
			c-1.4,1.1-3.2,2-5.1,2.4c-0.2-0.4-0.7-1.1-1.1-1.4c1.8-0.3,3.6-1,4.9-1.8h-4.5v-1.5h5.8v-1c-1.2,0.3-2.7,0.5-4.6,0.6
			c-0.1-0.4-0.3-1-0.6-1.4c2-0.1,3.5-0.3,4.6-0.5c-0.4-0.1-0.8-0.2-1.2-0.3l-0.2,0.2l-1.7-0.5c0.3-0.4,0.7-0.9,1.1-1.4h-3.2v-1.4
			h4.3c0.3-0.4,0.6-0.8,0.8-1.1h-3v0.8h-1.6v-2.3h5.2v-1l2.2,0.1c0,0.2-0.1,0.2-0.4,0.3v0.6h5.3v2.3h-1.7v-0.8h-5.6l1.6,0.5
			c-0.1,0.1-0.2,0.2-0.4,0.2l-0.3,0.5h6.9v1.4h-2.7l-0.1,0c-0.3,0.6-0.7,1.1-1.2,1.6c1.2,0.4,2.4,0.7,3.2,1l-1.1,1.2
			c-0.9-0.4-2.3-0.8-3.8-1.3c-0.5,0.2-1.1,0.4-1.8,0.6l2,0.1c0,0.1-0.1,0.2-0.4,0.3v0.6h5.9V81.9z M374.4,76.3l-0.4,0.5
			c0.8,0.2,1.7,0.4,2.5,0.6c0.5-0.3,0.8-0.7,1.1-1.1H374.4z"/>
	</g>
</g>
</svg>
