<svg id="Layer_1" data-name="Layer 1" xmlns="http://www.w3.org/2000/svg" xmlns:xlink="http://www.w3.org/1999/xlink" width="341.12" height="113.51" viewBox="0 0 341.12 113.51"><defs><style>.cls-1{fill:none;}.cls-2{clip-path:url(#clip-path);}.cls-3{fill:#dde4ee;}.cls-4{fill:#010101;}</style><clipPath id="clip-path"><rect class="cls-1" width="341.12" height="113.51"/></clipPath></defs><g class="cls-2"><path class="cls-3" d="M4.92,84.32l15.24-3c.48,11.52,3.24,19,11,19,5.64,0,8-3.84,8-9.12,0-8.4-4.32-13.08-10.68-18.6L16.32,61.88C9.36,55.88,5,49.16,5,38.36c0-15.36,9.6-24,25.08-24,18.24,0,23.4,12.24,24.36,26.4L39.24,43.4c-.36-9.12-1.68-16-9.48-16-5.28,0-8.16,4-8.16,9.12,0,6.6,2.76,10.2,7.92,14.64L41.64,61.88c7.92,6.84,14.52,15.36,14.52,28.2,0,14-9.84,23.88-24.36,23.88C14,114,5.64,103.64,4.92,84.32Z"/><path class="cls-3" d="M64.2,88.28V67.64c0-16.68,7-25.44,22.32-25.44,16.32,0,21.48,9.6,21.48,26.52v10H80.4V92.36c0,6.84,2,9.6,6.24,9.6s5.88-3,5.88-9V87.08h15.36v4.8c0,14-7.08,21.84-21.36,21.84C70.92,113.72,64.2,104.72,64.2,88.28ZM92.52,70.64V64c0-7-1.44-10.08-6-10.08S80.4,56.72,80.4,65.84v4.8Z"/><path class="cls-3" d="M119.4,43.28h16.32V54c4.68-8.16,9.24-11.52,15.12-11.52a9.41,9.41,0,0,1,2.52.24V59.6a19.09,19.09,0,0,0-6.72-1.44c-4.32,0-7.8,2-10.92,6.72v47.76H119.4Z"/><path class="cls-3" d="M156.72,43.28h15.84l7.08,49.8,7-49.8h15.72l-13.8,69.36H170.4Z"/><path class="cls-3" d="M210.36,18.68h16.32V32.24H210.36Zm0,24.6h16.32v69.36H210.36Z"/><path class="cls-3" d="M238.32,88.4V67.52c0-16,6.24-25.32,22.19-25.32,14.88,0,21.24,7.2,21.24,21.36v5.76H266.39V63.2c0-7.2-1.56-9.48-5.76-9.48-4.68,0-6,2.88-6,11.76V90.92c0,8.88,1.8,11.28,6,11.28,4.68,0,5.76-3.24,5.76-9.36V85.4h15.36V92c0,14-6.48,21.72-21.24,21.72C244.44,113.72,238.32,104,238.32,88.4Z"/><path class="cls-3" d="M291.24,88.28V67.64c0-16.68,6.95-25.44,22.31-25.44,16.32,0,21.48,9.6,21.48,26.52v10h-27.6V92.36c0,6.84,2,9.6,6.24,9.6s5.88-3,5.88-9V87.08h15.36v4.8c0,14-7.08,21.84-21.36,21.84C298,113.72,291.24,104.72,291.24,88.28Zm28.31-17.64V64c0-7-1.44-10.08-6-10.08s-6.12,2.76-6.12,11.88v4.8Z"/></g><path class="cls-4" d="M2.2,64H9.4c5.11,0,8.53,1.73,8.53,7.49,0,3.56-1.48,5.54-4.22,6,3.42.64,5,3.09,5,7.2,0,5.57-2.73,8.49-8.13,8.49H2.2ZM9.32,75.94c3.17,0,4-1.41,4-4.36s-1.51-3.85-4.75-3.85H7.49v8.21Zm.22,13.5c3.24,0,4.14-1.52,4.14-4.79,0-3.46-1.15-5-4.32-5H7.49v9.83Z"/><path class="cls-4" d="M21.78,88.93V72.37h4.86V88c0,1.23.32,2,1.44,2a4.17,4.17,0,0,0,2.19-1V72.37h4.9V93.18h-4.9v-2a7.27,7.27,0,0,1-5,2.3C22.75,93.5,21.78,91.34,21.78,88.93Z"/><path class="cls-4" d="M37.87,88l3.64-1.41c.54,2.27,1.51,3.49,3,3.49a1.53,1.53,0,0,0,1.73-1.62c0-1.15-.61-1.9-2.31-3.31L41.47,83c-1.87-1.54-3.09-3-3.09-5.5,0-3.35,2.55-5.44,5.9-5.44s5.4,2.2,6,5.4l-3.2,1.37c-.36-1.73-1.19-3.28-2.67-3.28a1.57,1.57,0,0,0-1.65,1.66c0,.79.72,1.65,2,2.73l2.52,2.31C49,83.68,50.69,85.33,50.69,88c0,3.63-2.7,5.5-6.09,5.5S38.81,91.6,37.87,88Z"/><path class="cls-4" d="M53.5,65h4.89v4.06H53.5Zm0,7.37h4.89V93.18H53.5Z"/><path class="cls-4" d="M62.28,72.37h4.89v2.06a7.39,7.39,0,0,1,5-2.38c2.52,0,3.53,2.16,3.53,4.57V93.18H70.85V77.59c0-1.26-.29-1.94-1.41-1.94a4.32,4.32,0,0,0-2.27,1V93.18H62.28Z"/><path class="cls-4" d="M79,85.87V79.68c0-5,2.09-7.63,6.69-7.63,4.9,0,6.45,2.88,6.45,8v3H83.81V87.1c0,2.05.61,2.88,1.87,2.88s1.76-.9,1.76-2.7V85.51h4.61V87c0,4.21-2.12,6.55-6.41,6.55C81,93.5,79,90.8,79,85.87Zm8.49-5.29v-2c0-2.09-.43-3-1.8-3s-1.83.83-1.83,3.56v1.44Z"/><path class="cls-4" d="M94.32,88,98,86.59c.55,2.27,1.52,3.49,3,3.49a1.53,1.53,0,0,0,1.73-1.62c0-1.15-.62-1.9-2.31-3.31L97.92,83c-1.87-1.54-3.1-3-3.1-5.5,0-3.35,2.56-5.44,5.91-5.44s5.4,2.2,6,5.4l-3.21,1.37c-.36-1.73-1.18-3.28-2.66-3.28a1.57,1.57,0,0,0-1.66,1.66c0,.79.72,1.65,2,2.73l2.52,2.31c1.66,1.44,3.38,3.09,3.38,5.76,0,3.63-2.7,5.5-6.08,5.5S95.25,91.6,94.32,88Z"/><path class="cls-4" d="M108.72,88l3.63-1.41c.54,2.27,1.52,3.49,3,3.49a1.53,1.53,0,0,0,1.73-1.62c0-1.15-.62-1.9-2.31-3.31L112.32,83c-1.87-1.54-3.1-3-3.1-5.5,0-3.35,2.56-5.44,5.91-5.44s5.4,2.2,6,5.4l-3.21,1.37c-.36-1.73-1.18-3.28-2.66-3.28a1.57,1.57,0,0,0-1.65,1.66c0,.79.71,1.65,2,2.73l2.52,2.31c1.66,1.44,3.38,3.09,3.38,5.76,0,3.63-2.7,5.5-6.08,5.5C111.92,93.5,109.66,91.6,108.72,88Z"/><path class="cls-4" d="M132.64,75.36h3.87c3.7,0,4.84,2.09,4.84,5.23v7.09c0,3.32-1.12,5.5-4.69,5.5h-4Zm3.91,16.57c2.82,0,3.08-1.92,3.08-4.52V80.77c0-2.66-.48-4.11-3.14-4.11h-2.18V91.93Z"/><path class="cls-4" d="M143.53,88.41V85.19c0-3.76,1.1-4.93,3.45-4.93,2.66,0,3.3,1.68,3.3,5.26v1.15h-5.15v2.22c0,2.49.53,3.28,1.83,3.28,1,0,1.74-.44,1.74-2.44v-.88h1.56v.7c0,2.31-.84,3.83-3.3,3.83S143.53,92.1,143.53,88.41Zm5.17-2.67v-1c0-2-.18-3.22-1.74-3.22-1.32,0-1.83.71-1.83,3.41v.86Z"/><path class="cls-4" d="M151.62,80.46h1.63l2.07,10.87,2.05-10.87h1.56l-2.66,12.72h-1.9Z"/><path class="cls-4" d="M160.31,88.41V85.19c0-3.76,1.1-4.93,3.46-4.93,2.66,0,3.3,1.68,3.3,5.26v1.15h-5.15v2.22c0,2.49.53,3.28,1.83,3.28,1,0,1.73-.44,1.73-2.44v-.88h1.57v.7c0,2.31-.84,3.83-3.3,3.83S160.31,92.1,160.31,88.41Zm5.17-2.67v-1c0-2-.17-3.22-1.73-3.22-1.32,0-1.83.71-1.83,3.41v.86Z"/><path class="cls-4" d="M169.46,75.36h1.61V93.18h-1.61Z"/><path class="cls-4" d="M173.45,88.58V85.06c0-3.06.75-4.8,3.38-4.8s3.42,1.72,3.42,4.8v3.52c0,3.08-.75,4.8-3.42,4.8S173.45,91.66,173.45,88.58Zm5.17.09V85c0-2.07-.11-3.5-1.79-3.5s-1.75,1.43-1.75,3.5v3.7c0,2.07.11,3.5,1.75,3.5S178.62,90.74,178.62,88.67Z"/><path class="cls-4" d="M182.47,80.46h1.6v1.06a3.08,3.08,0,0,1,2.45-1.26c2.46,0,2.88,2.51,2.88,5.06V88c0,3.26-.68,5.37-3.06,5.37a3.12,3.12,0,0,1-2.27-1.21v5.19h-1.6Zm5.32,7.59V85.32c0-2.48-.24-3.8-1.74-3.8a3,3,0,0,0-2,1v8.67a2.83,2.83,0,0,0,2,.92C187.53,92.1,187.79,90.69,187.79,88.05Z"/><path class="cls-4" d="M191.64,80.46h1.5v1.3a3.91,3.91,0,0,1,3-1.52,2,2,0,0,1,2,1.65,4,4,0,0,1,3.13-1.65c1.12,0,2.15.68,2.15,2.91v10h-1.49v-10c0-1.5-.55-1.85-1.28-1.85a3.58,3.58,0,0,0-2.4,1.32,2.54,2.54,0,0,1,.05.49v10h-1.52v-10c0-1.5-.53-1.85-1.28-1.85a3.59,3.59,0,0,0-2.37,1.3V93.18h-1.5Z"/><path class="cls-4" d="M205.57,88.41V85.19c0-3.76,1.1-4.93,3.45-4.93,2.66,0,3.3,1.68,3.3,5.26v1.15h-5.15v2.22c0,2.49.53,3.28,1.83,3.28,1,0,1.74-.44,1.74-2.44v-.88h1.56v.7c0,2.31-.84,3.83-3.3,3.83S205.57,92.1,205.57,88.41Zm5.17-2.67v-1c0-2-.18-3.22-1.74-3.22-1.32,0-1.83.71-1.83,3.41v.86Z"/><path class="cls-4" d="M214.5,80.46h1.6v1.32a4.26,4.26,0,0,1,3.06-1.52c1.26,0,2,1,2,2.71V93.18h-1.6V83.32c0-1.32-.4-1.8-1.22-1.8a3.34,3.34,0,0,0-2.2,1.19V93.18h-1.6Z"/><path class="cls-4" d="M224.22,90.54v-9h-1.56V80.46h1.56V76.52h1.61v3.94h2.11v1.06h-2.11v8.87c0,1.23.17,1.69,1.12,1.69a4.42,4.42,0,0,0,.92-.11V93.2a7.11,7.11,0,0,1-1.36.13C224.64,93.33,224.22,92.17,224.22,90.54Z"/></svg>