<svg id="Layer_1" data-name="Layer 1" xmlns="http://www.w3.org/2000/svg" xmlns:xlink="http://www.w3.org/1999/xlink" width="341.12" height="113.51" viewBox="0 0 341.12 113.51"><defs><style>.cls-1{fill:none;}.cls-2{clip-path:url(#clip-path);}.cls-3{fill:#dde4ee;}.cls-4{fill:#010101;}</style><clipPath id="clip-path"><rect class="cls-1" width="341.12" height="113.51"/></clipPath></defs><g class="cls-2"><path class="cls-3" d="M5.76,81.56V46.88c0-19.92,6.36-32.52,27.72-32.52,19.92,0,26.28,11,26.28,28v8.16h-17v-8.4c0-8.16-.12-14.76-9.12-14.76s-10,7-10,15.84V85.28c0,10.56,2.16,15.6,10,15.6,8.76,0,9.12-6.84,9.12-15.48V76.64h17v7.8C59.76,101.6,54,114,33.48,114,12.12,114,5.76,100.52,5.76,81.56Z"/><path class="cls-3" d="M69.48,97.28c0-17.28,14-22.56,28-27.72v-6c0-5.88-.84-9.24-5.52-9.24-4.2,0-5.64,3.12-5.76,7.68l-.24,4.2-15.48-.6c.48-16,7.68-23.4,22.8-23.4,13.92,0,20,8.16,20,21.36v32a126.48,126.48,0,0,0,1.2,17H99.84c-.6-3.12-1.44-8-1.68-10-1.68,5.52-6,11-13.68,11C75.12,113.72,69.48,105.32,69.48,97.28Zm28-.24V77.6c-7.2,4.2-12.6,8.16-12.6,15.72,0,5.16,2,8.28,5.64,8.28C93.6,101.6,96.24,98.84,97.44,97Z"/><path class="cls-3" d="M121.68,95.36l12.12-4.68c1.8,7.56,5,11.64,10.08,11.64,3.72,0,5.76-2,5.76-5.4,0-3.84-2-6.36-7.68-11l-8.28-7.2c-6.24-5.16-10.32-10-10.32-18.36,0-11.16,8.52-18.12,19.68-18.12s18,7.32,20,18L152.4,64.76c-1.2-5.76-4-10.92-8.88-10.92A5.23,5.23,0,0,0,138,59.36c0,2.64,2.4,5.52,6.72,9.12l8.4,7.68c5.52,4.8,11.28,10.32,11.28,19.2,0,12.12-9,18.36-20.28,18.36C132.36,113.72,124.8,107.36,121.68,95.36Z"/><path class="cls-3" d="M172,88.28V67.64c0-16.68,7-25.44,22.32-25.44,16.32,0,21.48,9.6,21.48,26.52v10h-27.6V92.36c0,6.84,2,9.6,6.24,9.6s5.88-3,5.88-9V87.08h15.36v4.8c0,14-7.08,21.84-21.36,21.84C178.68,113.72,172,104.72,172,88.28Zm28.32-17.64V64c0-7-1.44-10.08-6-10.08s-6.12,2.76-6.12,11.88v4.8Z"/></g><path class="cls-4" d="M2.2,64H9.4c5.11,0,8.53,1.73,8.53,7.49,0,3.56-1.48,5.54-4.22,6,3.42.64,5,3.09,5,7.19,0,5.58-2.73,8.5-8.13,8.5H2.2ZM9.32,75.94c3.17,0,4-1.41,4-4.36s-1.51-3.85-4.75-3.85H7.49v8.21Zm.22,13.5c3.24,0,4.14-1.52,4.14-4.79,0-3.46-1.15-5-4.32-5H7.49v9.83Z"/><path class="cls-4" d="M21.78,88.93V72.37h4.86V88c0,1.23.32,2,1.44,2a4.17,4.17,0,0,0,2.19-1V72.37h4.9V93.18h-4.9v-2a7.27,7.27,0,0,1-5,2.3C22.75,93.5,21.78,91.34,21.78,88.93Z"/><path class="cls-4" d="M37.87,88l3.64-1.41c.54,2.27,1.51,3.49,3,3.49a1.53,1.53,0,0,0,1.73-1.62c0-1.15-.61-1.9-2.31-3.31L41.47,83c-1.87-1.55-3.09-3-3.09-5.5,0-3.35,2.55-5.44,5.9-5.44s5.4,2.2,6,5.4l-3.2,1.37c-.36-1.73-1.19-3.28-2.67-3.28a1.57,1.57,0,0,0-1.65,1.66c0,.79.72,1.65,2,2.73l2.52,2.31C49,83.68,50.69,85.33,50.69,88c0,3.63-2.7,5.5-6.09,5.5S38.81,91.6,37.87,88Z"/><path class="cls-4" d="M53.5,65h4.89v4.06H53.5Zm0,7.37h4.89V93.18H53.5Z"/><path class="cls-4" d="M62.28,72.37h4.89v2.06a7.39,7.39,0,0,1,5-2.38c2.52,0,3.53,2.16,3.53,4.57V93.18H70.85V77.59c0-1.26-.29-1.94-1.41-1.94a4.32,4.32,0,0,0-2.27,1V93.18H62.28Z"/><path class="cls-4" d="M79,85.87V79.68c0-5,2.09-7.63,6.69-7.63,4.9,0,6.45,2.88,6.45,8v3H83.81V87.1c0,2.05.61,2.88,1.87,2.88s1.76-.9,1.76-2.7V85.51h4.61V87c0,4.21-2.12,6.55-6.41,6.55C81,93.5,79,90.8,79,85.87Zm8.49-5.29v-2c0-2.09-.43-3-1.8-3s-1.83.83-1.83,3.56v1.44Z"/><path class="cls-4" d="M94.32,88,98,86.59c.55,2.27,1.52,3.49,3,3.49a1.53,1.53,0,0,0,1.73-1.62c0-1.15-.62-1.9-2.31-3.31L97.92,83c-1.87-1.55-3.1-3-3.1-5.5,0-3.35,2.56-5.44,5.91-5.44s5.4,2.2,6,5.4l-3.21,1.37c-.36-1.73-1.18-3.28-2.66-3.28a1.57,1.57,0,0,0-1.66,1.66c0,.79.72,1.65,2,2.73l2.52,2.31c1.66,1.44,3.38,3.09,3.38,5.76,0,3.63-2.7,5.5-6.08,5.5S95.25,91.6,94.32,88Z"/><path class="cls-4" d="M108.72,88l3.63-1.41c.54,2.27,1.52,3.49,3,3.49a1.53,1.53,0,0,0,1.73-1.62c0-1.15-.62-1.9-2.31-3.31L112.32,83c-1.87-1.55-3.1-3-3.1-5.5,0-3.35,2.56-5.44,5.91-5.44s5.4,2.2,6,5.4l-3.21,1.37c-.36-1.73-1.18-3.28-2.66-3.28a1.57,1.57,0,0,0-1.65,1.66c0,.79.71,1.65,2,2.73l2.52,2.31c1.66,1.44,3.38,3.09,3.38,5.76,0,3.63-2.7,5.5-6.08,5.5C111.92,93.5,109.66,91.6,108.72,88Z"/><path class="cls-4" d="M132.64,75.36h3.87c3.7,0,4.84,2.09,4.84,5.23v7.09c0,3.32-1.12,5.5-4.69,5.5h-4Zm3.91,16.56c2.82,0,3.08-1.91,3.08-4.51V80.77c0-2.66-.48-4.12-3.14-4.12h-2.18V91.92Z"/><path class="cls-4" d="M143.53,88.4V85.19c0-3.76,1.1-4.93,3.45-4.93,2.66,0,3.3,1.68,3.3,5.26v1.15h-5.15v2.22c0,2.48.53,3.28,1.83,3.28,1,0,1.74-.44,1.74-2.45v-.88h1.56v.71c0,2.31-.84,3.83-3.3,3.83S143.53,92.1,143.53,88.4Zm5.17-2.66v-1c0-2-.18-3.22-1.74-3.22-1.32,0-1.83.71-1.83,3.41v.86Z"/><path class="cls-4" d="M151.62,80.46h1.63l2.07,10.87,2.05-10.87h1.56l-2.66,12.72h-1.9Z"/><path class="cls-4" d="M160.31,88.4V85.19c0-3.76,1.1-4.93,3.46-4.93,2.66,0,3.3,1.68,3.3,5.26v1.15h-5.15v2.22c0,2.48.53,3.28,1.83,3.28,1,0,1.73-.44,1.73-2.45v-.88h1.57v.71c0,2.31-.84,3.83-3.3,3.83S160.31,92.1,160.31,88.4Zm5.17-2.66v-1c0-2-.17-3.22-1.73-3.22-1.32,0-1.83.71-1.83,3.41v.86Z"/><path class="cls-4" d="M169.46,75.36h1.61V93.18h-1.61Z"/><path class="cls-4" d="M173.45,88.58V85.06c0-3.06.75-4.8,3.38-4.8s3.42,1.72,3.42,4.8v3.52c0,3.08-.75,4.8-3.42,4.8S173.45,91.66,173.45,88.58Zm5.17.09V85c0-2.07-.11-3.5-1.79-3.5s-1.75,1.43-1.75,3.5v3.7c0,2.07.11,3.5,1.75,3.5S178.62,90.74,178.62,88.67Z"/><path class="cls-4" d="M182.47,80.46h1.6v1.06a3.08,3.08,0,0,1,2.45-1.26c2.46,0,2.88,2.51,2.88,5.06V88c0,3.25-.68,5.37-3.06,5.37a3.12,3.12,0,0,1-2.27-1.21v5.19h-1.6Zm5.32,7.59V85.32c0-2.48-.24-3.8-1.74-3.8a3,3,0,0,0-2,1v8.67a2.83,2.83,0,0,0,2,.92C187.53,92.1,187.79,90.69,187.79,88.05Z"/><path class="cls-4" d="M191.64,80.46h1.5v1.3a3.91,3.91,0,0,1,3-1.52,2,2,0,0,1,2,1.65,4,4,0,0,1,3.13-1.65c1.12,0,2.15.68,2.15,2.91v10h-1.49v-10c0-1.5-.55-1.85-1.28-1.85a3.58,3.58,0,0,0-2.4,1.32,2.54,2.54,0,0,1,.05.49v10h-1.52v-10c0-1.5-.53-1.85-1.28-1.85a3.59,3.59,0,0,0-2.37,1.3V93.18h-1.5Z"/><path class="cls-4" d="M205.57,88.4V85.19c0-3.76,1.1-4.93,3.45-4.93,2.66,0,3.3,1.68,3.3,5.26v1.15h-5.15v2.22c0,2.48.53,3.28,1.83,3.28,1,0,1.74-.44,1.74-2.45v-.88h1.56v.71c0,2.31-.84,3.83-3.3,3.83S205.57,92.1,205.57,88.4Zm5.17-2.66v-1c0-2-.18-3.22-1.74-3.22-1.32,0-1.83.71-1.83,3.41v.86Z"/><path class="cls-4" d="M214.5,80.46h1.6v1.32a4.26,4.26,0,0,1,3.06-1.52c1.26,0,2,1,2,2.71V93.18h-1.6V83.32c0-1.32-.4-1.8-1.22-1.8a3.34,3.34,0,0,0-2.2,1.19V93.18h-1.6Z"/><path class="cls-4" d="M224.22,90.54v-9h-1.56V80.46h1.56V76.52h1.61v3.94h2.11v1.06h-2.11v8.86c0,1.24.17,1.7,1.12,1.7a4.42,4.42,0,0,0,.92-.11V93.2a7.11,7.11,0,0,1-1.36.13C224.64,93.33,224.22,92.17,224.22,90.54Z"/><path class="cls-4" d="M234.1,87.83V80.75c0-3.28,1-5.57,4.51-5.57,3.19,0,4.23,2,4.23,5.06v1.08h-1.59v-1c0-2.32-.39-3.77-2.62-3.77-2.42,0-2.84,1.61-2.84,4V88.1c0,2.64.64,4,2.84,4s2.62-1.54,2.62-3.88V87h1.59v1c0,3.13-.91,5.33-4.23,5.33C235,93.4,234.1,90.93,234.1,87.83Z"/><path class="cls-4" d="M244.77,90.54c0-2.55,1.39-3.41,5.13-5.08v-.91c0-2.31-.38-3.08-1.59-3.08-1,0-1.78.51-1.78,2.18v.44l-1.58,0c0-2.57,1-3.81,3.45-3.81,2.27,0,3.1,1.35,3.1,4.21v6.18c0,.66.05,2.07.11,2.53h-1.43c-.06-.55-.19-1.37-.24-1.76a2.78,2.78,0,0,1-2.62,2A2.62,2.62,0,0,1,244.77,90.54Zm5.13,0v-4c-2.51,1.32-3.52,1.87-3.52,3.61,0,1.35.68,1.87,1.45,1.87A2.6,2.6,0,0,0,249.9,90.5Z"/><path class="cls-4" d="M253.31,89.77l1.34-.42c.17,2,.92,2.82,2.22,2.82a1.62,1.62,0,0,0,1.74-1.81,3.42,3.42,0,0,0-1.54-2.55l-1.74-1.5a3.87,3.87,0,0,1-1.74-3.19,2.73,2.73,0,0,1,3-2.86c1.94,0,2.9,1.39,3,3.35L258.5,84c-.09-1.71-.71-2.51-1.8-2.51A1.47,1.47,0,0,0,255.07,83a2.47,2.47,0,0,0,1,2l1.81,1.6c1,.93,2.11,1.94,2.11,3.7,0,2-1.3,3.06-3.26,3.06S253.48,92,253.31,89.77Z"/><path class="cls-4" d="M261.6,88.4V85.19c0-3.76,1.1-4.93,3.45-4.93,2.67,0,3.31,1.68,3.31,5.26v1.15h-5.15v2.22c0,2.48.52,3.28,1.82,3.28,1,0,1.74-.44,1.74-2.45v-.88h1.56v.71c0,2.31-.83,3.83-3.3,3.83S261.6,92.1,261.6,88.4Zm5.17-2.66v-1c0-2-.18-3.22-1.74-3.22-1.32,0-1.82.71-1.82,3.41v.86Z"/><path class="cls-4" d="M270,89.77l1.34-.42c.18,2,.93,2.82,2.23,2.82a1.62,1.62,0,0,0,1.74-1.81,3.45,3.45,0,0,0-1.54-2.55L272,86.31a3.84,3.84,0,0,1-1.74-3.19,2.73,2.73,0,0,1,3-2.86c1.94,0,2.91,1.39,3,3.35l-1.15.37c-.08-1.71-.7-2.51-1.8-2.51A1.47,1.47,0,0,0,271.74,83a2.45,2.45,0,0,0,1,2l1.8,1.6c1,.93,2.11,1.94,2.11,3.7,0,2-1.3,3.06-3.25,3.06S270.16,92,270,89.77Z"/></svg>