<svg id="Layer_1" data-name="Layer 1" xmlns="http://www.w3.org/2000/svg" xmlns:xlink="http://www.w3.org/1999/xlink" width="211.12" height="113.51" viewBox="0 0 211.12 113.51"><defs><style>.cls-1{fill:none;}.cls-2{clip-path:url(#clip-path);}.cls-3{fill:#dde4ee;}.cls-4{fill:#010101;}.cls-5{clip-path:url(#clip-path-2);}</style><clipPath id="clip-path"><rect class="cls-1" width="211.12" height="113.51"/></clipPath><clipPath id="clip-path-2"><rect class="cls-1" y="-123.57" width="281.12" height="113.51"/></clipPath></defs><g class="cls-2"><path class="cls-3" d="M7.32,15.44h40V27.68H25V56H43.2V68.36H25v44.27H7.32Z"/><path class="cls-3" d="M56.88,15.44h16.2v97.19H56.88Z"/><path class="cls-3" d="M84.84,89.59V66.32C84.84,51,91.92,42.2,107,42.2S129.36,51,129.36,66.32V89.59c0,15.36-7.2,24.12-22.32,24.12S84.84,105,84.84,89.59Zm28.44,1.2V65.24c0-6.48-.6-11.76-6.12-11.76s-6.24,5.28-6.24,11.76V90.79c0,6.36.6,11.64,6.24,11.64S113.28,97.27,113.28,90.79Z"/><path class="cls-3" d="M136.68,43.28h13.56l6.12,45.11,7.32-45.11h12l6.83,45.35L189,43.28H202L191,112.63h-13.8l-7.68-43.79-8,43.79H147.36Z"/></g><path class="cls-4" d="M2.19,64h12v3.67H7.49v8.5H13v3.7H7.49V93.18H2.19Z"/><path class="cls-4" d="M17.06,64h4.86V93.18H17.06Z"/><path class="cls-4" d="M25.45,86.26v-7c0-4.61,2.12-7.23,6.66-7.23s6.69,2.62,6.69,7.23v7c0,4.61-2.16,7.24-6.69,7.24S25.45,90.87,25.45,86.26Zm8.53.36V79c0-1.95-.18-3.53-1.84-3.53S30.27,77,30.27,79v7.66c0,1.91.18,3.49,1.87,3.49S34,88.57,34,86.62Z"/><path class="cls-4" d="M41,72.37h4.07L46.9,85.9l2.2-13.53h3.6l2,13.61,2-13.61h3.88L57.31,93.18H53.17L50.86,80,48.45,93.18H44.21Z"/><path class="cls-4" d="M71.22,88.58V85.06c0-3.06.75-4.8,3.39-4.8S78,82,78,85.06v3.52c0,3.08-.75,4.79-3.41,4.79S71.22,91.66,71.22,88.58Zm5.17.08V85c0-2.07-.11-3.5-1.78-3.5S72.85,82.9,72.85,85v3.69c0,2.07.11,3.5,1.76,3.5S76.39,90.73,76.39,88.66Z"/><path class="cls-4" d="M81,81.62H79.41V80.46H81V79.14c0-1.9.24-3.24,2.33-3.24a5,5,0,0,1,1.3.16v1.18a4.71,4.71,0,0,0-.91-.11c-1,0-1.1.6-1.1,1.85v1.48h2v1.16h-2V93.18H81Z"/><path class="cls-4" d="M93.16,76.65H89.79v-1.3h8.32v1.3H94.83V93.18H93.16Z"/><path class="cls-4" d="M99.84,80.46h1.63V82.2a3.5,3.5,0,0,1,2.93-1.88,1.13,1.13,0,0,1,.29,0v1.71a3.11,3.11,0,0,0-.8-.13,2.69,2.69,0,0,0-2.42,1.48v9.77H99.84Z"/><path class="cls-4" d="M105.85,90.53c0-2.55,1.39-3.41,5.13-5.08v-.9c0-2.31-.38-3.08-1.59-3.08-1,0-1.78.51-1.78,2.18v.44l-1.58,0c0-2.58,1-3.81,3.45-3.81,2.27,0,3.1,1.34,3.1,4.2v6.18c0,.66,0,2.07.11,2.54h-1.43c-.06-.56-.19-1.37-.24-1.77a2.76,2.76,0,0,1-2.62,2A2.61,2.61,0,0,1,105.85,90.53Zm5.13,0v-4c-2.51,1.32-3.52,1.87-3.52,3.61,0,1.34.68,1.87,1.45,1.87A2.59,2.59,0,0,0,111,90.49Z"/><path class="cls-4" d="M114.94,80.46h1.6v1.32a4.26,4.26,0,0,1,3.06-1.52c1.26,0,2,1,2,2.71V93.18H120V83.32c0-1.32-.39-1.81-1.21-1.81a3.38,3.38,0,0,0-2.2,1.19V93.18h-1.6Z"/><path class="cls-4" d="M123.38,89.76l1.35-.41c.17,2,.92,2.81,2.22,2.81a1.62,1.62,0,0,0,1.74-1.8,3.41,3.41,0,0,0-1.54-2.55l-1.74-1.5a3.87,3.87,0,0,1-1.74-3.19,2.73,2.73,0,0,1,3-2.86c1.93,0,2.9,1.39,3,3.34l-1.14.38c-.09-1.72-.71-2.51-1.81-2.51A1.47,1.47,0,0,0,125.14,83a2.45,2.45,0,0,0,1,2l1.8,1.61c1,.92,2.12,1.93,2.12,3.69,0,2-1.3,3.06-3.26,3.06S123.56,92,123.38,89.76Z"/><path class="cls-4" d="M131.57,90.53c0-2.55,1.38-3.41,5.13-5.08v-.9c0-2.31-.38-3.08-1.59-3.08-1,0-1.78.51-1.78,2.18v.44l-1.59,0c0-2.58,1-3.81,3.46-3.81,2.26,0,3.1,1.34,3.1,4.2v6.18c0,.66,0,2.07.11,2.54H137c-.06-.56-.2-1.37-.24-1.77a2.77,2.77,0,0,1-2.62,2A2.61,2.61,0,0,1,131.57,90.53Zm5.13,0v-4c-2.51,1.32-3.53,1.87-3.53,3.61,0,1.34.69,1.87,1.46,1.87A2.6,2.6,0,0,0,136.7,90.49Z"/><path class="cls-4" d="M140.41,88.36v-3c0-3.53.68-5.13,3.41-5.13s3.24,1.65,3.24,4.07V85h-1.5v-.62c0-2.22-.46-2.86-1.74-2.86-1.52,0-1.8,1-1.8,3.65v3.57c0,2.55.37,3.47,1.82,3.47s1.72-1,1.72-3.06v-.7h1.5V89c0,2.57-.49,4.35-3.24,4.35C140.85,93.37,140.41,91.24,140.41,88.36Z"/><path class="cls-4" d="M149.94,90.53v-9h-1.56V80.46h1.56V76.52h1.6v3.94h2.12v1.05h-2.12v8.87c0,1.23.18,1.69,1.13,1.69a4.5,4.5,0,0,0,.92-.11V93.2a8,8,0,0,1-1.36.13C150.36,93.33,149.94,92.16,149.94,90.53Z"/><path class="cls-4" d="M155.55,76.52h1.6V78.7h-1.6Zm0,3.94h1.6V93.18h-1.6Z"/><path class="cls-4" d="M159.62,88.58V85.06c0-3.06.75-4.8,3.39-4.8s3.41,1.72,3.41,4.8v3.52c0,3.08-.75,4.79-3.41,4.79S159.62,91.66,159.62,88.58Zm5.17.08V85c0-2.07-.11-3.5-1.78-3.5s-1.76,1.43-1.76,3.5v3.69c0,2.07.11,3.5,1.76,3.5S164.79,90.73,164.79,88.66Z"/><path class="cls-4" d="M168.64,80.46h1.6v1.32a4.26,4.26,0,0,1,3.06-1.52c1.26,0,2,1,2,2.71V93.18h-1.61V83.32c0-1.32-.39-1.81-1.21-1.81a3.38,3.38,0,0,0-2.2,1.19V93.18h-1.6Z"/><path class="cls-4" d="M177.09,89.76l1.34-.41c.17,2,.92,2.81,2.22,2.81a1.62,1.62,0,0,0,1.74-1.8,3.41,3.41,0,0,0-1.54-2.55l-1.74-1.5a3.9,3.9,0,0,1-1.74-3.19,2.73,2.73,0,0,1,3-2.86c1.93,0,2.9,1.39,3,3.34l-1.14.38c-.09-1.72-.71-2.51-1.81-2.51A1.46,1.46,0,0,0,178.85,83a2.44,2.44,0,0,0,1,2l1.8,1.61c1,.92,2.12,1.93,2.12,3.69,0,2-1.3,3.06-3.26,3.06S177.26,92,177.09,89.76Z"/></svg>