<svg id="Layer_1" data-name="Layer 1" xmlns="http://www.w3.org/2000/svg" xmlns:xlink="http://www.w3.org/1999/xlink" width="291.12" height="113.51" viewBox="0 0 291.12 113.51"><defs><style>.cls-1{fill:none;}.cls-2{clip-path:url(#clip-path);}.cls-3{fill:#dde4ee;}.cls-4{clip-path:url(#clip-path-2);}.cls-5{fill:#010101;}</style><clipPath id="clip-path"><rect class="cls-1" y="-127.15" width="291.12" height="113.51"/></clipPath><clipPath id="clip-path-2"><rect class="cls-1" width="291.12" height="113.51"/></clipPath></defs><g class="cls-2"><path class="cls-3" d="M35.88-13.32a11,11,0,0,1-2,.12C12.84-13.2,5.76-25.32,5.76-45V-81.47c0-19.68,7.2-31.32,28.08-31.32s28,11.64,28,31.32V-45c0,13.91-3.72,24.23-13.44,28.79,2.88,3.48,6.6,7.44,9.72,9.36L54.72,4.92C48.84,2.16,40.68-6.12,35.88-13.32Zm8-27.47V-85.55c0-8.16-1.44-14.28-10.08-14.28S23.76-93.71,23.76-85.55v44.76c0,8,1.32,14.51,10.08,14.51S43.92-32.75,43.92-40.79Z"/></g><g class="cls-4"><path class="cls-3" d="M35.88,113.83a11,11,0,0,1-2,.12c-21,0-28.08-12.12-28.08-31.8V45.68C5.76,26,13,14.36,33.84,14.36s28,11.64,28,31.32V82.15c0,13.92-3.72,24.24-13.44,28.8,2.88,3.48,6.6,7.44,9.72,9.36l-3.36,11.76C48.84,129.31,40.68,121,35.88,113.83Zm8-27.48V41.6c0-8.16-1.44-14.28-10.08-14.28S23.76,33.44,23.76,41.6V86.35c0,8,1.32,14.52,10.08,14.52S43.92,94.39,43.92,86.35Z"/><path class="cls-3" d="M73.44,91.39c0-12.35,6.12-21.11,13.92-28.79C82.68,54,77.28,45.2,77.28,35.72c0-12.36,7.68-21.36,21-21.36,12.12,0,20.88,7.44,20.88,19.32,0,13.08-10,22.92-17.28,30.36l13,22.19c2.28-4.2,3.72-13.31,4.08-19.91h13a56,56,0,0,1-8.28,29.39,12.9,12.9,0,0,0,8.64,4.44v13.68a16.33,16.33,0,0,1-2.52.24c-6.48-.12-11.52-4.92-15.12-9C110.4,110.35,104,114,95.52,114,82.08,114,73.44,105,73.44,91.39Zm33.24,4.44L93.36,73.51a31,31,0,0,0-5.64,17.4c0,6,2.4,11,8.16,11C100.56,102,104.16,99.31,106.68,95.83Zm-1.56-62.39c0-4.44-2.88-7-6.72-7-4.44,0-6.72,4.2-6.72,9.24,0,7,2.76,14,5.16,19.68C100.92,50.12,105.12,40.88,105.12,33.44Z"/><path class="cls-3" d="M160,15.44h19l19.44,97.19H181.92l-3.84-22.44H161.16l-4,22.44H140.52Zm16.2,63.48-6.6-40.8L163,78.92Z"/></g><path class="cls-5" d="M2.2,64h7c5.84,0,9.15,1.87,9.15,7.74,0,3.49-.87,5.94-3.6,7l4.07,14.36H13.5L10,79.82H7.49V93.17H2.2Zm7,12.49c3.06,0,4.17-1.33,4.17-4.47,0-3-.82-4.39-3.88-4.39h-2v8.86Z"/><path class="cls-5" d="M21.67,85.87V79.68c0-5,2.09-7.64,6.7-7.64,4.89,0,6.44,2.88,6.44,8v3H26.53v4.1c0,2,.61,2.88,1.87,2.88s1.77-.9,1.77-2.7V85.51h4.6V87c0,4.21-2.12,6.55-6.4,6.55C23.69,93.5,21.67,90.8,21.67,85.87Zm8.5-5.29v-2c0-2.09-.44-3-1.8-3s-1.84.83-1.84,3.57v1.44Z"/><path class="cls-5" d="M37.66,88.57c0-5.19,4.21-6.77,8.38-8.32v-1.8c0-1.76-.25-2.77-1.65-2.77s-1.7.94-1.73,2.3l-.07,1.26-4.65-.18c.15-4.78,2.31-7,6.84-7,4.18,0,6,2.45,6,6.41v9.61a38.48,38.48,0,0,0,.36,5.11H46.76c-.18-.93-.43-2.41-.5-3a4.29,4.29,0,0,1-4.11,3.31A4.71,4.71,0,0,1,37.66,88.57ZM46,88.5V82.66c-2.16,1.26-3.78,2.45-3.78,4.72,0,1.55.61,2.48,1.69,2.48A2.83,2.83,0,0,0,46,88.5Z"/><path class="cls-5" d="M54.72,64h4.86V93.17H54.72Z"/><path class="cls-5" d="M72.54,64H84.78v3.74h-7v8.39H83.3v3.71H77.83v9.68h7v3.63H72.54Z"/><path class="cls-5" d="M86.08,88l3.63-1.4c.54,2.27,1.51,3.49,3,3.49a1.53,1.53,0,0,0,1.73-1.62c0-1.15-.61-1.91-2.3-3.31L89.68,83c-1.88-1.55-3.1-3-3.1-5.51,0-3.35,2.56-5.44,5.9-5.44s5.4,2.2,6,5.41l-3.2,1.36c-.36-1.73-1.19-3.27-2.66-3.27A1.57,1.57,0,0,0,91,77.19c0,.79.72,1.66,2,2.74l2.52,2.3c1.65,1.44,3.38,3.1,3.38,5.76,0,3.64-2.7,5.51-6.08,5.51C89.28,93.5,87,91.59,86.08,88Z"/><path class="cls-5" d="M102.38,88V75.57H100.3v-3.2h2.08V66.14h4.93v6.23h3.14v3.2h-3.14v12c0,1.4.62,2,1.88,2a7.51,7.51,0,0,0,1.51-.14v3.77a18,18,0,0,1-3.13.26C103.57,93.43,102.38,91.38,102.38,88Z"/><path class="cls-5" d="M113,88.57c0-5.19,4.21-6.77,8.39-8.32v-1.8c0-1.76-.26-2.77-1.66-2.77s-1.69.94-1.73,2.3L118,79.24l-4.64-.18c.14-4.78,2.3-7,6.84-7,4.17,0,6,2.45,6,6.41v9.61a36.82,36.82,0,0,0,.36,5.11h-4.39c-.18-.93-.44-2.41-.51-3a4.28,4.28,0,0,1-4.1,3.31A4.71,4.71,0,0,1,113,88.57Zm8.39-.07V82.66c-2.16,1.26-3.78,2.45-3.78,4.72,0,1.55.61,2.48,1.69,2.48A2.85,2.85,0,0,0,121.43,88.5Z"/><path class="cls-5" d="M130.43,88V75.57h-2.09v-3.2h2.09V66.14h4.93v6.23h3.13v3.2h-3.13v12c0,1.4.61,2,1.87,2a7.51,7.51,0,0,0,1.51-.14v3.77a18,18,0,0,1-3.13.26C131.62,93.43,130.43,91.38,130.43,88Z"/><path class="cls-5" d="M141.15,85.87V79.68c0-5,2.09-7.64,6.7-7.64,4.9,0,6.44,2.88,6.44,8v3H146v4.1c0,2,.62,2.88,1.88,2.88s1.76-.9,1.76-2.7V85.51h4.61V87c0,4.21-2.13,6.55-6.41,6.55C143.17,93.5,141.15,90.8,141.15,85.87Zm8.5-5.29v-2c0-2.09-.43-3-1.8-3S146,76.4,146,79.14v1.44Z"/><path class="cls-5" d="M165.39,88.55l1.47-.44c.24,2.2.81,3.92,3,3.92a2.24,2.24,0,0,0,2.51-2.57c0-1.59-.84-2.58-2.18-3.85l-3.14-3A4.62,4.62,0,0,1,165.41,79c0-2.46,1.6-3.82,4-3.82,2.58,0,4,1.23,4.27,4.51l-1.43.37c-.17-2.24-.79-3.56-2.84-3.56a2.21,2.21,0,0,0-2.5,2.35,3.34,3.34,0,0,0,1.25,2.6l3.15,3a7,7,0,0,1,2.59,4.93,3.75,3.75,0,0,1-4.09,4C166.93,93.39,165.58,91.46,165.39,88.55Z"/><path class="cls-5" d="M175.48,90.53c0-2.55,1.39-3.41,5.13-5.08v-.9c0-2.31-.37-3.08-1.58-3.08-1,0-1.79.51-1.79,2.18v.44l-1.58,0c0-2.58,1-3.81,3.45-3.81,2.27,0,3.11,1.34,3.11,4.2v6.18c0,.66,0,2.07.11,2.53H180.9c-.07-.54-.2-1.36-.25-1.76a2.75,2.75,0,0,1-2.61,2A2.61,2.61,0,0,1,175.48,90.53Zm5.13,0v-4c-2.51,1.32-3.52,1.87-3.52,3.61,0,1.34.68,1.87,1.45,1.87A2.59,2.59,0,0,0,180.61,90.49Z"/><path class="cls-5" d="M184.79,75.35h1.61V93.17h-1.61Z"/><path class="cls-5" d="M188.77,88.4V85.19c0-3.77,1.1-4.93,3.46-4.93,2.66,0,3.3,1.67,3.3,5.26v1.14h-5.15v2.22c0,2.49.53,3.28,1.82,3.28,1,0,1.74-.44,1.74-2.44v-.88h1.56v.7c0,2.31-.83,3.83-3.3,3.83S188.77,92.1,188.77,88.4Zm5.17-2.66V84.68c0-2-.17-3.21-1.74-3.21-1.32,0-1.82.7-1.82,3.41v.86Z"/><path class="cls-5" d="M197.15,89.76l1.34-.41c.18,2,.93,2.81,2.23,2.81a1.61,1.61,0,0,0,1.73-1.8,3.42,3.42,0,0,0-1.53-2.55l-1.74-1.5a3.87,3.87,0,0,1-1.74-3.19,2.73,2.73,0,0,1,3-2.86c1.94,0,2.91,1.39,3,3.34l-1.14.38c-.09-1.72-.71-2.51-1.81-2.51A1.47,1.47,0,0,0,198.91,83a2.45,2.45,0,0,0,1,2l1.8,1.61c1,.92,2.11,1.93,2.11,3.69,0,2-1.29,3.06-3.25,3.06S197.33,92,197.15,89.76Z"/></svg>