<svg id="Layer_1" data-name="Layer 1" xmlns="http://www.w3.org/2000/svg" xmlns:xlink="http://www.w3.org/1999/xlink" width="291.12" height="113.51" viewBox="0 0 291.12 113.51"><defs><style>.cls-1{fill:none;}.cls-2{clip-path:url(#clip-path);}.cls-3{fill:#dde4ee;}.cls-4{fill:#010101;}</style><clipPath id="clip-path"><rect class="cls-1" width="291.12" height="113.51"/></clipPath></defs><g class="cls-2"><path class="cls-3" d="M35.88,113.83a11,11,0,0,1-2,.12c-21,0-28.08-12.12-28.08-31.8V45.68C5.76,26,13,14.36,33.84,14.36s28,11.64,28,31.32V82.15c0,13.92-3.72,24.24-13.44,28.8,2.88,3.48,6.6,7.44,9.72,9.36l-3.36,11.76C48.84,129.31,40.68,121,35.88,113.83Zm8-27.48V41.6c0-8.16-1.44-14.28-10.08-14.28S23.76,33.44,23.76,41.6V86.35c0,8,1.32,14.52,10.08,14.52S43.92,94.39,43.92,86.35Z"/><path class="cls-3" d="M73.44,91.39c0-12.36,6.12-21.12,13.92-28.79C82.68,54,77.28,45.2,77.28,35.72c0-12.36,7.68-21.36,21-21.36,12.12,0,20.88,7.44,20.88,19.32,0,13.08-10,22.92-17.28,30.36l13,22.19c2.28-4.2,3.72-13.32,4.08-19.92h13a56,56,0,0,1-8.28,29.4,12.9,12.9,0,0,0,8.64,4.44v13.68a16.33,16.33,0,0,1-2.52.24c-6.48-.12-11.52-4.92-15.12-9C110.4,110.35,104,114,95.52,114,82.08,114,73.44,105,73.44,91.39Zm33.24,4.44L93.36,73.52a30.91,30.91,0,0,0-5.64,17.39c0,6,2.4,11,8.16,11C100.56,102,104.16,99.31,106.68,95.83Zm-1.56-62.39c0-4.44-2.88-7-6.72-7-4.44,0-6.72,4.2-6.72,9.24,0,7,2.76,14,5.16,19.68C100.92,50.12,105.12,40.88,105.12,33.44Z"/><path class="cls-3" d="M160,15.44h19l19.44,97.19H181.92l-3.84-22.44H161.16l-4,22.44H140.52Zm16.2,63.47-6.6-40.79L163,78.91Z"/></g><path class="cls-4" d="M2.19,64h8.57c5.22,0,7.45,3,7.45,8.28,0,5.72-3.09,7.92-7.81,7.92H7.49v13H2.19ZM9.54,76.47c2.91,0,3.67-1.11,3.67-4.21s-.4-4.5-3.67-4.5h-2v8.71Z"/><path class="cls-4" d="M20.7,88.93V72.37h4.86V88c0,1.22.32,2,1.44,2a4.25,4.25,0,0,0,2.19-1V72.37h4.9v20.8h-4.9v-2a7.29,7.29,0,0,1-5,2.31C21.67,93.5,20.7,91.34,20.7,88.93Z"/><path class="cls-4" d="M38,72.37h4.89v3.2c1.41-2.44,2.77-3.45,4.54-3.45a2.84,2.84,0,0,1,.75.07v5.08a5.6,5.6,0,0,0-2-.44,3.8,3.8,0,0,0-3.28,2V93.17H38Z"/><path class="cls-4" d="M50.18,85.9V79.64c0-4.79,1.87-7.59,6.66-7.59,4.46,0,6.37,2.16,6.37,6.4v1.73H58.6V78.34c0-2.15-.46-2.84-1.72-2.84-1.41,0-1.8.86-1.8,3.53v7.63c0,2.66.54,3.38,1.8,3.38s1.72-1,1.72-2.8V85h4.61v2c0,4.21-1.94,6.52-6.37,6.52C52,93.5,50.18,90.58,50.18,85.9Z"/><path class="cls-4" d="M66.53,64h4.89V74.39a7.15,7.15,0,0,1,5.15-2.34c2.48,0,3.45,2.16,3.45,4.57V93.17H75.16V77.59c0-1.26-.28-1.94-1.4-1.94a4.2,4.2,0,0,0-2.34,1V93.17H66.53Z"/><path class="cls-4" d="M83.19,88.57c0-5.19,4.22-6.77,8.39-8.32v-1.8c0-1.76-.25-2.77-1.66-2.77s-1.69.94-1.72,2.3l-.07,1.26-4.65-.18c.15-4.78,2.31-7,6.84-7,4.18,0,6,2.44,6,6.4v9.61a38.48,38.48,0,0,0,.36,5.11H92.3c-.18-.93-.43-2.41-.5-3a4.29,4.29,0,0,1-4.11,3.31A4.71,4.71,0,0,1,83.19,88.57Zm8.39-.07V82.66c-2.16,1.26-3.78,2.45-3.78,4.72,0,1.55.61,2.48,1.69,2.48A2.83,2.83,0,0,0,91.58,88.5Z"/><path class="cls-4" d="M98.85,88l3.64-1.4c.54,2.27,1.51,3.49,3,3.49a1.53,1.53,0,0,0,1.73-1.62c0-1.15-.61-1.91-2.3-3.31L102.45,83c-1.87-1.55-3.09-3-3.09-5.51,0-3.35,2.55-5.43,5.9-5.43s5.4,2.19,6,5.39l-3.2,1.37c-.36-1.73-1.19-3.27-2.66-3.27a1.57,1.57,0,0,0-1.66,1.65c0,.79.72,1.66,2,2.74l2.51,2.3c1.66,1.44,3.39,3.1,3.39,5.76,0,3.64-2.7,5.51-6.09,5.51S99.79,91.59,98.85,88Z"/><path class="cls-4" d="M114.48,65h4.89v4.07h-4.89Zm0,7.38h4.89v20.8h-4.89Z"/><path class="cls-4" d="M123.26,72.37h4.9v2a7.38,7.38,0,0,1,5-2.37c2.51,0,3.52,2.16,3.52,4.57V93.17h-4.89V77.59c0-1.26-.29-1.94-1.41-1.94a4.32,4.32,0,0,0-2.26,1V93.17h-4.9Z"/><path class="cls-4" d="M139.24,95.91c0-1.94,1.41-3.27,3.14-4.07-1.59-.46-2.45-1.44-2.45-2.77,0-1.62.86-2.66,2.3-3.92C140.76,84,140,82.23,140,79.35c0-4.75,2.34-7.3,6.7-7.3A5.33,5.33,0,0,1,151.3,74,7.22,7.22,0,0,1,154,71.83l.68-.29,1.15,2.63a18.94,18.94,0,0,0-3.38,1.4,10.55,10.55,0,0,1,.76,3.85c0,4.4-2,7.2-6.48,7.2a9.64,9.64,0,0,1-2.81-.43,2.82,2.82,0,0,0-.61,1.44c0,.54.5.87,1.87,1l4.35.43c3.46.36,5,2.16,5,5.26,0,3.74-2.44,5.68-8.1,5.68C142.2,100,139.24,98.75,139.24,95.91ZM151,94.51c0-1.15-.65-1.62-3-1.87l-3.57-.33a3.14,3.14,0,0,0-1.4,2.27c0,1.19,1,1.76,3.92,1.76C149.65,96.34,151,95.87,151,94.51Zm-2.31-15.16c0-2.8-.29-4.21-2-4.21s-2.09,1.33-2.09,4.21c0,2.67.36,4.18,2.09,4.18S148.71,82.2,148.71,79.35Z"/><path class="cls-4" d="M161.39,75.35h4c3.33,0,4.43,1.72,4.43,4.54,0,2-.53,3.76-2.47,4.17l2.73,9.11h-1.63l-2.62-8.75h-2.79v8.75h-1.67Zm3.94,7.84c2.2,0,2.88-1.1,2.88-3.3s-.57-3.28-2.84-3.28h-2.31v6.58Z"/><path class="cls-4" d="M172.06,88.4V85.19c0-3.76,1.1-4.93,3.45-4.93,2.66,0,3.3,1.67,3.3,5.26v1.14h-5.15v2.22c0,2.49.53,3.28,1.83,3.28,1,0,1.74-.44,1.74-2.44v-.88h1.56v.7c0,2.32-.84,3.83-3.3,3.83S172.06,92.1,172.06,88.4Zm5.17-2.66V84.68c0-2-.18-3.21-1.74-3.21-1.32,0-1.83.7-1.83,3.41v.86Z"/><path class="cls-4" d="M180.64,90.53c0-2.55,1.38-3.41,5.12-5.08v-.9c0-2.31-.37-3.08-1.58-3.08-1,0-1.78.51-1.78,2.18v.44l-1.59,0c0-2.57,1-3.8,3.46-3.8,2.26,0,3.1,1.34,3.1,4.2v6.18c0,.66,0,2.07.11,2.53h-1.43c-.07-.55-.2-1.36-.24-1.76a2.78,2.78,0,0,1-2.62,2A2.61,2.61,0,0,1,180.64,90.53Zm5.12,0v-4c-2.51,1.32-3.52,1.87-3.52,3.61,0,1.34.68,1.87,1.46,1.87A2.59,2.59,0,0,0,185.76,90.49Z"/><path class="cls-4" d="M189.94,75.35h1.61V93.17h-1.61Z"/><path class="cls-4" d="M199,75.35h6.45v1.3h-4.75v6.69h3.87v1.23h-3.87v7.35h4.79v1.25H199Z"/><path class="cls-4" d="M206.6,89.76l1.34-.41c.17,2,.92,2.81,2.22,2.81a1.62,1.62,0,0,0,1.74-1.8,3.41,3.41,0,0,0-1.54-2.55l-1.74-1.5a3.9,3.9,0,0,1-1.74-3.19,2.73,2.73,0,0,1,3-2.86c1.94,0,2.9,1.39,3,3.34l-1.14.38c-.09-1.72-.71-2.51-1.81-2.51A1.46,1.46,0,0,0,208.36,83a2.44,2.44,0,0,0,1,2l1.81,1.61c1,.92,2.11,1.93,2.11,3.69,0,2-1.3,3.06-3.26,3.06S206.77,92,206.6,89.76Z"/><path class="cls-4" d="M215.86,90.53v-9H214.3V80.46h1.56V76.52h1.6v3.94h2.12v1.05h-2.12v8.87c0,1.23.18,1.69,1.13,1.69a4.5,4.5,0,0,0,.92-.11V93.2a8,8,0,0,1-1.36.13C216.28,93.33,215.86,92.16,215.86,90.53Z"/><path class="cls-4" d="M220.94,90.53c0-2.55,1.39-3.41,5.13-5.08v-.9c0-2.31-.38-3.08-1.59-3.08-1,0-1.78.51-1.78,2.18v.44l-1.58,0c0-2.57,1-3.8,3.45-3.8,2.27,0,3.1,1.34,3.1,4.2v6.18c0,.66.05,2.07.11,2.53h-1.43c-.06-.55-.2-1.36-.24-1.76a2.77,2.77,0,0,1-2.62,2A2.61,2.61,0,0,1,220.94,90.53Zm5.13,0v-4c-2.51,1.32-3.52,1.87-3.52,3.61,0,1.34.68,1.87,1.45,1.87A2.61,2.61,0,0,0,226.07,90.49Z"/><path class="cls-4" d="M230.66,90.53v-9H229.1V80.46h1.56V76.52h1.61v3.94h2.11v1.05h-2.11v8.87c0,1.23.18,1.69,1.12,1.69a4.52,4.52,0,0,0,.93-.11V93.2a8.13,8.13,0,0,1-1.37.13C231.08,93.33,230.66,92.16,230.66,90.53Z"/><path class="cls-4" d="M235.86,88.4V85.19c0-3.76,1.1-4.93,3.45-4.93,2.66,0,3.3,1.67,3.3,5.26v1.14h-5.15v2.22c0,2.49.53,3.28,1.83,3.28,1,0,1.74-.44,1.74-2.44v-.88h1.56v.7c0,2.32-.84,3.83-3.3,3.83S235.86,92.1,235.86,88.4ZM241,85.74V84.68c0-2-.18-3.21-1.74-3.21-1.32,0-1.83.7-1.83,3.41v.86Z"/><path class="cls-4" d="M254.42,93.37a3.44,3.44,0,0,1-.57,0c-3.52,0-4.62-2.25-4.62-5.48v-7.4c0-3.23,1.17-5.34,4.62-5.34s4.65,2.13,4.65,5.34v7.42c0,2.55-.71,4.51-2.8,5.17a12.63,12.63,0,0,0,2.05,2.16l-.22,1.4A11.22,11.22,0,0,1,254.42,93.37Zm2.38-5.08V80.22c0-2.27-.57-3.7-3-3.7s-2.92,1.43-2.92,3.7v8.07c0,2.24.59,3.76,2.92,3.76S256.8,90.53,256.8,88.29Z"/><path class="cls-4" d="M261,89.35c0-1.85.88-3.41,2.86-5.31-1.26-2.11-2.09-3.43-2.09-5.1a3.48,3.48,0,0,1,3.78-3.76c2.18,0,3.63,1.18,3.63,3.16s-1.65,4-3.72,5.81l3.44,5.42a9.2,9.2,0,0,0,1.38-4.29h1.57a9.67,9.67,0,0,1-2,5.32,2.4,2.4,0,0,0,2,1.14v1.59l-.42,0a4,4,0,0,1-2.57-1.65,5,5,0,0,1-3.79,1.74A3.84,3.84,0,0,1,261,89.35Zm7,1.25-3.47-5.41a6,6,0,0,0-1.87,4.16,2.41,2.41,0,0,0,2.48,2.7A3.73,3.73,0,0,0,267.93,90.6Zm-.37-12.28c0-1.16-.84-1.8-2.09-1.8a2.12,2.12,0,0,0-2.16,2.4,8.93,8.93,0,0,0,1.54,4.31C266.26,81.82,267.56,80.06,267.56,78.32Z"/><path class="cls-4" d="M277.35,75.35h1.76l3.78,17.82h-1.65l-.88-4.77h-4.24l-.91,4.77h-1.62Zm2.79,11.84-1.89-9.62-1.89,9.62Z"/></svg>